<svg xmlns="http://www.w3.org/2000/svg" width="26" height="21" viewBox="0 0 26 21" fill="none"><path d="M13.7308 11.3134C13.7135 11.3273 13.6956 11.3401 13.6771 11.3518L13.663 11.3605C13.6434 11.3724 13.6234 11.3831 13.6029 11.3925C13.5815 11.402 13.5597 11.4102 13.5375 11.4169H13.5321C13.51 11.4232 13.4877 11.428 13.4652 11.4314C13.4623 11.4314 13.4593 11.4465 13.4564 11.4471C13.4332 11.4562 13.4095 11.4637 13.3856 11.4697C13.3632 11.4647 13.341 11.4583 13.3192 11.4506C13.3163 11.4506 13.3133 11.4424 13.3109 11.4424C13.2887 11.4379 13.2666 11.4319 13.245 11.4244C13.245 11.4244 13.2411 11.4215 13.2386 11.4209C13.2164 11.4141 13.1946 11.4057 13.1732 11.3959C13.153 11.3867 13.1333 11.3763 13.1141 11.3646L13.1 11.3558C13.0829 11.3448 13.0653 11.3332 13.0511 11.3198H13.0482L13.0443 11.3169L1.19433 1.9214C0.991851 2.35027 0.885576 2.83405 0.885742 3.32594V18.1025C0.887533 18.8692 1.14389 19.6039 1.59887 20.1467C2.05395 20.6895 2.67072 20.9961 3.31493 21H23.4566C24.1008 20.9961 24.7175 20.6895 25.1726 20.1467C25.6276 19.6039 25.884 18.8692 25.8857 18.1025V3.32594C25.8858 2.76661 25.7485 2.2194 25.4907 1.75171L13.7349 11.3104L13.7308 11.3134Z" fill="#252A6B"></path><path d="M24.5562 0.748333C24.2159 0.539132 23.8386 0.429604 23.4556 0.428711H3.31396C2.86857 0.429389 2.43205 0.576799 2.05273 0.854675L13.3808 9.83513L24.5562 0.748333Z" fill="#252A6B"></path></svg>