<svg xmlns="http://www.w3.org/2000/svg" width="302" height="64" viewBox="0 0 302 64" fill="none"><g clip-path="url(#clip0_3097_926)"><path fill-rule="evenodd" clip-rule="evenodd" d="M73.2735 29.9089C73.2735 22.2825 78.8663 16.85 86.0234 16.85C88.6708 16.85 90.9451 17.5203 92.7344 18.599L93.2189 22.8026C91.1311 21.2026 88.8201 20.1612 86.1732 20.1612C80.8416 20.1612 77.0391 24.2164 77.0391 29.8723C77.0391 35.5642 80.7302 39.6195 86.3219 39.6195C89.0434 39.6195 91.7649 38.6525 93.8526 36.9775L93.1443 41.07C91.2431 42.2982 88.932 42.8934 86.2472 42.8934C78.4926 42.8934 73.2735 37.2015 73.2735 29.9089ZM110.481 34.2249C110.481 30.727 108.132 28.6441 105.336 28.6441C102.54 28.6441 100.191 30.727 100.191 34.2249C100.191 37.6471 102.54 39.8057 105.336 39.8057C108.132 39.8057 110.481 37.6471 110.481 34.2249ZM96.6866 34.2249C96.6866 29.2393 100.415 25.5558 105.336 25.5558C110.294 25.5558 113.985 29.2393 113.985 34.2249C113.985 39.1732 110.294 42.8934 105.336 42.8934C100.415 42.8934 96.6866 39.1732 96.6866 34.2249ZM133.111 31.4717V42.5216H129.682V32.1414C129.682 29.8723 128.228 28.6441 126.177 28.6441C124.388 28.6441 122.709 29.7228 121.703 31.5089V42.5216H118.273V16.1804H121.703V28.16C123.12 26.4861 124.947 25.5558 127.109 25.5558C130.427 25.5558 133.111 27.7882 133.111 31.4717ZM151.043 34.2249C151.043 30.727 148.695 28.6441 145.899 28.6441C143.103 28.6441 140.755 30.727 140.755 34.2249C140.755 37.6471 143.103 39.8057 145.899 39.8057C148.695 39.8057 151.043 37.6471 151.043 34.2249ZM137.25 34.2249C137.25 29.2393 140.978 25.5558 145.899 25.5558C150.858 25.5558 154.548 29.2393 154.548 34.2249C154.548 39.1732 150.858 42.8934 145.899 42.8934C140.978 42.8934 137.25 39.1732 137.25 34.2249ZM168.79 29.0903C166.255 28.5696 163.795 29.6855 162.266 32.0669V42.5216H158.836V25.8909H162.266V28.8675C163.72 26.5606 165.883 25.4819 168.306 25.7425L168.79 29.0903ZM183.107 38.1684L182.51 41.7775C181.391 42.4844 179.938 42.8561 178.409 42.8561C174.718 42.8561 172.928 40.9222 172.928 37.8339V28.9047H170.245V27.751L175.426 23.026H176.396V25.8909H183.069L182.473 28.9047H176.396V37.3126C176.396 38.8009 177.253 39.7312 178.745 39.7312C180.348 39.7312 181.802 39.1354 183.107 38.1684ZM194.665 29.9089C194.665 22.2825 200.257 16.85 207.415 16.85C210.061 16.85 212.336 17.5203 214.125 18.599L214.609 22.8026C212.522 21.2026 210.21 20.1612 207.564 20.1612C202.233 20.1612 198.43 24.2164 198.43 29.8723C198.43 35.5642 202.121 39.6195 207.713 39.6195C210.435 39.6195 213.156 38.6525 215.243 36.9775L214.535 41.07C212.634 42.2982 210.323 42.8934 207.638 42.8934C199.884 42.8934 194.665 37.2015 194.665 29.9089ZM223.781 39.9919C225.124 39.9919 226.913 39.2471 228.293 38.0201V34.969C226.727 35.1919 225.087 35.4525 223.931 35.7498C222.067 36.2339 221.322 36.9402 221.322 38.0201C221.322 39.1732 222.291 39.9919 223.781 39.9919ZM231.611 30.6897V42.1126L228.441 42.8934V40.4375C226.615 42.1126 224.751 42.8934 222.887 42.8934C219.941 42.8934 217.929 40.8844 217.929 38.3174C217.929 36.0105 219.271 34.56 221.88 33.7041C223.781 33.0717 226.242 32.8111 228.293 32.5876V31.2111C228.293 29.4249 227.137 28.6441 225.161 28.6441C223.371 28.6441 221.172 29.351 219.345 30.5786L220.091 26.9324C221.396 26.1516 223.595 25.5558 225.497 25.5558C229.262 25.5558 231.611 27.5276 231.611 30.6897ZM249.58 34.2621C249.58 30.9137 247.157 28.6813 244.51 28.6813C242.758 28.6813 241.155 29.6855 240.223 31.0993V37.4988C241.043 38.8009 242.572 39.7678 244.51 39.7678C247.157 39.7678 249.58 37.5727 249.58 34.2621ZM253.122 34.2621C253.122 38.912 249.804 42.8934 245.107 42.8934C242.758 42.8934 241.155 42.0003 240.223 41.07V51.7108H236.794V25.8909H240.186V28.0861C241.566 26.4116 243.131 25.5558 245.181 25.5558C249.767 25.5558 253.122 29.4249 253.122 34.2621ZM257.411 25.8909H260.841V42.5216H257.411V25.8909ZM257.038 19.7894C257.037 19.5157 257.091 19.2446 257.195 18.9917C257.3 18.7387 257.454 18.5089 257.648 18.3153C257.842 18.1218 258.072 17.9683 258.325 17.8637C258.579 17.7591 258.85 17.7055 259.125 17.7059C260.318 17.7059 261.25 18.6362 261.25 19.7894C261.25 20.9804 260.318 21.8723 259.125 21.8723C257.97 21.8723 257.038 20.9804 257.038 19.7894ZM277.319 38.1684L276.722 41.7775C275.604 42.4844 274.15 42.8561 272.621 42.8561C268.93 42.8561 267.142 40.9222 267.142 37.8339V28.9047H264.457V27.751L269.639 23.026H270.608V25.8909H277.281L276.686 28.9047H270.608V37.3126C270.608 38.8009 271.465 39.7312 272.957 39.7312C274.56 39.7312 276.014 39.1354 277.319 38.1684ZM285.558 39.9919C286.9 39.9919 288.69 39.2471 290.069 38.0201V34.969C288.503 35.1919 286.863 35.4525 285.707 35.7498C283.844 36.2339 283.098 36.9402 283.098 38.0201C283.098 39.1732 284.067 39.9919 285.558 39.9919ZM293.387 30.6897V42.1126L290.219 42.8934V40.4375C288.392 42.1126 286.527 42.8934 284.664 42.8934C281.718 42.8934 279.705 40.8844 279.705 38.3174C279.705 36.0105 281.047 34.56 283.657 33.7041C285.558 33.0717 288.019 32.8111 290.069 32.5876V31.2111C290.069 29.4249 288.914 28.6441 286.937 28.6441C285.148 28.6441 282.948 29.351 281.122 30.5786L281.867 26.9324C283.172 26.1516 285.372 25.5558 287.273 25.5558C291.038 25.5558 293.387 27.5276 293.387 30.6897ZM298.57 16.1804H302V42.5216H298.57V16.1804ZM63.9132 63.7818V15.9453H31.9566V31.8906H47.9352V47.8371H31.9566V63.7818H63.9132ZM0 0V47.8371H31.9566V31.8906H15.9786V15.9453H31.9566V0H0Z" fill="white"></path></g><defs><clipPath id="clip0_3097_926"><rect width="302" height="64" fill="white"></rect></clipPath></defs></svg>