<svg xmlns="http://www.w3.org/2000/svg" width="26" height="26" viewBox="0 0 26 26" fill="none"><path d="M19.0926 11.9832H14.0169V6.90738C14.0169 6.79933 13.974 6.6957 13.8976 6.61934C13.8212 6.54288 13.7176 6.5 13.6096 6.5H12.3904C12.2824 6.5 12.1789 6.54288 12.1024 6.61934C12.026 6.6957 11.9832 6.79933 11.9832 6.90738V11.9832H6.90738C6.79933 11.9832 6.6957 12.026 6.61934 12.1024C6.54288 12.1789 6.5 12.2824 6.5 12.3904V13.6096C6.5 13.7176 6.54288 13.8212 6.61934 13.8976C6.6957 13.974 6.79933 14.0169 6.90738 14.0169H11.9832V19.0926C11.9832 19.2007 12.026 19.3043 12.1024 19.3807C12.1789 19.4571 12.2824 19.5 12.3904 19.5H13.6096C13.7176 19.5 13.8212 19.4571 13.8976 19.3807C13.974 19.3043 14.0169 19.2007 14.0169 19.0926V14.0169H19.0926C19.2007 14.0169 19.3043 13.974 19.3807 13.8976C19.4571 13.8212 19.5 13.7176 19.5 13.6096V12.3904C19.5 12.2824 19.4571 12.1789 19.3807 12.1024C19.3043 12.026 19.2007 11.9832 19.0926 11.9832Z" fill="#252A6B"></path><path d="M13 0C9.55211 0 6.24554 1.36969 3.80756 3.80756C1.36957 6.24554 0 9.55211 0 13C0 16.4479 1.36969 19.7545 3.80756 22.1924C6.24554 24.6304 9.55211 26 13 26C16.4479 26 19.7545 24.6303 22.1924 22.1924C24.6304 19.7545 26 16.4479 26 13C26 10.718 25.3993 8.47624 24.2583 6.5C23.1173 4.52376 21.4763 2.88263 19.5 1.74176C17.5238 0.600769 15.282 4.81217e-05 13 4.81217e-05L13 0ZM21.0427 21.0427C19.0487 23.0311 16.3858 24.206 13.5727 24.3384C10.7599 24.4707 7.99837 23.5511 5.82641 21.7586C3.65447 19.9661 2.22781 17.4294 1.82409 14.6423C1.42047 11.8553 2.06878 9.01791 3.64291 6.68296C5.21704 4.34797 7.60406 2.68257 10.3389 2.01139C13.0737 1.34023 15.9607 1.71121 18.4369 3.05221C20.9132 4.39321 22.8015 6.60819 23.7339 9.26524C24.6664 11.9225 24.5762 14.8317 23.4809 17.4259C22.9099 18.778 22.0818 20.0064 21.0426 21.0428L21.0427 21.0427Z" fill="#252A6B"></path></svg>