<svg xmlns="http://www.w3.org/2000/svg" width="26" height="26" viewBox="0 0 26 26" fill="none"><path d="M13 0C9.55211 0 6.24554 1.36969 3.80756 3.80756C1.36957 6.24554 0 9.55211 0 13C0 16.4479 1.36969 19.7545 3.80756 22.1924C6.24554 24.6304 9.55211 26 13 26C16.4479 26 19.7545 24.6303 22.1924 22.1924C24.6304 19.7545 26 16.4479 26 13C26 10.718 25.3993 8.47624 24.2583 6.5C23.1173 4.52376 21.4763 2.88263 19.5 1.74176C17.5238 0.600769 15.282 4.81217e-05 13 4.81217e-05L13 0ZM21.0427 21.0427C19.0487 23.0311 16.3858 24.206 13.5727 24.3384C10.7599 24.4707 7.99837 23.5511 5.82641 21.7586C3.65447 19.9661 2.22781 17.4294 1.82409 14.6423C1.42047 11.8553 2.06878 9.01791 3.64291 6.68296C5.21704 4.34797 7.60406 2.68257 10.3389 2.01139C13.0737 1.34023 15.9607 1.71121 18.4369 3.05221C20.9132 4.39321 22.8015 6.60819 23.7339 9.26524C24.6664 11.9225 24.5762 14.8317 23.4809 17.4259C22.9099 18.778 22.0818 20.0064 21.0426 21.0428L21.0427 21.0427Z" fill="#252A6B"></path><path fill-rule="evenodd" clip-rule="evenodd" d="M7 12.5C7 12.2239 7.22386 12 7.5 12H19.5C19.7761 12 20 12.2239 20 12.5V13.7C20 13.9761 19.7761 14.2 19.5 14.2H7.5C7.22386 14.2 7 13.9761 7 13.7V12.5Z" fill="#252A6B"></path></svg>