<svg xmlns="http://www.w3.org/2000/svg" width="24" height="11" viewBox="0 0 24 11" fill="none"><path d="M23.4236 6.05786L1.95741 6.05786L5.59091 9.54737C5.81672 9.76434 5.81797 10.1169 5.59404 10.3354C5.48151 10.4453 5.33323 10.5 5.1853 10.5C5.03852 10.5 4.89186 10.4457 4.77932 10.3381L0.170216 5.91169C-0.0555897 5.69473 -0.056839 5.34218 0.167091 5.12366L4.74258 0.664782C4.96651 0.446005 5.33136 0.445157 5.55727 0.661758C5.78308 0.878359 5.7847 1.23127 5.5604 1.44979L1.97618 4.94271L23.4239 4.94271C23.7423 4.94271 24 5.19233 24 5.49999C23.9999 5.80766 23.7422 6.05765 23.4237 6.05765L23.4236 6.05786Z" fill="white"></path></svg>