<?xml version="1.0" standalone="no"?>
<!DOCTYPE svg PUBLIC "-//W3C//DTD SVG 1.1//EN" "http://www.w3.org/Graphics/SVG/1.1/DTD/svg11.dtd" >
<svg xmlns="http://www.w3.org/2000/svg" xmlns:xlink="http://www.w3.org/1999/xlink" version="1.1">
<metadata>
Created by FontForge 20201107 at Fri Apr 19 15:05:43 2024
 By 
Copyright (c) 2016 by Newlyn Works Limited. All rights reserved.
</metadata>
<defs>
<font id="NewAtten-RegularItalic" horiz-adv-x="1081" >
  <font-face 
    font-family="New Atten Italic"
    font-weight="400"
    font-style="italic"
    font-stretch="normal"
    units-per-em="2048"
    panose-1="0 0 0 0 0 0 0 0 0 0"
    ascent="1532"
    descent="-516"
    x-height="909"
    cap-height="1393"
    bbox="-369 -569 2210 1894"
    underline-thickness="102"
    underline-position="-204"
    slope="-8"
    unicode-range="U+000D-FB04"
  />
<missing-glyph horiz-adv-x="1482" 
d="M68 -508l268 1901h1077l-268 -1901h-1077zM262 -184l905 1439h-702zM311 -371h705l203 1442z" />
    <glyph glyph-name="f_f" unicode="ff" horiz-adv-x="1191" 
d="M874 1165q19 135 101.5 219t212.5 84q101 0 153 -34v-148q-69 53 -155 53q-76 0 -119.5 -48.5t-54.5 -129.5l-35 -252h246l-29 -127h-236l-110 -782h-137zM119 782l33 127h112l37 256q19 135 102 219t211 84q102 0 154 -34v-148q-66 53 -156 53q-76 0 -119.5 -48.5
t-54.5 -129.5l-35 -252h252l-32 -127h-238l-111 -782h-137l111 782h-129z" />
    <glyph glyph-name="fi" unicode="fi" horiz-adv-x="1069" 
d="M975 909l-127 -909h-137l127 909h137zM117 782l33 127h114l29 203q23 163 129 259.5t256 96.5q146 0 238 -79.5t92 -214.5q0 -6 -4 -56h-136v37q0 85 -55 134.5t-143 49.5q-95 0 -160 -62t-80 -167l-29 -201h252l-32 -127h-236l-111 -782h-137l109 782h-129z" />
    <glyph glyph-name="fl" unicode="fl" horiz-adv-x="1069" 
d="M678 1468q146 0 238 -79.5t92 -214.5q0 -22 -13 -121l-147 -1053h-137l149 1067q8 78 8 88q0 86 -55 135t-143 49q-95 0 -160 -62t-80 -167l-29 -201h252l-32 -127h-236l-111 -782h-137l109 782h-129l33 127h114l29 203q23 163 128 259.5t257 96.5z" />
    <glyph glyph-name="f_f_i" unicode="ffi" horiz-adv-x="1642" 
d="M1548 909l-127 -909h-137l127 909h137zM119 782l33 127h112l37 256q19 135 102 219t211 84q102 0 154 -34v-148q-66 53 -156 53q-76 0 -119.5 -48.5t-54.5 -129.5l-35 -252h252l-32 -127h-238l-111 -782h-137l111 782h-129zM711 0l155 1112q23 163 128 259.5t257 96.5
q144 0 237 -79.5t93 -214.5q0 -6 -4 -56h-137q2 14 2 37q0 85 -56 134.5t-145 49.5q-95 0 -160 -62t-80 -167l-28 -201h252l-33 -127h-236l-108 -782h-137z" />
    <glyph glyph-name="f_f_l" unicode="ffl" horiz-adv-x="1644" 
d="M1253 1468q144 0 237 -79.5t93 -214.5q0 -30 -12 -121l-148 -1053h-137l150 1067q8 78 8 88q0 86 -55.5 135t-145.5 49q-95 0 -159.5 -62t-79.5 -167l-29 -201h252l-33 -127h-236l-108 -782h-137l155 1112q23 163 128 259.5t257 96.5zM119 782l33 127h112l37 256
q19 135 102 219t211 84q102 0 154 -34v-148q-66 53 -156 53q-76 0 -119.5 -48.5t-54.5 -129.5l-35 -252h252l-32 -127h-238l-111 -782h-137l111 782h-129z" />
    <glyph glyph-name=".notdef" horiz-adv-x="1482" 
d="M68 -508l268 1901h1077l-268 -1901h-1077zM262 -184l905 1439h-702zM311 -371h705l203 1442z" />
    <glyph glyph-name=".null" horiz-adv-x="0" 
 />
    <glyph glyph-name="nonmarkingreturn" horiz-adv-x="682" 
 />
    <glyph glyph-name="CR" unicode="&#xd;" horiz-adv-x="1124" 
 />
    <glyph glyph-name="space" unicode=" " horiz-adv-x="497" 
 />
    <glyph glyph-name="exclam" unicode="!" horiz-adv-x="505" 
d="M211 406q3 165 24 394t41 380q18 123 43.5 175t63.5 52q55 0 55 -100q0 -94 -58.5 -410t-103.5 -491h-65zM98 90q0 47 38.5 83t86.5 36q39 0 69 -29.5t30 -68.5q0 -47 -37 -84t-82 -37q-43 0 -74 30.5t-31 69.5z" />
    <glyph glyph-name="quotedbl" unicode="&#x22;" horiz-adv-x="716" 
d="M217 879l39 514h152l-103 -514h-88zM528 879l39 514h152l-103 -514h-88z" />
    <glyph glyph-name="numbersign" unicode="#" horiz-adv-x="1355" 
d="M625 0l127 410h-277l-127 -410h-129l127 410h-280l38 125h281l98 321h-288l38 125h289l127 412h129l-127 -412h277l127 412h129l-127 -412h301l-39 -125h-301l-98 -321h309l-39 -125h-309l-127 -410h-129zM514 535h277l98 321h-277z" />
    <glyph glyph-name="dollar" unicode="$" horiz-adv-x="1017" 
d="M373 -139l28 207q-196 20 -325 125l-2 178q62 -63 153.5 -108t194.5 -58l63 457q-52 27 -87.5 48t-77.5 52t-67.5 62t-42.5 72t-17 87q0 148 108 239t277 103l30 207h125l-31 -209q168 -13 263 -84l-9 -172q-120 98 -274 111l-59 -424q55 -29 90.5 -49t80.5 -53.5t71 -65
t44.5 -75.5t18.5 -93q0 -157 -112 -249t-290 -103l-28 -205h-125zM344 1001q0 -56 42 -99.5t120 -86.5l51 363q-94 -11 -153.5 -57.5t-59.5 -119.5zM545 203q103 11 168 64t65 145q0 56 -45.5 100t-130.5 90z" />
    <glyph glyph-name="percent" unicode="%" horiz-adv-x="1372" 
d="M158 0l995 1393h133l-995 -1393h-133zM160 1006q0 108 31.5 197.5t100 147.5t163.5 58q97 0 159 -68t62 -190q0 -109 -32 -197.5t-100.5 -145t-164.5 -56.5q-97 0 -158 67t-61 187zM279 1006q0 -74 29 -113t79 -39q59 0 99.5 48.5t56.5 112.5t16 134q0 76 -31 116t-84 40
q-58 0 -97 -48.5t-53.5 -113t-14.5 -137.5zM764 236q0 108 31 197.5t99.5 147.5t164.5 58q97 0 159 -68t62 -190q0 -109 -32 -197.5t-100.5 -145t-164.5 -56.5q-97 0 -158 67t-61 187zM883 236q0 -74 28 -113t80 -39q59 0 99 48.5t55.5 112t15.5 134.5q0 77 -30 116.5
t-84 39.5q-44 0 -77 -27.5t-51.5 -73t-27 -95.5t-8.5 -103z" />
    <glyph glyph-name="ampersand" unicode="&#x26;" horiz-adv-x="1392" 
d="M1186 -41q-135 87 -271 207q-204 -186 -440 -186q-169 0 -274 94.5t-105 263.5q0 82 25.5 152t75.5 127t105.5 100t131.5 88q-57 139 -57 260q0 155 93 252.5t241 97.5q128 0 199 -73.5t71 -180.5q0 -54 -21 -104.5t-52.5 -88.5t-82 -76.5t-94 -65t-104.5 -58.5l-19 -10
q105 -202 310 -404q160 193 264 486h145q-127 -355 -315 -574q133 -116 303 -225zM242 352q0 -117 68 -181.5t179 -64.5q165 0 332 148q-222 225 -334 438q-54 -33 -93.5 -64t-76.5 -72.5t-56 -93t-19 -110.5zM516 1071q0 -90 39 -199l29 15q134 73 196 131.5t62 138.5
q0 63 -36 97t-101 34q-83 0 -136 -56t-53 -161z" />
    <glyph glyph-name="quotesingle" unicode="'" horiz-adv-x="403" 
d="M217 879l39 514h152l-103 -514h-88z" />
    <glyph glyph-name="parenleft" unicode="(" horiz-adv-x="604" 
d="M694 1395q-209 -223 -328.5 -492t-119.5 -565q0 -352 205 -647l-93 -64q-254 332 -254 748q0 325 128.5 587t383.5 502z" />
    <glyph glyph-name="parenright" unicode=")" horiz-adv-x="604" 
d="M-68 -309q210 223 329.5 492t119.5 565q0 352 -205 647l92 63q254 -332 254 -747q0 -325 -128.5 -587.5t-383.5 -502.5z" />
    <glyph glyph-name="asterisk" unicode="*" horiz-adv-x="733" 
d="M360 825l-114 62l135 168l-193 12l35 127l180 -55l-28 194l133 23l-21 -213l189 114l45 -114l-205 -68l139 -129l-98 -88l-102 162z" />
    <glyph glyph-name="plus" unicode="+" horiz-adv-x="1187" 
d="M526 23v395h-383v127h383v393h142v-393h385v-127h-385v-395h-142z" />
    <glyph glyph-name="comma" unicode="," horiz-adv-x="468" 
d="M-23 -303q150 140 189 278q-36 8 -59 32.5t-23 58.5q0 52 34.5 85t82.5 33q46 0 76 -32.5t30 -85.5q0 -90 -69 -205.5t-162 -204.5z" />
    <glyph glyph-name="hyphen" unicode="-" horiz-adv-x="808" 
d="M131 418l19 123h534l-18 -123h-535z" />
    <glyph glyph-name="period" unicode="." horiz-adv-x="468" 
d="M188 -10q-45 0 -76.5 31.5t-31.5 72.5q0 50 39.5 87.5t91.5 37.5q41 0 71.5 -31t30.5 -71q0 -50 -38.5 -88.5t-86.5 -38.5z" />
    <glyph glyph-name="slash" unicode="/" horiz-adv-x="823" 
d="M-61 -537l811 1950h133l-813 -1950h-131z" />
    <glyph glyph-name="zero" unicode="0" horiz-adv-x="1175" 
d="M530 -20q-178 0 -284.5 136.5t-106.5 403.5q0 103 16.5 208t48 205t81.5 186.5t112 152.5t144 103.5t174 37.5q176 0 282.5 -137t106.5 -404q0 -124 -23 -249.5t-71 -241t-114.5 -205t-161.5 -143t-204 -53.5zM289 510q0 -194 65 -293.5t181 -99.5q83 0 153.5 50
t118.5 130.5t82 183t49.5 205.5t15.5 199q0 193 -64.5 292t-182.5 99q-82 0 -152.5 -50t-118 -130.5t-82 -182.5t-50 -204.5t-15.5 -198.5z" />
    <glyph glyph-name="one" unicode="1" horiz-adv-x="694" 
d="M279 0l172 1227l-318 -113l33 152l366 129h91l-197 -1395h-147z" />
    <glyph glyph-name="two" unicode="2" horiz-adv-x="1024" 
d="M18 59q137 131 321.5 317t289.5 304q93 106 142.5 198.5t49.5 182.5q0 97 -59 152t-166 55q-106 0 -207 -55t-184 -144l53 213q171 131 358 131q168 0 265.5 -94.5t97.5 -237.5q0 -101 -44.5 -205t-151.5 -229.5t-181 -200t-234 -226.5q-55 -53 -83 -79h616l-51 -141
h-842z" />
    <glyph glyph-name="three" unicode="3" horiz-adv-x="1026" 
d="M410 -20q-97 0 -188.5 31.5t-155.5 84.5l6 185q145 -164 338 -164q139 0 237 83.5t98 215.5q0 239 -286 239h-137l16 131h127q144 0 245 85.5t101 211.5q0 90 -58.5 141.5t-164.5 51.5q-190 0 -371 -152l45 179q165 110 346 110q162 0 259.5 -85.5t97.5 -223.5
q0 -124 -78 -226t-199 -153q102 -37 157.5 -118t55.5 -195q0 -179 -143 -305.5t-348 -126.5z" />
    <glyph glyph-name="four" unicode="4" horiz-adv-x="1110" 
d="M614 0l56 403h-641l10 58l825 934h90l-118 -858h239l-49 -134h-211l-55 -403h-146zM266 537h422l80 563z" />
    <glyph glyph-name="five" unicode="5" horiz-adv-x="1024" 
d="M426 -20q-198 0 -348 135l8 207q55 -88 144 -146.5t200 -58.5q146 0 246 104.5t100 243.5q0 114 -71.5 183t-190.5 69q-124 0 -235 -76l-93 57l152 695h661l-45 -133h-508l-100 -457q100 47 205 47q161 0 270 -106t109 -275q0 -132 -66.5 -244.5t-182.5 -178.5t-255 -66z
" />
    <glyph glyph-name="six" unicode="6" horiz-adv-x="1062" 
d="M989 1321q-228 -76 -405.5 -235.5t-261.5 -360.5q131 106 294 106q156 0 259.5 -102.5t103.5 -267.5q0 -130 -64 -241t-173 -175.5t-236 -64.5q-80 0 -150.5 28t-125 81t-86 139t-31.5 194q0 203 101 405t275.5 358.5t384.5 231.5zM262 434q0 -154 66 -235.5t182 -81.5
q134 0 225.5 101.5t91.5 234.5q0 110 -66 175.5t-179 65.5q-87 0 -168.5 -40.5t-143.5 -114.5q-8 -47 -8 -105z" />
    <glyph glyph-name="seven" unicode="7" horiz-adv-x="933" 
d="M63 0l758 1255h-659l45 140h825l-8 -58l-797 -1337h-164z" />
    <glyph glyph-name="eight" unicode="8" horiz-adv-x="1118" 
d="M508 -18q-180 0 -294 98.5t-114 243.5q0 131 84 232t236 157q-191 109 -191 293q0 178 130 292.5t321 114.5q162 0 268.5 -93t106.5 -233q0 -130 -77.5 -223.5t-213.5 -150.5q231 -125 231 -320q0 -179 -142.5 -295t-344.5 -116zM256 332q0 -96 69 -156.5t187 -60.5
q139 0 232.5 80.5t93.5 199.5q0 43 -19 80.5t-43.5 61.5t-66 47.5t-67.5 34.5t-67 26q-148 -40 -233.5 -122.5t-85.5 -190.5zM377 1008q0 -46 18 -82t57 -63.5t72.5 -44t93.5 -40.5q129 36 208 112t79 185q0 92 -62.5 147.5t-168.5 55.5q-127 0 -212 -77t-85 -193z" />
    <glyph glyph-name="nine" unicode="9" horiz-adv-x="1058" 
d="M137 70q237 83 415 240.5t257 359.5q-60 -51 -137 -80t-156 -29q-154 0 -260 104t-106 261q0 204 139.5 344.5t335.5 140.5q165 0 278 -115.5t113 -312.5q0 -214 -101.5 -420t-274.5 -359.5t-384 -230.5zM303 934q0 -106 64.5 -172t169.5 -66q88 0 173 41.5t148 114.5
q8 52 8 117q0 144 -66.5 224.5t-181.5 80.5q-128 0 -221.5 -96.5t-93.5 -243.5z" />
    <glyph glyph-name="colon" unicode=":" horiz-adv-x="509" 
d="M199 -10q-45 0 -77 31.5t-32 72.5q0 50 39.5 87.5t91.5 37.5q41 0 72 -31t31 -71q0 -50 -38.5 -88.5t-86.5 -38.5zM176 721q0 50 39.5 87.5t91.5 37.5q41 0 72 -31.5t31 -71.5q0 -50 -38.5 -88.5t-86.5 -38.5q-45 0 -77 32t-32 73z" />
    <glyph glyph-name="semicolon" unicode=";" horiz-adv-x="542" 
d="M0 -303q149 139 188 278q-36 8 -59 32.5t-23 58.5q0 52 34.5 85t82.5 33q47 0 77 -32.5t30 -85.5q0 -90 -69 -205.5t-163 -204.5zM201 721q0 50 39.5 87.5t91.5 37.5q41 0 71.5 -31.5t30.5 -71.5q0 -50 -38.5 -88.5t-86.5 -38.5q-45 0 -76.5 32t-31.5 73z" />
    <glyph glyph-name="less" unicode="&#x3c;" horiz-adv-x="1187" 
d="M877 57l-674 387v72l674 387l65 -112l-534 -310l534 -307z" />
    <glyph glyph-name="equal" unicode="=" horiz-adv-x="1187" 
d="M143 633v127h912v-127h-912zM141 197v127h912v-127h-912z" />
    <glyph glyph-name="greater" unicode="&#x3e;" horiz-adv-x="1187" 
d="M317 905l674 -387v-72l-674 -387l-65 113l534 309l-534 307z" />
    <glyph glyph-name="question" unicode="?" horiz-adv-x="860" 
d="M502 1286q-171 0 -338 -160l57 187q133 100 297 100q151 0 240.5 -90.5t89.5 -224.5q0 -71 -17 -129.5t-52.5 -106.5t-67 -79.5t-82.5 -73.5q-4 -3 -28 -23t-31 -26t-29 -25.5t-31 -30t-27 -30.5t-27.5 -36t-22 -37.5t-20.5 -44t-14 -46.5h-86q-3 34 4 69t17.5 62.5
t34 61.5t39 54.5t48 53.5t46 46t47.5 44q80 73 118 137t38 152t-53 142t-150 54zM213 90q0 47 38.5 83t86.5 36q39 0 68.5 -29.5t29.5 -68.5q0 -47 -37 -84t-82 -37q-43 0 -73.5 30.5t-30.5 69.5z" />
    <glyph glyph-name="at" unicode="@" horiz-adv-x="1384" 
d="M670 -115q-251 0 -402 150.5t-151 394.5q0 141 54 272t146 228.5t222.5 156t275.5 58.5q119 0 216 -39.5t159.5 -107t96.5 -155.5t34 -186q0 -111 -40.5 -209t-112.5 -158.5t-158 -60.5q-115 0 -150 97q-87 -103 -205 -103q-94 0 -160.5 64.5t-66.5 181.5q0 132 85 225.5
t200 93.5q58 0 104.5 -26t69.5 -72l12 84h121l-45 -303q-8 -66 -8 -70q0 -63 59 -63q75 0 125.5 95t50.5 216q0 170 -105 274.5t-286 104.5q-158 0 -289 -81.5t-204.5 -218.5t-73.5 -298q0 -200 117.5 -312t318.5 -112q178 0 342 88l-39 -147q-137 -62 -313 -62zM557 475
q0 -63 31 -100t92 -37q49 0 96 23.5t74 58.5l22 172q-13 35 -52 60.5t-89 25.5q-79 0 -126.5 -62t-47.5 -141z" />
    <glyph glyph-name="A" unicode="A" horiz-adv-x="1277" 
d="M-43 0l782 1403h66l387 -1403h-154l-110 412h-584l-225 -412h-162zM418 547h475l-156 577h-2z" />
    <glyph glyph-name="B" unicode="B" horiz-adv-x="1191" 
d="M139 0l197 1393h412q160 0 264 -91t104 -239q0 -116 -65.5 -207.5t-159.5 -136.5q83 -34 134.5 -111.5t51.5 -187.5q0 -182 -140.5 -301t-342.5 -119h-455zM305 135h293q153 0 240.5 79.5t87.5 209.5q0 108 -64.5 165.5t-185.5 57.5h-297zM397 780h260q140 0 224 76
t84 197q0 100 -61 152t-177 52h-262z" />
    <glyph glyph-name="C" unicode="C" horiz-adv-x="1277" 
d="M756 -20q-184 0 -325 82.5t-216.5 227t-75.5 328.5q0 168 58.5 316t158.5 253t239 165.5t294 60.5q233 0 387 -102v-183q-81 72 -173.5 108t-217.5 36q-164 0 -299 -84t-214 -235t-79 -339q0 -219 129 -356t340 -137q232 0 416 139l-54 -182q-162 -98 -368 -98z" />
    <glyph glyph-name="D" unicode="D" horiz-adv-x="1427" 
d="M139 0l197 1393h399q189 0 332.5 -81.5t218 -221.5t74.5 -316q0 -155 -59 -296.5t-162 -247t-253.5 -168t-324.5 -62.5h-422zM307 137h252q135 0 254.5 49t205 133t134.5 202t49 251q0 218 -127 350.5t-354 132.5h-254z" />
    <glyph glyph-name="E" unicode="E" horiz-adv-x="1091" 
d="M139 0l197 1393h749l2 -138h-620l-70 -483h559l-20 -133h-557l-72 -502h649l-47 -137h-770z" />
    <glyph glyph-name="F" unicode="F" horiz-adv-x="1003" 
d="M139 0l197 1393h717l2 -138h-588l-72 -497h518l-20 -135h-516l-88 -623h-150z" />
    <glyph glyph-name="G" unicode="G" horiz-adv-x="1396" 
d="M772 -20q-289 0 -461 178t-172 460q0 168 58.5 316t159 253t240 165.5t296.5 60.5q124 0 235.5 -30.5t188.5 -77.5l6 -183q-82 72 -194.5 111t-239.5 39q-166 0 -302.5 -84t-215 -234.5t-78.5 -337.5q0 -231 132 -364t355 -133q152 0 316 71l49 351h-348l59 135h451
l-82 -576q-212 -120 -453 -120z" />
    <glyph glyph-name="H" unicode="H" horiz-adv-x="1482" 
d="M1067 0l88 627h-778l-88 -627h-150l197 1393h149l-88 -629h779l88 629h149l-196 -1393h-150z" />
    <glyph glyph-name="I" unicode="I" horiz-adv-x="552" 
d="M139 0l197 1393h149l-196 -1393h-150z" />
    <glyph glyph-name="J" unicode="J" horiz-adv-x="808" 
d="M231 -20q-135 0 -221 67l2 168q53 -48 101.5 -73t109.5 -25q56 0 102 20.5t83 74.5t49 138l147 1043h148l-148 -1059q-25 -172 -130 -263t-243 -91z" />
    <glyph glyph-name="K" unicode="K" horiz-adv-x="1257" 
d="M139 0l197 1393h149l-100 -713l758 713h188l-631 -605l496 -788h-172l-434 696l-234 -219l-67 -477h-150z" />
    <glyph glyph-name="L" unicode="L" horiz-adv-x="964" 
d="M139 0l197 1393h149l-178 -1256h580l-49 -137h-699z" />
    <glyph glyph-name="M" unicode="M" horiz-adv-x="1673" 
d="M139 0l197 1405h67l463 -772h6l662 772h70l-197 -1405h-147l149 1061l-551 -645h-22l-402 657l-149 -1073h-146z" />
    <glyph glyph-name="N" unicode="N" horiz-adv-x="1505" 
d="M1176 -8l-736 1104h-4l-151 -1096h-146l197 1401h70l727 -1090h4l151 1082h148l-199 -1401h-61z" />
    <glyph glyph-name="O" unicode="O" horiz-adv-x="1585" 
d="M762 -20q-187 0 -329.5 82.5t-218 226t-75.5 325.5q0 168 59 317t159 254.5t238.5 166.5t293.5 61q139 0 256 -48t197.5 -133t125.5 -203.5t45 -256.5q0 -225 -100 -407t-271.5 -283.5t-379.5 -101.5zM293 618q0 -224 128.5 -360.5t338.5 -136.5q264 0 432 175.5
t168 477.5q0 223 -130 360.5t-341 137.5q-123 0 -233 -49t-190 -134.5t-126.5 -208t-46.5 -262.5z" />
    <glyph glyph-name="P" unicode="P" horiz-adv-x="1120" 
d="M139 0l197 1393h369q183 0 296 -110.5t113 -287.5q0 -135 -68.5 -245.5t-187 -173t-262.5 -62.5h-236l-71 -514h-150zM381 651h209q165 0 268 95.5t103 246.5q0 126 -74 194t-207 68h-213z" />
    <glyph glyph-name="Q" unicode="Q" horiz-adv-x="1585" 
d="M1438 -342q-242 -24 -434 59.5t-363 272.5q-231 38 -366.5 208.5t-135.5 415.5q0 168 59 317t159 254.5t238.5 166.5t293.5 61q139 0 256 -48t197.5 -133t125.5 -203.5t45 -256.5q0 -158 -51 -297.5t-139.5 -241.5t-211 -167.5t-263.5 -81.5q274 -238 663 -181zM293 618
q0 -224 128.5 -360.5t338.5 -136.5q264 0 432 175.5t168 477.5q0 223 -130 360.5t-341 137.5q-123 0 -233 -49t-190 -134.5t-126.5 -208t-46.5 -262.5z" />
    <glyph glyph-name="R" unicode="R" horiz-adv-x="1202" 
d="M139 0l197 1393h373q189 0 296 -100.5t107 -266.5q0 -154 -93.5 -272t-248.5 -164l371 -590h-176l-344 565h-25h-229l-80 -565h-148zM385 698h215q159 0 257.5 87.5t98.5 232.5q0 118 -69 177.5t-193 59.5h-229z" />
    <glyph glyph-name="S" unicode="S" horiz-adv-x="1054" 
d="M469 -16q-107 0 -214.5 34.5t-180.5 96.5v198q67 -88 177.5 -138t223.5 -50q139 0 228.5 69t89.5 183q0 60 -33 108.5t-68.5 73.5t-118.5 75q-18 11 -28 17q-65 37 -98.5 58t-82.5 60t-73.5 73t-43 84t-18.5 108q0 173 128.5 276t324.5 103q91 0 175.5 -22.5t137.5 -57.5
v-186q-125 125 -315 125q-135 0 -216 -62.5t-81 -165.5q0 -35 12.5 -66.5t28 -52.5t47.5 -45.5t54 -37.5t66 -37.5t64 -36.5q68 -39 113.5 -72t89.5 -80t66 -105.5t22 -129.5q0 -122 -67 -214t-174 -137.5t-236 -45.5z" />
    <glyph glyph-name="T" unicode="T" horiz-adv-x="1128" 
d="M424 0l176 1255h-448l20 138h1049l-21 -138h-450l-177 -1255h-149z" />
    <glyph glyph-name="U" unicode="U" horiz-adv-x="1456" 
d="M678 -20q-229 0 -357 130.5t-128 335.5q0 51 8 113l116 834h146l-117 -832q-10 -72 -10 -112q0 -152 88.5 -242t251.5 -90q186 0 311.5 119t153.5 321l116 836h148l-117 -836q-17 -126 -66.5 -231.5t-126 -182.5t-184 -120t-233.5 -43z" />
    <glyph glyph-name="V" unicode="V" horiz-adv-x="1261" 
d="M156 1393h153l295 -1119h6l600 1119h160l-772 -1405h-66z" />
    <glyph glyph-name="W" unicode="W" horiz-adv-x="1925" 
d="M438 -12l-274 1405h149l203 -1074h8l541 1080h68l229 -1075h8l500 1069h155l-673 -1405h-58l-241 1095l-551 -1095h-64z" />
    <glyph glyph-name="X" unicode="X" horiz-adv-x="1185" 
d="M-27 0l570 702l-367 691h164l303 -580l463 580h174l-571 -703l370 -690h-164l-305 584l-463 -584h-174z" />
    <glyph glyph-name="Y" unicode="Y" horiz-adv-x="1206" 
d="M465 0l82 586l-383 807h164l309 -666l500 666h172l-613 -807l-82 -586h-149z" />
    <glyph glyph-name="Z" unicode="Z" horiz-adv-x="1148" 
d="M-2 0l10 57l957 1203h-775l41 133h981l-8 -58l-958 -1202h794l-41 -133h-1001z" />
    <glyph glyph-name="bracketleft" unicode="[" horiz-adv-x="661" 
d="M82 -317l250 1767h407l-16 -121h-277l-215 -1528h277l-16 -118h-410z" />
    <glyph glyph-name="backslash" unicode="\" horiz-adv-x="1302" 
d="M1118 -537h-131l-813 1950h133z" />
    <glyph glyph-name="bracketright" unicode="]" horiz-adv-x="661" 
d="M612 1450l-250 -1767h-407l16 120h277l215 1528h-277l17 119h409z" />
    <glyph glyph-name="asciicircum" unicode="^" horiz-adv-x="894" 
d="M152 745l282 404h121l283 -404l-93 -65l-251 371l-250 -371z" />
    <glyph glyph-name="underscore" unicode="_" horiz-adv-x="970" 
d="M-100 -264l18 123h969l-17 -123h-970z" />
    <glyph glyph-name="grave" unicode="`" horiz-adv-x="1089" 
d="M584 1350l133 -332h-105l-192 332h164z" />
    <glyph glyph-name="a" unicode="a" 
d="M463 -20q-162 0 -266.5 119t-104.5 300q0 140 65.5 262t178.5 195.5t244 73.5q167 0 258 -111l12 90h139l-131 -909h-137l12 88q-123 -108 -270 -108zM233 401q0 -130 72.5 -209t186.5 -79q71 0 139.5 32.5t122.5 92.5l63 438q-32 52 -91 86.5t-136 34.5
q-146 0 -251.5 -116.5t-105.5 -279.5z" />
    <glyph glyph-name="b" unicode="b" horiz-adv-x="1083" 
d="M473 -20q-101 0 -205 32t-166 78l191 1360h137l-84 -604q114 84 260 84q168 0 275.5 -116t107.5 -306q0 -113 -41 -212t-110.5 -168t-164.5 -108.5t-200 -39.5zM252 170q93 -57 219 -57q160 0 268.5 110t108.5 281q0 139 -72.5 216t-195.5 77q-145 0 -254 -95z" />
    <glyph glyph-name="c" unicode="c" horiz-adv-x="913" 
d="M492 -20q-183 0 -291.5 116.5t-108.5 304.5q0 146 68 267.5t186.5 191.5t259.5 70q71 0 137 -20t107 -52v-158q-45 46 -111.5 71.5t-134.5 25.5q-152 0 -261.5 -112.5t-109.5 -281.5q0 -136 74 -213t201 -77q78 0 157 31.5t144 91.5l-41 -173q-127 -83 -276 -83z" />
    <glyph glyph-name="d" unicode="d" horiz-adv-x="1099" 
d="M475 -20q-165 0 -274 120t-109 301q0 139 67 261t183 195t250 73q89 0 156 -31.5t106 -77.5l88 629h137l-202 -1450h-136l13 90q-125 -110 -279 -110zM233 403q0 -132 75 -211t194 -79q74 0 145.5 32.5t126.5 92.5l62 440q-36 51 -97 85t-139 34q-151 0 -259 -116.5
t-108 -277.5z" />
    <glyph glyph-name="e" unicode="e" horiz-adv-x="1005" 
d="M500 -20q-184 0 -296 113.5t-112 301.5q0 144 66 267.5t179 195.5t245 72q159 0 253.5 -99.5t94.5 -244.5q0 -89 -25 -144h-672q-2 -14 -2 -43q0 -143 78 -216.5t205 -73.5q169 0 326 118l-49 -166q-130 -81 -291 -81zM260 557h531q2 12 2 37q0 89 -59 149t-156 60
q-102 0 -190 -68t-128 -178z" />
    <glyph glyph-name="f" unicode="f" horiz-adv-x="620" 
d="M301 1165q19 135 102 219t211 84q102 0 154 -34v-148q-66 53 -156 53q-76 0 -119.5 -48.5t-54.5 -129.5l-35 -252h252l-32 -127h-238l-111 -782h-137l111 782h-129l33 127h112z" />
    <glyph glyph-name="g" unicode="g" horiz-adv-x="960" 
d="M379 -522q-199 0 -309.5 72t-110.5 192q0 179 264 287q-45 40 -45 94q0 77 88 147q-77 39 -117 110t-40 163q0 163 121.5 264.5t324.5 101.5h399l27 -125h-203l-2 -2q70 -81 70 -194q0 -148 -110 -251.5t-290 -103.5q-13 0 -63 5q-61 -41 -61 -88q0 -31 36 -47.5
t158 -45.5q177 -42 259.5 -99t82.5 -167q0 -140 -132 -226.5t-347 -86.5zM96 -248q0 -69 74 -110t211 -41q159 0 250.5 54t91.5 130q0 17 -3.5 31t-14.5 26.5t-20.5 21t-33 18t-39 15.5t-51 15.5t-57.5 14.5t-70 16t-92 24q-123 -41 -184.5 -97.5t-61.5 -117.5zM246 541
q0 -84 54 -135.5t151 -51.5q114 0 186 68.5t72 171.5q0 86 -52.5 137t-146.5 51q-115 0 -189.5 -69t-74.5 -172z" />
    <glyph glyph-name="h" unicode="h" horiz-adv-x="1073" 
d="M96 0l203 1450h137l-92 -664q135 144 313 144q128 0 211.5 -76.5t83.5 -196.5q0 -19 -4 -51l-86 -606h-137l84 588q2 14 2 47q0 79 -50.5 120.5t-133.5 41.5q-85 0 -167.5 -48.5t-140.5 -134.5l-86 -614h-137z" />
    <glyph glyph-name="i" unicode="i" horiz-adv-x="454" 
d="M96 0l127 909h137l-127 -909h-137zM246 1247q0 43 30 74t70 31q39 0 65.5 -25.5t26.5 -62.5q0 -43 -30.5 -74t-73.5 -31q-37 0 -62.5 25.5t-25.5 62.5z" />
    <glyph glyph-name="j" unicode="j" horiz-adv-x="454" 
d="M-123 -516q94 150 151 292.5t83 327.5l112 805h137l-112 -805q-45 -324 -217 -606zM246 1247q0 43 30.5 74t71.5 31q38 0 64 -26t26 -64q0 -42 -31 -72.5t-73 -30.5q-37 0 -62.5 25.5t-25.5 62.5z" />
    <glyph glyph-name="k" unicode="k" horiz-adv-x="980" 
d="M96 0l203 1450h137l-137 -979l510 438h199l-437 -368l334 -541h-166l-272 455q-25 -21 -191 -150l-43 -305h-137z" />
    <glyph glyph-name="l" unicode="l" horiz-adv-x="454" 
d="M96 0l203 1450h137l-203 -1450h-137z" />
    <glyph glyph-name="m" unicode="m" horiz-adv-x="1546" 
d="M96 0l127 909h137l-14 -98q116 119 252 119q91 0 157 -37t97 -105q133 142 295 142q125 0 201.5 -70t76.5 -186q0 -24 -4 -60l-86 -614h-137l82 598q4 28 4 51q0 75 -44 111.5t-118 36.5q-68 0 -134 -38t-114 -102l-4 -43l-86 -614h-137l84 598q4 28 4 53q0 73 -45 109.5
t-121 36.5q-132 0 -245 -154l-91 -643h-137z" />
    <glyph glyph-name="n" unicode="n" horiz-adv-x="1073" 
d="M96 0l127 909h137l-16 -123q135 144 313 144q128 0 211.5 -76.5t83.5 -196.5q0 -19 -4 -51l-86 -606h-137l84 586q2 16 2 49q0 79 -50.5 120.5t-133.5 41.5q-85 0 -167.5 -48.5t-140.5 -134.5l-86 -614h-137z" />
    <glyph glyph-name="o" unicode="o" horiz-adv-x="1103" 
d="M500 -20q-187 0 -297.5 116t-110.5 301q0 145 67 267t185.5 194t261.5 72q186 0 296 -117.5t110 -302.5q0 -145 -67 -266.5t-185 -192.5t-260 -71zM233 403q0 -137 74 -215.5t195 -78.5q96 0 180 50.5t136 143t52 205.5q0 136 -73.5 213.5t-194.5 77.5
q-150 0 -259.5 -112t-109.5 -284z" />
    <glyph glyph-name="p" unicode="p" horiz-adv-x="1099" 
d="M510 -20q-168 0 -264 108l-82 -594h-137l196 1415h137l-12 -90q123 111 277 111q165 0 274 -120.5t109 -301.5q0 -105 -39.5 -202.5t-106.5 -169t-159 -114t-193 -42.5zM266 231q34 -50 95.5 -84t140.5 -34q149 0 256.5 116t107.5 277q0 132 -75 211.5t-193 79.5
q-71 0 -143 -32.5t-127 -90.5z" />
    <glyph glyph-name="q" unicode="q" 
d="M657 -506l82 582q-126 -96 -262 -96q-168 0 -275.5 114t-107.5 303q0 151 69.5 274t187 191t257.5 68q106 0 208 -35t163 -90l-184 -1311h-138zM236 401q0 -139 72 -213.5t196 -74.5q67 0 133.5 27.5t120.5 78.5l73 518q-93 60 -219 60q-161 0 -268.5 -112t-107.5 -284z
" />
    <glyph glyph-name="r" unicode="r" horiz-adv-x="673" 
d="M96 0l127 909h137l-20 -149q63 76 144 119t163 43q25 0 41 -2l-2 -138q-28 4 -53 4q-183 0 -318 -194l-82 -592h-137z" />
    <glyph glyph-name="s" unicode="s" horiz-adv-x="815" 
d="M356 -20q-177 0 -290 86v165q133 -120 288 -120q99 0 151 40t52 103q0 47 -39.5 77t-136.5 68q-47 19 -82.5 38.5t-75 51t-61 77t-21.5 100.5q0 113 89.5 188.5t242.5 75.5q77 0 146 -22t106 -56l-6 -158q-114 105 -256 105q-89 0 -135.5 -36.5t-46.5 -92.5
q0 -49 42 -80.5t148 -75.5q109 -45 167 -103t58 -151q0 -121 -93 -200.5t-247 -79.5z" />
    <glyph glyph-name="t" unicode="t" horiz-adv-x="757" 
d="M410 -18q-120 0 -183 56t-63 152q0 28 6 52l74 540h-144l9 45l272 226h41l-21 -144h353l-25 -127h-346l-72 -512q-6 -21 -6 -45q0 -114 135 -114q115 0 234 82l-35 -148q-92 -63 -229 -63z" />
    <glyph glyph-name="u" unicode="u" horiz-adv-x="1071" 
d="M977 909l-127 -909h-137l16 123q-134 -143 -313 -143q-128 0 -211.5 76.5t-83.5 195.5q0 19 4 51l86 606h137l-84 -585q-2 -16 -2 -50q0 -79 50.5 -120t133.5 -41q85 0 168 48t140 134l86 614h137z" />
    <glyph glyph-name="v" unicode="v" horiz-adv-x="966" 
d="M391 -12l-305 921h145q122 -364 222 -688h2q245 436 395 688h149l-548 -921h-60z" />
    <glyph glyph-name="w" unicode="w" horiz-adv-x="1447" 
d="M317 -12l-225 921h146l151 -661l377 672h47l188 -672l334 661h148l-484 -921h-55l-194 674l-379 -674h-54z" />
    <glyph glyph-name="x" unicode="x" horiz-adv-x="917" 
d="M659 0l-210 358l-308 -358h-172l410 463l-268 446h157l205 -348l295 348h170l-397 -456l276 -453h-158z" />
    <glyph glyph-name="y" unicode="y" horiz-adv-x="956" 
d="M45 -506l305 535l-254 880h144q66 -218 202 -721q188 353 400 721h149l-798 -1415h-148z" />
    <glyph glyph-name="z" unicode="z" horiz-adv-x="882" 
d="M10 0l6 49l625 739h-518l33 121h714l-6 -51l-624 -737h526l-33 -121h-723z" />
    <glyph glyph-name="braceleft" unicode="{" horiz-adv-x="524" 
d="M254 -336q-87 6 -141 52t-54 122q0 56 24 127.5t53 130t53 131t24 129.5q0 64 -29 112t-75 75l10 55q78 41 122 120.5t44 174.5q0 49 -17.5 156t-17.5 153q0 139 66 205t192 72l45 -117q-91 0 -129.5 -30.5t-38.5 -102.5q0 -55 18.5 -152t18.5 -155q0 -111 -42 -207
t-116 -146q37 -33 59.5 -89t22.5 -120q0 -61 -24.5 -138.5t-53.5 -137.5t-53.5 -122t-24.5 -97q0 -47 43.5 -67t98.5 -15z" />
    <glyph glyph-name="bar" unicode="|" horiz-adv-x="505" 
d="M55 -516l275 1966h125l-275 -1966h-125z" />
    <glyph glyph-name="braceright" unicode="}" horiz-adv-x="522" 
d="M303 1481q87 -6 141 -52t54 -122q0 -56 -24 -128t-53 -130t-53 -131t-24 -130q0 -64 29.5 -111.5t75.5 -74.5l-11 -55q-78 -41 -122 -120.5t-44 -174.5q0 -50 17.5 -156t17.5 -153q0 -139 -66 -205t-192 -72l-45 117q91 0 129.5 30.5t38.5 102.5q0 55 -18.5 152
t-18.5 155q0 111 42 206.5t116 145.5q-37 33 -59.5 89t-22.5 120q0 61 24.5 139t53.5 138t53.5 122t24.5 97q0 47 -43.5 67t-98.5 15z" />
    <glyph glyph-name="asciitilde" unicode="~" horiz-adv-x="1062" 
d="M133 315q0 154 65.5 241t174.5 87q133 0 211 -133q52 -86 114 -86q58 0 93.5 59t35.5 160h111q0 -155 -65 -241.5t-175 -86.5q-62 0 -118 35t-91 96q-54 86 -114 86q-58 0 -92.5 -57t-34.5 -160h-115z" />
    <glyph glyph-name="uni00A0" unicode="&#xa0;" horiz-adv-x="497" 
 />
    <glyph glyph-name="exclamdown" unicode="&#xa1;" horiz-adv-x="479" 
d="M297 606q-3 -165 -24 -392t-42 -382q-18 -123 -43 -175t-63 -52q-55 0 -55 100q0 94 58 410.5t103 490.5h66zM186 899q0 49 37 85t82 36q44 0 74.5 -29.5t30.5 -68.5q0 -47 -38.5 -83t-86.5 -36q-39 0 -69 29.5t-30 66.5z" />
    <glyph glyph-name="cent" unicode="&#xa2;" horiz-adv-x="940" 
d="M362 -260l35 248q-139 31 -219 141t-80 270q0 200 122.5 347t309.5 176l33 235h123l-33 -231q125 -9 203 -70v-158q-40 42 -99.5 67t-121.5 30l-96 -684q155 10 276 122l-41 -172q-120 -78 -256 -84l-33 -237h-123zM240 401q0 -107 46.5 -178.5t131.5 -97.5l92 655
q-119 -35 -194.5 -137.5t-75.5 -241.5z" />
    <glyph glyph-name="sterling" unicode="&#xa3;" horiz-adv-x="1187" 
d="M143 61q74 103 119 215.5t80 274.5h-133l47 127h113q0 2 10.5 56t15.5 83q33 189 72 286q116 298 391 298q104 0 170 -35l6 -156q-72 54 -174 54q-48 0 -88 -13.5t-69 -34.5t-53.5 -58.5t-41 -72.5t-32 -90t-25 -98t-21.5 -109l-20 -110h344l-49 -127h-322
q-33 -144 -67.5 -240.5t-85.5 -173.5h663l-51 -137h-807z" />
    <glyph glyph-name="currency" unicode="&#xa4;" horiz-adv-x="1116" 
d="M547 330q-111 0 -189 59l-165 -143l-78 88l166 147q-35 65 -35 154q0 138 92 248l-121 137l92 80l123 -139q90 55 197 55q109 0 190 -62l170 148l76 -90l-170 -148q35 -65 35 -151q0 -139 -92 -246l123 -141l-93 -80l-123 141q-91 -57 -198 -57zM369 637q0 -88 50 -137
t138 -49q111 0 181.5 74.5t70.5 179.5q0 89 -51 139.5t-140 50.5q-109 0 -179 -74t-70 -184z" />
    <glyph glyph-name="yen" unicode="&#xa5;" horiz-adv-x="1265" 
d="M242 555l34 127h246l-336 711h164l309 -666l500 666h172l-538 -711h282l-33 -127h-327l-15 -96h344l-32 -127h-328l-47 -332h-150l48 332h-324l35 127h305l14 96h-323z" />
    <glyph glyph-name="brokenbar" unicode="&#xa6;" horiz-adv-x="505" 
d="M205 557l125 893h125l-125 -893h-125zM55 -516l125 897h125l-125 -897h-125z" />
    <glyph glyph-name="section" unicode="&#xa7;" horiz-adv-x="864" 
d="M375 -16q-165 0 -273 86l-4 163q66 -58 131 -90t154 -32q92 0 142 45t50 108q0 22 -9 41.5t-19.5 32.5t-37.5 32t-44 29t-57 33q-43 23 -75.5 45.5t-69.5 57.5t-57 80t-20 96q0 68 32.5 128t82.5 103q-78 78 -78 172q0 124 94 207.5t248 83.5q161 0 252 -72l4 -166
q-114 111 -268 111q-90 0 -139 -45.5t-49 -108.5q0 -22 9 -41.5t19.5 -32.5t37.5 -32t44 -29t57 -33q43 -24 75.5 -46t69.5 -56.5t57 -79.5t20 -96q0 -135 -121 -229q82 -76 82 -175q0 -124 -94 -207t-246 -83zM322 735q0 -35 12 -62t42 -52t54 -40t74 -42l49 -31
q65 65 65 147q0 33 -10.5 59t-42 52t-50 38t-71.5 42q-7 4 -10 6l-49 29q-63 -63 -63 -146z" />
    <glyph glyph-name="dieresis" unicode="&#xa8;" horiz-adv-x="1089" 
d="M461 1098q-34 0 -56 23t-22 57q0 41 29 69.5t69 28.5q36 0 58 -22t22 -56q0 -42 -29 -71t-71 -29zM745 1178q0 41 29.5 69.5t71.5 28.5q35 0 57.5 -22t22.5 -56q0 -42 -30.5 -71t-72.5 -29q-34 0 -56 23t-22 57z" />
    <glyph glyph-name="copyright" unicode="&#xa9;" horiz-adv-x="1439" 
d="M682 -25q-245 0 -398 156t-153 397q0 147 50 278.5t138 227.5t214 152.5t270 56.5q244 0 397.5 -154.5t153.5 -398.5q0 -195 -85.5 -358.5t-240.5 -260t-346 -96.5zM229 539q0 -214 124.5 -341.5t330.5 -127.5q158 0 289 81t205.5 221t74.5 308q0 215 -124 343t-328 128
q-159 0 -290.5 -81.5t-206.5 -222t-75 -308.5zM436 567q0 174 106 286t275 112q100 0 182 -54l15 -127q-84 68 -199 68q-114 0 -190 -77.5t-76 -199.5q0 -94 58.5 -151t156.5 -57q124 0 219 82l-27 -132q-91 -59 -208 -59q-139 0 -225.5 85t-86.5 224z" />
    <glyph glyph-name="ordfeminine" unicode="&#xaa;" horiz-adv-x="768" 
d="M408 795q-96 0 -159 74t-63 182q0 128 84.5 223.5t204.5 95.5q97 0 152 -63l8 51h108l-77 -551h-107l8 53q-71 -65 -159 -65zM297 1053q0 -71 38 -114.5t99 -43.5q83 0 146 72l32 231q-16 31 -49 51.5t-74 20.5q-79 0 -135.5 -64t-56.5 -153z" />
    <glyph glyph-name="guillemotleft" unicode="&#xab;" horiz-adv-x="1021" 
d="M82 455l332 360h164l-336 -364l227 -357h-158zM479 455l332 360h164l-336 -364l227 -357h-157z" />
    <glyph glyph-name="logicalnot" unicode="&#xac;" horiz-adv-x="1187" 
d="M901 203v395h-778v127h917v-522h-139z" />
    <glyph glyph-name="uni00AD" unicode="&#xad;" horiz-adv-x="808" 
d="M131 418l19 123h534l-18 -123h-535z" />
    <glyph glyph-name="registered" unicode="&#xae;" horiz-adv-x="833" 
d="M451 629q-120 0 -196.5 74.5t-76.5 191.5q0 136 99.5 239t238.5 103q118 0 193 -77t75 -197q0 -138 -97.5 -236t-235.5 -98zM244 897q0 -94 58.5 -151.5t150.5 -57.5q112 0 189 81.5t77 193.5q0 96 -58.5 154.5t-148.5 58.5q-109 0 -188.5 -84t-79.5 -195zM348 784
l43 314h115q45 0 74.5 -27.5t29.5 -69.5q0 -36 -26 -63.5t-72 -34.5l92 -119h-80l-80 113h-16l-16 -113h-64zM436 954h43q28 0 45 14t17 36q0 34 -43 34h-49z" />
    <glyph glyph-name="macron" unicode="&#xaf;" horiz-adv-x="1089" 
d="M412 1100l16 112h526l-16 -112h-526z" />
    <glyph glyph-name="degree" unicode="&#xb0;" horiz-adv-x="790" 
d="M479 791q-122 0 -208.5 86t-86.5 210q0 123 86.5 210t208.5 87q124 0 210.5 -87t86.5 -210q0 -124 -86 -210t-211 -86zM307 1087q0 -73 51 -123.5t121 -50.5q73 0 124.5 50.5t51.5 123.5q0 71 -52 123t-124 52q-69 0 -120.5 -52.5t-51.5 -122.5z" />
    <glyph glyph-name="plusminus" unicode="&#xb1;" horiz-adv-x="1187" 
d="M526 174v395h-383v127h383v394h142v-394h385v-127h-385v-395h-142zM143 -133v127h912v-127h-912z" />
    <glyph glyph-name="uni00B2" unicode="&#xb2;" horiz-adv-x="757" 
d="M143 565l11 74l262 248q86 81 130 147.5t44 132.5q1 55 -30.5 86t-90.5 31q-125 0 -244 -125l47 168q117 74 217 74q101 0 163.5 -62.5t62.5 -158.5q0 -94 -61.5 -185.5t-170.5 -189.5l-137 -123h324l-33 -117h-494z" />
    <glyph glyph-name="uni00B3" unicode="&#xb3;" horiz-adv-x="718" 
d="M354 555q-113 0 -196 63l2 144q36 -42 91.5 -67t108.5 -25q73 0 125 46.5t52 117.5q0 56 -37.5 88t-112.5 32h-94l14 109h86q79 0 121.5 36.5t42.5 92.5q0 46 -31 72t-90 26q-108 0 -211 -88l47 146q51 28 91.5 41.5t95.5 13.5q101 0 162 -52.5t61 -138.5
q0 -70 -41.5 -125t-108.5 -77q58 -14 92.5 -61.5t34.5 -119.5q0 -118 -88 -196t-217 -78z" />
    <glyph glyph-name="acute" unicode="&#xb4;" horiz-adv-x="1089" 
d="M588 1018h-123l213 332h188z" />
    <glyph glyph-name="uni00B5" unicode="&#xb5;" horiz-adv-x="1187" 
d="M78 -506l196 1415h138l-82 -581q-6 -104 50.5 -157.5t141.5 -53.5q159 0 295 164l88 628h137l-127 -909h-137l17 119q-122 -135 -289 -135q-133 0 -211 90l-80 -580h-137z" />
    <glyph glyph-name="paragraph" unicode="&#xb6;" horiz-adv-x="1183" 
d="M500 608q-166 0 -265.5 89t-99.5 239q0 197 136.5 327t338.5 130h492l-236 -1672h-123l220 1551h-191l-219 -1551h-123l125 887h-55z" />
    <glyph glyph-name="periodcentered" unicode="&#xb7;" horiz-adv-x="505" 
d="M248 381q-45 0 -77 31.5t-32 72.5q0 50 39.5 87.5t91.5 37.5q41 0 72 -31t31 -71q0 -50 -38.5 -88.5t-86.5 -38.5z" />
    <glyph glyph-name="cedilla" unicode="&#xb8;" horiz-adv-x="1089" 
d="M373 -457q-45 0 -88 14.5t-68 36.5l2 125q68 -71 156 -71q52 0 88.5 25.5t36.5 70.5q0 20 -12.5 33t-37 20t-50 9.5t-62.5 3.5l-21 34l93 201h92l-64 -139q90 -4 133 -47.5t43 -106.5q0 -96 -68 -152.5t-173 -56.5z" />
    <glyph glyph-name="uni00B9" unicode="&#xb9;" horiz-adv-x="518" 
d="M260 565l98 692l-190 -71l29 127l219 80h82l-117 -828h-121z" />
    <glyph glyph-name="ordmasculine" unicode="&#xba;" horiz-adv-x="761" 
d="M428 795q-110 0 -177 72.5t-67 183.5q0 134 94 226.5t228 92.5q112 0 178 -71.5t66 -184.5q0 -135 -93.5 -227t-228.5 -92zM297 1053q0 -75 39.5 -117.5t103.5 -42.5q80 0 139.5 62.5t59.5 158.5q0 75 -40 116.5t-103 41.5q-80 0 -139.5 -61.5t-59.5 -157.5z" />
    <glyph glyph-name="guillemotright" unicode="&#xbb;" horiz-adv-x="1019" 
d="M940 455l-332 -361h-164l336 365l-227 356h158zM45 94l336 365l-227 356h157l230 -360l-332 -361h-164z" />
    <glyph glyph-name="onequarter" unicode="&#xbc;" horiz-adv-x="1570" 
d="M262 565l98 692l-190 -71l29 127l219 80h82l-117 -828h-121zM139 0l1028 1393h146l-1028 -1397zM856 209l8 59l482 572h75l-73 -521h141l-43 -110h-113l-28 -197h-119l26 197h-356zM1034 319h195l39 273z" />
    <glyph glyph-name="onehalf" unicode="&#xbd;" horiz-adv-x="1536" 
d="M262 565l98 692l-190 -71l29 127l219 80h82l-117 -828h-121zM137 0l1028 1393h146l-1028 -1397zM883 12l10 74l262 248q86 81 130 147.5t44 132.5q1 55 -30.5 86t-90.5 31q-124 0 -243 -125l47 168q117 74 217 74q101 0 163 -62t62 -159q0 -94 -61.5 -185.5
t-169.5 -189.5l-138 -123h324l-33 -117h-493z" />
    <glyph glyph-name="threequarters" unicode="&#xbe;" horiz-adv-x="1734" 
d="M334 555q-114 0 -197 63l2 144q36 -42 91.5 -67t109.5 -25q73 0 124.5 46.5t51.5 117.5q0 56 -37 88t-112 32h-95l15 109h86q79 0 121.5 36.5t42.5 92.5q0 46 -31 72t-90 26q-108 0 -211 -88l47 146q52 28 92 41.5t94 13.5q101 0 162.5 -52.5t61.5 -138.5
q0 -70 -41.5 -125t-108.5 -77q58 -14 92.5 -61.5t34.5 -119.5q0 -118 -88 -196t-217 -78zM305 0l1028 1393h146l-1028 -1397zM1020 209l8 59l481 572h76l-74 -521h142l-43 -110h-113l-29 -197h-118l26 197h-356zM1198 319h195l39 273z" />
    <glyph glyph-name="questiondown" unicode="&#xbf;" horiz-adv-x="839" 
d="M358 -276q172 0 338 159l-57 -186q-133 -100 -297 -100q-151 0 -240.5 90.5t-89.5 224.5q0 71 17 129.5t52.5 106.5t67 79.5t82.5 73.5q4 3 28 23t31 26t29 25.5t31 30t27 30.5t27.5 36t22 37.5t20.5 44t14 46.5h86q3 -34 -4 -69t-17.5 -62.5t-34 -61.5t-39 -54.5
t-48 -53.5t-46 -46t-47.5 -44q-79 -72 -117 -136.5t-38 -152.5t52.5 -142t149.5 -54zM424 897q0 49 37 85t82 36q42 0 72 -29.5t30 -68.5q0 -47 -37.5 -83t-85.5 -36q-39 0 -68.5 29.5t-29.5 66.5z" />
    <glyph glyph-name="Agrave" unicode="&#xc0;" horiz-adv-x="1277" 
d="M-43 0l782 1403h66l387 -1403h-154l-110 412h-584l-225 -412h-162zM418 547h475l-156 577h-2zM571 1837h164l133 -332h-104z" />
    <glyph glyph-name="Aacute" unicode="&#xc1;" horiz-adv-x="1277" 
d="M-43 0l782 1403h66l387 -1403h-154l-110 412h-584l-225 -412h-162zM418 547h475l-156 577h-2zM674 1505l213 332h188l-278 -332h-123z" />
    <glyph glyph-name="Acircumflex" unicode="&#xc2;" horiz-adv-x="1277" 
d="M-43 0l782 1403h66l387 -1403h-154l-110 412h-584l-225 -412h-162zM418 547h475l-156 577h-2zM502 1505l258 332h131l170 -332h-100l-148 224l-209 -224h-102z" />
    <glyph glyph-name="Atilde" unicode="&#xc3;" horiz-adv-x="1277" 
d="M-43 0l782 1403h66l387 -1403h-154l-110 412h-584l-225 -412h-162zM418 547h475l-156 577h-2zM483 1559q11 83 71 146.5t144 63.5q37 0 67.5 -13t51 -31.5t38 -37.5t37 -32t40.5 -13q72 0 112 125l93 -24q-11 -82 -71.5 -145.5t-143.5 -63.5q-45 0 -82 20t-57 43.5
t-45 43.5t-48 20q-74 0 -115 -125z" />
    <glyph glyph-name="Adieresis" unicode="&#xc4;" horiz-adv-x="1277" 
d="M-43 0l782 1403h66l387 -1403h-154l-110 412h-584l-225 -412h-162zM418 547h475l-156 577h-2zM524 1665q0 41 29.5 69.5t69.5 28.5q36 0 57.5 -21.5t21.5 -55.5q0 -42 -29 -71.5t-71 -29.5q-34 0 -56 23t-22 57zM887 1665q0 41 29.5 69.5t70.5 28.5q35 0 57.5 -21.5
t22.5 -55.5q0 -42 -30 -71.5t-72 -29.5q-34 0 -56 23t-22 57z" />
    <glyph glyph-name="Aring" unicode="&#xc5;" horiz-adv-x="1277" 
d="M-43 0l782 1403h66l387 -1403h-154l-110 412h-584l-225 -412h-162zM418 547h475l-156 577h-2zM621 1661q0 87 64 150t149 63q73 0 120 -48t47 -122q0 -86 -63.5 -148.5t-149.5 -62.5q-72 0 -119.5 48t-47.5 120zM717 1671q0 -38 23 -62t59 -24q41 0 73.5 33.5t32.5 77.5
q0 38 -22.5 61t-59.5 23q-42 0 -74 -32t-32 -77z" />
    <glyph glyph-name="AE" unicode="&#xc6;" horiz-adv-x="1849" 
d="M1843 1393l2 -138h-620l-70 -483h559l-20 -133h-557l-72 -502h649l-47 -137h-770l57 412h-528l-313 -412h-179l1074 1393h835zM528 547h447l100 717z" />
    <glyph glyph-name="Ccedilla" unicode="&#xc7;" horiz-adv-x="1277" 
d="M674 -457q-45 0 -88 14.5t-68 36.5l2 125q68 -71 156 -71q52 0 88.5 25.5t36.5 70.5q0 20 -12.5 33t-37 20t-50 9.5t-62.5 3.5l-21 34l64 140q-247 25 -395 199.5t-148 434.5q0 168 58.5 316t158.5 253t239 165.5t294 60.5q233 0 387 -102v-183q-81 72 -173.5 108
t-217.5 36q-164 0 -299 -84t-214 -235t-79 -339q0 -219 129 -356t340 -137q232 0 416 139l-54 -182q-157 -95 -352 -98l-33 -74q90 -4 133 -47.5t43 -106.5q0 -96 -68 -152.5t-173 -56.5z" />
    <glyph glyph-name="Egrave" unicode="&#xc8;" horiz-adv-x="1091" 
d="M139 0l197 1393h749l2 -138h-620l-70 -483h559l-20 -133h-557l-72 -502h649l-47 -137h-770zM514 1837h164l133 -332h-104z" />
    <glyph glyph-name="Eacute" unicode="&#xc9;" horiz-adv-x="1091" 
d="M139 0l197 1393h749l2 -138h-620l-70 -483h559l-20 -133h-557l-72 -502h649l-47 -137h-770zM616 1505l213 332h189l-279 -332h-123z" />
    <glyph glyph-name="Ecircumflex" unicode="&#xca;" horiz-adv-x="1091" 
d="M139 0l197 1393h749l2 -138h-620l-70 -483h559l-20 -133h-557l-72 -502h649l-47 -137h-770zM444 1505l258 332h132l170 -332h-101l-147 224l-209 -224h-103z" />
    <glyph glyph-name="Edieresis" unicode="&#xcb;" horiz-adv-x="1091" 
d="M139 0l197 1393h749l2 -138h-620l-70 -483h559l-20 -133h-557l-72 -502h649l-47 -137h-770zM467 1665q0 41 29 69.5t69 28.5q36 0 58 -21.5t22 -55.5q0 -42 -29.5 -71.5t-70.5 -29.5q-34 0 -56 23t-22 57zM829 1665q0 41 29.5 69.5t71.5 28.5q35 0 57.5 -21.5t22.5 -55.5
q0 -42 -30.5 -71.5t-72.5 -29.5q-34 0 -56 23t-22 57z" />
    <glyph glyph-name="Igrave" unicode="&#xcc;" horiz-adv-x="552" 
d="M139 0l197 1393h149l-196 -1393h-150zM211 1837h164l133 -332h-105z" />
    <glyph glyph-name="Iacute" unicode="&#xcd;" horiz-adv-x="552" 
d="M139 0l197 1393h149l-196 -1393h-150zM313 1505l213 332h189l-279 -332h-123z" />
    <glyph glyph-name="Icircumflex" unicode="&#xce;" horiz-adv-x="552" 
d="M139 0l197 1393h149l-196 -1393h-150zM141 1505l258 332h131l170 -332h-100l-147 224l-209 -224h-103z" />
    <glyph glyph-name="Idieresis" unicode="&#xcf;" horiz-adv-x="552" 
d="M139 0l197 1393h149l-196 -1393h-150zM164 1665q0 41 29 69.5t69 28.5q36 0 58 -21.5t22 -55.5q0 -42 -29 -71.5t-71 -29.5q-34 0 -56 23t-22 57zM526 1665q0 41 29.5 69.5t71.5 28.5q35 0 57.5 -21.5t22.5 -55.5q0 -42 -30.5 -71.5t-72.5 -29.5q-34 0 -56 23t-22 57z
" />
    <glyph glyph-name="Eth" unicode="&#xd0;" horiz-adv-x="1445" 
d="M156 0l90 637h-178l18 113h176l90 643h400q189 0 332 -81.5t217.5 -221.5t74.5 -316q0 -155 -58.5 -296t-161.5 -247t-253.5 -168.5t-324.5 -62.5h-422zM324 137h251q181 0 328.5 83t231.5 228.5t84 323.5q0 218 -127.5 350.5t-354.5 132.5h-254l-71 -505h227l-16 -113
h-228z" />
    <glyph glyph-name="Ntilde" unicode="&#xd1;" horiz-adv-x="1505" 
d="M1176 -8l-736 1104h-4l-151 -1096h-146l197 1401h70l727 -1090h4l151 1082h148l-199 -1401h-61zM608 1559q11 83 71 146.5t144 63.5q37 0 67.5 -13t51 -31.5t38 -37.5t37 -32t40.5 -13q72 0 112 125l93 -24q-11 -82 -71.5 -145.5t-143.5 -63.5q-45 0 -82 20t-57 43.5
t-45 43.5t-48 20q-74 0 -115 -125z" />
    <glyph glyph-name="Ograve" unicode="&#xd2;" horiz-adv-x="1585" 
d="M762 -20q-187 0 -329.5 82.5t-218 226t-75.5 325.5q0 168 59 317t159 254.5t238.5 166.5t293.5 61q139 0 256 -48t197.5 -133t125.5 -203.5t45 -256.5q0 -225 -100 -407t-271.5 -283.5t-379.5 -101.5zM293 618q0 -224 128.5 -360.5t338.5 -136.5q264 0 432 175.5
t168 477.5q0 223 -130 360.5t-341 137.5q-123 0 -233 -49t-190 -134.5t-126.5 -208t-46.5 -262.5zM705 1837h163l133 -332h-104z" />
    <glyph glyph-name="Oacute" unicode="&#xd3;" horiz-adv-x="1585" 
d="M762 -20q-187 0 -329.5 82.5t-218 226t-75.5 325.5q0 168 59 317t159 254.5t238.5 166.5t293.5 61q139 0 256 -48t197.5 -133t125.5 -203.5t45 -256.5q0 -225 -100 -407t-271.5 -283.5t-379.5 -101.5zM293 618q0 -224 128.5 -360.5t338.5 -136.5q264 0 432 175.5
t168 477.5q0 223 -130 360.5t-341 137.5q-123 0 -233 -49t-190 -134.5t-126.5 -208t-46.5 -262.5zM807 1505l213 332h188l-278 -332h-123z" />
    <glyph glyph-name="Ocircumflex" unicode="&#xd4;" horiz-adv-x="1585" 
d="M762 -20q-187 0 -329.5 82.5t-218 226t-75.5 325.5q0 168 59 317t159 254.5t238.5 166.5t293.5 61q139 0 256 -48t197.5 -133t125.5 -203.5t45 -256.5q0 -225 -100 -407t-271.5 -283.5t-379.5 -101.5zM293 618q0 -224 128.5 -360.5t338.5 -136.5q264 0 432 175.5
t168 477.5q0 223 -130 360.5t-341 137.5q-123 0 -233 -49t-190 -134.5t-126.5 -208t-46.5 -262.5zM635 1505l258 332h131l170 -332h-100l-148 224l-209 -224h-102z" />
    <glyph glyph-name="Otilde" unicode="&#xd5;" horiz-adv-x="1585" 
d="M762 -20q-187 0 -329.5 82.5t-218 226t-75.5 325.5q0 168 59 317t159 254.5t238.5 166.5t293.5 61q139 0 256 -48t197.5 -133t125.5 -203.5t45 -256.5q0 -225 -100 -407t-271.5 -283.5t-379.5 -101.5zM293 618q0 -224 128.5 -360.5t338.5 -136.5q264 0 432 175.5
t168 477.5q0 223 -130 360.5t-341 137.5q-123 0 -233 -49t-190 -134.5t-126.5 -208t-46.5 -262.5zM616 1559q11 83 71 146.5t144 63.5q37 0 67.5 -13t51 -31.5t38 -37.5t37 -32t40.5 -13q73 0 113 125l92 -24q-11 -82 -71.5 -145.5t-143.5 -63.5q-45 0 -82 20t-57 43.5
t-45 43.5t-48 20q-73 0 -114 -125z" />
    <glyph glyph-name="Odieresis" unicode="&#xd6;" horiz-adv-x="1585" 
d="M762 -20q-187 0 -329.5 82.5t-218 226t-75.5 325.5q0 168 59 317t159 254.5t238.5 166.5t293.5 61q139 0 256 -48t197.5 -133t125.5 -203.5t45 -256.5q0 -225 -100 -407t-271.5 -283.5t-379.5 -101.5zM293 618q0 -224 128.5 -360.5t338.5 -136.5q264 0 432 175.5
t168 477.5q0 223 -130 360.5t-341 137.5q-123 0 -233 -49t-190 -134.5t-126.5 -208t-46.5 -262.5zM657 1665q0 41 29.5 69.5t69.5 28.5q36 0 58 -21.5t22 -55.5q0 -42 -29.5 -71.5t-71.5 -29.5q-34 0 -56 23t-22 57zM1020 1665q0 41 29.5 69.5t70.5 28.5q35 0 57.5 -21.5
t22.5 -55.5q0 -42 -30 -71.5t-72 -29.5q-34 0 -56 23t-22 57z" />
    <glyph glyph-name="multiply" unicode="&#xd7;" horiz-adv-x="1187" 
d="M909 74l-317 311l-313 -313l-89 90l312 311l-320 315l99 101l321 -316l316 316l90 -90l-316 -316l316 -311z" />
    <glyph glyph-name="Oslash" unicode="&#xd8;" horiz-adv-x="1585" 
d="M762 -20q-225 0 -379 114l-121 -139l-92 82l123 141q-154 174 -154 436q0 168 59 317t159 254.5t238.5 166.5t293.5 61q220 0 379 -115l123 142l98 -76l-131 -150q155 -175 155 -442q0 -225 -100 -407t-271.5 -283.5t-379.5 -101.5zM293 618q0 -192 100 -325l776 893
q-119 86 -280 86q-123 0 -233 -49t-190 -134.5t-126.5 -208t-46.5 -262.5zM481 207q116 -86 279 -86q264 0 432 175.5t168 477.5q0 193 -100 326z" />
    <glyph glyph-name="Ugrave" unicode="&#xd9;" horiz-adv-x="1456" 
d="M678 -20q-229 0 -357 130.5t-128 335.5q0 51 8 113l116 834h146l-117 -832q-10 -72 -10 -112q0 -152 88.5 -242t251.5 -90q186 0 311.5 119t153.5 321l116 836h148l-117 -836q-17 -126 -66.5 -231.5t-126 -182.5t-184 -120t-233.5 -43zM668 1837h163l134 -332h-105z" />
    <glyph glyph-name="Uacute" unicode="&#xda;" horiz-adv-x="1456" 
d="M678 -20q-229 0 -357 130.5t-128 335.5q0 51 8 113l116 834h146l-117 -832q-10 -72 -10 -112q0 -152 88.5 -242t251.5 -90q186 0 311.5 119t153.5 321l116 836h148l-117 -836q-17 -126 -66.5 -231.5t-126 -182.5t-184 -120t-233.5 -43zM770 1505l213 332h188l-278 -332
h-123z" />
    <glyph glyph-name="Ucircumflex" unicode="&#xdb;" horiz-adv-x="1456" 
d="M678 -20q-229 0 -357 130.5t-128 335.5q0 51 8 113l116 834h146l-117 -832q-10 -72 -10 -112q0 -152 88.5 -242t251.5 -90q186 0 311.5 119t153.5 321l116 836h148l-117 -836q-17 -126 -66.5 -231.5t-126 -182.5t-184 -120t-233.5 -43zM598 1505l258 332h131l170 -332
h-100l-148 224l-209 -224h-102z" />
    <glyph glyph-name="Udieresis" unicode="&#xdc;" horiz-adv-x="1456" 
d="M678 -20q-229 0 -357 130.5t-128 335.5q0 51 8 113l116 834h146l-117 -832q-10 -72 -10 -112q0 -152 88.5 -242t251.5 -90q186 0 311.5 119t153.5 321l116 836h148l-117 -836q-17 -126 -66.5 -231.5t-126 -182.5t-184 -120t-233.5 -43zM621 1665q0 41 29 69.5t69 28.5
q36 0 58 -21.5t22 -55.5q0 -42 -29.5 -71.5t-71.5 -29.5q-33 0 -55 23t-22 57zM983 1665q0 41 29.5 69.5t70.5 28.5q35 0 57.5 -21.5t22.5 -55.5q0 -42 -30 -71.5t-72 -29.5q-34 0 -56 23t-22 57z" />
    <glyph glyph-name="Yacute" unicode="&#xdd;" horiz-adv-x="1206" 
d="M465 0l82 586l-383 807h164l309 -666l500 666h172l-613 -807l-82 -586h-149zM645 1505l213 332h189l-279 -332h-123z" />
    <glyph glyph-name="Thorn" unicode="&#xde;" horiz-adv-x="1126" 
d="M139 0l197 1393h149l-41 -289h222q181 0 293 -94.5t112 -245.5q0 -197 -136.5 -323t-344.5 -126h-256l-45 -315h-150zM352 453h230q149 0 242.5 82.5t93.5 214.5q0 102 -65 159.5t-183 57.5h-244z" />
    <glyph glyph-name="germandbls" unicode="&#xdf;" horiz-adv-x="1128" 
d="M700 -16q-84 0 -163 22t-125 55l10 156q131 -106 276 -106q97 0 147 43.5t50 109.5q0 95 -121 176l-297 201l10 82q17 15 60 51t63.5 54t58 52t57 56t45.5 55t39 60t22.5 59.5t9.5 63.5q0 80 -51.5 119.5t-135.5 39.5q-233 0 -274 -303l-145 -1030h-140l146 1020
q62 440 413 440q149 0 240.5 -77t91.5 -205q0 -58 -21 -115.5t-52 -103t-76 -92.5t-84 -81t-86 -72q-17 -13 -25 -20l205 -143q192 -135 192 -293q0 -124 -95.5 -199t-244.5 -75z" />
    <glyph glyph-name="agrave" unicode="&#xe0;" 
d="M463 -20q-162 0 -266.5 119t-104.5 300q0 140 65.5 262t178.5 195.5t244 73.5q167 0 258 -111l12 90h139l-131 -909h-137l12 88q-123 -108 -270 -108zM233 401q0 -130 72.5 -209t186.5 -79q71 0 139.5 32.5t122.5 92.5l63 438q-32 52 -91 86.5t-136 34.5
q-146 0 -251.5 -116.5t-105.5 -279.5zM416 1393h164l133 -332h-105z" />
    <glyph glyph-name="aacute" unicode="&#xe1;" 
d="M463 -20q-162 0 -266.5 119t-104.5 300q0 140 65.5 262t178.5 195.5t244 73.5q167 0 258 -111l12 90h139l-131 -909h-137l12 88q-123 -108 -270 -108zM233 401q0 -130 72.5 -209t186.5 -79q71 0 139.5 32.5t122.5 92.5l63 438q-32 52 -91 86.5t-136 34.5
q-146 0 -251.5 -116.5t-105.5 -279.5zM518 1061l213 332h189l-279 -332h-123z" />
    <glyph glyph-name="acircumflex" unicode="&#xe2;" 
d="M463 -20q-162 0 -266.5 119t-104.5 300q0 140 65.5 262t178.5 195.5t244 73.5q167 0 258 -111l12 90h139l-131 -909h-137l12 88q-123 -108 -270 -108zM233 401q0 -130 72.5 -209t186.5 -79q71 0 139.5 32.5t122.5 92.5l63 438q-32 52 -91 86.5t-136 34.5
q-146 0 -251.5 -116.5t-105.5 -279.5zM346 1061l258 332h131l170 -332h-100l-148 223l-208 -223h-103z" />
    <glyph glyph-name="atilde" unicode="&#xe3;" 
d="M463 -20q-162 0 -266.5 119t-104.5 300q0 140 65.5 262t178.5 195.5t244 73.5q167 0 258 -111l12 90h139l-131 -909h-137l12 88q-123 -108 -270 -108zM233 401q0 -130 72.5 -209t186.5 -79q71 0 139.5 32.5t122.5 92.5l63 438q-32 52 -91 86.5t-136 34.5
q-146 0 -251.5 -116.5t-105.5 -279.5zM328 1114q11 83 71 147t144 64q45 0 81.5 -20t56.5 -43.5t45 -43.5t50 -20q73 0 113 125l92 -25q-11 -82 -71 -145t-144 -63q-45 0 -82 20t-56.5 43.5t-44.5 43.5t-48 20q-74 0 -115 -125z" />
    <glyph glyph-name="adieresis" unicode="&#xe4;" 
d="M463 -20q-162 0 -266.5 119t-104.5 300q0 140 65.5 262t178.5 195.5t244 73.5q167 0 258 -111l12 90h139l-131 -909h-137l12 88q-123 -108 -270 -108zM233 401q0 -130 72.5 -209t186.5 -79q71 0 139.5 32.5t122.5 92.5l63 438q-32 52 -91 86.5t-136 34.5
q-146 0 -251.5 -116.5t-105.5 -279.5zM369 1221q0 41 29 69.5t69 28.5q36 0 58 -22t22 -56q0 -42 -29.5 -71t-71.5 -29q-33 0 -55 23t-22 57zM731 1221q0 41 29.5 69.5t70.5 28.5q35 0 57.5 -22t22.5 -56q0 -42 -30 -71t-72 -29q-34 0 -56 23t-22 57z" />
    <glyph glyph-name="aring" unicode="&#xe5;" 
d="M463 -20q-162 0 -266.5 119t-104.5 300q0 140 65.5 262t178.5 195.5t244 73.5q167 0 258 -111l12 90h139l-131 -909h-137l12 88q-123 -108 -270 -108zM233 401q0 -130 72.5 -209t186.5 -79q71 0 139.5 32.5t122.5 92.5l63 438q-32 52 -91 86.5t-136 34.5
q-146 0 -251.5 -116.5t-105.5 -279.5zM465 1217q0 87 64 150t149 63q73 0 120.5 -48t47.5 -122q0 -86 -63.5 -148.5t-149.5 -62.5q-72 0 -120 48t-48 120zM561 1227q0 -38 23 -62t59 -24q42 0 74.5 33t32.5 77q0 38 -22.5 61t-59.5 23q-42 0 -74.5 -31.5t-32.5 -76.5z" />
    <glyph glyph-name="ae" unicode="&#xe6;" horiz-adv-x="1511" 
d="M1016 -20q-105 0 -185.5 41.5t-128.5 117.5q-195 -159 -399 -159q-115 0 -184.5 62.5t-69.5 158.5q0 207 260 280q114 30 346 60l15 102q2 10 2 29q0 63 -41.5 95t-116.5 32q-78 0 -164.5 -31.5t-165.5 -85.5l43 162q62 37 149.5 61.5t164.5 24.5q99 0 163.5 -38.5
t86.5 -105.5q137 144 317 144q150 0 239 -97.5t89 -240.5q0 -90 -29 -150h-635q-2 -16 -2 -51q0 -139 74 -209.5t196 -70.5q155 0 303 116l-55 -166q-122 -81 -272 -81zM188 215q0 -51 37.5 -80t100.5 -29q171 0 329 144q-16 66 -16 137l2 43q-200 -32 -270 -51
q-94 -24 -138.5 -62t-44.5 -102zM799 557h497q4 12 4 39q0 88 -55 146.5t-143 58.5q-95 0 -178.5 -67.5t-124.5 -176.5z" />
    <glyph glyph-name="ccedilla" unicode="&#xe7;" horiz-adv-x="913" 
d="M492 -20l-33 2l-35 -76q90 -4 133 -47.5t43 -106.5q0 -96 -68.5 -152.5t-173.5 -56.5q-45 0 -87.5 14.5t-67.5 36.5l2 125q68 -71 155 -71q52 0 88.5 25.5t36.5 70.5q0 20 -12.5 33t-36.5 20t-49.5 9.5t-62.5 3.5l-21 34l70 150q-132 37 -206.5 145t-74.5 262
q0 146 68 267.5t186.5 191.5t259.5 70q71 0 137 -20t107 -52v-158q-45 46 -111.5 71.5t-134.5 25.5q-152 0 -261.5 -112.5t-109.5 -281.5q0 -136 74 -213t201 -77q78 0 157 31.5t144 91.5l-41 -173q-127 -83 -276 -83z" />
    <glyph glyph-name="egrave" unicode="&#xe8;" horiz-adv-x="1005" 
d="M500 -20q-184 0 -296 113.5t-112 301.5q0 144 66 267.5t179 195.5t245 72q159 0 253.5 -99.5t94.5 -244.5q0 -89 -25 -144h-672q-2 -14 -2 -43q0 -143 78 -216.5t205 -73.5q169 0 326 118l-49 -166q-130 -81 -291 -81zM260 557h531q2 12 2 37q0 89 -59 149t-156 60
q-102 0 -190 -68t-128 -178zM387 1393h164l133 -332h-104z" />
    <glyph glyph-name="eacute" unicode="&#xe9;" horiz-adv-x="1005" 
d="M500 -20q-184 0 -296 113.5t-112 301.5q0 144 66 267.5t179 195.5t245 72q159 0 253.5 -99.5t94.5 -244.5q0 -89 -25 -144h-672q-2 -14 -2 -43q0 -143 78 -216.5t205 -73.5q169 0 326 118l-49 -166q-130 -81 -291 -81zM260 557h531q2 12 2 37q0 89 -59 149t-156 60
q-102 0 -190 -68t-128 -178zM489 1061l213 332h189l-279 -332h-123z" />
    <glyph glyph-name="ecircumflex" unicode="&#xea;" horiz-adv-x="1005" 
d="M500 -20q-184 0 -296 113.5t-112 301.5q0 144 66 267.5t179 195.5t245 72q159 0 253.5 -99.5t94.5 -244.5q0 -89 -25 -144h-672q-2 -14 -2 -43q0 -143 78 -216.5t205 -73.5q169 0 326 118l-49 -166q-130 -81 -291 -81zM260 557h531q2 12 2 37q0 89 -59 149t-156 60
q-102 0 -190 -68t-128 -178zM317 1061l258 332h132l170 -332h-101l-147 223l-209 -223h-103z" />
    <glyph glyph-name="edieresis" unicode="&#xeb;" horiz-adv-x="1005" 
d="M500 -20q-184 0 -296 113.5t-112 301.5q0 144 66 267.5t179 195.5t245 72q159 0 253.5 -99.5t94.5 -244.5q0 -89 -25 -144h-672q-2 -14 -2 -43q0 -143 78 -216.5t205 -73.5q169 0 326 118l-49 -166q-130 -81 -291 -81zM260 557h531q2 12 2 37q0 89 -59 149t-156 60
q-102 0 -190 -68t-128 -178zM340 1221q0 41 29 69.5t69 28.5q36 0 58 -22t22 -56q0 -42 -29 -71t-71 -29q-34 0 -56 23t-22 57zM702 1221q0 41 29.5 69.5t71.5 28.5q35 0 57.5 -22t22.5 -56q0 -42 -30.5 -71t-72.5 -29q-34 0 -56 23t-22 57z" />
    <glyph glyph-name="igrave" unicode="&#xec;" horiz-adv-x="454" 
d="M96 0l127 909h137l-127 -909h-137zM96 1393h164l133 -332h-104z" />
    <glyph glyph-name="iacute" unicode="&#xed;" horiz-adv-x="454" 
d="M96 0l127 909h137l-127 -909h-137zM199 1061l213 332h188l-278 -332h-123z" />
    <glyph glyph-name="icircumflex" unicode="&#xee;" horiz-adv-x="454" 
d="M96 0l127 909h137l-127 -909h-137zM27 1061l258 332h131l170 -332h-101l-147 223l-209 -223h-102z" />
    <glyph glyph-name="idieresis" unicode="&#xef;" horiz-adv-x="454" 
d="M96 0l127 909h137l-127 -909h-137zM49 1221q0 41 29 69.5t69 28.5q36 0 58 -22t22 -56q0 -42 -29 -71t-71 -29q-34 0 -56 23t-22 57zM412 1221q0 41 29.5 69.5t70.5 28.5q35 0 57.5 -22t22.5 -56q0 -42 -30.5 -71t-72.5 -29q-33 0 -55 23t-22 57z" />
    <glyph glyph-name="eth" unicode="&#xf0;" horiz-adv-x="1093" 
d="M465 -18q-162 0 -269.5 103t-107.5 269q0 210 135.5 356t339.5 146q85 0 163 -31.5t128 -87.5q-11 217 -127 359l-156 -154l-69 72l155 153q-84 73 -198 117l133 98q98 -38 174 -106l154 151l69 -69l-153 -154q161 -197 161 -495q0 -117 -20 -223.5t-63 -198.5t-105 -160
t-150 -106.5t-194 -38.5zM229 367q0 -117 70.5 -187.5t185.5 -70.5q77 0 141 35.5t107.5 98t71 141t39.5 171.5q-33 77 -107.5 125.5t-165.5 48.5q-147 0 -244.5 -105t-97.5 -257z" />
    <glyph glyph-name="ntilde" unicode="&#xf1;" horiz-adv-x="1073" 
d="M96 0l127 909h137l-16 -123q135 144 313 144q128 0 211.5 -76.5t83.5 -196.5q0 -19 -4 -51l-86 -606h-137l84 586q2 16 2 49q0 79 -50.5 120.5t-133.5 41.5q-85 0 -167.5 -48.5t-140.5 -134.5l-86 -614h-137zM313 1114q11 83 71 147t144 64q37 0 67.5 -13t51 -31.5
t38 -37.5t37 -32t40.5 -13q72 0 112 125l93 -25q-11 -82 -71 -145t-144 -63q-45 0 -82 20t-57 43.5t-45 43.5t-48 20q-73 0 -114 -125z" />
    <glyph glyph-name="ograve" unicode="&#xf2;" horiz-adv-x="1103" 
d="M500 -20q-187 0 -297.5 116t-110.5 301q0 145 67 267t185.5 194t261.5 72q186 0 296 -117.5t110 -302.5q0 -145 -67 -266.5t-185 -192.5t-260 -71zM233 403q0 -137 74 -215.5t195 -78.5q96 0 180 50.5t136 143t52 205.5q0 136 -73.5 213.5t-194.5 77.5
q-150 0 -259.5 -112t-109.5 -284zM414 1393h164l133 -332h-105z" />
    <glyph glyph-name="oacute" unicode="&#xf3;" horiz-adv-x="1103" 
d="M500 -20q-187 0 -297.5 116t-110.5 301q0 145 67 267t185.5 194t261.5 72q186 0 296 -117.5t110 -302.5q0 -145 -67 -266.5t-185 -192.5t-260 -71zM233 403q0 -137 74 -215.5t195 -78.5q96 0 180 50.5t136 143t52 205.5q0 136 -73.5 213.5t-194.5 77.5
q-150 0 -259.5 -112t-109.5 -284zM516 1061l213 332h189l-279 -332h-123z" />
    <glyph glyph-name="ocircumflex" unicode="&#xf4;" horiz-adv-x="1103" 
d="M500 -20q-187 0 -297.5 116t-110.5 301q0 145 67 267t185.5 194t261.5 72q186 0 296 -117.5t110 -302.5q0 -145 -67 -266.5t-185 -192.5t-260 -71zM233 403q0 -137 74 -215.5t195 -78.5q96 0 180 50.5t136 143t52 205.5q0 136 -73.5 213.5t-194.5 77.5
q-150 0 -259.5 -112t-109.5 -284zM344 1061l258 332h131l170 -332h-100l-148 223l-209 -223h-102z" />
    <glyph glyph-name="otilde" unicode="&#xf5;" horiz-adv-x="1103" 
d="M500 -20q-187 0 -297.5 116t-110.5 301q0 145 67 267t185.5 194t261.5 72q186 0 296 -117.5t110 -302.5q0 -145 -67 -266.5t-185 -192.5t-260 -71zM233 403q0 -137 74 -215.5t195 -78.5q96 0 180 50.5t136 143t52 205.5q0 136 -73.5 213.5t-194.5 77.5
q-150 0 -259.5 -112t-109.5 -284zM326 1114q11 83 71 147t144 64q45 0 81.5 -20t56.5 -43.5t45 -43.5t50 -20q73 0 113 125l92 -25q-11 -82 -71 -145t-144 -63q-45 0 -82 20t-57 43.5t-45 43.5t-48 20q-73 0 -114 -125z" />
    <glyph glyph-name="odieresis" unicode="&#xf6;" horiz-adv-x="1103" 
d="M500 -20q-187 0 -297.5 116t-110.5 301q0 145 67 267t185.5 194t261.5 72q186 0 296 -117.5t110 -302.5q0 -145 -67 -266.5t-185 -192.5t-260 -71zM233 403q0 -137 74 -215.5t195 -78.5q96 0 180 50.5t136 143t52 205.5q0 136 -73.5 213.5t-194.5 77.5
q-150 0 -259.5 -112t-109.5 -284zM365 1221q0 41 29 69.5t69 28.5q36 0 58 -22t22 -56q0 -42 -29.5 -71t-71.5 -29q-33 0 -55 23t-22 57zM727 1221q0 41 29.5 69.5t70.5 28.5q35 0 57.5 -22t22.5 -56q0 -42 -30 -71t-72 -29q-34 0 -56 23t-22 57z" />
    <glyph glyph-name="divide" unicode="&#xf7;" horiz-adv-x="1187" 
d="M596 727q-35 0 -64.5 28.5t-29.5 63.5q0 40 29 68t65 28q41 0 68.5 -27.5t27.5 -68.5q0 -36 -28 -64t-68 -28zM143 418v127h912v-127h-912zM502 145q0 39 28.5 68t65.5 29q40 0 68 -28.5t28 -68.5q0 -37 -28.5 -65.5t-67.5 -28.5q-37 0 -65.5 28.5t-28.5 65.5z" />
    <glyph glyph-name="oslash" unicode="&#xf8;" horiz-adv-x="1103" 
d="M498 -20q-128 0 -219 57l-109 -127l-90 74l110 127q-98 115 -98 288q0 108 40 206t108.5 169.5t164.5 113.5t203 42q129 0 223 -60l109 129l90 -73l-112 -131q94 -114 94 -285q0 -145 -67 -266.5t-185.5 -192.5t-261.5 -71zM231 403q0 -114 54 -190l460 549
q-61 37 -143 37q-150 0 -260.5 -111.5t-110.5 -284.5zM365 143q54 -32 135 -32q151 0 261.5 112.5t110.5 284.5q0 108 -49 182z" />
    <glyph glyph-name="ugrave" unicode="&#xf9;" horiz-adv-x="1071" 
d="M977 909l-127 -909h-137l16 123q-134 -143 -313 -143q-128 0 -211.5 76.5t-83.5 195.5q0 19 4 51l86 606h137l-84 -585q-2 -16 -2 -50q0 -79 50.5 -120t133.5 -41q85 0 168 48t140 134l86 614h137zM403 1393h164l133 -332h-104z" />
    <glyph glyph-name="uacute" unicode="&#xfa;" horiz-adv-x="1071" 
d="M977 909l-127 -909h-137l16 123q-134 -143 -313 -143q-128 0 -211.5 76.5t-83.5 195.5q0 19 4 51l86 606h137l-84 -585q-2 -16 -2 -50q0 -79 50.5 -120t133.5 -41q85 0 168 48t140 134l86 614h137zM506 1061l213 332h188l-278 -332h-123z" />
    <glyph glyph-name="ucircumflex" unicode="&#xfb;" horiz-adv-x="1071" 
d="M977 909l-127 -909h-137l16 123q-134 -143 -313 -143q-128 0 -211.5 76.5t-83.5 195.5q0 19 4 51l86 606h137l-84 -585q-2 -16 -2 -50q0 -79 50.5 -120t133.5 -41q85 0 168 48t140 134l86 614h137zM334 1061l258 332h131l170 -332h-100l-148 223l-209 -223h-102z" />
    <glyph glyph-name="udieresis" unicode="&#xfc;" horiz-adv-x="1071" 
d="M977 909l-127 -909h-137l16 123q-134 -143 -313 -143q-128 0 -211.5 76.5t-83.5 195.5q0 19 4 51l86 606h137l-84 -585q-2 -16 -2 -50q0 -79 50.5 -120t133.5 -41q85 0 168 48t140 134l86 614h137zM356 1221q0 41 29.5 69.5t69.5 28.5q36 0 58 -22t22 -56
q0 -42 -29.5 -71t-71.5 -29q-34 0 -56 23t-22 57zM719 1221q0 41 29.5 69.5t70.5 28.5q35 0 57.5 -22t22.5 -56q0 -42 -30 -71t-72 -29q-34 0 -56 23t-22 57z" />
    <glyph glyph-name="yacute" unicode="&#xfd;" horiz-adv-x="956" 
d="M45 -506l305 535l-254 880h144q66 -218 202 -721q188 353 400 721h149l-798 -1415h-148zM453 1061l213 332h188l-279 -332h-122z" />
    <glyph glyph-name="thorn" unicode="&#xfe;" horiz-adv-x="1099" 
d="M27 -506l272 1956h137l-88 -631q126 111 277 111q165 0 274 -120.5t109 -301.5q0 -140 -67.5 -262t-183 -194t-249.5 -72q-162 0 -262 108l-82 -594h-137zM266 231q34 -50 95.5 -84t140.5 -34q149 0 256.5 116t107.5 277q0 132 -75 211.5t-193 79.5q-73 0 -144 -32
t-126 -91z" />
    <glyph glyph-name="ydieresis" unicode="&#xff;" horiz-adv-x="956" 
d="M45 -506l305 535l-254 880h144q66 -218 202 -721q188 353 400 721h149l-798 -1415h-148zM303 1221q0 41 29 69.5t69 28.5q36 0 58 -22t22 -56q0 -42 -29 -71t-71 -29q-34 0 -56 23t-22 57zM666 1221q0 41 29.5 69.5t70.5 28.5q35 0 57.5 -22t22.5 -56q0 -42 -30.5 -71
t-72.5 -29q-33 0 -55 23t-22 57z" />
    <glyph glyph-name="Amacron" unicode="&#x100;" horiz-adv-x="1277" 
d="M-43 0l782 1403h66l387 -1403h-154l-110 412h-584l-225 -412h-162zM418 547h475l-156 577h-2zM526 1587l17 113h526l-16 -113h-527z" />
    <glyph glyph-name="amacron" unicode="&#x101;" 
d="M463 -20q-162 0 -266.5 119t-104.5 300q0 140 65.5 262t178.5 195.5t244 73.5q167 0 258 -111l12 90h139l-131 -909h-137l12 88q-123 -108 -270 -108zM233 401q0 -130 72.5 -209t186.5 -79q71 0 139.5 32.5t122.5 92.5l63 438q-32 52 -91 86.5t-136 34.5
q-146 0 -251.5 -116.5t-105.5 -279.5zM371 1143l16 112h526l-16 -112h-526z" />
    <glyph glyph-name="Abreve" unicode="&#x102;" horiz-adv-x="1277" 
d="M-43 0l782 1403h66l387 -1403h-154l-110 412h-584l-225 -412h-162zM418 547h475l-156 577h-2zM551 1812l106 35q2 -100 36 -163.5t108 -63.5t126 63.5t81 163.5l100 -35q-13 -78 -54 -147.5t-110.5 -115.5t-150.5 -46t-140.5 46t-85 116t-16.5 147z" />
    <glyph glyph-name="abreve" unicode="&#x103;" 
d="M463 -20q-162 0 -266.5 119t-104.5 300q0 140 65.5 262t178.5 195.5t244 73.5q167 0 258 -111l12 90h139l-131 -909h-137l12 88q-123 -108 -270 -108zM233 401q0 -130 72.5 -209t186.5 -79q71 0 139.5 32.5t122.5 92.5l63 438q-32 52 -91 86.5t-136 34.5
q-146 0 -251.5 -116.5t-105.5 -279.5zM395 1368l107 35q2 -100 35.5 -163.5t107.5 -63.5t126 63.5t81 163.5l100 -35q-13 -78 -54 -147.5t-110.5 -115.5t-150.5 -46t-140.5 46t-85 116t-16.5 147z" />
    <glyph glyph-name="Aogonek" unicode="&#x104;" horiz-adv-x="1277" 
d="M-43 0l782 1403h66l387 -1403q-105 -55 -157 -129t-52 -131q0 -37 22.5 -57.5t57.5 -20.5q66 0 137 64l-22 -121q-62 -58 -152 -58q-66 0 -113 46t-47 118q0 82 49.5 157.5t133.5 131.5h-11l-110 412h-584l-225 -412h-162zM418 547h475l-156 577h-2z" />
    <glyph glyph-name="aogonek" unicode="&#x105;" 
d="M463 -20q-162 0 -266.5 119t-104.5 300q0 140 65.5 262t178.5 195.5t244 73.5q167 0 258 -111l12 90h139l-131 -905l2 -4q-105 -55 -157 -129t-52 -131q0 -37 22.5 -57.5t57.5 -20.5q66 0 137 64l-22 -121q-62 -58 -152 -58q-66 0 -112.5 46t-46.5 118q0 84 50 160.5
t136 132.5l12 84q-123 -108 -270 -108zM233 401q0 -130 72.5 -209t186.5 -79q71 0 139.5 32.5t122.5 92.5l63 438q-32 52 -91 86.5t-136 34.5q-146 0 -251.5 -116.5t-105.5 -279.5z" />
    <glyph glyph-name="Cacute" unicode="&#x106;" horiz-adv-x="1277" 
d="M756 -20q-184 0 -325 82.5t-216.5 227t-75.5 328.5q0 168 58.5 316t158.5 253t239 165.5t294 60.5q233 0 387 -102v-183q-81 72 -173.5 108t-217.5 36q-164 0 -299 -84t-214 -235t-79 -339q0 -219 129 -356t340 -137q232 0 416 139l-54 -182q-162 -98 -368 -98zM801 1505
l213 332h188l-278 -332h-123z" />
    <glyph glyph-name="cacute" unicode="&#x107;" horiz-adv-x="913" 
d="M492 -20q-183 0 -291.5 116.5t-108.5 304.5q0 146 68 267.5t186.5 191.5t259.5 70q71 0 137 -20t107 -52v-158q-45 46 -111.5 71.5t-134.5 25.5q-152 0 -261.5 -112.5t-109.5 -281.5q0 -136 74 -213t201 -77q78 0 157 31.5t144 91.5l-41 -173q-127 -83 -276 -83z
M498 1061l213 332h188l-278 -332h-123z" />
    <glyph glyph-name="Ccircumflex" unicode="&#x108;" horiz-adv-x="1277" 
d="M756 -20q-184 0 -325 82.5t-216.5 227t-75.5 328.5q0 168 58.5 316t158.5 253t239 165.5t294 60.5q233 0 387 -102v-183q-81 72 -173.5 108t-217.5 36q-164 0 -299 -84t-214 -235t-79 -339q0 -219 129 -356t340 -137q232 0 416 139l-54 -182q-162 -98 -368 -98zM629 1505
l258 332h131l170 -332h-101l-147 224l-209 -224h-102z" />
    <glyph glyph-name="ccircumflex" unicode="&#x109;" horiz-adv-x="913" 
d="M492 -20q-183 0 -291.5 116.5t-108.5 304.5q0 146 68 267.5t186.5 191.5t259.5 70q71 0 137 -20t107 -52v-158q-45 46 -111.5 71.5t-134.5 25.5q-152 0 -261.5 -112.5t-109.5 -281.5q0 -136 74 -213t201 -77q78 0 157 31.5t144 91.5l-41 -173q-127 -83 -276 -83z
M326 1061l258 332h131l170 -332h-101l-147 223l-209 -223h-102z" />
    <glyph glyph-name="Cdotaccent" unicode="&#x10a;" horiz-adv-x="1277" 
d="M756 -20q-184 0 -325 82.5t-216.5 227t-75.5 328.5q0 168 58.5 316t158.5 253t239 165.5t294 60.5q233 0 387 -102v-183q-81 72 -173.5 108t-217.5 36q-164 0 -299 -84t-214 -235t-79 -339q0 -219 129 -356t340 -137q232 0 416 139l-54 -182q-162 -98 -368 -98zM846 1655
q0 41 29.5 70.5t70.5 29.5q35 0 57.5 -23t22.5 -57q0 -43 -29.5 -71.5t-72.5 -28.5q-34 0 -56 23t-22 57z" />
    <glyph glyph-name="cdotaccent" unicode="&#x10b;" horiz-adv-x="913" 
d="M492 -20q-183 0 -291.5 116.5t-108.5 304.5q0 146 68 267.5t186.5 191.5t259.5 70q71 0 137 -20t107 -52v-158q-45 46 -111.5 71.5t-134.5 25.5q-152 0 -261.5 -112.5t-109.5 -281.5q0 -136 74 -213t201 -77q78 0 157 31.5t144 91.5l-41 -173q-127 -83 -276 -83z
M543 1210q0 41 29.5 71t70.5 30q35 0 57.5 -23t22.5 -57q0 -43 -29.5 -72t-72.5 -29q-34 0 -56 23t-22 57z" />
    <glyph glyph-name="Ccaron" unicode="&#x10c;" horiz-adv-x="1277" 
d="M756 -20q-184 0 -325 82.5t-216.5 227t-75.5 328.5q0 168 58.5 316t158.5 253t239 165.5t294 60.5q233 0 387 -102v-183q-81 72 -173.5 108t-217.5 36q-164 0 -299 -84t-214 -235t-79 -339q0 -219 129 -356t340 -137q232 0 416 139l-54 -182q-162 -98 -368 -98zM680 1837
h98l150 -223l207 223h104l-260 -332h-131z" />
    <glyph glyph-name="ccaron" unicode="&#x10d;" horiz-adv-x="913" 
d="M492 -20q-183 0 -291.5 116.5t-108.5 304.5q0 146 68 267.5t186.5 191.5t259.5 70q71 0 137 -20t107 -52v-158q-45 46 -111.5 71.5t-134.5 25.5q-152 0 -261.5 -112.5t-109.5 -281.5q0 -136 74 -213t201 -77q78 0 157 31.5t144 91.5l-41 -173q-127 -83 -276 -83z
M377 1393h98l150 -224l206 224h105l-260 -332h-131z" />
    <glyph glyph-name="Dcaron" unicode="&#x10e;" horiz-adv-x="1427" 
d="M139 0l197 1393h399q189 0 332.5 -81.5t218 -221.5t74.5 -316q0 -155 -59 -296.5t-162 -247t-253.5 -168t-324.5 -62.5h-422zM307 137h252q135 0 254.5 49t205 133t134.5 202t49 251q0 218 -127 350.5t-354 132.5h-254zM567 1837h99l149 -223l207 223h104l-260 -332h-131
z" />
    <glyph glyph-name="dcaron" unicode="&#x10f;" horiz-adv-x="1099" 
d="M475 -20q-165 0 -274 120t-109 301q0 139 67 261t183 195t250 73q89 0 156 -31.5t106 -77.5l88 629h137l-202 -1450h-136l13 90q-125 -110 -279 -110zM233 403q0 -132 75 -211t194 -79q74 0 145.5 32.5t126.5 92.5l62 440q-36 51 -97 85t-139 34q-151 0 -259 -116.5
t-108 -277.5zM1106 1112l80 338h172l-146 -338h-106z" />
    <glyph glyph-name="Dcroat" unicode="&#x110;" horiz-adv-x="1445" 
d="M156 0l90 637h-178l18 113h176l90 643h400q189 0 332 -81.5t217.5 -221.5t74.5 -316q0 -155 -58.5 -296t-161.5 -247t-253.5 -168.5t-324.5 -62.5h-422zM324 137h251q181 0 328.5 83t231.5 228.5t84 323.5q0 218 -127.5 350.5t-354.5 132.5h-254l-71 -505h227l-16 -113
h-228z" />
    <glyph glyph-name="dcroat" unicode="&#x111;" horiz-adv-x="1099" 
d="M475 -20q-165 0 -274 120t-109 301q0 139 67 261t183 195t250 73q89 0 156 -31.5t106 -77.5l41 289h-205l19 113h202l31 227h137l-32 -227h215l-17 -113h-213l-155 -1110h-136l13 90q-125 -110 -279 -110zM233 403q0 -132 75 -211t194 -79q74 0 145.5 32.5t126.5 92.5
l62 440q-36 51 -97 85t-139 34q-151 0 -259 -116.5t-108 -277.5z" />
    <glyph glyph-name="Emacron" unicode="&#x112;" horiz-adv-x="1091" 
d="M139 0l197 1393h749l2 -138h-620l-70 -483h559l-20 -133h-557l-72 -502h649l-47 -137h-770zM469 1587l16 113h527l-17 -113h-526z" />
    <glyph glyph-name="emacron" unicode="&#x113;" horiz-adv-x="1005" 
d="M500 -20q-184 0 -296 113.5t-112 301.5q0 144 66 267.5t179 195.5t245 72q159 0 253.5 -99.5t94.5 -244.5q0 -89 -25 -144h-672q-2 -14 -2 -43q0 -143 78 -216.5t205 -73.5q169 0 326 118l-49 -166q-130 -81 -291 -81zM260 557h531q2 12 2 37q0 89 -59 149t-156 60
q-102 0 -190 -68t-128 -178zM344 1143l16 112h527l-17 -112h-526z" />
    <glyph glyph-name="Ebreve" unicode="&#x114;" horiz-adv-x="1091" 
d="M139 0l197 1393h749l2 -138h-620l-70 -483h559l-20 -133h-557l-72 -502h649l-47 -137h-770zM494 1812l106 35q2 -100 35.5 -163.5t107.5 -63.5t126 63.5t81 163.5l101 -35q-20 -122 -107.5 -215.5t-208.5 -93.5q-81 0 -140.5 46t-84.5 116t-16 147z" />
    <glyph glyph-name="ebreve" unicode="&#x115;" horiz-adv-x="1005" 
d="M500 -20q-184 0 -296 113.5t-112 301.5q0 144 66 267.5t179 195.5t245 72q159 0 253.5 -99.5t94.5 -244.5q0 -89 -25 -144h-672q-2 -14 -2 -43q0 -143 78 -216.5t205 -73.5q169 0 326 118l-49 -166q-130 -81 -291 -81zM260 557h531q2 12 2 37q0 89 -59 149t-156 60
q-102 0 -190 -68t-128 -178zM367 1368l106 35q2 -100 35.5 -163.5t107.5 -63.5t126 63.5t81 163.5l101 -35q-20 -122 -107.5 -215.5t-208.5 -93.5q-81 0 -140.5 46t-84.5 116t-16 147z" />
    <glyph glyph-name="Edotaccent" unicode="&#x116;" horiz-adv-x="1091" 
d="M139 0l197 1393h749l2 -138h-620l-70 -483h559l-20 -133h-557l-72 -502h649l-47 -137h-770zM662 1655q0 41 29.5 70.5t70.5 29.5q35 0 57.5 -23t22.5 -57q0 -42 -30 -71t-73 -29q-33 0 -55 23t-22 57z" />
    <glyph glyph-name="edotaccent" unicode="&#x117;" horiz-adv-x="1005" 
d="M500 -20q-184 0 -296 113.5t-112 301.5q0 144 66 267.5t179 195.5t245 72q159 0 253.5 -99.5t94.5 -244.5q0 -89 -25 -144h-672q-2 -14 -2 -43q0 -143 78 -216.5t205 -73.5q169 0 326 118l-49 -166q-130 -81 -291 -81zM260 557h531q2 12 2 37q0 89 -59 149t-156 60
q-102 0 -190 -68t-128 -178zM535 1210q0 41 29.5 71t70.5 30q35 0 57.5 -23t22.5 -57q0 -43 -30 -72t-73 -29q-33 0 -55 23t-22 57z" />
    <glyph glyph-name="Eogonek" unicode="&#x118;" horiz-adv-x="1091" 
d="M139 0l197 1393h749l2 -138h-620l-70 -483h559l-20 -133h-557l-72 -502h649l-47 -135l2 -2q-105 -55 -157 -129t-52 -131q0 -37 22.5 -57.5t57.5 -20.5q67 0 138 64l-23 -121q-62 -58 -152 -58q-66 0 -112.5 46t-46.5 118q0 83 49 158t133 131h-629z" />
    <glyph glyph-name="eogonek" unicode="&#x119;" horiz-adv-x="1005" 
d="M500 -20q-184 0 -296 113.5t-112 301.5q0 144 66 267.5t179 195.5t245 72q159 0 253.5 -99.5t94.5 -244.5q0 -89 -25 -144h-672q-2 -14 -2 -43q0 -143 78 -216.5t205 -73.5q169 0 326 118l-49 -166l-37 -20q-86 -53 -129 -121.5t-43 -118.5q0 -37 22.5 -57t57.5 -20
q68 0 137 63l-23 -121q-61 -57 -151 -57q-66 0 -113 46t-47 118q0 115 88 209q-16 -2 -53 -2zM260 557h531q2 12 2 37q0 89 -59 149t-156 60q-102 0 -190 -68t-128 -178z" />
    <glyph glyph-name="Ecaron" unicode="&#x11a;" horiz-adv-x="1091" 
d="M139 0l197 1393h749l2 -138h-620l-70 -483h559l-20 -133h-557l-72 -502h649l-47 -137h-770zM496 1837h98l149 -223l207 223h105l-260 -332h-131z" />
    <glyph glyph-name="ecaron" unicode="&#x11b;" horiz-adv-x="1005" 
d="M500 -20q-184 0 -296 113.5t-112 301.5q0 144 66 267.5t179 195.5t245 72q159 0 253.5 -99.5t94.5 -244.5q0 -89 -25 -144h-672q-2 -14 -2 -43q0 -143 78 -216.5t205 -73.5q169 0 326 118l-49 -166q-130 -81 -291 -81zM260 557h531q2 12 2 37q0 89 -59 149t-156 60
q-102 0 -190 -68t-128 -178zM369 1393h98l149 -224l207 224h105l-260 -332h-131z" />
    <glyph glyph-name="Gcircumflex" unicode="&#x11c;" horiz-adv-x="1396" 
d="M772 -20q-289 0 -461 178t-172 460q0 168 58.5 316t159 253t240 165.5t296.5 60.5q124 0 235.5 -30.5t188.5 -77.5l6 -183q-82 72 -194.5 111t-239.5 39q-166 0 -302.5 -84t-215 -234.5t-78.5 -337.5q0 -231 132 -364t355 -133q152 0 316 71l49 351h-348l59 135h451
l-82 -576q-212 -120 -453 -120zM659 1505l259 332h131l170 -332h-101l-147 224l-209 -224h-103z" />
    <glyph glyph-name="gcircumflex" unicode="&#x11d;" horiz-adv-x="960" 
d="M379 -522q-199 0 -309.5 72t-110.5 192q0 179 264 287q-45 40 -45 94q0 77 88 147q-77 39 -117 110t-40 163q0 163 121.5 264.5t324.5 101.5h399l27 -125h-203l-2 -2q70 -81 70 -194q0 -148 -110 -251.5t-290 -103.5q-13 0 -63 5q-61 -41 -61 -88q0 -31 36 -47.5
t158 -45.5q177 -42 259.5 -99t82.5 -167q0 -140 -132 -226.5t-347 -86.5zM96 -248q0 -69 74 -110t211 -41q159 0 250.5 54t91.5 130q0 17 -3.5 31t-14.5 26.5t-20.5 21t-33 18t-39 15.5t-51 15.5t-57.5 14.5t-70 16t-92 24q-123 -41 -184.5 -97.5t-61.5 -117.5zM246 541
q0 -84 54 -135.5t151 -51.5q114 0 186 68.5t72 171.5q0 86 -52.5 137t-146.5 51q-115 0 -189.5 -69t-74.5 -172zM281 1061l258 332h131l170 -332h-101l-147 223l-209 -223h-102z" />
    <glyph glyph-name="Gbreve" unicode="&#x11e;" horiz-adv-x="1396" 
d="M772 -20q-289 0 -461 178t-172 460q0 168 58.5 316t159 253t240 165.5t296.5 60.5q124 0 235.5 -30.5t188.5 -77.5l6 -183q-82 72 -194.5 111t-239.5 39q-166 0 -302.5 -84t-215 -234.5t-78.5 -337.5q0 -231 132 -364t355 -133q152 0 316 71l49 351h-348l59 135h451
l-82 -576q-212 -120 -453 -120zM709 1812l106 35q2 -100 35.5 -163.5t107.5 -63.5t126 63.5t81 163.5l101 -35q-20 -122 -107.5 -215.5t-208.5 -93.5q-81 0 -140.5 46t-84.5 116t-16 147z" />
    <glyph glyph-name="gbreve" unicode="&#x11f;" horiz-adv-x="960" 
d="M379 -522q-199 0 -309.5 72t-110.5 192q0 179 264 287q-45 40 -45 94q0 77 88 147q-77 39 -117 110t-40 163q0 163 121.5 264.5t324.5 101.5h399l27 -125h-203l-2 -2q70 -81 70 -194q0 -148 -110 -251.5t-290 -103.5q-13 0 -63 5q-61 -41 -61 -88q0 -31 36 -47.5
t158 -45.5q177 -42 259.5 -99t82.5 -167q0 -140 -132 -226.5t-347 -86.5zM96 -248q0 -69 74 -110t211 -41q159 0 250.5 54t91.5 130q0 17 -3.5 31t-14.5 26.5t-20.5 21t-33 18t-39 15.5t-51 15.5t-57.5 14.5t-70 16t-92 24q-123 -41 -184.5 -97.5t-61.5 -117.5zM246 541
q0 -84 54 -135.5t151 -51.5q114 0 186 68.5t72 171.5q0 86 -52.5 137t-146.5 51q-115 0 -189.5 -69t-74.5 -172zM332 1368l106 35q2 -100 36 -163.5t108 -63.5t125.5 63.5t80.5 163.5l101 -35q-20 -122 -107.5 -215.5t-208.5 -93.5q-81 0 -140.5 46t-84.5 116t-16 147z" />
    <glyph glyph-name="Gdotaccent" unicode="&#x120;" horiz-adv-x="1396" 
d="M772 -20q-289 0 -461 178t-172 460q0 168 58.5 316t159 253t240 165.5t296.5 60.5q124 0 235.5 -30.5t188.5 -77.5l6 -183q-82 72 -194.5 111t-239.5 39q-166 0 -302.5 -84t-215 -234.5t-78.5 -337.5q0 -231 132 -364t355 -133q152 0 316 71l49 351h-348l59 135h451
l-82 -576q-212 -120 -453 -120zM877 1655q0 41 29.5 70.5t70.5 29.5q35 0 57.5 -23t22.5 -57q0 -42 -30 -71t-73 -29q-33 0 -55 23t-22 57z" />
    <glyph glyph-name="gdotaccent" unicode="&#x121;" horiz-adv-x="960" 
d="M379 -522q-199 0 -309.5 72t-110.5 192q0 179 264 287q-45 40 -45 94q0 77 88 147q-77 39 -117 110t-40 163q0 163 121.5 264.5t324.5 101.5h399l27 -125h-203l-2 -2q70 -81 70 -194q0 -148 -110 -251.5t-290 -103.5q-13 0 -63 5q-61 -41 -61 -88q0 -31 36 -47.5
t158 -45.5q177 -42 259.5 -99t82.5 -167q0 -140 -132 -226.5t-347 -86.5zM96 -248q0 -69 74 -110t211 -41q159 0 250.5 54t91.5 130q0 17 -3.5 31t-14.5 26.5t-20.5 21t-33 18t-39 15.5t-51 15.5t-57.5 14.5t-70 16t-92 24q-123 -41 -184.5 -97.5t-61.5 -117.5zM246 541
q0 -84 54 -135.5t151 -51.5q114 0 186 68.5t72 171.5q0 86 -52.5 137t-146.5 51q-115 0 -189.5 -69t-74.5 -172zM498 1210q0 41 29.5 71t70.5 30q35 0 57.5 -23t22.5 -57q0 -43 -30 -72t-73 -29q-33 0 -55 23t-22 57z" />
    <glyph glyph-name="uni0122" unicode="&#x122;" horiz-adv-x="1396" 
d="M772 -20q-289 0 -461 178t-172 460q0 168 58.5 316t159 253t240 165.5t296.5 60.5q124 0 235.5 -30.5t188.5 -77.5l6 -183q-82 72 -194.5 111t-239.5 39q-166 0 -302.5 -84t-215 -234.5t-78.5 -337.5q0 -231 132 -364t355 -133q152 0 316 71l49 351h-348l59 135h451
l-82 -576q-212 -120 -453 -120zM532 -535q126 123 156 234q-29 5 -48 25t-19 49q0 44 29 72t69 28q39 0 63.5 -27.5t24.5 -72.5q0 -74 -57.5 -170.5t-135.5 -171.5z" />
    <glyph glyph-name="uni0123" unicode="&#x123;" horiz-adv-x="960" 
d="M379 -522q-199 0 -309.5 72t-110.5 192q0 179 264 287q-45 40 -45 94q0 77 88 147q-77 39 -117 110t-40 163q0 163 121.5 264.5t324.5 101.5h399l27 -125h-203l-2 -2q70 -81 70 -194q0 -148 -110 -251.5t-290 -103.5q-13 0 -63 5q-61 -41 -61 -88q0 -31 36 -47.5
t158 -45.5q177 -42 259.5 -99t82.5 -167q0 -140 -132 -226.5t-347 -86.5zM96 -248q0 -69 74 -110t211 -41q159 0 250.5 54t91.5 130q0 17 -3.5 31t-14.5 26.5t-20.5 21t-33 18t-39 15.5t-51 15.5t-57.5 14.5t-70 16t-92 24q-123 -41 -184.5 -97.5t-61.5 -117.5zM246 541
q0 -84 54 -135.5t151 -51.5q114 0 186 68.5t72 171.5q0 86 -52.5 137t-146.5 51q-115 0 -189.5 -69t-74.5 -172zM477 1137q0 75 57.5 172t135.5 170l82 -35q-125 -117 -156 -232q30 -6 49 -26t19 -49q0 -43 -29.5 -71t-69.5 -28q-39 0 -63.5 27.5t-24.5 71.5z" />
    <glyph glyph-name="Hcircumflex" unicode="&#x124;" horiz-adv-x="1482" 
d="M1067 0l88 627h-778l-88 -627h-150l197 1393h149l-88 -629h779l88 629h149l-196 -1393h-150zM610 1505l258 332h131l170 -332h-100l-147 224l-209 -224h-103z" />
    <glyph glyph-name="hcircumflex" unicode="&#x125;" horiz-adv-x="1073" 
d="M96 0l203 1450h137l-92 -664q135 144 313 144q128 0 211.5 -76.5t83.5 -196.5q0 -19 -4 -51l-86 -606h-137l84 588q2 14 2 47q0 79 -50.5 120.5t-133.5 41.5q-85 0 -167.5 -48.5t-140.5 -134.5l-86 -614h-137zM100 1540l258 332h131l170 -332h-100l-147 223l-209 -223
h-103z" />
    <glyph glyph-name="Hbar" unicode="&#x126;" horiz-adv-x="1509" 
d="M1077 0l88 627h-778l-88 -627h-149l139 985h-162l16 111h162l41 297h150l-41 -297h778l41 297h149l-41 -297h162l-16 -111h-162l-139 -985h-150zM408 764h778l31 221h-779z" />
    <glyph glyph-name="hbar" unicode="&#x127;" horiz-adv-x="1073" 
d="M96 0l156 1110h-180l18 113h176l33 227h137l-33 -227h240l-16 -113h-238l-45 -324q135 144 313 144q128 0 211.5 -76.5t83.5 -196.5q0 -19 -4 -51l-86 -606h-137l84 588q2 14 2 47q0 79 -50.5 120.5t-133.5 41.5q-85 0 -167.5 -48.5t-140.5 -134.5l-86 -614h-137z" />
    <glyph glyph-name="Itilde" unicode="&#x128;" horiz-adv-x="552" 
d="M139 0l197 1393h149l-196 -1393h-150zM123 1559q11 83 71 146.5t144 63.5q45 0 81.5 -20t56.5 -43.5t45 -43.5t50 -20q73 0 113 125l92 -24q-11 -82 -71.5 -145.5t-143.5 -63.5q-45 0 -82 20t-56.5 43.5t-44.5 43.5t-48 20q-74 0 -115 -125z" />
    <glyph glyph-name="itilde" unicode="&#x129;" horiz-adv-x="454" 
d="M96 0l127 909h137l-127 -909h-137zM8 1114q11 83 71 147t144 64q37 0 67.5 -13t51 -31.5t38 -37.5t37 -32t40.5 -13q72 0 112 125l93 -25q-11 -82 -71.5 -145t-144.5 -63q-45 0 -82 20t-56.5 43.5t-44.5 43.5t-48 20q-74 0 -115 -125z" />
    <glyph glyph-name="Imacron" unicode="&#x12a;" horiz-adv-x="552" 
d="M139 0l197 1393h149l-196 -1393h-150zM168 1587l16 113h527l-17 -113h-526z" />
    <glyph glyph-name="imacron" unicode="&#x12b;" horiz-adv-x="454" 
d="M96 0l127 909h137l-127 -909h-137zM51 1143l17 112h526l-16 -112h-527z" />
    <glyph glyph-name="Ibreve" unicode="&#x12c;" horiz-adv-x="552" 
d="M139 0l197 1393h149l-196 -1393h-150zM190 1812l107 35q2 -100 35.5 -163.5t107.5 -63.5t126 63.5t81 163.5l101 -35q-20 -122 -107.5 -215.5t-208.5 -93.5q-81 0 -140.5 46t-85 116t-16.5 147z" />
    <glyph glyph-name="ibreve" unicode="&#x12d;" horiz-adv-x="454" 
d="M96 0l127 909h137l-127 -909h-137zM76 1368l106 35q2 -100 36 -163.5t108 -63.5t125.5 63.5t80.5 163.5l101 -35q-20 -122 -107.5 -215.5t-208.5 -93.5q-81 0 -140.5 46t-84.5 116t-16 147z" />
    <glyph glyph-name="Iogonek" unicode="&#x12e;" horiz-adv-x="552" 
d="M139 0l197 1393h149l-196 -1393q-105 -55 -157 -129t-52 -131q0 -37 22.5 -57.5t57.5 -20.5q66 0 137 64l-23 -121q-62 -58 -151 -58q-66 0 -113 46t-47 118q0 83 49 158t133 131h-6z" />
    <glyph glyph-name="iogonek" unicode="&#x12f;" horiz-adv-x="454" 
d="M322 1130q-34 0 -56 23t-22 57q0 41 29.5 71t70.5 30q35 0 57.5 -23t22.5 -57q0 -43 -29.5 -72t-72.5 -29zM-92 -289q0 85 50.5 161t137.5 132l127 905h137l-127 -909q-72 -37 -121.5 -88.5t-68 -94t-18.5 -77.5q0 -37 22 -57.5t57 -20.5q67 0 138 64l-23 -121
q-62 -58 -151 -58q-66 0 -113 46t-47 118z" />
    <glyph glyph-name="Idotaccent" unicode="&#x130;" horiz-adv-x="552" 
d="M139 0l197 1393h149l-196 -1393h-150zM358 1655q0 41 30 70.5t71 29.5q35 0 57.5 -23t22.5 -57q0 -42 -30 -71t-73 -29q-34 0 -56 23t-22 57z" />
    <glyph glyph-name="dotlessi" unicode="&#x131;" horiz-adv-x="454" 
d="M96 0l127 909h137l-127 -909h-137z" />
    <glyph glyph-name="IJ" unicode="&#x132;" horiz-adv-x="1193" 
d="M555 -20q-85 0 -166.5 29.5t-140.5 80.5l2 170q157 -143 311 -143q246 0 281 233l147 1043h148l-148 -1061q-17 -117 -83.5 -198.5t-156 -117.5t-194.5 -36zM199 428l137 965h149l-137 -965h-149z" />
    <glyph glyph-name="ij" unicode="&#x133;" horiz-adv-x="882" 
d="M96 0l127 909h137l-127 -909h-137zM246 1247q0 43 30 74t70 31q39 0 65.5 -25.5t26.5 -62.5q0 -43 -30.5 -74t-73.5 -31q-37 0 -62.5 25.5t-25.5 62.5zM305 -516q94 150 151 292.5t83 327.5l112 805h137l-112 -805q-45 -324 -217 -606zM674 1247q0 43 30.5 74t71.5 31
q38 0 64 -26t26 -64q0 -42 -31 -72.5t-73 -30.5q-37 0 -62.5 25.5t-25.5 62.5z" />
    <glyph glyph-name="Jcircumflex" unicode="&#x134;" horiz-adv-x="808" 
d="M231 -20q-135 0 -221 67l2 168q53 -48 101.5 -73t109.5 -25q56 0 102 20.5t83 74.5t49 138l147 1043h148l-148 -1059q-25 -172 -130 -263t-243 -91zM410 1505l258 332h131l170 -332h-101l-147 224l-209 -224h-102z" />
    <glyph glyph-name="jcircumflex" unicode="&#x135;" horiz-adv-x="454" 
d="M-123 -516q94 150 151 292.5t83 327.5l112 805h137l-112 -805q-45 -324 -217 -606zM27 1061l258 332h131l170 -332h-101l-147 223l-209 -223h-102z" />
    <glyph glyph-name="uni0136" unicode="&#x136;" horiz-adv-x="1257" 
d="M139 0l197 1393h149l-100 -713l758 713h188l-631 -605l496 -788h-172l-434 696l-234 -219l-67 -477h-150zM389 -535q126 123 156 232q-30 6 -49 26t-19 50q0 44 29 72t69 28q39 0 64 -27.5t25 -72.5q0 -73 -57.5 -169.5t-135.5 -172.5z" />
    <glyph glyph-name="uni0137" unicode="&#x137;" horiz-adv-x="980" 
d="M96 0l203 1450h137l-137 -979l510 438h199l-437 -368l334 -541h-166l-272 455q-25 -21 -191 -150l-43 -305h-137zM268 -535q126 123 156 234q-29 5 -48.5 25.5t-19.5 48.5q0 44 29.5 72t69.5 28q39 0 63.5 -27.5t24.5 -72.5q0 -74 -57.5 -170.5t-135.5 -171.5z" />
    <glyph glyph-name="kgreenlandic" unicode="&#x138;" horiz-adv-x="980" 
d="M96 0l127 909h137l-61 -438l510 438h199l-437 -368l334 -541h-166l-272 455q-25 -21 -191 -150l-43 -305h-137z" />
    <glyph glyph-name="Lacute" unicode="&#x139;" horiz-adv-x="964" 
d="M139 0l197 1393h149l-178 -1256h580l-49 -137h-699zM313 1505l213 332h189l-279 -332h-123z" />
    <glyph glyph-name="lacute" unicode="&#x13a;" horiz-adv-x="454" 
d="M96 0l203 1450h137l-203 -1450h-137zM272 1563l213 331h189l-279 -331h-123z" />
    <glyph glyph-name="uni013B" unicode="&#x13b;" horiz-adv-x="964" 
d="M139 0l197 1393h149l-178 -1256h580l-49 -137h-699zM283 -535q125 122 155 234q-30 5 -48.5 25t-18.5 49q0 44 29 72t69 28q39 0 63.5 -27.5t24.5 -72.5q0 -74 -57 -171t-135 -171z" />
    <glyph glyph-name="uni013C" unicode="&#x13c;" horiz-adv-x="454" 
d="M96 0l203 1450h137l-203 -1450h-137zM-41 -535q126 123 156 232q-30 6 -49 26t-19 50q0 44 29 72t69 28q39 0 63.5 -27.5t24.5 -72.5q0 -73 -57.5 -169.5t-134.5 -172.5z" />
    <glyph glyph-name="Lcaron" unicode="&#x13d;" horiz-adv-x="991" 
d="M139 0l197 1393h149l-178 -1256h580l-49 -137h-699zM811 1055l80 338h172l-145 -338h-107z" />
    <glyph glyph-name="lcaron" unicode="&#x13e;" horiz-adv-x="456" 
d="M96 0l203 1450h137l-203 -1450h-137zM461 1112l80 338h172l-146 -338h-106z" />
    <glyph glyph-name="Ldot" unicode="&#x13f;" horiz-adv-x="966" 
d="M139 0l197 1393h149l-178 -1256h580l-49 -137h-699zM537 758q0 50 39.5 87.5t91.5 37.5q41 0 71.5 -31.5t30.5 -71.5q0 -50 -38.5 -88.5t-86.5 -38.5q-45 0 -76.5 32t-31.5 73z" />
    <glyph glyph-name="ldot" unicode="&#x140;" horiz-adv-x="503" 
d="M96 0l203 1450h137l-203 -1450h-137zM369 741q0 50 39.5 87.5t91.5 37.5q41 0 71.5 -31t30.5 -71q0 -50 -38.5 -88.5t-86.5 -38.5q-45 0 -76.5 31.5t-31.5 72.5z" />
    <glyph glyph-name="Lslash" unicode="&#x141;" horiz-adv-x="985" 
d="M160 0l80 569l-172 -104l22 147l170 103l96 678h150l-82 -580l223 135l-22 -147l-222 -133l-75 -531h579l-49 -137h-698z" />
    <glyph glyph-name="lslash" unicode="&#x142;" horiz-adv-x="620" 
d="M182 0l90 641l-196 -119l22 148l195 116l92 664h137l-80 -573l213 129l-22 -148l-211 -127l-103 -731h-137z" />
    <glyph glyph-name="Nacute" unicode="&#x143;" horiz-adv-x="1505" 
d="M1176 -8l-736 1104h-4l-151 -1096h-146l197 1401h70l727 -1090h4l151 1082h148l-199 -1401h-61zM797 1505l213 332h188l-278 -332h-123z" />
    <glyph glyph-name="nacute" unicode="&#x144;" horiz-adv-x="1073" 
d="M96 0l127 909h137l-16 -123q135 144 313 144q128 0 211.5 -76.5t83.5 -196.5q0 -19 -4 -51l-86 -606h-137l84 586q2 16 2 49q0 79 -50.5 120.5t-133.5 41.5q-85 0 -167.5 -48.5t-140.5 -134.5l-86 -614h-137zM504 1061l213 332h188l-278 -332h-123z" />
    <glyph glyph-name="uni0145" unicode="&#x145;" horiz-adv-x="1505" 
d="M1176 -8l-736 1104h-4l-151 -1096h-146l197 1401h70l727 -1090h4l151 1082h148l-199 -1401h-61zM483 -535q126 123 156 234q-29 5 -48.5 25.5t-19.5 48.5q0 44 29.5 72t69.5 28q39 0 63.5 -27.5t24.5 -72.5q0 -74 -57.5 -170.5t-135.5 -171.5z" />
    <glyph glyph-name="uni0146" unicode="&#x146;" horiz-adv-x="1073" 
d="M96 0l127 909h137l-16 -123q135 144 313 144q128 0 211.5 -76.5t83.5 -196.5q0 -19 -4 -51l-86 -606h-137l84 586q2 16 2 49q0 79 -50.5 120.5t-133.5 41.5q-85 0 -167.5 -48.5t-140.5 -134.5l-86 -614h-137zM285 -535q126 121 157 234q-30 5 -48.5 25t-18.5 49
q0 44 28 72t68 28q39 0 64.5 -27.5t25.5 -72.5q0 -74 -58 -170.5t-136 -171.5z" />
    <glyph glyph-name="Ncaron" unicode="&#x147;" horiz-adv-x="1505" 
d="M1176 -8l-736 1104h-4l-151 -1096h-146l197 1401h70l727 -1090h4l151 1082h148l-199 -1401h-61zM676 1837h98l150 -223l206 223h105l-260 -332h-131z" />
    <glyph glyph-name="ncaron" unicode="&#x148;" horiz-adv-x="1073" 
d="M96 0l127 909h137l-16 -123q135 144 313 144q128 0 211.5 -76.5t83.5 -196.5q0 -19 -4 -51l-86 -606h-137l84 586q2 16 2 49q0 79 -50.5 120.5t-133.5 41.5q-85 0 -167.5 -48.5t-140.5 -134.5l-86 -614h-137zM383 1393h98l150 -224l207 224h104l-260 -332h-131z" />
    <glyph glyph-name="Eng" unicode="&#x14a;" horiz-adv-x="1505" 
d="M821 -465q-89 0 -177.5 32t-147.5 87v170q78 -73 152 -111.5t165 -38.5q46 0 87.5 12t79.5 38t65 72.5t36 109.5l27 186l-668 1004h-4l-151 -1096h-146l197 1401h70l727 -1090h4l151 1082h148l-213 -1504q-13 -87 -51.5 -156t-93.5 -111.5t-120.5 -64.5t-136.5 -22z" />
    <glyph glyph-name="eng" unicode="&#x14b;" horiz-adv-x="1073" 
d="M96 0l127 909h137l-16 -118q136 139 315 139q127 0 210 -77t83 -196q0 -19 -4 -51l-71 -502q-45 -329 -218 -606l-153 -14q95 151 152 293.5t83 326.5l68 482q4 32 4 49q0 79 -51.5 120.5t-134.5 41.5q-85 0 -167.5 -48.5t-140.5 -134.5l-86 -614h-137z" />
    <glyph glyph-name="Omacron" unicode="&#x14c;" horiz-adv-x="1585" 
d="M762 -20q-187 0 -329.5 82.5t-218 226t-75.5 325.5q0 168 59 317t159 254.5t238.5 166.5t293.5 61q139 0 256 -48t197.5 -133t125.5 -203.5t45 -256.5q0 -225 -100 -407t-271.5 -283.5t-379.5 -101.5zM293 618q0 -224 128.5 -360.5t338.5 -136.5q264 0 432 175.5
t168 477.5q0 223 -130 360.5t-341 137.5q-123 0 -233 -49t-190 -134.5t-126.5 -208t-46.5 -262.5zM659 1587l17 113h526l-16 -113h-527z" />
    <glyph glyph-name="omacron" unicode="&#x14d;" horiz-adv-x="1103" 
d="M500 -20q-187 0 -297.5 116t-110.5 301q0 145 67 267t185.5 194t261.5 72q186 0 296 -117.5t110 -302.5q0 -145 -67 -266.5t-185 -192.5t-260 -71zM233 403q0 -137 74 -215.5t195 -78.5q96 0 180 50.5t136 143t52 205.5q0 136 -73.5 213.5t-194.5 77.5
q-150 0 -259.5 -112t-109.5 -284zM369 1143l16 112h526l-16 -112h-526z" />
    <glyph glyph-name="Obreve" unicode="&#x14e;" horiz-adv-x="1585" 
d="M762 -20q-187 0 -329.5 82.5t-218 226t-75.5 325.5q0 168 59 317t159 254.5t238.5 166.5t293.5 61q139 0 256 -48t197.5 -133t125.5 -203.5t45 -256.5q0 -225 -100 -407t-271.5 -283.5t-379.5 -101.5zM293 618q0 -224 128.5 -360.5t338.5 -136.5q264 0 432 175.5
t168 477.5q0 223 -130 360.5t-341 137.5q-123 0 -233 -49t-190 -134.5t-126.5 -208t-46.5 -262.5zM684 1812l107 35q2 -100 35.5 -163.5t107.5 -63.5t126 63.5t81 163.5l100 -35q-13 -78 -54 -147.5t-110.5 -115.5t-150.5 -46t-140.5 46t-85 116t-16.5 147z" />
    <glyph glyph-name="obreve" unicode="&#x14f;" horiz-adv-x="1103" 
d="M500 -20q-187 0 -297.5 116t-110.5 301q0 145 67 267t185.5 194t261.5 72q186 0 296 -117.5t110 -302.5q0 -145 -67 -266.5t-185 -192.5t-260 -71zM233 403q0 -137 74 -215.5t195 -78.5q96 0 180 50.5t136 143t52 205.5q0 136 -73.5 213.5t-194.5 77.5
q-150 0 -259.5 -112t-109.5 -284zM393 1368l107 35q2 -100 35.5 -163.5t107.5 -63.5t126 63.5t81 163.5l100 -35q-13 -78 -54 -147.5t-110.5 -115.5t-150.5 -46t-140.5 46t-85 116t-16.5 147z" />
    <glyph glyph-name="Ohungarumlaut" unicode="&#x150;" horiz-adv-x="1585" 
d="M762 -20q-187 0 -329.5 82.5t-218 226t-75.5 325.5q0 168 59 317t159 254.5t238.5 166.5t293.5 61q139 0 256 -48t197.5 -133t125.5 -203.5t45 -256.5q0 -225 -100 -407t-271.5 -283.5t-379.5 -101.5zM293 618q0 -224 128.5 -360.5t338.5 -136.5q264 0 432 175.5
t168 477.5q0 223 -130 360.5t-341 137.5q-123 0 -233 -49t-190 -134.5t-126.5 -208t-46.5 -262.5zM719 1501l184 332h154l-232 -332h-106zM967 1501l184 332h154l-232 -332h-106z" />
    <glyph glyph-name="ohungarumlaut" unicode="&#x151;" horiz-adv-x="1103" 
d="M500 -20q-187 0 -297.5 116t-110.5 301q0 145 67 267t185.5 194t261.5 72q186 0 296 -117.5t110 -302.5q0 -145 -67 -266.5t-185 -192.5t-260 -71zM233 403q0 -137 74 -215.5t195 -78.5q96 0 180 50.5t136 143t52 205.5q0 136 -73.5 213.5t-194.5 77.5
q-150 0 -259.5 -112t-109.5 -284zM428 1057l184 332h154l-231 -332h-107zM676 1057l184 332h154l-232 -332h-106z" />
    <glyph glyph-name="OE" unicode="&#x152;" horiz-adv-x="2213" 
d="M737 -20q-177 0 -314.5 82.5t-211.5 225.5t-74 322q0 161 62 309.5t166 256.5t246 172.5t294 64.5q169 0 302.5 -76t211.5 -209l37 265h752l2 -138h-623l-69 -483h559l-21 -133h-557l-72 -502h650l-47 -137h-770l32 227q-108 -116 -252 -181.5t-303 -65.5zM291 612
q0 -221 126 -356t328 -135q121 0 234 51.5t196 138.5t133 209t50 256q0 223 -127.5 359.5t-329.5 136.5q-121 0 -233.5 -52t-195 -140t-132 -210.5t-49.5 -257.5z" />
    <glyph glyph-name="oe" unicode="&#x153;" horiz-adv-x="1777" 
d="M498 -20q-185 0 -295.5 117.5t-110.5 301.5q0 108 40 206t108.5 169.5t164.5 113.5t203 42q128 0 220 -58.5t137 -160.5q66 101 168.5 160t220.5 59q159 0 253.5 -99.5t94.5 -244.5q0 -89 -25 -144h-671q-2 -14 -2 -43q0 -143 78.5 -215.5t207.5 -72.5q167 0 322 116
l-49 -166q-130 -81 -291 -81q-128 0 -222.5 57.5t-140.5 159.5q-69 -101 -176 -159t-235 -58zM233 403q0 -138 74.5 -215t194.5 -77q149 0 258.5 112.5t109.5 284.5q0 136 -73.5 212.5t-194.5 76.5q-148 0 -258.5 -111.5t-110.5 -282.5zM1032 557h531q2 12 2 37
q0 89 -59 148t-156 59q-101 0 -189.5 -67.5t-128.5 -176.5z" />
    <glyph glyph-name="Racute" unicode="&#x154;" horiz-adv-x="1202" 
d="M139 0l197 1393h373q189 0 296 -100.5t107 -266.5q0 -154 -93.5 -272t-248.5 -164l371 -590h-176l-344 565h-25h-229l-80 -565h-148zM385 698h215q159 0 257.5 87.5t98.5 232.5q0 118 -69 177.5t-193 59.5h-229zM584 1505l213 332h188l-278 -332h-123z" />
    <glyph glyph-name="racute" unicode="&#x155;" horiz-adv-x="673" 
d="M96 0l127 909h137l-20 -149q63 76 144 119t163 43q25 0 41 -2l-2 -138q-28 4 -53 4q-183 0 -318 -194l-82 -592h-137zM342 1061l213 332h188l-278 -332h-123z" />
    <glyph glyph-name="uni0156" unicode="&#x156;" horiz-adv-x="1202" 
d="M139 0l197 1393h373q189 0 296 -100.5t107 -266.5q0 -154 -93.5 -272t-248.5 -164l371 -590h-176l-344 565h-25h-229l-80 -565h-148zM385 698h215q159 0 257.5 87.5t98.5 232.5q0 118 -69 177.5t-193 59.5h-229zM393 -535q129 124 156 234q-28 5 -47 25t-19 49
q0 44 28.5 72t68.5 28q39 0 63.5 -27.5t24.5 -72.5q0 -74 -57.5 -170.5t-135.5 -171.5z" />
    <glyph glyph-name="uni0157" unicode="&#x157;" horiz-adv-x="673" 
d="M96 0l127 909h137l-20 -149q63 76 144 119t163 43q25 0 41 -2l-2 -138q-28 4 -53 4q-183 0 -318 -194l-82 -592h-137zM-35 -535q126 123 156 234q-30 5 -49 25t-19 49q0 44 29.5 72t69.5 28q39 0 63.5 -27.5t24.5 -72.5q0 -74 -57.5 -170.5t-135.5 -171.5z" />
    <glyph glyph-name="Rcaron" unicode="&#x158;" horiz-adv-x="1202" 
d="M139 0l197 1393h373q189 0 296 -100.5t107 -266.5q0 -154 -93.5 -272t-248.5 -164l371 -590h-176l-344 565h-25h-229l-80 -565h-148zM385 698h215q159 0 257.5 87.5t98.5 232.5q0 118 -69 177.5t-193 59.5h-229zM463 1837h98l150 -223l207 223h104l-260 -332h-131z" />
    <glyph glyph-name="rcaron" unicode="&#x159;" horiz-adv-x="673" 
d="M96 0l127 909h137l-20 -149q63 76 144 119t163 43q25 0 41 -2l-2 -138q-28 4 -53 4q-183 0 -318 -194l-82 -592h-137zM221 1393h98l150 -224l207 224h104l-260 -332h-131z" />
    <glyph glyph-name="Sacute" unicode="&#x15a;" horiz-adv-x="1054" 
d="M469 -16q-107 0 -214.5 34.5t-180.5 96.5v198q67 -88 177.5 -138t223.5 -50q139 0 228.5 69t89.5 183q0 60 -33 108.5t-68.5 73.5t-118.5 75q-18 11 -28 17q-65 37 -98.5 58t-82.5 60t-73.5 73t-43 84t-18.5 108q0 173 128.5 276t324.5 103q91 0 175.5 -22.5t137.5 -57.5
v-186q-125 125 -315 125q-135 0 -216 -62.5t-81 -165.5q0 -35 12.5 -66.5t28 -52.5t47.5 -45.5t54 -37.5t66 -37.5t64 -36.5q68 -39 113.5 -72t89.5 -80t66 -105.5t22 -129.5q0 -122 -67 -214t-174 -137.5t-236 -45.5zM563 1505l213 332h189l-279 -332h-123z" />
    <glyph glyph-name="sacute" unicode="&#x15b;" horiz-adv-x="815" 
d="M356 -20q-177 0 -290 86v165q133 -120 288 -120q99 0 151 40t52 103q0 47 -39.5 77t-136.5 68q-47 19 -82.5 38.5t-75 51t-61 77t-21.5 100.5q0 113 89.5 188.5t242.5 75.5q77 0 146 -22t106 -56l-6 -158q-114 105 -256 105q-89 0 -135.5 -36.5t-46.5 -92.5
q0 -49 42 -80.5t148 -75.5q109 -45 167 -103t58 -151q0 -121 -93 -200.5t-247 -79.5zM373 1061l213 332h188l-278 -332h-123z" />
    <glyph glyph-name="Scircumflex" unicode="&#x15c;" horiz-adv-x="1054" 
d="M469 -16q-107 0 -214.5 34.5t-180.5 96.5v198q67 -88 177.5 -138t223.5 -50q139 0 228.5 69t89.5 183q0 60 -33 108.5t-68.5 73.5t-118.5 75q-18 11 -28 17q-65 37 -98.5 58t-82.5 60t-73.5 73t-43 84t-18.5 108q0 173 128.5 276t324.5 103q91 0 175.5 -22.5t137.5 -57.5
v-186q-125 125 -315 125q-135 0 -216 -62.5t-81 -165.5q0 -35 12.5 -66.5t28 -52.5t47.5 -45.5t54 -37.5t66 -37.5t64 -36.5q68 -39 113.5 -72t89.5 -80t66 -105.5t22 -129.5q0 -122 -67 -214t-174 -137.5t-236 -45.5zM391 1505l258 332h131l170 -332h-100l-148 224
l-208 -224h-103z" />
    <glyph glyph-name="scircumflex" unicode="&#x15d;" horiz-adv-x="815" 
d="M356 -20q-177 0 -290 86v165q133 -120 288 -120q99 0 151 40t52 103q0 47 -39.5 77t-136.5 68q-47 19 -82.5 38.5t-75 51t-61 77t-21.5 100.5q0 113 89.5 188.5t242.5 75.5q77 0 146 -22t106 -56l-6 -158q-114 105 -256 105q-89 0 -135.5 -36.5t-46.5 -92.5
q0 -49 42 -80.5t148 -75.5q109 -45 167 -103t58 -151q0 -121 -93 -200.5t-247 -79.5zM201 1061l258 332h131l170 -332h-101l-147 223l-209 -223h-102z" />
    <glyph glyph-name="Scedilla" unicode="&#x15e;" horiz-adv-x="1054" 
d="M430 -457q-45 0 -88 14.5t-68 36.5l2 125q68 -71 156 -71q52 0 88.5 25.5t36.5 70.5q0 20 -12.5 33t-37 20t-50 9.5t-62.5 3.5l-20 34l63 140q-100 5 -197.5 39t-166.5 92v198q67 -88 177.5 -138t223.5 -50q139 0 228.5 69t89.5 183q0 60 -33 108.5t-68.5 73.5t-118.5 75
q-18 11 -28 17q-65 37 -98.5 58t-82.5 60t-73.5 73t-43 84t-18.5 108q0 173 128.5 276t324.5 103q91 0 175.5 -22.5t137.5 -57.5v-186q-125 125 -315 125q-135 0 -216 -62.5t-81 -165.5q0 -35 12.5 -66.5t28 -52.5t47.5 -45.5t54 -37.5t66 -37.5t64 -36.5q68 -39 113.5 -72
t89.5 -80t66 -105.5t22 -129.5q0 -167 -118 -272t-296 -121l-36 -82q90 -4 133 -47.5t43 -106.5q0 -96 -68.5 -152.5t-173.5 -56.5z" />
    <glyph glyph-name="scedilla" unicode="&#x15f;" horiz-adv-x="815" 
d="M276 -457q-45 0 -87.5 14.5t-67.5 36.5l2 125q68 -71 156 -71q52 0 88 25.5t36 70.5q0 20 -12.5 33t-36.5 20t-49.5 9.5t-62.5 3.5l-21 34l64 140q-132 17 -219 82v165q133 -120 288 -120q99 0 151 40t52 103q0 47 -39.5 77t-136.5 68q-47 19 -82.5 38.5t-75 51t-61 77
t-21.5 100.5q0 113 89.5 188.5t242.5 75.5q77 0 146 -22t106 -56l-6 -158q-114 105 -256 105q-89 0 -135.5 -36.5t-46.5 -92.5q0 -49 42 -80.5t148 -75.5q109 -45 167 -103t58 -151q0 -118 -87 -196t-234 -84l-33 -74q90 -4 133 -47.5t43 -106.5q0 -96 -68.5 -152.5
t-173.5 -56.5z" />
    <glyph glyph-name="Scaron" unicode="&#x160;" horiz-adv-x="1054" 
d="M469 -16q-107 0 -214.5 34.5t-180.5 96.5v198q67 -88 177.5 -138t223.5 -50q139 0 228.5 69t89.5 183q0 60 -33 108.5t-68.5 73.5t-118.5 75q-18 11 -28 17q-65 37 -98.5 58t-82.5 60t-73.5 73t-43 84t-18.5 108q0 173 128.5 276t324.5 103q91 0 175.5 -22.5t137.5 -57.5
v-186q-125 125 -315 125q-135 0 -216 -62.5t-81 -165.5q0 -35 12.5 -66.5t28 -52.5t47.5 -45.5t54 -37.5t66 -37.5t64 -36.5q68 -39 113.5 -72t89.5 -80t66 -105.5t22 -129.5q0 -122 -67 -214t-174 -137.5t-236 -45.5zM442 1837h99l149 -223l207 223h104l-260 -332h-131z
" />
    <glyph glyph-name="scaron" unicode="&#x161;" horiz-adv-x="815" 
d="M356 -20q-177 0 -290 86v165q133 -120 288 -120q99 0 151 40t52 103q0 47 -39.5 77t-136.5 68q-47 19 -82.5 38.5t-75 51t-61 77t-21.5 100.5q0 113 89.5 188.5t242.5 75.5q77 0 146 -22t106 -56l-6 -158q-114 105 -256 105q-89 0 -135.5 -36.5t-46.5 -92.5
q0 -49 42 -80.5t148 -75.5q109 -45 167 -103t58 -151q0 -121 -93 -200.5t-247 -79.5zM252 1393h98l150 -224l207 224h104l-260 -332h-131z" />
    <glyph glyph-name="uni0162" unicode="&#x162;" horiz-adv-x="1128" 
d="M424 0l176 1255h-448l20 138h1049l-21 -138h-450l-177 -1255h-22l-43 -94q90 -4 133 -47.5t43 -106.5q0 -96 -68.5 -152.5t-173.5 -56.5q-45 0 -87.5 14.5t-67.5 36.5l2 125q68 -71 155 -71q52 0 88.5 25.5t36.5 70.5q0 20 -12.5 33t-36.5 20t-49.5 9.5t-62.5 3.5l-21 34
l72 156h-35z" />
    <glyph glyph-name="uni0163" unicode="&#x163;" horiz-adv-x="757" 
d="M330 -457q-45 0 -88 14.5t-68 36.5l2 125q68 -71 156 -71q52 0 88.5 25.5t36.5 70.5q0 20 -12.5 33t-37 20t-50 9.5t-62.5 3.5l-21 34l66 144q-86 15 -131 68t-45 134q0 28 6 52l74 540h-144l9 45l272 226h41l-21 -144h353l-25 -127h-346l-72 -512q-6 -21 -6 -45
q0 -114 135 -114q115 0 234 82l-35 -148q-82 -56 -209 -63l-35 -76q90 -4 133 -47.5t43 -106.5q0 -96 -68 -152.5t-173 -56.5z" />
    <glyph glyph-name="Tcaron" unicode="&#x164;" horiz-adv-x="1128" 
d="M424 0l176 1255h-448l20 138h1049l-21 -138h-450l-177 -1255h-149zM475 1837h98l150 -223l207 223h104l-260 -332h-131z" />
    <glyph glyph-name="tcaron" unicode="&#x165;" horiz-adv-x="757" 
d="M410 -18q-120 0 -183 56t-63 152q0 28 6 52l74 540h-144l9 45l272 226h41l-21 -144h353l-25 -127h-346l-72 -512q-6 -21 -6 -45q0 -114 135 -114q115 0 234 82l-35 -148q-92 -63 -229 -63zM535 1020l79 338h172l-145 -338h-106z" />
    <glyph glyph-name="Tbar" unicode="&#x166;" horiz-adv-x="1142" 
d="M430 0l90 637h-201l19 113h197l71 505h-448l20 138h1049l-21 -138h-450l-72 -505h207l-17 -113h-204l-90 -637h-150z" />
    <glyph glyph-name="tbar" unicode="&#x167;" horiz-adv-x="763" 
d="M414 -18q-120 0 -183 56t-63 152q0 28 6 52l23 166h-117l18 112h115l35 262h-144l9 45l272 226h41l-20 -144h352l-25 -127h-346l-37 -262h301l-16 -112h-301l-19 -138q-6 -21 -6 -45q0 -114 135 -114q115 0 234 82l-35 -148q-92 -63 -229 -63z" />
    <glyph glyph-name="Utilde" unicode="&#x168;" horiz-adv-x="1456" 
d="M678 -20q-229 0 -357 130.5t-128 335.5q0 51 8 113l116 834h146l-117 -832q-10 -72 -10 -112q0 -152 88.5 -242t251.5 -90q186 0 311.5 119t153.5 321l116 836h148l-117 -836q-17 -126 -66.5 -231.5t-126 -182.5t-184 -120t-233.5 -43zM582 1559q11 83 71 146.5t144 63.5
q45 0 81.5 -20t56.5 -43.5t45 -43.5t50 -20q73 0 113 125l92 -24q-11 -82 -71.5 -145.5t-143.5 -63.5q-45 0 -82 20t-57 43.5t-45 43.5t-48 20q-73 0 -114 -125z" />
    <glyph glyph-name="utilde" unicode="&#x169;" horiz-adv-x="1073" 
d="M977 909l-127 -909h-137l16 123q-134 -143 -313 -143q-128 0 -211.5 76.5t-83.5 195.5q0 19 4 51l86 606h137l-84 -585q-2 -16 -2 -50q0 -79 50.5 -120t133.5 -41q85 0 168 48t140 134l86 614h137zM315 1114q11 83 71 147t144 64q37 0 67.5 -13t51 -31.5t38 -37.5t37 -32
t40.5 -13q73 0 113 125l92 -25q-11 -82 -71 -145t-144 -63q-45 0 -82 20t-57 43.5t-45 43.5t-48 20q-73 0 -114 -125z" />
    <glyph glyph-name="Umacron" unicode="&#x16a;" horiz-adv-x="1456" 
d="M678 -20q-229 0 -357 130.5t-128 335.5q0 51 8 113l116 834h146l-117 -832q-10 -72 -10 -112q0 -152 88.5 -242t251.5 -90q186 0 311.5 119t153.5 321l116 836h148l-117 -836q-17 -126 -66.5 -231.5t-126 -182.5t-184 -120t-233.5 -43zM625 1587l16 113h526l-16 -113
h-526z" />
    <glyph glyph-name="umacron" unicode="&#x16b;" horiz-adv-x="1071" 
d="M977 909l-127 -909h-137l16 123q-134 -143 -313 -143q-128 0 -211.5 76.5t-83.5 195.5q0 19 4 51l86 606h137l-84 -585q-2 -16 -2 -50q0 -79 50.5 -120t133.5 -41q85 0 168 48t140 134l86 614h137zM360 1143l17 112h526l-16 -112h-527z" />
    <glyph glyph-name="Ubreve" unicode="&#x16c;" horiz-adv-x="1456" 
d="M678 -20q-229 0 -357 130.5t-128 335.5q0 51 8 113l116 834h146l-117 -832q-10 -72 -10 -112q0 -152 88.5 -242t251.5 -90q186 0 311.5 119t153.5 321l116 836h148l-117 -836q-17 -126 -66.5 -231.5t-126 -182.5t-184 -120t-233.5 -43zM649 1812l107 35
q2 -100 35.5 -163.5t107.5 -63.5t126 63.5t81 163.5l100 -35q-13 -78 -54 -147.5t-110.5 -115.5t-150.5 -46t-140.5 46t-85 116t-16.5 147z" />
    <glyph glyph-name="ubreve" unicode="&#x16d;" horiz-adv-x="1073" 
d="M977 909l-127 -909h-137l16 123q-134 -143 -313 -143q-128 0 -211.5 76.5t-83.5 195.5q0 19 4 51l86 606h137l-84 -585q-2 -16 -2 -50q0 -79 50.5 -120t133.5 -41q85 0 168 48t140 134l86 614h137zM385 1368l107 35q2 -100 35.5 -163.5t107.5 -63.5t126 63.5t81 163.5
l100 -35q-13 -78 -54 -147.5t-110.5 -115.5t-150.5 -46t-140.5 46t-85 116t-16.5 147z" />
    <glyph glyph-name="Uring" unicode="&#x16e;" horiz-adv-x="1456" 
d="M678 -20q-229 0 -357 130.5t-128 335.5q0 51 8 113l116 834h146l-117 -832q-10 -72 -10 -112q0 -152 88.5 -242t251.5 -90q186 0 311.5 119t153.5 321l116 836h148l-117 -836q-17 -126 -66.5 -231.5t-126 -182.5t-184 -120t-233.5 -43zM717 1661q0 87 64 150t149 63
q73 0 120.5 -48t47.5 -122q0 -86 -63.5 -148.5t-149.5 -62.5q-72 0 -120 48t-48 120zM813 1671q0 -38 23 -62t59 -24q41 0 73.5 33.5t32.5 77.5q0 38 -22 61t-59 23q-42 0 -74.5 -32t-32.5 -77z" />
    <glyph glyph-name="uring" unicode="&#x16f;" horiz-adv-x="1071" 
d="M977 909l-127 -909h-137l16 123q-134 -143 -313 -143q-128 0 -211.5 76.5t-83.5 195.5q0 19 4 51l86 606h137l-84 -585q-2 -16 -2 -50q0 -79 50.5 -120t133.5 -41q85 0 168 48t140 134l86 614h137zM453 1217q0 87 64 150t149 63q73 0 120.5 -48t47.5 -122
q0 -86 -63.5 -148.5t-149.5 -62.5q-72 0 -120 48t-48 120zM549 1227q0 -38 23 -62t59 -24q42 0 74 33t32 77q0 38 -22.5 61t-59.5 23q-42 0 -74 -31.5t-32 -76.5z" />
    <glyph glyph-name="Uhungarumlaut" unicode="&#x170;" horiz-adv-x="1456" 
d="M678 -20q-229 0 -357 130.5t-128 335.5q0 51 8 113l116 834h146l-117 -832q-10 -72 -10 -112q0 -152 88.5 -242t251.5 -90q186 0 311.5 119t153.5 321l116 836h148l-117 -836q-17 -126 -66.5 -231.5t-126 -182.5t-184 -120t-233.5 -43zM684 1501l184 332h154l-231 -332
h-107zM932 1501l184 332h154l-232 -332h-106z" />
    <glyph glyph-name="uhungarumlaut" unicode="&#x171;" horiz-adv-x="1071" 
d="M977 909l-127 -909h-137l16 123q-134 -143 -313 -143q-128 0 -211.5 76.5t-83.5 195.5q0 19 4 51l86 606h137l-84 -585q-2 -16 -2 -50q0 -79 50.5 -120t133.5 -41q85 0 168 48t140 134l86 614h137zM420 1057l184 332h154l-232 -332h-106zM668 1057l184 332h154l-232 -332
h-106z" />
    <glyph glyph-name="Uogonek" unicode="&#x172;" horiz-adv-x="1456" 
d="M674 -453q-66 0 -113 46t-47 118q0 75 41 145t113 124q-225 3 -350 133.5t-125 332.5q0 51 8 113l116 834h146l-117 -832q-10 -72 -10 -112q0 -152 88.5 -242t251.5 -90q186 0 311.5 119t153.5 321l116 836h148l-117 -836q-28 -213 -146 -363t-304 -196
q-104 -55 -155.5 -128.5t-51.5 -129.5q0 -37 22.5 -57.5t57.5 -20.5q66 0 137 64l-23 -121q-62 -58 -151 -58z" />
    <glyph glyph-name="uogonek" unicode="&#x173;" horiz-adv-x="1071" 
d="M977 909l-127 -905l2 -4q-105 -55 -157 -129t-52 -131q0 -37 22.5 -57.5t57.5 -20.5q66 0 137 64l-22 -121q-62 -58 -152 -58q-66 0 -113 46t-47 118q0 84 50.5 160.5t136.5 132.5l16 119q-134 -143 -313 -143q-128 0 -211.5 76.5t-83.5 195.5q0 19 4 51l86 606h137
l-84 -585q-2 -16 -2 -50q0 -79 50.5 -120t133.5 -41q85 0 168 48t140 134l86 614h137z" />
    <glyph glyph-name="Wcircumflex" unicode="&#x174;" horiz-adv-x="1925" 
d="M438 -12l-274 1405h149l203 -1074h8l541 1080h68l229 -1075h8l500 1069h155l-673 -1405h-58l-241 1095l-551 -1095h-64zM831 1505l259 332h131l170 -332h-101l-147 224l-209 -224h-103z" />
    <glyph glyph-name="wcircumflex" unicode="&#x175;" horiz-adv-x="1447" 
d="M317 -12l-225 921h146l151 -661l377 672h47l188 -672l334 661h148l-484 -921h-55l-194 674l-379 -674h-54zM524 1061l258 332h131l170 -332h-100l-147 223l-209 -223h-103z" />
    <glyph glyph-name="Ycircumflex" unicode="&#x176;" horiz-adv-x="1206" 
d="M465 0l82 586l-383 807h164l309 -666l500 666h172l-613 -807l-82 -586h-149zM473 1505l258 332h131l170 -332h-100l-148 224l-209 -224h-102z" />
    <glyph glyph-name="ycircumflex" unicode="&#x177;" horiz-adv-x="956" 
d="M45 -506l305 535l-254 880h144q66 -218 202 -721q188 353 400 721h149l-798 -1415h-148zM281 1061l258 332h131l170 -332h-101l-147 223l-209 -223h-102z" />
    <glyph glyph-name="Ydieresis" unicode="&#x178;" horiz-adv-x="1206" 
d="M465 0l82 586l-383 807h164l309 -666l500 666h172l-613 -807l-82 -586h-149zM494 1665q0 41 29 69.5t69 28.5q36 0 58 -21.5t22 -55.5q0 -42 -29.5 -71.5t-71.5 -29.5q-33 0 -55 23t-22 57zM856 1665q0 41 29.5 69.5t70.5 28.5q35 0 57.5 -21.5t22.5 -55.5
q0 -42 -30 -71.5t-72 -29.5q-34 0 -56 23t-22 57z" />
    <glyph glyph-name="Zacute" unicode="&#x179;" horiz-adv-x="1148" 
d="M-2 0l10 57l957 1203h-775l41 133h981l-8 -58l-958 -1202h794l-41 -133h-1001zM629 1505l213 332h188l-278 -332h-123z" />
    <glyph glyph-name="zacute" unicode="&#x17a;" horiz-adv-x="882" 
d="M10 0l6 49l625 739h-518l33 121h714l-6 -51l-624 -737h526l-33 -121h-723zM416 1061l213 332h188l-278 -332h-123z" />
    <glyph glyph-name="Zdotaccent" unicode="&#x17b;" horiz-adv-x="1148" 
d="M-2 0l10 57l957 1203h-775l41 133h981l-8 -58l-958 -1202h794l-41 -133h-1001zM674 1655q0 41 29.5 70.5t70.5 29.5q35 0 57.5 -23t22.5 -57q0 -43 -29.5 -71.5t-72.5 -28.5q-34 0 -56 23t-22 57z" />
    <glyph glyph-name="zdotaccent" unicode="&#x17c;" horiz-adv-x="882" 
d="M10 0l6 49l625 739h-518l33 121h714l-6 -51l-624 -737h526l-33 -121h-723zM461 1210q0 41 29.5 71t70.5 30q35 0 57.5 -23t22.5 -57q0 -43 -29.5 -72t-72.5 -29q-34 0 -56 23t-22 57z" />
    <glyph glyph-name="Zcaron" unicode="&#x17d;" horiz-adv-x="1148" 
d="M-2 0l10 57l957 1203h-775l41 133h981l-8 -58l-958 -1202h794l-41 -133h-1001zM508 1837h98l150 -223l207 223h104l-260 -332h-131z" />
    <glyph glyph-name="zcaron" unicode="&#x17e;" horiz-adv-x="882" 
d="M10 0l6 49l625 739h-518l33 121h714l-6 -51l-624 -737h526l-33 -121h-723zM295 1393h98l150 -224l207 224h104l-260 -332h-131z" />
    <glyph glyph-name="florin" unicode="&#x192;" horiz-adv-x="1097" 
d="M-100 -459q-40 0 -89 9t-73 22l-10 152q68 -48 172 -48q246 0 325 271l244 833h-143l51 127h131l24 86q122 414 476 414q101 0 166 -35l-13 -147q-65 51 -172 51q-115 0 -195.5 -72t-119.5 -205l-27 -92h246l-47 -127h-236l-243 -825q-64 -217 -181 -315.5t-286 -98.5z
" />
    <glyph glyph-name="uni0218" unicode="&#x218;" horiz-adv-x="1054" 
d="M469 -16q-107 0 -214.5 34.5t-180.5 96.5v198q67 -88 177.5 -138t223.5 -50q139 0 228.5 69t89.5 183q0 60 -33 108.5t-68.5 73.5t-118.5 75q-18 11 -28 17q-65 37 -98.5 58t-82.5 60t-73.5 73t-43 84t-18.5 108q0 173 128.5 276t324.5 103q91 0 175.5 -22.5t137.5 -57.5
v-186q-125 125 -315 125q-135 0 -216 -62.5t-81 -165.5q0 -35 12.5 -66.5t28 -52.5t47.5 -45.5t54 -37.5t66 -37.5t64 -36.5q68 -39 113.5 -72t89.5 -80t66 -105.5t22 -129.5q0 -122 -67 -214t-174 -137.5t-236 -45.5zM281 -535q124 122 155 232q-30 6 -48.5 26t-18.5 50
q0 44 29 72t69 28q39 0 63.5 -27.5t24.5 -72.5q0 -73 -57.5 -169.5t-135.5 -172.5z" />
    <glyph glyph-name="uni0219" unicode="&#x219;" horiz-adv-x="815" 
d="M356 -20q-177 0 -290 86v165q133 -120 288 -120q99 0 151 40t52 103q0 47 -39.5 77t-136.5 68q-47 19 -82.5 38.5t-75 51t-61 77t-21.5 100.5q0 113 89.5 188.5t242.5 75.5q77 0 146 -22t106 -56l-6 -158q-114 105 -256 105q-89 0 -135.5 -36.5t-46.5 -92.5
q0 -49 42 -80.5t148 -75.5q109 -45 167 -103t58 -151q0 -121 -93 -200.5t-247 -79.5zM127 -535q126 123 156 234q-29 5 -48.5 25.5t-19.5 48.5q0 44 29 72t69 28q39 0 63.5 -27.5t24.5 -72.5q0 -74 -57 -171t-135 -171z" />
    <glyph glyph-name="uni021A" unicode="&#x21a;" horiz-adv-x="1128" 
d="M424 0l176 1255h-448l20 138h1049l-21 -138h-450l-177 -1255h-149zM291 -535q128 122 158 234q-30 5 -49 25t-19 49q0 44 28 72t68 28q39 0 64.5 -27.5t25.5 -72.5q0 -74 -58 -170.5t-136 -171.5z" />
    <glyph glyph-name="uni021B" unicode="&#x21b;" horiz-adv-x="757" 
d="M410 -18q-120 0 -183 56t-63 152q0 28 6 52l74 540h-144l9 45l272 226h41l-21 -144h353l-25 -127h-346l-72 -512q-6 -21 -6 -45q0 -114 135 -114q115 0 234 82l-35 -148q-92 -63 -229 -63zM180 -535q126 123 156 234q-29 5 -48.5 25.5t-19.5 48.5q0 44 29.5 72t69.5 28
q39 0 63.5 -27.5t24.5 -72.5q0 -74 -57.5 -170.5t-135.5 -171.5z" />
    <glyph glyph-name="uni0237" unicode="&#x237;" horiz-adv-x="454" 
d="M-123 -516q94 150 151 292.5t83 327.5l112 805h137l-112 -805q-45 -324 -217 -606z" />
    <glyph glyph-name="uni0259" unicode="&#x259;" horiz-adv-x="1005" 
d="M506 930q184 0 295.5 -114t111.5 -302q0 -144 -66 -267t-178.5 -195t-244.5 -72q-159 0 -253.5 99.5t-94.5 244.5q0 90 24 143h672q2 14 2 43q0 143 -78 217t-204 74q-167 0 -326 -119l49 166q131 82 291 82zM213 315q0 -89 59 -149t156 -60q102 0 189.5 68t127.5 178
h-530q-2 -12 -2 -37z" />
    <glyph glyph-name="circumflex" unicode="&#x2c6;" horiz-adv-x="1089" 
d="M672 1352l170 -332h-101l-147 223l-209 -223h-102l258 332h131z" />
    <glyph glyph-name="caron" unicode="&#x2c7;" horiz-adv-x="1089" 
d="M391 1018l-168 332h99l149 -224l207 224h104l-260 -332h-131z" />
    <glyph glyph-name="breve" unicode="&#x2d8;" horiz-adv-x="1089" 
d="M602 1016q-81 0 -140.5 46t-85 116t-16.5 147l107 35q2 -100 35.5 -163.5t107.5 -63.5t126 63.5t81 163.5l101 -35q-20 -122 -107.5 -215.5t-208.5 -93.5z" />
    <glyph glyph-name="dotaccent" unicode="&#x2d9;" horiz-adv-x="1089" 
d="M608 1087q-34 0 -56 23t-22 57q0 41 30 71t71 30q35 0 57.5 -23t22.5 -57q0 -43 -30 -72t-73 -29z" />
    <glyph glyph-name="ring" unicode="&#x2da;" horiz-adv-x="1089" 
d="M557 1008q-72 0 -120 48t-48 120q0 87 64 150t149 63q73 0 120.5 -48t47.5 -122q0 -86 -63.5 -148.5t-149.5 -62.5zM485 1186q0 -38 23 -62t59 -24q42 0 74.5 33t32.5 77q0 38 -22.5 61t-59.5 23q-42 0 -74.5 -31.5t-32.5 -76.5z" />
    <glyph glyph-name="ogonek" unicode="&#x2db;" horiz-adv-x="1089" 
d="M377 -453q-66 0 -113 46t-47 118q0 111 85 206t218 144l23 -61q-105 -55 -157 -129t-52 -131q0 -37 22.5 -57.5t57.5 -20.5q66 0 137 64l-23 -121q-62 -58 -151 -58z" />
    <glyph glyph-name="tilde" unicode="&#x2dc;" horiz-adv-x="1089" 
d="M651 1047q-45 0 -82 20t-56.5 43.5t-44.5 43.5t-48 20q-74 0 -115 -125l-92 22q11 83 71 147t144 64q37 0 67.5 -13t51 -32t38 -37.5t37 -31.5t40.5 -13q72 0 112 125l92 -25q-11 -82 -71 -145t-144 -63z" />
    <glyph glyph-name="hungarumlaut" unicode="&#x2dd;" horiz-adv-x="1089" 
d="M532 1018l185 332h153l-231 -332h-107zM285 1018l184 332h154l-232 -332h-106z" />
    <glyph glyph-name="gravecomb" unicode="&#x300;" horiz-adv-x="0" 
d="M-33 1354l133 -332h-104l-193 332h164z" />
    <glyph glyph-name="acutecomb" unicode="&#x301;" horiz-adv-x="0" 
d="M29 1022h-123l213 332h188z" />
    <glyph glyph-name="uni0302" unicode="&#x302;" horiz-adv-x="0" 
d="M123 1354l170 -332h-100l-148 223l-209 -223h-102l258 332h131z" />
    <glyph glyph-name="tildecomb" unicode="&#x303;" horiz-adv-x="0" 
d="M119 1051q-45 0 -82 20t-57 43.5t-45 43.5t-48 20q-73 0 -114 -125l-92 22q11 83 71 147t144 64q45 0 81.5 -20t56.5 -43.5t45 -43.5t50 -20q73 0 113 125l92 -24q-11 -82 -71.5 -145.5t-143.5 -63.5z" />
    <glyph glyph-name="uni0304" unicode="&#x304;" horiz-adv-x="0" 
d="M-264 1104l16 113h527l-17 -113h-526z" />
    <glyph glyph-name="uni0306" unicode="&#x306;" horiz-adv-x="0" 
d="M4 1020q-81 0 -140.5 46t-85 116t-16.5 147l107 35q2 -100 35.5 -163.5t107.5 -63.5t126 63.5t81 163.5l100 -35q-13 -78 -54 -147.5t-110.5 -115.5t-150.5 -46z" />
    <glyph glyph-name="uni0307" unicode="&#x307;" horiz-adv-x="0" 
d="M29 1092q-34 0 -56 22.5t-22 56.5q0 41 29.5 71t70.5 30q35 0 57.5 -23t22.5 -57q0 -43 -29.5 -71.5t-72.5 -28.5z" />
    <glyph glyph-name="uni0308" unicode="&#x308;" horiz-adv-x="0" 
d="M-168 1102q-34 0 -56 23t-22 57q0 41 29.5 69.5t69.5 28.5q36 0 57.5 -22t21.5 -56q0 -42 -29 -71t-71 -29zM117 1182q0 41 29.5 69.5t70.5 28.5q35 0 57.5 -22t22.5 -56q0 -42 -30 -71t-72 -29q-34 0 -56 23t-22 57z" />
    <glyph glyph-name="uni030A" unicode="&#x30a;" horiz-adv-x="0" 
d="M16 1010q-72 0 -120 48t-48 120q0 87 64 150t149 63q73 0 120.5 -48t47.5 -122q0 -86 -63.5 -148.5t-149.5 -62.5zM-55 1188q0 -38 23 -62t59 -24q42 0 74 33t32 77q0 38 -22.5 61t-59.5 23q-42 0 -74 -31.5t-32 -76.5z" />
    <glyph glyph-name="uni030B" unicode="&#x30b;" horiz-adv-x="0" 
d="M41 1022l184 332h154l-232 -332h-106zM-207 1022l184 332h154l-231 -332h-107z" />
    <glyph glyph-name="uni030C" unicode="&#x30c;" horiz-adv-x="0" 
d="M-47 1022l-168 332h98l150 -224l207 224h104l-260 -332h-131z" />
    <glyph glyph-name="uni0312" unicode="&#x312;" horiz-adv-x="0" 
d="M180 1403q-126 -121 -157 -234q30 -5 48.5 -24.5t18.5 -48.5q0 -43 -28.5 -71t-67.5 -28t-64.5 27.5t-25.5 71.5q0 75 58 172t136 170z" />
    <glyph glyph-name="uni0326" unicode="&#x326;" horiz-adv-x="0" 
d="M-207 -532q126 123 156 231q-30 6 -49 26t-19 50q0 43 29.5 71.5t69.5 28.5q38 0 63 -28t25 -72q0 -74 -57.5 -170t-135.5 -172z" />
    <glyph glyph-name="uni0327" unicode="&#x327;" horiz-adv-x="0" 
d="M-57 -457q-45 0 -88 14.5t-68 36.5l2 125q68 -71 156 -71q52 0 88.5 25.5t36.5 70.5q0 20 -12.5 33t-37 20t-50 9.5t-62.5 3.5l-21 34l93 201h92l-64 -139q90 -4 133 -47.5t43 -106.5q0 -96 -68 -152.5t-173 -56.5z" />
    <glyph glyph-name="uni0328" unicode="&#x328;" horiz-adv-x="0" 
d="M-195 -453q-66 0 -112.5 46t-46.5 118q0 111 85 206t218 144l22 -61q-105 -55 -157 -129t-52 -131q0 -37 22.5 -57.5t57.5 -20.5q67 0 138 64l-23 -121q-62 -58 -152 -58z" />
    <glyph glyph-name="uni0335" unicode="&#x335;" horiz-adv-x="0" 
d="M274 397l19 113h553l-17 -113h-555z" />
    <glyph glyph-name="uni0336" unicode="&#x336;" horiz-adv-x="0" 
d="M-174 399l16 111h1401l-16 -111h-1401z" />
    <glyph glyph-name="uni0337" unicode="&#x337;" horiz-adv-x="0" 
d="M291 360l557 336l-23 -147l-557 -336z" />
    <glyph glyph-name="uni0338" unicode="&#x338;" horiz-adv-x="0" 
d="M-86 23l1221 1402l98 -75l-1227 -1409z" />
    <glyph glyph-name="uni0394" unicode="&#x394;" horiz-adv-x="1230" 
d="M-4 0l721 1403h65l324 -1403h-1110zM221 135h701l-207 991h-2z" />
    <glyph glyph-name="uni03A9" unicode="&#x3a9;" horiz-adv-x="1323" 
d="M66 0l-7 139h281q-164 177 -164 484q0 157 41.5 297.5t117 247.5t191 170t254.5 63q207 0 324 -134.5t117 -371.5q0 -201 -82 -412.5t-224 -343.5h271l-47 -139h-488l13 94q132 82 225 211t136.5 271t43.5 290q0 193 -79.5 294.5t-221.5 101.5q-88 0 -162 -38
t-125.5 -102t-87.5 -150t-52.5 -181.5t-16.5 -196.5q0 -170 55.5 -287.5t177.5 -212.5l-14 -94h-477z" />
    <glyph glyph-name="pi" unicode="&#x3c0;" horiz-adv-x="1107" 
d="M721 0l110 782h-464l-109 -782h-137l127 909h739l-129 -909h-137z" />
    <glyph glyph-name="Wgrave" unicode="&#x1e80;" horiz-adv-x="1925" 
d="M438 -12l-274 1405h149l203 -1074h8l541 1080h68l229 -1075h8l500 1069h155l-673 -1405h-58l-241 1095l-551 -1095h-64zM901 1837h164l133 -332h-104z" />
    <glyph glyph-name="wgrave" unicode="&#x1e81;" horiz-adv-x="1447" 
d="M317 -12l-225 921h146l151 -661l377 672h47l188 -672l334 661h148l-484 -921h-55l-194 674l-379 -674h-54zM594 1393h164l133 -332h-105z" />
    <glyph glyph-name="Wacute" unicode="&#x1e82;" horiz-adv-x="1925" 
d="M438 -12l-274 1405h149l203 -1074h8l541 1080h68l229 -1075h8l500 1069h155l-673 -1405h-58l-241 1095l-551 -1095h-64zM1004 1505l213 332h188l-279 -332h-122z" />
    <glyph glyph-name="wacute" unicode="&#x1e83;" horiz-adv-x="1447" 
d="M317 -12l-225 921h146l151 -661l377 672h47l188 -672l334 661h148l-484 -921h-55l-194 674l-379 -674h-54zM696 1061l213 332h189l-279 -332h-123z" />
    <glyph glyph-name="Wdieresis" unicode="&#x1e84;" horiz-adv-x="1925" 
d="M438 -12l-274 1405h149l203 -1074h8l541 1080h68l229 -1075h8l500 1069h155l-673 -1405h-58l-241 1095l-551 -1095h-64zM854 1665q0 41 29 69.5t69 28.5q36 0 58 -21.5t22 -55.5q0 -42 -29 -71.5t-71 -29.5q-34 0 -56 23t-22 57zM1217 1665q0 41 29.5 69.5t70.5 28.5
q35 0 57.5 -21.5t22.5 -55.5q0 -42 -30.5 -71.5t-72.5 -29.5q-33 0 -55 23t-22 57z" />
    <glyph glyph-name="wdieresis" unicode="&#x1e85;" horiz-adv-x="1447" 
d="M317 -12l-225 921h146l151 -661l377 672h47l188 -672l334 661h148l-484 -921h-55l-194 674l-379 -674h-54zM547 1221q0 41 29 69.5t69 28.5q36 0 58 -22t22 -56q0 -42 -29 -71t-71 -29q-34 0 -56 23t-22 57zM909 1221q0 41 29.5 69.5t71.5 28.5q35 0 57.5 -22t22.5 -56
q0 -42 -30.5 -71t-72.5 -29q-34 0 -56 23t-22 57z" />
    <glyph glyph-name="uni1E9E" unicode="&#x1e9e;" horiz-adv-x="1202" 
d="M627 -20q-148 0 -226 57l-8 158q88 -80 234 -80t230.5 88.5t84.5 204.5q0 111 -85.5 171t-242.5 83l-16 77l352 334q4 12 4 33q0 70 -61 120t-162 50q-127 0 -215 -88.5t-110 -241.5l-134 -946h-149l137 969q28 199 160.5 321.5t324.5 122.5q151 0 255 -90.5t104 -218.5
q0 -37 -8 -68l-299 -276q142 -40 218.5 -134.5t76.5 -213.5q0 -192 -131.5 -312t-333.5 -120z" />
    <glyph glyph-name="Ygrave" unicode="&#x1ef2;" horiz-adv-x="1206" 
d="M465 0l82 586l-383 807h164l309 -666l500 666h172l-613 -807l-82 -586h-149zM543 1837h164l133 -332h-105z" />
    <glyph glyph-name="ygrave" unicode="&#x1ef3;" horiz-adv-x="956" 
d="M45 -506l305 535l-254 880h144q66 -218 202 -721q188 353 400 721h149l-798 -1415h-148zM350 1393h164l133 -332h-104z" />
    <glyph glyph-name="endash" unicode="&#x2013;" horiz-adv-x="1146" 
d="M131 418l19 123h870l-16 -123h-873z" />
    <glyph glyph-name="emdash" unicode="&#x2014;" horiz-adv-x="2179" 
d="M131 418l19 123h1902l-14 -123h-1907z" />
    <glyph glyph-name="uni2015" unicode="&#x2015;" horiz-adv-x="2220" 
d="M152 418l18 123h1903l-15 -123h-1906z" />
    <glyph glyph-name="quoteleft" unicode="&#x2018;" horiz-adv-x="475" 
d="M512 1368q-149 -139 -188 -278q36 -8 59 -32.5t23 -58.5q0 -52 -34.5 -85t-82.5 -33q-47 0 -77 32.5t-30 85.5q0 90 69 205.5t163 204.5z" />
    <glyph glyph-name="quoteright" unicode="&#x2019;" horiz-adv-x="481" 
d="M168 920q149 139 188 278q-36 8 -59 32t-23 58q0 52 34.5 85.5t82.5 33.5q46 0 76.5 -33t30.5 -86q0 -90 -69 -205t-163 -204z" />
    <glyph glyph-name="quotesinglbase" unicode="&#x201a;" horiz-adv-x="468" 
d="M-23 -303q150 140 189 278q-36 8 -59 32.5t-23 58.5q0 52 34.5 85t82.5 33q46 0 76 -32.5t30 -85.5q0 -90 -69 -205.5t-162 -204.5z" />
    <glyph glyph-name="quotedblleft" unicode="&#x201c;" horiz-adv-x="843" 
d="M512 1370q-149 -139 -188 -278q36 -8 59 -32.5t23 -58.5q0 -52 -34.5 -85t-82.5 -33q-47 0 -77 32.5t-30 85.5q0 90 69 205.5t163 204.5zM553 1001q0 90 69 205.5t162 204.5l99 -41q-150 -140 -189 -278q36 -8 59 -32.5t23 -58.5q0 -52 -34.5 -85t-82.5 -33
q-46 0 -76 32.5t-30 85.5z" />
    <glyph glyph-name="quotedblright" unicode="&#x201d;" horiz-adv-x="849" 
d="M537 920q149 139 188 278q-36 8 -59 32t-23 58q0 52 34.5 85.5t82.5 33.5q46 0 76 -33t30 -86q0 -90 -68.5 -205t-162.5 -204zM168 920q149 139 188 278q-36 8 -59 32t-23 58q0 52 34.5 85.5t82.5 33.5q46 0 76.5 -33t30.5 -86q0 -90 -69 -205t-163 -204z" />
    <glyph glyph-name="quotedblbase" unicode="&#x201e;" horiz-adv-x="839" 
d="M348 -303q150 140 189 278q-36 8 -59 32.5t-23 58.5q0 52 34 85t82 33q47 0 77 -32.5t30 -85.5q0 -90 -69 -205.5t-163 -204.5zM-23 -303q150 140 189 278q-36 8 -59 32.5t-23 58.5q0 52 34.5 85t82.5 33q46 0 76 -32.5t30 -85.5q0 -90 -69 -205.5t-162 -204.5z" />
    <glyph glyph-name="dagger" unicode="&#x2020;" horiz-adv-x="950" 
d="M375 -289q-62 0 -62 109q0 62 22.5 191t65.5 351t70 386q-32 -4 -72.5 -10t-63 -9t-51 -5.5t-55.5 -2.5q-55 0 -90 17t-35 46q0 37 42 58.5t104 21.5q34 0 65.5 -3.5t82 -11.5t85.5 -13q8 104 12 217t11 174q11 80 36.5 124t63.5 44q60 0 60 -99q0 -48 -9 -92.5t-34 -148
t-48 -221.5q37 5 91.5 13t87.5 11.5t69 3.5q53 0 86 -16.5t33 -46.5q0 -35 -39.5 -55.5t-99.5 -20.5q-28 0 -57 2t-50 5t-63 8.5t-74 9.5q-11 -114 -28.5 -306t-30 -314t-23.5 -191q-17 -125 -40 -175.5t-62 -50.5z" />
    <glyph glyph-name="daggerdbl" unicode="&#x2021;" horiz-adv-x="976" 
d="M387 -289q-29 0 -46 27t-17 74q0 55 8.5 96t36 143t53.5 221q-39 -5 -93 -14.5t-87 -13.5t-68 -4q-54 0 -88.5 19t-34.5 50q0 35 41.5 55.5t102.5 20.5q35 0 66 -3t84 -11.5t87 -12.5q9 127 6 193q33 119 49 197q-37 -5 -92 -13t-87 -11t-66 -3q-53 0 -89 18t-36 47
q0 36 41.5 57t103.5 21q33 0 66.5 -4t81 -11.5t88.5 -12.5q8 110 10.5 221.5t9.5 169.5q22 168 98 168q62 0 62 -99q0 -47 -9 -91.5t-35 -149.5t-50 -224q43 5 94.5 13.5t86.5 13t71 4.5q51 0 84.5 -17.5t33.5 -47.5q0 -35 -39.5 -54.5t-99.5 -19.5q-36 0 -69 4t-83.5 12
t-91.5 13q-4 -52 -5 -122.5t-1 -78.5q-4 -16 -13.5 -50t-18.5 -71t-17 -76q34 5 76.5 11.5t64.5 9.5t52 5.5t59 2.5q51 0 85 -17t34 -47q0 -35 -39.5 -56t-97.5 -21q-36 0 -70 4.5t-84 14t-92 15.5q-7 -99 -10 -216.5t-13 -180.5q-18 -168 -94 -168z" />
    <glyph glyph-name="bullet" unicode="&#x2022;" horiz-adv-x="776" 
d="M379 350q-87 0 -144 55.5t-57 139.5q0 109 74.5 183.5t181.5 74.5q86 0 141.5 -55.5t55.5 -139.5q0 -109 -74 -183.5t-178 -74.5z" />
    <glyph glyph-name="ellipsis" unicode="&#x2026;" horiz-adv-x="1411" 
d="M188 -10q-45 0 -76.5 31.5t-31.5 72.5q0 50 39.5 87.5t91.5 37.5q41 0 71.5 -31t30.5 -71q0 -50 -38.5 -88.5t-86.5 -38.5zM551 94q0 50 39.5 87.5t91.5 37.5q41 0 71.5 -31t30.5 -71q0 -50 -38.5 -88.5t-86.5 -38.5q-45 0 -76.5 31.5t-31.5 72.5zM1022 94
q0 50 39.5 87.5t91.5 37.5q41 0 71.5 -31t30.5 -71q0 -50 -38.5 -88.5t-86.5 -38.5q-45 0 -76.5 31.5t-31.5 72.5z" />
    <glyph glyph-name="perthousand" unicode="&#x2030;" horiz-adv-x="1998" 
d="M1618 -18q-97 0 -158 67t-61 187q0 108 31.5 197.5t100 147.5t163.5 58q97 0 159 -68t62 -190q0 -109 -32 -197.5t-100.5 -145t-164.5 -56.5zM158 0l995 1393h133l-995 -1393h-133zM160 1006q0 108 31.5 197.5t100 147.5t163.5 58q97 0 159 -68t62 -190
q0 -109 -32 -197.5t-100.5 -145t-164.5 -56.5q-97 0 -158 67t-61 187zM279 1006q0 -74 29 -113t79 -39q59 0 99.5 48.5t56.5 112.5t16 134q0 76 -31 116t-84 40q-58 0 -97 -48.5t-53.5 -113t-14.5 -137.5zM764 236q0 108 31 197.5t99.5 147.5t164.5 58q97 0 159 -68t62 -190
q0 -109 -32 -197.5t-100.5 -145t-164.5 -56.5q-97 0 -158 67t-61 187zM883 236q0 -74 28 -113t80 -39q59 0 99 48.5t55.5 112t15.5 134.5q0 77 -30 116.5t-84 39.5q-44 0 -77 -27.5t-51.5 -73t-27 -95.5t-8.5 -103zM1518 236q0 -74 29 -113t79 -39q59 0 99.5 48.5
t56.5 112.5t16 134q0 76 -31 116t-84 40q-58 0 -97 -48.5t-53.5 -113t-14.5 -137.5z" />
    <glyph glyph-name="minute" unicode="&#x2032;" horiz-adv-x="1146" 
d="M489 854l203 539h154l-234 -539h-123z" />
    <glyph glyph-name="second" unicode="&#x2033;" horiz-adv-x="1146" 
d="M242 854l202 539h152l-234 -539h-120zM731 854l205 539h149l-231 -539h-123z" />
    <glyph glyph-name="guilsinglleft" unicode="&#x2039;" horiz-adv-x="624" 
d="M82 455l332 360h164l-336 -364l227 -357h-158z" />
    <glyph glyph-name="guilsinglright" unicode="&#x203a;" horiz-adv-x="622" 
d="M541 457l-332 -361h-164l336 365l-227 356h157z" />
    <glyph glyph-name="fraction" unicode="&#x2044;" horiz-adv-x="372" 
d="M-369 0l1028 1393h146l-1028 -1397z" />
    <glyph glyph-name="Euro" unicode="&#x20ac;" horiz-adv-x="1243" 
d="M752 -20q-208 0 -344 141t-156 371h-174l49 122h123q3 89 20 160h-153l49 121h139q79 228 250.5 373t386.5 145q174 0 289 -70l12 -174q-72 59 -144.5 83t-168.5 24q-156 0 -280.5 -106t-192.5 -275h491l-47 -121h-483q-20 -86 -23 -160h514l-47 -122h-465
q20 -175 119.5 -275t251.5 -100q201 0 346 125l-53 -179q-44 -33 -130 -58t-179 -25z" />
    <glyph glyph-name="uni20B9" unicode="&#x20b9;" horiz-adv-x="1056" 
d="M616 0l-456 610l10 80h94q129 0 219 59.5t123 159.5h-409l51 138h373q-9 106 -79.5 158t-189.5 52h-112l53 136h823l-55 -136h-385q85 -79 94 -210h293l-53 -138h-250q-34 -135 -143 -228t-259 -110l445 -571h-187z" />
    <glyph glyph-name="uni20BA" unicode="&#x20ba;" horiz-adv-x="1234" 
d="M287 0l61 444l-258 -118l16 123l261 120l32 232l-260 -119l19 123l258 121l65 467h150l-56 -392l277 129l-18 -129l-275 -127l-33 -231l277 129l-19 -127l-276 -127l-53 -381h219q151 0 250 89.5t125 283.5l122 -55q-29 -211 -165.5 -333t-337.5 -122h-381z" />
    <glyph glyph-name="uni20BD" unicode="&#x20bd;" horiz-adv-x="1185" 
d="M111 584l51 135h188l94 674h359q170 0 279.5 -101t109.5 -252q0 -199 -132.5 -327.5t-332.5 -128.5h-248l-26 -197h368l-47 -135h-342l-35 -252h-149l35 252h-217l49 135h188l27 197h-219zM500 719h219q139 0 229 87t90 230q0 102 -65.5 161.5t-177.5 59.5h-220z" />
    <glyph glyph-name="uni20BF" unicode="&#x20bf;" horiz-adv-x="1058" 
d="M123 82l172 1229h149l31 221h123l-31 -221h107h16l31 221h123l-35 -244q89 -33 140.5 -103.5t51.5 -164.5q0 -99 -56.5 -180.5t-139.5 -122.5q74 -34 118 -102.5t44 -161.5q0 -135 -91.5 -234t-234.5 -127l-33 -231h-123l31 221h-123l-31 -221h-120l30 221h-149zM289 217
h252q127 0 200.5 67t73.5 173q0 91 -54 139.5t-155 48.5h-256zM369 776h225q115 0 185.5 65t70.5 165q0 82 -52 126t-147 44h-225z" />
    <glyph glyph-name="uni2117" unicode="&#x2117;" horiz-adv-x="1439" 
d="M682 -25q-245 0 -398 156t-153 397q0 147 50 278.5t138 227.5t214 152.5t270 56.5q244 0 397.5 -154.5t153.5 -398.5q0 -195 -85.5 -358.5t-240.5 -260t-346 -96.5zM229 539q0 -214 124.5 -341.5t330.5 -127.5q158 0 289 81t205.5 221t74.5 308q0 215 -124 343t-328 128
q-159 0 -290.5 -81.5t-206.5 -222t-75 -308.5zM451 266l98 699h262q107 0 173.5 -62t66.5 -160q0 -119 -89 -199.5t-217 -80.5h-151l-29 -197h-114zM608 565h144q83 0 133.5 47.5t50.5 130.5q0 55 -35.5 87t-97.5 32h-154z" />
    <glyph glyph-name="trademark" unicode="&#x2122;" horiz-adv-x="1308" 
d="M639 670l82 577h47l172 -352l264 352h49l-82 -577h-79l53 372l-207 -266h-31l-133 266l-49 -372h-86zM188 1161l29 80h412l4 -80h-178l-68 -491h-86l70 491h-183z" />
    <glyph glyph-name="arrowleft" unicode="&#x2190;" horiz-adv-x="1210" 
d="M680 770l-330 -240q333 11 494 11h274v-127h-274q-91 0 -488 10l324 -238l-84 -104l-512 397l512 398z" />
    <glyph glyph-name="arrowup" unicode="&#x2191;" horiz-adv-x="907" 
d="M754 426l-240 330q10 -303 10 -494v-274h-127v274q0 52 11 488l-238 -324l-104 84l397 512l397 -512z" />
    <glyph glyph-name="arrowright" unicode="&#x2192;" horiz-adv-x="1208" 
d="M535 188l329 240q-303 -10 -493 -10h-275v127h275q90 0 487 -10l-323 237l83 105l512 -398l-512 -397z" />
    <glyph glyph-name="arrowdown" unicode="&#x2193;" horiz-adv-x="907" 
d="M162 532l239 -329q-10 302 -10 493v275h127v-275q0 -90 -10 -487l237 323l105 -83l-397 -512l-398 512z" />
    <glyph glyph-name="uni2196" unicode="&#x2196;" horiz-adv-x="999" 
d="M752 649l-404 64q264 -249 357 -342l194 -195l-90 -90l-195 195q-22 22 -68.5 70.5t-124 130t-145.5 151.5l62 -397l-133 -15l-80 643l643 -82z" />
    <glyph glyph-name="uni2197" unicode="&#x2197;" horiz-adv-x="929" 
d="M623 236l63 403q-232 -246 -342 -356l-194 -195l-91 90l195 195q108 108 352 338l-397 -62l-14 133l643 80l-82 -643z" />
    <glyph glyph-name="uni2198" unicode="&#x2198;" horiz-adv-x="1007" 
d="M252 309l401 -63q-261 249 -354 342l-195 194l91 90l194 -194l338 -352l-61 397l133 14l80 -643l-643 80z" />
    <glyph glyph-name="uni2199" unicode="&#x2199;" horiz-adv-x="927" 
d="M317 725l-63 -401q230 244 340 354l194 194l91 -90l-195 -192q-50 -52 -350 -338l395 61l14 -133l-643 -82l82 643z" />
    <glyph glyph-name="partialdiff" unicode="&#x2202;" horiz-adv-x="1120" 
d="M563 -18q-133 0 -232.5 64t-149.5 171.5t-50 241.5q0 193 123.5 326t310.5 133q91 0 174 -36.5t135 -86.5q-20 241 -109 358t-255 117q-75 0 -146 -27t-157 -94l26 172q45 38 125 61t158 23q238 0 371 -183.5t133 -539.5q0 -115 -14 -214.5t-48 -190t-85.5 -155
t-130.5 -102.5t-179 -38zM276 459q0 -155 83 -248.5t216 -93.5q81 0 142 45.5t94.5 122t50.5 159.5t19 174q-45 71 -125.5 117.5t-173.5 46.5q-126 0 -216 -90.5t-90 -232.5z" />
    <glyph glyph-name="emptyset" unicode="&#x2205;" horiz-adv-x="1300" 
d="M135 -16l137 166q-141 154 -141 376q0 233 152.5 389t378.5 156q163 0 294 -88l134 162l96 -78l-135 -164q139 -152 139 -377q0 -114 -40.5 -215t-110.5 -173t-168 -114t-209 -42q-164 0 -295 88l-138 -166zM270 526q0 -154 90 -268l508 619q-91 57 -209 57
q-167 0 -278 -116.5t-111 -291.5zM453 176q91 -57 209 -57q167 0 279 116t112 291q0 157 -92 269z" />
    <glyph glyph-name="product" unicode="&#x220f;" horiz-adv-x="1187" 
d="M868 -266v1536h-518v-1536h-139v1659h797v-1659h-140z" />
    <glyph glyph-name="summation" unicode="&#x2211;" horiz-adv-x="1187" 
d="M180 -287v60l404 802l-365 758v60h744l22 -140h-565l319 -678l-354 -722h625l-27 -140h-803z" />
    <glyph glyph-name="minus" unicode="&#x2212;" horiz-adv-x="1187" 
d="M143 418v127h912v-127h-912z" />
    <glyph glyph-name="radical" unicode="&#x221a;" horiz-adv-x="1187" 
d="M539 0l-193 594h-4l-115 -199l-112 66l170 291h137l203 -613h4l358 1239l137 -37l-405 -1341h-180z" />
    <glyph glyph-name="infinity" unicode="&#x221e;" horiz-adv-x="1187" 
d="M856 121q-77 0 -146.5 44.5t-111.5 125.5q-44 -86 -117.5 -128t-146.5 -42q-112 0 -190 95.5t-78 262.5q0 170 79 265.5t193 95.5q79 0 148 -45t112 -129q46 87 119 130.5t145 43.5q111 0 189.5 -96t78.5 -263q0 -171 -79.5 -265.5t-194.5 -94.5zM190 483q0 -99 42 -158
t108 -59q135 0 199 213q-71 226 -195 226q-68 0 -111 -60t-43 -162zM655 483q33 -112 83.5 -169.5t111.5 -57.5q68 0 111 59t43 162q0 99 -42 158t-108 59q-58 0 -111.5 -48.5t-87.5 -162.5z" />
    <glyph glyph-name="integral" unicode="&#x222b;" horiz-adv-x="1187" 
d="M299 -455q-108 0 -182 31l35 131q86 -22 147 -22q111 0 170 68t59 198v1030q0 192 102.5 303t266.5 111q110 0 180 -31l-35 -129q-4 1 -23.5 5.5t-32.5 7t-37.5 5t-49.5 2.5q-112 0 -170.5 -68.5t-58.5 -197.5v-1032q0 -190 -103.5 -301t-267.5 -111z" />
    <glyph glyph-name="approxequal" unicode="&#x2248;" horiz-adv-x="1187" 
d="M195 98q0 154 65 241t174 87q133 0 211 -133q52 -86 115 -86q58 0 93.5 59t35.5 160h110q0 -155 -64.5 -241.5t-174.5 -86.5q-62 0 -118 35t-91 96q-54 86 -115 86q-58 0 -92.5 -57t-34.5 -160h-114zM195 537q0 154 65 240.5t174 86.5q133 0 211 -133q52 -86 115 -86
q58 0 93.5 59t35.5 160h110q0 -155 -64.5 -241t-174.5 -86q-62 0 -118 35t-91 96q-54 86 -115 86q-58 0 -92.5 -57t-34.5 -160h-114z" />
    <glyph glyph-name="notequal" unicode="&#x2260;" horiz-adv-x="1187" 
d="M410 -2l53 199h-322v127h357l86 309h-441v127h475l54 198l108 -30l-47 -168h322v-127h-357l-84 -309h439v-127h-473l-64 -228z" />
    <glyph glyph-name="lessequal" unicode="&#x2264;" horiz-adv-x="1187" 
d="M217 -78v129h715v-129h-715zM207 573v72l674 387l65 -112l-534 -310l534 -307l-65 -117z" />
    <glyph glyph-name="greaterequal" unicode="&#x2265;" horiz-adv-x="1187" 
d="M242 -76v127h716v-127h-716zM248 301l534 309l-534 308l65 116l674 -387v-72l-674 -387z" />
    <glyph glyph-name="lozenge" unicode="&#x25ca;" horiz-adv-x="1187" 
d="M567 -37l-508 506l508 504h62l506 -504l-506 -506h-62zM246 469l360 -354l344 354l-358 352z" />
    <glyph glyph-name="uni2713" unicode="&#x2713;" horiz-adv-x="1556" 
d="M186 795l351 -402l1009 889l68 -123l-1102 -971l-438 504z" />
    <glyph glyph-name="I.ss01" horiz-adv-x="772" 
d="M20 0l21 133h225l160 1127h-227l18 133h602l-20 -133h-224l-161 -1127h227l-18 -133h-603z" />
    <glyph glyph-name="Iacute.ss01" horiz-adv-x="772" 
d="M20 0l21 133h225l160 1127h-227l18 133h602l-20 -133h-224l-161 -1127h227l-18 -133h-603zM430 1516l213 331h188l-278 -331h-123z" />
    <glyph glyph-name="Icircumflex.ss01" horiz-adv-x="772" 
d="M20 0l21 133h225l160 1127h-227l18 133h602l-20 -133h-224l-161 -1127h227l-18 -133h-603zM258 1516l258 331h131l170 -331h-100l-148 223l-209 -223h-102z" />
    <glyph glyph-name="Idieresis.ss01" horiz-adv-x="772" 
d="M20 0l21 133h225l160 1127h-227l18 133h602l-20 -133h-224l-161 -1127h227l-18 -133h-603zM281 1675q0 41 29 70t69 29q36 0 58 -22t22 -56q0 -42 -29.5 -71.5t-71.5 -29.5q-33 0 -55 23t-22 57zM643 1675q0 41 29.5 70t70.5 29q35 0 57.5 -22t22.5 -56q0 -42 -30 -71.5
t-72 -29.5q-34 0 -56 23t-22 57z" />
    <glyph glyph-name="Idotaccent.ss01" horiz-adv-x="772" 
d="M20 0l21 133h225l160 1127h-227l18 133h602l-20 -133h-224l-161 -1127h227l-18 -133h-603zM475 1665q0 41 29.5 70.5t70.5 29.5q35 0 57.5 -22.5t22.5 -56.5q0 -43 -29.5 -72t-72.5 -29q-34 0 -56 23t-22 57z" />
    <glyph glyph-name="Igrave.ss01" horiz-adv-x="772" 
d="M20 0l21 133h225l160 1127h-227l18 133h602l-20 -133h-224l-161 -1127h227l-18 -133h-603zM328 1847h164l133 -331h-105z" />
    <glyph glyph-name="Imacron.ss01" horiz-adv-x="772" 
d="M20 0l21 133h225l160 1127h-227l18 133h602l-20 -133h-224l-161 -1127h227l-18 -133h-603zM283 1597l16 113h526l-16 -113h-526z" />
    <glyph glyph-name="Iogonek.ss01" horiz-adv-x="772" 
d="M20 0l21 133h225l160 1127h-227l18 133h602l-20 -133h-224l-161 -1127h227l-18 -133h-222q-72 -37 -121.5 -88.5t-68 -94t-18.5 -77.5q0 -37 22 -57.5t57 -20.5q67 0 138 64l-23 -121q-62 -58 -151 -58q-66 0 -113 46t-47 118q0 83 49 158t133 131h-238z" />
    <glyph glyph-name="i.loclTRK" horiz-adv-x="454" 
d="M96 0l127 909h137l-127 -909h-137zM244 1210q0 41 29.5 71t70.5 30q35 0 57.5 -23t22.5 -57q0 -43 -29.5 -72t-72.5 -29q-34 0 -56 23t-22 57z" />
    <glyph glyph-name="l.ss01" horiz-adv-x="563" 
d="M373 0q-68 0 -119.5 19.5t-79.5 52t-41.5 69.5t-13.5 78q0 39 6 60l164 1171h137l-162 -1151q-4 -28 -4 -41q0 -125 135 -125h111l-68 -133h-65z" />
    <glyph glyph-name="lacute.ss01" horiz-adv-x="563" 
d="M373 0q-68 0 -119.5 19.5t-79.5 52t-41.5 69.5t-13.5 78q0 39 6 60l164 1171h137l-162 -1151q-4 -28 -4 -41q0 -125 135 -125h111l-68 -133h-65zM262 1563l213 331h189l-279 -331h-123z" />
    <glyph glyph-name="lcaron.ss01" horiz-adv-x="563" 
d="M455 1112l80 338h172l-146 -338h-106zM119 219q0 39 6 60l164 1171h137l-162 -1151q-4 -28 -4 -41q0 -125 135 -125h111l-68 -133h-65q-68 0 -119.5 19.5t-79.5 52t-41.5 69.5t-13.5 78z" />
    <glyph glyph-name="uni013C.ss01" horiz-adv-x="563" 
d="M373 0q-68 0 -119.5 19.5t-79.5 52t-41.5 69.5t-13.5 78q0 39 6 60l164 1171h137l-162 -1151q-4 -28 -4 -41q0 -125 135 -125h111l-68 -133h-65zM39 -535q126 123 156 234q-29 5 -48.5 25.5t-19.5 48.5q0 44 29 72t69 28q39 0 63.5 -27.5t24.5 -72.5q0 -74 -57 -171
t-135 -171z" />
    <glyph glyph-name="ldot.ss01" horiz-adv-x="575" 
d="M475 637q-45 0 -76.5 31.5t-31.5 72.5q0 50 39.5 87.5t91.5 37.5q41 0 71.5 -31t30.5 -71q0 -50 -38.5 -88.5t-86.5 -38.5zM119 219q0 39 6 60l164 1171h137l-162 -1151q-4 -28 -4 -41q0 -125 135 -125h111l-68 -133h-65q-68 0 -119.5 19.5t-79.5 52t-41.5 69.5t-13.5 78
z" />
    <glyph glyph-name="lslash.ss01" horiz-adv-x="679" 
d="M98 651l185 111l96 688h137l-84 -598l223 135l-22 -147l-221 -133l-58 -408q-4 -28 -4 -41q0 -125 135 -125h111l-68 -133h-65q-68 0 -119.5 19.5t-79.5 52t-41.5 69.5t-13.5 78q0 39 6 60l47 337l-186 -112z" />
    <glyph glyph-name="a.ss02" 
d="M463 -20q-162 0 -266.5 119t-104.5 300q0 140 65.5 262t178.5 195.5t244 73.5q167 0 258 -111l12 90h139l-131 -909h-137l12 88q-123 -108 -270 -108zM233 401q0 -130 72.5 -209t186.5 -79q71 0 139.5 32.5t122.5 92.5l63 438q-32 52 -91 86.5t-136 34.5
q-146 0 -251.5 -116.5t-105.5 -279.5z" />
    <glyph glyph-name="aacute.ss02" 
d="M463 -20q-162 0 -266.5 119t-104.5 300q0 140 65.5 262t178.5 195.5t244 73.5q167 0 258 -111l12 90h139l-131 -909h-137l12 88q-123 -108 -270 -108zM233 401q0 -130 72.5 -209t186.5 -79q71 0 139.5 32.5t122.5 92.5l63 438q-32 52 -91 86.5t-136 34.5
q-146 0 -251.5 -116.5t-105.5 -279.5zM518 1061l213 332h189l-279 -332h-123z" />
    <glyph glyph-name="abreve.ss02" 
d="M463 -20q-162 0 -266.5 119t-104.5 300q0 140 65.5 262t178.5 195.5t244 73.5q167 0 258 -111l12 90h139l-131 -909h-137l12 88q-123 -108 -270 -108zM233 401q0 -130 72.5 -209t186.5 -79q71 0 139.5 32.5t122.5 92.5l63 438q-32 52 -91 86.5t-136 34.5
q-146 0 -251.5 -116.5t-105.5 -279.5zM395 1368l107 35q2 -100 35.5 -163.5t107.5 -63.5t126 63.5t81 163.5l100 -35q-13 -78 -54 -147.5t-110.5 -115.5t-150.5 -46t-140.5 46t-85 116t-16.5 147z" />
    <glyph glyph-name="acircumflex.ss02" 
d="M463 -20q-162 0 -266.5 119t-104.5 300q0 140 65.5 262t178.5 195.5t244 73.5q167 0 258 -111l12 90h139l-131 -909h-137l12 88q-123 -108 -270 -108zM233 401q0 -130 72.5 -209t186.5 -79q71 0 139.5 32.5t122.5 92.5l63 438q-32 52 -91 86.5t-136 34.5
q-146 0 -251.5 -116.5t-105.5 -279.5zM346 1061l258 332h131l170 -332h-100l-148 223l-208 -223h-103z" />
    <glyph glyph-name="adieresis.ss02" 
d="M463 -20q-162 0 -266.5 119t-104.5 300q0 140 65.5 262t178.5 195.5t244 73.5q167 0 258 -111l12 90h139l-131 -909h-137l12 88q-123 -108 -270 -108zM233 401q0 -130 72.5 -209t186.5 -79q71 0 139.5 32.5t122.5 92.5l63 438q-32 52 -91 86.5t-136 34.5
q-146 0 -251.5 -116.5t-105.5 -279.5zM369 1221q0 41 29 69.5t69 28.5q36 0 58 -22t22 -56q0 -42 -29.5 -71t-71.5 -29q-33 0 -55 23t-22 57zM731 1221q0 41 29.5 69.5t70.5 28.5q35 0 57.5 -22t22.5 -56q0 -42 -30 -71t-72 -29q-34 0 -56 23t-22 57z" />
    <glyph glyph-name="agrave.ss02" 
d="M463 -20q-162 0 -266.5 119t-104.5 300q0 140 65.5 262t178.5 195.5t244 73.5q167 0 258 -111l12 90h139l-131 -909h-137l12 88q-123 -108 -270 -108zM233 401q0 -130 72.5 -209t186.5 -79q71 0 139.5 32.5t122.5 92.5l63 438q-32 52 -91 86.5t-136 34.5
q-146 0 -251.5 -116.5t-105.5 -279.5zM416 1393h164l133 -332h-105z" />
    <glyph glyph-name="amacron.ss02" 
d="M463 -20q-162 0 -266.5 119t-104.5 300q0 140 65.5 262t178.5 195.5t244 73.5q167 0 258 -111l12 90h139l-131 -909h-137l12 88q-123 -108 -270 -108zM233 401q0 -130 72.5 -209t186.5 -79q71 0 139.5 32.5t122.5 92.5l63 438q-32 52 -91 86.5t-136 34.5
q-146 0 -251.5 -116.5t-105.5 -279.5zM371 1143l16 112h526l-16 -112h-526z" />
    <glyph glyph-name="aogonek.ss02" 
d="M463 -20q-162 0 -266.5 119t-104.5 300q0 140 65.5 262t178.5 195.5t244 73.5q167 0 258 -111l12 90h139l-131 -905l2 -4q-105 -55 -157 -129t-52 -131q0 -37 22.5 -57.5t57.5 -20.5q66 0 137 64l-22 -121q-62 -58 -152 -58q-66 0 -112.5 46t-46.5 118q0 84 50 160.5
t136 132.5l12 84q-123 -108 -270 -108zM233 401q0 -130 72.5 -209t186.5 -79q71 0 139.5 32.5t122.5 92.5l63 438q-32 52 -91 86.5t-136 34.5q-146 0 -251.5 -116.5t-105.5 -279.5z" />
    <glyph glyph-name="aring.ss02" 
d="M463 -20q-162 0 -266.5 119t-104.5 300q0 140 65.5 262t178.5 195.5t244 73.5q167 0 258 -111l12 90h139l-131 -909h-137l12 88q-123 -108 -270 -108zM233 401q0 -130 72.5 -209t186.5 -79q71 0 139.5 32.5t122.5 92.5l63 438q-32 52 -91 86.5t-136 34.5
q-146 0 -251.5 -116.5t-105.5 -279.5zM465 1217q0 87 64 150t149 63q73 0 120.5 -48t47.5 -122q0 -86 -63.5 -148.5t-149.5 -62.5q-72 0 -120 48t-48 120zM561 1227q0 -38 23 -62t59 -24q42 0 74.5 33t32.5 77q0 38 -22.5 61t-59.5 23q-42 0 -74.5 -31.5t-32.5 -76.5z" />
    <glyph glyph-name="atilde.ss02" 
d="M463 -20q-162 0 -266.5 119t-104.5 300q0 140 65.5 262t178.5 195.5t244 73.5q167 0 258 -111l12 90h139l-131 -909h-137l12 88q-123 -108 -270 -108zM233 401q0 -130 72.5 -209t186.5 -79q71 0 139.5 32.5t122.5 92.5l63 438q-32 52 -91 86.5t-136 34.5
q-146 0 -251.5 -116.5t-105.5 -279.5zM328 1114q11 83 71 147t144 64q45 0 81.5 -20t56.5 -43.5t45 -43.5t50 -20q73 0 113 125l92 -25q-11 -82 -71 -145t-144 -63q-45 0 -82 20t-56.5 43.5t-44.5 43.5t-48 20q-74 0 -115 -125z" />
    <glyph glyph-name="g.ss02" 
d="M463 -20q-162 0 -266.5 119t-104.5 300q0 140 65.5 262t178.5 195.5t244 73.5q163 0 256 -109l12 88h141l-147 -1050q-27 -187 -145 -284t-298 -97q-177 0 -313 102v174q140 -143 311 -143q124 0 205 65t100 205l29 205q-118 -106 -268 -106zM233 401q0 -130 72.5 -209
t186.5 -79q71 0 139.5 32.5t122.5 92.5l61 440q-32 51 -91 85t-134 34q-146 0 -251.5 -116.5t-105.5 -279.5z" />
    <glyph glyph-name="gbreve.ss02" 
d="M463 -20q-162 0 -266.5 119t-104.5 300q0 140 65.5 262t178.5 195.5t244 73.5q163 0 256 -109l12 88h141l-147 -1050q-27 -187 -145 -284t-298 -97q-177 0 -313 102v174q140 -143 311 -143q124 0 205 65t100 205l29 205q-118 -106 -268 -106zM233 401q0 -130 72.5 -209
t186.5 -79q71 0 139.5 32.5t122.5 92.5l61 440q-32 51 -91 85t-134 34q-146 0 -251.5 -116.5t-105.5 -279.5zM395 1368l107 35q2 -100 35.5 -163.5t107.5 -63.5t126 63.5t81 163.5l100 -35q-13 -78 -54 -147.5t-110.5 -115.5t-150.5 -46t-140.5 46t-85 116t-16.5 147z" />
    <glyph glyph-name="uni0123.ss02" 
d="M463 -20q-162 0 -266.5 119t-104.5 300q0 140 65.5 262t178.5 195.5t244 73.5q163 0 256 -109l12 88h141l-147 -1050q-27 -187 -145 -284t-298 -97q-177 0 -313 102v174q140 -143 311 -143q124 0 205 65t100 205l29 205q-118 -106 -268 -106zM233 401q0 -130 72.5 -209
t186.5 -79q71 0 139.5 32.5t122.5 92.5l61 440q-32 51 -91 85t-134 34q-146 0 -251.5 -116.5t-105.5 -279.5zM541 1137q0 75 58 172t136 170l82 -35q-128 -119 -158 -232q30 -6 49 -26t19 -49q0 -43 -28.5 -71t-67.5 -28t-64.5 27.5t-25.5 71.5z" />
    <glyph glyph-name="gdotaccent.ss02" 
d="M463 -20q-162 0 -266.5 119t-104.5 300q0 140 65.5 262t178.5 195.5t244 73.5q163 0 256 -109l12 88h141l-147 -1050q-27 -187 -145 -284t-298 -97q-177 0 -313 102v174q140 -143 311 -143q124 0 205 65t100 205l29 205q-118 -106 -268 -106zM233 401q0 -130 72.5 -209
t186.5 -79q71 0 139.5 32.5t122.5 92.5l61 440q-32 51 -91 85t-134 34q-146 0 -251.5 -116.5t-105.5 -279.5zM563 1210q0 41 30 71t71 30q35 0 57 -23t22 -57q0 -43 -29.5 -72t-72.5 -29q-34 0 -56 23t-22 57z" />
    <glyph glyph-name="f_f_j" horiz-adv-x="1644" 
d="M1442 1118q2 14 2 37q0 85 -56 134.5t-145 49.5q-95 0 -159.5 -62t-79.5 -167l-29 -201h252l-33 -127h-236l-108 -782h-137l155 1112q23 163 128 259.5t257 96.5q144 0 237 -79.5t93 -214.5q0 -6 -4 -56h-137zM119 782l33 127h112l37 256q19 135 102 219t211 84
q102 0 154 -34v-148q-66 53 -156 53q-76 0 -119.5 -48.5t-54.5 -129.5l-35 -252h252l-32 -127h-238l-111 -782h-137l111 782h-129zM1061 -524q97 150 155 295t84 333l113 805h137l-112 -805q-44 -325 -221 -612z" />
    <glyph glyph-name="f_j" horiz-adv-x="1069" 
d="M485 -524q97 151 155.5 295.5t84.5 332.5l113 805h137l-113 -805q-45 -331 -221 -612zM117 782l33 127h114l29 203q23 163 129 259.5t256 96.5q146 0 238 -79.5t92 -214.5q0 -6 -4 -56h-136v37q0 85 -55 134.5t-143 49.5q-95 0 -160 -62t-80 -167l-29 -201h252l-32 -127
h-236l-111 -782h-137l109 782h-129z" />
    <glyph glyph-name="f_f_l.ss01" horiz-adv-x="1763" 
d="M874 1165q19 135 101.5 219t212.5 84q101 0 153 -34v-148q-69 53 -155 53q-76 0 -120.5 -48.5t-53.5 -129.5l-35 -252h250l-33 -127h-236l-110 -782h-137zM119 782l33 127h112l37 256q19 135 102 219t211 84q102 0 154 -34v-148q-66 53 -156 53q-76 0 -119.5 -48.5
t-54.5 -129.5l-35 -252h252l-32 -127h-238l-111 -782h-137l111 782h-129zM1319 219q0 32 4 60l166 1171h137l-164 -1151q-4 -28 -4 -41q0 -125 137 -125h109l-68 -133h-63q-69 0 -120.5 19.5t-79.5 52.5t-41 69.5t-13 77.5z" />
    <glyph glyph-name="fl.ss01" horiz-adv-x="1189" 
d="M301 1165q19 135 102 219t211 84q102 0 154 -34v-148q-66 53 -156 53q-76 0 -119.5 -48.5t-54.5 -129.5l-35 -252h252l-32 -127h-238l-111 -782h-137l111 782h-129l33 127h112zM745 219q0 35 7 60l163 1171h138l-162 -1151q-4 -28 -4 -41q0 -125 135 -125h111l-68 -133
h-66q-68 0 -119.5 19.5t-79.5 52t-41.5 69.5t-13.5 78z" />
    <glyph glyph-name="zero.osf" horiz-adv-x="1144" 
d="M524 -18q-188 0 -305 124t-117 320q0 149 70.5 279t193 207t265.5 77q189 0 305.5 -125.5t116.5 -322.5q0 -149 -70.5 -278t-192.5 -205t-266 -76zM248 432q0 -147 77.5 -232t200.5 -85q74 0 143.5 31t122.5 85.5t85 134.5t32 173q0 148 -79 232.5t-203 84.5
q-154 0 -266.5 -119.5t-112.5 -304.5z" />
    <glyph glyph-name="one.osf" horiz-adv-x="671" 
d="M84 702l33 148l350 127h106l-137 -977h-141l115 819z" />
    <glyph glyph-name="two.osf" horiz-adv-x="927" 
d="M18 0l9 55l444 367q109 91 150 144.5t41 121.5q0 83 -48.5 126.5t-130.5 43.5q-148 0 -333 -164l34 180q158 115 312 115q142 0 227.5 -81t85.5 -214q0 -97 -55.5 -176t-188.5 -182l-258 -203l514 2l-51 -135h-752z" />
    <glyph glyph-name="three.osf" horiz-adv-x="925" 
d="M307 -440q-93 0 -177 30.5t-142 83.5l8 172q127 -153 309 -153q133 0 221 83.5t88 213.5q0 108 -68 172.5t-196 64.5h-129l19 127h133q122 0 214.5 86.5t92.5 210.5q0 94 -57.5 151.5t-161.5 57.5q-92 0 -170.5 -43t-161.5 -117l33 181q162 110 315 110q159 0 252.5 -93
t93.5 -234q0 -129 -75 -227t-187 -144q94 -41 146.5 -119.5t52.5 -189.5q0 -182 -133 -303t-320 -121z" />
    <glyph glyph-name="four.osf" horiz-adv-x="1046" 
d="M518 -428l62 428h-603l9 55l776 922h90l-121 -852h227l-43 -125h-202l-62 -428h-133zM190 125h408l82 575z" />
    <glyph glyph-name="five.osf" horiz-adv-x="972" 
d="M348 -440q-106 0 -197.5 37.5t-154.5 99.5l14 192q46 -83 134.5 -138.5t201.5 -55.5q151 0 248.5 99t97.5 247q0 115 -64.5 180.5t-185.5 65.5q-125 0 -249 -70l-93 49l156 711h662l-54 -137h-506l-102 -469q107 45 213 45q166 0 267.5 -104.5t101.5 -274.5
q0 -132 -66.5 -242t-179 -172.5t-244.5 -62.5z" />
    <glyph glyph-name="six.osf" horiz-adv-x="1046" 
d="M987 1313q-246 -84 -425 -239t-255 -353q63 53 143 81.5t158 28.5q155 0 257 -106.5t102 -275.5q0 -132 -65 -241t-170.5 -168.5t-227.5 -59.5q-171 0 -282 121t-111 348q0 134 42 262.5t114 234t169.5 196.5t207 157t226.5 110zM256 453q0 -161 67.5 -251.5t184.5 -90.5
q126 0 220.5 95t94.5 236q0 116 -67.5 186t-182.5 70q-88 0 -169 -40t-142 -113q-6 -47 -6 -92z" />
    <glyph glyph-name="seven.osf" horiz-adv-x="901" 
d="M-6 -418l754 1262h-662l51 133h811l-8 -55l-786 -1340h-160z" />
    <glyph glyph-name="eight.osf" horiz-adv-x="1095" 
d="M500 -18q-183 0 -295.5 97.5t-112.5 248.5q0 127 86 228t238 155q-195 103 -195 295q0 171 129.5 285t313.5 114q164 0 268 -92.5t104 -237.5q0 -124 -77 -218.5t-214 -151.5q232 -120 232 -318q0 -170 -138 -287.5t-339 -117.5zM238 336q0 -98 71.5 -160.5t192.5 -62.5
q138 0 232.5 78.5t94.5 191.5q0 42 -16 78.5t-39 61.5t-60 49t-67 38t-72 31q-159 -38 -248 -118t-89 -187zM360 1008q0 -48 17.5 -85.5t52.5 -65.5t72 -47t92 -40q144 36 223.5 110.5t79.5 180.5q0 98 -65 155.5t-173 57.5q-129 0 -214 -78t-85 -188z" />
    <glyph glyph-name="nine.osf" horiz-adv-x="1024" 
d="M47 -342q253 84 435.5 239.5t258.5 356.5q-62 -54 -141.5 -84.5t-161.5 -30.5q-155 0 -257.5 107t-102.5 276q0 130 64 238.5t170.5 169.5t230.5 61q81 0 151 -28.5t124 -84.5t85 -146.5t31 -205.5q0 -139 -44 -270t-118 -236.5t-173 -196t-208 -154.5t-225 -105z
M221 522q0 -114 66 -182t180 -68q88 0 172 41.5t145 114.5q7 54 7 90q0 162 -67 252t-183 90q-127 0 -223.5 -97.5t-96.5 -240.5z" />
    <glyph glyph-name="one.ss03" horiz-adv-x="552" 
d="M483 1397l-196 -1397h-150l187 1321l145 76h14z" />
    <glyph glyph-name="zero.tf" horiz-adv-x="1146" 
d="M520 -20q-175 0 -281 138t-106 406q0 124 22.5 249t69.5 240.5t112 204t158.5 142t200.5 53.5q174 0 280.5 -138.5t106.5 -406.5q0 -103 -16.5 -207.5t-47.5 -204t-79.5 -185.5t-109 -151t-140.5 -102.5t-170 -37.5zM285 514q0 -196 64 -296.5t179 -100.5q79 0 147 49.5
t114 129t79 181t48.5 204t15.5 198.5q0 196 -64.5 296.5t-179.5 100.5q-79 0 -147 -49.5t-114 -129t-79 -181t-48 -204t-15 -198.5z" />
    <glyph glyph-name="one.tf" horiz-adv-x="1146" 
d="M139 0l19 135h352l154 1088l-394 -133l35 153l440 152h93l-179 -1260h330l-18 -135h-832z" />
    <glyph glyph-name="two.tf" horiz-adv-x="1146" 
d="M80 59q135 128 320 315t290 306q94 107 143.5 199t49.5 182q0 97 -59.5 152t-166.5 55q-106 0 -207 -55t-184 -144l53 213q171 131 359 131q168 0 265 -94.5t97 -237.5q0 -101 -44.5 -205t-151.5 -229.5t-181 -200t-234 -226.5q-55 -53 -83 -79h617l-52 -141h-841z" />
    <glyph glyph-name="three.tf" horiz-adv-x="1146" 
d="M471 -20q-97 0 -188.5 31.5t-155.5 84.5l6 185q145 -164 338 -164q139 0 237.5 83.5t98.5 215.5q0 239 -287 239h-137l16 131h127q144 0 245 85.5t101 211.5q0 90 -58.5 141.5t-164.5 51.5q-189 0 -370 -152l45 179q165 110 346 110q161 0 258.5 -85.5t97.5 -223.5
q0 -124 -77.5 -226t-198.5 -153q102 -37 157.5 -118t55.5 -195q0 -117 -65.5 -216.5t-178.5 -157.5t-248 -58z" />
    <glyph glyph-name="four.tf" horiz-adv-x="1146" 
d="M633 0l55 403h-641l10 58l826 934h90l-119 -858h240l-50 -134h-210l-56 -403h-145zM285 537h422l79 563z" />
    <glyph glyph-name="five.tf" horiz-adv-x="1146" 
d="M487 -20q-198 0 -348 135l8 207q55 -88 144.5 -146.5t200.5 -58.5q146 0 246 104.5t100 243.5q0 114 -72 183t-191 69q-124 0 -235 -76l-92 57l151 695h662l-45 -133h-508l-100 -457q100 47 204 47q161 0 270 -106t109 -275q0 -132 -66.5 -244.5t-182.5 -178.5t-255 -66z
" />
    <glyph glyph-name="six.tf" horiz-adv-x="1146" 
d="M1030 1321q-228 -76 -406 -236t-262 -360q63 51 140.5 78.5t154.5 27.5q156 0 259.5 -102.5t103.5 -267.5q0 -130 -64 -241t-173 -175.5t-236 -64.5q-80 0 -150.5 28t-125 81t-86 139t-31.5 194q0 203 101 405t275.5 358.5t384.5 231.5zM303 434q0 -154 66 -235.5
t182 -81.5q134 0 225.5 101.5t91.5 234.5q0 110 -66 175.5t-179 65.5q-87 0 -168.5 -40.5t-143.5 -114.5q-8 -47 -8 -105z" />
    <glyph glyph-name="seven.tf" horiz-adv-x="1146" 
d="M170 0l758 1255h-660l45 140h826l-9 -58l-796 -1337h-164z" />
    <glyph glyph-name="eight.tf" horiz-adv-x="1146" 
d="M522 -18q-180 0 -293.5 98.5t-113.5 243.5q0 131 83.5 232t235.5 157q-190 108 -190 293q0 178 129.5 292.5t320.5 114.5q162 0 268.5 -93t106.5 -233q0 -130 -77.5 -223.5t-213.5 -150.5q232 -125 232 -320q0 -119 -67 -214t-178 -146t-243 -51zM270 332
q0 -96 69 -156.5t187 -60.5q139 0 232.5 80.5t93.5 199.5q0 43 -19 80.5t-43.5 61.5t-65.5 47.5t-67.5 34.5t-66.5 26q-148 -40 -234 -123t-86 -190zM391 1008q0 -37 14 -68.5t33.5 -53t55.5 -43t64 -34t75 -31.5q129 36 208 112t79 185q0 91 -63 147t-169 56
q-127 0 -212 -77t-85 -193z" />
    <glyph glyph-name="nine.tf" horiz-adv-x="1146" 
d="M182 70q237 83 415 240.5t257 359.5q-60 -51 -137 -80t-156 -29q-154 0 -260 104t-106 261q0 204 139.5 344.5t335.5 140.5q165 0 278 -115.5t113 -312.5q0 -214 -101.5 -420t-274.5 -359.5t-384 -230.5zM348 934q0 -106 64.5 -172t169.5 -66q88 0 173 41.5t148 114.5
q8 52 8 117q0 144 -66 224.5t-181 80.5q-128 0 -222 -96.5t-94 -243.5z" />
    <glyph glyph-name="one.osf.ss03" horiz-adv-x="481" 
d="M383 977l-137 -977h-142l129 907l136 70h14z" />
    <glyph glyph-name="one.tf.ss03" horiz-adv-x="1146" 
d="M778 1397l-196 -1397h-148l184 1321l148 76h12z" />
    <glyph glyph-name="zero.dnom" horiz-adv-x="765" 
d="M330 2q-114 0 -185 86t-71 250q0 126 41 241t125 192t192 77q113 0 183.5 -86t70.5 -248q0 -127 -41 -242.5t-124 -192.5t-191 -77zM197 334q0 -106 37 -161.5t102 -55.5q56 0 101 39t71.5 100.5t40.5 129.5t14 132q0 105 -37 159t-102 54q-56 0 -101.5 -38.5t-72 -99
t-40 -127.5t-13.5 -132z" />
    <glyph glyph-name="one.dnom" horiz-adv-x="483" 
d="M162 12l98 693l-190 -72l28 127l219 80h82l-116 -828h-121z" />
    <glyph glyph-name="two.dnom" horiz-adv-x="659" 
d="M16 12l11 74l262 248q86 81 130 147.5t44 132.5q1 55 -30.5 86t-90.5 31q-125 0 -244 -125l47 168q117 74 217 74q102 0 164 -62t62 -159q0 -94 -61.5 -185.5t-170.5 -189.5l-137 -123h324l-33 -117h-494z" />
    <glyph glyph-name="three.dnom" horiz-adv-x="651" 
d="M240 2q-113 0 -197 64l2 143q36 -42 91.5 -67t109.5 -25q73 0 124.5 46.5t51.5 117.5q0 56 -37 88t-113 32h-94l15 109h86q79 0 121 36.5t42 92.5q0 47 -30.5 72.5t-89.5 25.5q-108 0 -211 -88l47 146q52 28 92 41.5t94 13.5q101 0 162 -52.5t61 -138.5q0 -70 -41 -125
t-108 -77q58 -14 92.5 -61.5t34.5 -119.5q0 -118 -88 -196t-217 -78z" />
    <glyph glyph-name="four.dnom" horiz-adv-x="702" 
d="M338 12l27 197h-357l8 59l482 572h75l-73 -521h141l-43 -110h-113l-28 -197h-119zM186 319h195l39 273z" />
    <glyph glyph-name="five.dnom" horiz-adv-x="647" 
d="M244 2q-119 0 -195 59v154q32 -49 84.5 -73.5t108.5 -24.5q83 0 133.5 50t50.5 124q0 59 -33.5 91t-97.5 32q-60 0 -133 -31l-66 35l88 422h420l-43 -113h-297l-47 -225q50 16 102 16q101 0 165.5 -58.5t64.5 -164.5q0 -125 -86 -209t-219 -84z" />
    <glyph glyph-name="six.dnom" horiz-adv-x="681" 
d="M311 2q-111 0 -181.5 72t-70.5 207q0 176 118 339t300 236l60 -94q-112 -43 -196 -123.5t-126 -179.5q71 49 162 49q96 0 158.5 -58.5t62.5 -164.5q0 -123 -81 -203t-206 -80zM178 289q0 -85 36.5 -128.5t100.5 -43.5q69 0 115.5 47.5t46.5 116.5q0 60 -35 89t-90 29
q-97 0 -172 -75q-2 -12 -2 -35z" />
    <glyph glyph-name="seven.dnom" horiz-adv-x="587" 
d="M12 12l430 711h-346l43 117h459l-10 -76l-443 -752h-133z" />
    <glyph glyph-name="eight.dnom" horiz-adv-x="694" 
d="M301 2q-112 0 -180 60t-68 157q0 144 170 223q-96 69 -96 170q0 97 79.5 166.5t186.5 69.5q92 0 155.5 -56t63.5 -149q0 -131 -147 -201q119 -60 119 -184q0 -109 -79.5 -182.5t-203.5 -73.5zM174 229q0 -52 33 -82t92 -30q73 0 119.5 41t46.5 100q0 95 -131 133
q-77 -30 -118.5 -65.5t-41.5 -96.5zM248 604q0 -78 106 -112q135 49 135 143q0 47 -29 73.5t-73 26.5q-57 0 -98 -39t-41 -92z" />
    <glyph glyph-name="nine.dnom" horiz-adv-x="690" 
d="M74 86q132 47 233 123t154 172q-65 -41 -144 -41q-100 0 -166.5 64t-66.5 167q0 116 82.5 196.5t202.5 80.5q111 0 182.5 -74.5t71.5 -208.5q0 -185 -138.5 -342.5t-337.5 -228.5zM203 575q0 -57 36 -90.5t99 -33.5q93 0 166 67q2 12 2 39q0 84 -38 130t-101 46
q-68 0 -116 -45.5t-48 -112.5z" />
    <glyph glyph-name="zero.numr" horiz-adv-x="765" 
d="M408 555q-114 0 -185 86t-71 250q0 126 41 241t125 192t192 77q113 0 183.5 -86t70.5 -248q0 -127 -41 -242.5t-124 -192.5t-191 -77zM274 887q0 -106 37.5 -161.5t102.5 -55.5q56 0 101 39t71.5 100.5t40.5 129.5t14 132q0 105 -37 159t-102 54q-56 0 -101.5 -38.5
t-72 -99t-40.5 -127.5t-14 -132z" />
    <glyph glyph-name="one.numr" horiz-adv-x="483" 
d="M238 565l98 692l-191 -71l29 127l219 80h82l-117 -828h-120z" />
    <glyph glyph-name="two.numr" horiz-adv-x="659" 
d="M94 565l10 74l263 248q86 81 130 147.5t44 132.5q1 55 -30.5 86t-90.5 31q-125 0 -244 -125l47 168q117 74 217 74q102 0 164 -62.5t62 -158.5q0 -94 -61.5 -185.5t-170.5 -189.5l-137 -123h324l-33 -117h-494z" />
    <glyph glyph-name="three.numr" horiz-adv-x="651" 
d="M315 555q-113 0 -196 63l2 144q36 -42 91.5 -67t109.5 -25q73 0 124.5 46.5t51.5 117.5q0 56 -37 88t-113 32h-94l14 109h86q79 0 121.5 36.5t42.5 92.5q0 46 -31 72t-90 26q-108 0 -211 -88l47 146q51 28 92 41.5t95 13.5q101 0 162 -52.5t61 -138.5q0 -70 -41 -125
t-108 -77q58 -14 92.5 -61.5t34.5 -119.5q0 -117 -88.5 -195.5t-217.5 -78.5z" />
    <glyph glyph-name="four.numr" horiz-adv-x="702" 
d="M414 565l26 197h-356l8 59l481 572h76l-74 -521h142l-43 -110h-113l-29 -197h-118zM262 872h195l39 273z" />
    <glyph glyph-name="five.numr" horiz-adv-x="647" 
d="M322 555q-119 0 -195 59v154q32 -49 84 -73.5t108 -24.5q83 0 134 50t51 124q0 59 -33.5 91t-97.5 32q-60 0 -133 -31l-66 35l88 422h420l-43 -113h-297l-47 -225q50 16 102 16q101 0 165.5 -58.5t64.5 -164.5q0 -125 -86 -209t-219 -84z" />
    <glyph glyph-name="six.numr" horiz-adv-x="681" 
d="M389 555q-111 0 -181.5 72t-70.5 207q0 176 118 339t300 236l59 -94q-112 -43 -195.5 -123.5t-125.5 -179.5q71 49 162 49q96 0 158.5 -58.5t62.5 -164.5q0 -123 -81 -203t-206 -80zM256 842q0 -85 36.5 -128.5t100.5 -43.5q69 0 115.5 47.5t46.5 116.5q0 60 -35 89
t-90 29q-97 0 -172 -75q-2 -12 -2 -35z" />
    <glyph glyph-name="seven.numr" horiz-adv-x="587" 
d="M90 565l430 711h-346l43 117h459l-10 -76l-443 -752h-133z" />
    <glyph glyph-name="eight.numr" horiz-adv-x="694" 
d="M379 555q-112 0 -180 60t-68 157q0 144 170 223q-96 69 -96 170q0 97 79.5 166.5t186.5 69.5q92 0 155.5 -56t63.5 -149q0 -131 -147 -201q119 -59 119 -184q0 -109 -79.5 -182.5t-203.5 -73.5zM252 782q0 -52 33 -82t92 -30q73 0 119.5 41t46.5 100q0 95 -131 133
q-77 -30 -118.5 -65.5t-41.5 -96.5zM326 1157q0 -79 106 -113q135 49 135 144q0 47 -29 73.5t-73 26.5q-57 0 -98 -39t-41 -92z" />
    <glyph glyph-name="nine.numr" horiz-adv-x="690" 
d="M152 639q132 47 233 123t154 172q-65 -41 -144 -41q-100 0 -166.5 64t-66.5 167q0 116 82 196.5t202 80.5q111 0 182.5 -74.5t71.5 -208.5q0 -185 -138 -342.5t-337 -228.5zM281 1128q0 -57 36 -90.5t99 -33.5q93 0 166 67q2 12 2 39q0 84 -38.5 130t-101.5 46
q-68 0 -115.5 -45.5t-47.5 -112.5z" />
    <glyph glyph-name="period.alt" horiz-adv-x="458" 
d="M184 -10q-42 0 -72 30t-30 70q0 45 38 80t83 35q42 0 71 -30t29 -69q0 -45 -36.5 -80.5t-82.5 -35.5z" />
    <glyph glyph-name="colon.case" horiz-adv-x="552" 
d="M258 260q-45 0 -76.5 32t-31.5 73q0 50 39.5 87t91.5 37q41 0 71.5 -31t30.5 -71q0 -50 -38.5 -88.5t-86.5 -38.5zM236 991q0 50 39.5 87.5t91.5 37.5q41 0 71.5 -31t30.5 -71q0 -50 -38.5 -88.5t-86.5 -38.5q-45 0 -76.5 31.5t-31.5 72.5z" />
    <glyph glyph-name="periodcentered.case" horiz-adv-x="526" 
d="M285 575q-45 0 -77 32t-32 73q0 50 39.5 87.5t91.5 37.5q41 0 72 -31.5t31 -71.5q0 -50 -38.5 -88.5t-86.5 -38.5z" />
    <glyph glyph-name="bullet.case" horiz-adv-x="772" 
d="M389 446q-87 0 -144 55.5t-57 139.5q0 109 74.5 183.5t181.5 74.5q86 0 141.5 -55t55.5 -139q0 -109 -74 -184t-178 -75z" />
    <glyph glyph-name="slash.case" horiz-adv-x="823" 
d="M-35 -348l811 1950h133l-813 -1950h-131z" />
    <glyph glyph-name="backslash.case" horiz-adv-x="1302" 
d="M1149 -336h-131l-813 1950h133z" />
    <glyph glyph-name="hyphen.case" horiz-adv-x="831" 
d="M168 621l18 122h535l-19 -122h-534z" />
    <glyph glyph-name="uni00AD.case" horiz-adv-x="831" 
d="M168 621l18 122h535l-19 -122h-534z" />
    <glyph glyph-name="endash.case" horiz-adv-x="1167" 
d="M168 621l18 122h871l-17 -122h-872z" />
    <glyph glyph-name="emdash.case" horiz-adv-x="2201" 
d="M168 621l18 122h1903l-14 -122h-1907z" />
    <glyph glyph-name="parenleft.case" horiz-adv-x="622" 
d="M713 1468q-210 -223 -329.5 -491.5t-119.5 -564.5q0 -353 205 -648l-92 -63q-254 332 -254 748q0 325 128.5 587t383.5 502z" />
    <glyph glyph-name="parenright.case" horiz-adv-x="622" 
d="M-41 -233q210 223 329.5 491.5t119.5 564.5q0 352 -205 647l92 64q254 -332 254 -748q0 -325 -128.5 -587t-383.5 -502z" />
    <glyph glyph-name="braceleft.case" horiz-adv-x="550" 
d="M279 -260q-87 6 -141 52t-54 122q0 56 24 127.5t53 130t53 131t24 129.5q0 64 -29.5 111.5t-75.5 74.5l10 56q78 41 122 120.5t44 174.5q0 49 -17.5 156t-17.5 153q0 139 66 204.5t192 71.5l46 -116q-91 0 -129.5 -30.5t-38.5 -102.5q0 -55 18 -152.5t18 -155.5
q0 -111 -41.5 -206.5t-115.5 -145.5q37 -33 59.5 -89t22.5 -120q0 -61 -24.5 -138.5t-53.5 -137.5t-53.5 -122t-24.5 -97q0 -47 43 -67t98 -15z" />
    <glyph glyph-name="braceright.case" horiz-adv-x="552" 
d="M330 1552q87 -6 140.5 -52t53.5 -122q0 -56 -24 -127.5t-52.5 -130t-52.5 -131t-24 -129.5q0 -64 29 -111.5t75 -74.5l-10 -56q-78 -41 -122 -120t-44 -174q0 -50 17.5 -157t17.5 -153q0 -139 -66 -204.5t-192 -71.5l-45 117q91 0 129.5 30.5t38.5 102.5q0 55 -18.5 152
t-18.5 155q0 111 41.5 206.5t115.5 145.5q-36 33 -58.5 89t-22.5 120q0 61 24 139t53.5 138t53.5 122t24 97q0 47 -43 67t-98 15z" />
    <glyph glyph-name="bracketleft.case" horiz-adv-x="679" 
d="M104 -248l250 1768h408l-17 -121h-276l-215 -1528h276l-16 -119h-410z" />
    <glyph glyph-name="bracketright.case" horiz-adv-x="679" 
d="M627 1522l-250 -1768h-408l17 121h276l215 1528h-276l16 119h410z" />
    <glyph glyph-name="guillemotleft.case" horiz-adv-x="1050" 
d="M123 655l332 361h163l-335 -365l227 -356h-158zM522 655l332 361h164l-336 -365l227 -356h-157z" />
    <glyph glyph-name="guillemotright.case" horiz-adv-x="1052" 
d="M983 655l-332 -360h-164l336 364l-227 357h158zM90 295l336 364l-227 357h157l230 -361l-332 -360h-164z" />
    <glyph glyph-name="guilsinglleft.case" horiz-adv-x="653" 
d="M123 655l332 361h163l-335 -365l227 -356h-158z" />
    <glyph glyph-name="guilsinglright.case" horiz-adv-x="653" 
d="M586 657l-332 -360h-164l336 365l-227 356h157z" />
    <glyph glyph-name="florin.tf" horiz-adv-x="1146" 
d="M115 -459q-39 0 -82 9t-66 22l-8 152q65 -48 156 -48q198 0 264 271l205 833h-129l45 127h114l21 86q52 211 155.5 312.5t260.5 101.5q91 0 149 -35l-10 -147q-56 51 -156 51q-95 0 -160 -71.5t-98 -205.5l-22 -92h209l-45 -127h-195l-203 -825q-54 -217 -155.5 -315.5
t-249.5 -98.5z" />
    <glyph glyph-name="at.case" horiz-adv-x="1386" 
d="M694 59q-251 0 -402 150.5t-151 394.5q0 189 91.5 353t253 263t354.5 99q119 0 216 -39.5t159.5 -107t96.5 -155.5t34 -186q0 -111 -40.5 -209t-113 -158.5t-158.5 -60.5q-114 0 -149 97q-87 -103 -205 -103q-94 0 -160.5 64.5t-66.5 181.5q0 132 84.5 226t199.5 94
q58 0 104.5 -26.5t69.5 -72.5l13 84h120l-45 -303q-8 -66 -8 -70q0 -63 60 -63q75 0 125.5 95t50.5 216q0 170 -105 274.5t-286 104.5q-119 0 -225 -48t-181 -129t-118.5 -191t-43.5 -230q0 -200 118 -312t319 -112q178 0 342 88l-39 -147q-137 -62 -314 -62zM582 649
q0 -63 31 -100t92 -37q49 0 95.5 23.5t73.5 58.5l23 172q-13 35 -52 60.5t-89 25.5q-79 0 -126.5 -62t-47.5 -141z" />
    <glyph glyph-name="bar.case" horiz-adv-x="532" 
d="M98 -311l275 1966h125l-275 -1966h-125z" />
    <glyph glyph-name="brokenbar.case" horiz-adv-x="532" 
d="M248 762l125 893h125l-125 -893h-125zM98 -311l125 897h125l-125 -897h-125z" />
    <glyph glyph-name="dagger.case" horiz-adv-x="946" 
d="M401 -84q-61 0 -61 109q0 62 22.5 190.5t65.5 350.5t70 386q-31 -4 -72.5 -10t-63 -8.5t-50.5 -5t-56 -2.5q-55 0 -90 17t-35 46q0 37 41.5 58.5t103.5 21.5q34 0 66 -4t82 -12t86 -13q8 106 11.5 219t10.5 173q11 80 37 123.5t64 43.5q59 0 59 -98q0 -48 -8.5 -92.5
t-33.5 -149t-48 -221.5q39 5 91.5 13t86.5 12t70 4q53 0 86 -16.5t33 -46.5q0 -35 -40 -55.5t-100 -20.5q-29 0 -58 2t-48.5 4.5t-63.5 8t-73 9.5q-11 -114 -28.5 -306t-30 -314t-23.5 -191q-17 -124 -40.5 -174.5t-62.5 -50.5z" />
    <glyph glyph-name="daggerdbl.case" horiz-adv-x="978" 
d="M418 -84q-29 0 -46.5 26.5t-17.5 73.5q0 43 6.5 82.5t17 75t32 120t43.5 183.5q-40 -6 -93 -15t-86.5 -13.5t-68.5 -4.5q-54 0 -88.5 19.5t-34.5 50.5q0 35 41 55.5t102 20.5q35 0 66 -3t84.5 -11.5t87.5 -12.5q9 127 6 193q34 122 49 196q-33 -4 -75 -10t-64 -8.5
t-51 -5t-56 -2.5q-53 0 -89 18t-36 47q0 36 42 57t104 21q43 0 120 -12.5t115 -16.5q8 108 11 220.5t10 171.5q22 167 98 167q62 0 62 -98q0 -47 -9.5 -91.5t-35.5 -149t-50 -224.5q43 5 94.5 13.5t86.5 13t71 4.5q51 0 85 -18t34 -48q0 -35 -39.5 -54t-99.5 -19
q-36 0 -68.5 3.5t-84 11.5t-91.5 13q-4 -52 -5 -122t-1 -78q-4 -16 -13.5 -50t-18.5 -71t-17 -76q34 5 76.5 11.5t64.5 9.5t52 5.5t59 2.5q51 0 85 -17t34 -47q0 -36 -40 -57t-98 -21q-36 0 -70 5t-83 14.5t-92 15.5q-7 -99 -10 -216.5t-13 -180.5q-18 -168 -94 -168z" />
    <glyph glyph-name="uni20BF.tf" horiz-adv-x="1146" 
d="M174 82l172 1229h152l30 221h123l-30 -221h106h14l33 221h123l-37 -244q90 -31 141.5 -102t51.5 -166q0 -99 -57 -180.5t-140 -122.5q74 -33 118 -101.5t44 -162.5q0 -135 -90.5 -234t-233.5 -127l-32 -231h-123l30 221h-123l-30 -221h-123l31 221h-150zM342 217h252
q127 0 199.5 67t72.5 173q0 91 -53.5 139.5t-153.5 48.5h-256zM420 776h225q116 0 186 65t70 165q0 82 -51.5 126t-147.5 44h-225z" />
    <glyph glyph-name="cent.tf" horiz-adv-x="1146" 
d="M498 0l34 238q-138 32 -217 142t-79 269q0 200 122.5 346.5t309.5 175.5l30 222h123l-30 -217q124 -9 202 -70v-158q-83 86 -221 96l-45 -319l-53 -365q156 10 278 123l-41 -172q-124 -79 -258 -84l-32 -227h-123zM377 651q0 -107 46 -178.5t130 -97.5l51 350l43 305
q-119 -35 -194.5 -137.5t-75.5 -241.5z" />
    <glyph glyph-name="currency.tf" horiz-adv-x="1146" 
d="M563 330q-110 0 -190 61l-166 -145l-78 88l168 147q-35 68 -35 154q0 138 90 246l-121 139l95 80l120 -139q93 55 197 55q113 0 191 -62l170 148l77 -90l-172 -148q35 -68 35 -151q0 -135 -90 -246l123 -141l-94 -80l-123 141q-88 -57 -197 -57zM385 637q0 -88 49 -137
t137 -49q112 0 182 74.5t70 179.5q0 89 -50 139.5t-138 50.5q-109 0 -179.5 -74t-70.5 -184z" />
    <glyph glyph-name="dollar.tf" horiz-adv-x="1146" 
d="M432 -156l35 246q-202 24 -326 125l-2 178q62 -63 153 -108t193 -58l66 457q-66 34 -109.5 61.5t-90 67.5t-70 88t-23.5 105q0 148 108 239t277 103l31 211h123l-29 -213q162 -13 262 -84l-8 -172q-119 97 -274 110l-60 -424q55 -29 90.5 -49t80 -53.5t70 -65t44 -75.5
t18.5 -93q0 -157 -111 -249t-288 -103l-35 -244h-125zM408 1024q0 -55 42 -98.5t121 -87.5l52 362q-96 -11 -155.5 -57t-59.5 -119zM610 225q103 11 168.5 64.5t65.5 144.5q0 57 -45.5 101t-130.5 90z" />
    <glyph glyph-name="Euro.tf" horiz-adv-x="1146" 
d="M696 -20q-192 0 -319 140t-146 369h-161l45 123h114q3 78 19 160h-142l44 123h129q75 229 232.5 373.5t358.5 144.5q162 0 271 -70l12 -174q-69 59 -137 83t-156 24q-142 0 -255.5 -106t-174.5 -275h457l-45 -123h-447q-15 -62 -22 -160h475l-43 -123h-428
q19 -174 109 -273t231 -99q183 0 319 125l-51 -179q-45 -33 -123.5 -58t-165.5 -25z" />
    <glyph glyph-name="uni20BA.tf" horiz-adv-x="1146" 
d="M219 0l62 442l-195 -90l16 125l197 92l33 232l-197 -90l19 123l194 92l66 467h149l-55 -392l276 129l-16 -129l-276 -127l-33 -231l276 129l-16 -127l-279 -129l-53 -379h219q151 0 250 89.5t125 283.5l121 -55q-28 -211 -164.5 -333t-337.5 -122h-381z" />
    <glyph glyph-name="uni20BD.tf" horiz-adv-x="1146" 
d="M92 584l53 135h189l94 674h354q170 0 279.5 -101t109.5 -252q0 -199 -132 -327.5t-332 -128.5h-244l-27 -197h365l-47 -135h-338l-35 -252h-150l35 252h-217l49 135h189l26 197h-221zM483 719h215q139 0 229.5 87t90.5 230q0 101 -66 161t-178 60h-215z" />
    <glyph glyph-name="uni20B9.tf" horiz-adv-x="1146" 
d="M662 0l-457 610l10 80h94q130 0 220.5 59.5t123.5 159.5h-413l55 138h373q-9 106 -80 158t-191 52h-112l53 136h823l-53 -136h-387q85 -79 94 -210h293l-51 -138h-252q-34 -135 -143 -228t-259 -110l445 -571h-186z" />
    <glyph glyph-name="sterling.tf" horiz-adv-x="1146" 
d="M123 61q74 103 119 215.5t80 274.5h-134l48 127h112q2 13 12 62t15 77q33 189 72 286q116 298 391 298q104 0 170 -35l6 -156q-72 54 -174 54q-56 0 -101 -16.5t-77.5 -50t-56 -73t-42 -98.5t-30 -111.5t-23.5 -126.5l-21 -110h345l-50 -127h-319q-32 -146 -67 -241.5
t-89 -172.5h664l-51 -137h-807z" />
    <glyph glyph-name="yen.tf" horiz-adv-x="1146" 
d="M446 0l39 309h-288l32 125h273l18 146h-295l33 125h217l-299 688h164l272 -658l437 658h170l-476 -688h246l-33 -125h-288l-19 -146h312l-35 -125h-293l-39 -309h-148z" />
    <glyph glyph-name="percent.osf" horiz-adv-x="1452" 
d="M193 0l958 1120h139l-958 -1120h-139zM127 815q0 76 29 138.5t75 100.5t99.5 58.5t107.5 20.5q97 0 169.5 -68t72.5 -182q0 -76 -29 -138t-75 -99.5t-99.5 -58t-107.5 -20.5q-97 0 -169.5 67.5t-72.5 180.5zM244 823q0 -68 40.5 -104.5t94.5 -36.5q76 0 130 57t54 135
q0 68 -40.5 105t-94.5 37q-76 0 -130 -57t-54 -136zM805 238q0 76 29 138t75 99.5t99.5 57.5t107.5 20q97 0 169.5 -67t72.5 -181q0 -76 -29 -138t-75 -99.5t-99.5 -57.5t-107.5 -20q-97 0 -169.5 67t-72.5 181zM922 246q0 -67 40.5 -104.5t92.5 -37.5q77 0 131.5 57
t54.5 136q0 68 -40.5 104.5t-94.5 36.5q-76 0 -130 -57t-54 -135z" />
    <glyph glyph-name="perthousand.osf" horiz-adv-x="2080" 
d="M1997 305q0 -76 -29 -138t-75.5 -99.5t-100 -57.5t-106.5 -20q-99 0 -171.5 67t-72.5 181q0 76 29 138t75.5 99.5t100 57.5t106.5 20q99 0 171.5 -67t72.5 -181zM127 815q0 76 29 138.5t75 100.5t99.5 58.5t107.5 20.5q97 0 169.5 -68t72.5 -182q0 -76 -29 -138
t-75 -99.5t-99.5 -58t-107.5 -20.5q-97 0 -169.5 67.5t-72.5 180.5zM193 0l958 1120h139l-958 -1120h-139zM244 823q0 -68 40.5 -104.5t94.5 -36.5q76 0 130 57t54 135q0 68 -40.5 105t-94.5 37q-76 0 -130 -57t-54 -136zM805 238q0 76 29 138t75 99.5t99.5 57.5t107.5 20
q97 0 169.5 -67t72.5 -181q0 -76 -29 -138t-75 -99.5t-99.5 -57.5t-107.5 -20q-97 0 -169.5 67t-72.5 181zM922 246q0 -67 40.5 -104.5t92.5 -37.5q77 0 131.5 57t54.5 136q0 68 -40.5 104.5t-94.5 36.5q-76 0 -130 -57t-54 -135zM1559 246q0 -68 40.5 -105t94.5 -37
q76 0 131 57.5t55 135.5q0 67 -41 104t-94 37q-77 0 -131.5 -56.5t-54.5 -135.5z" />
    <glyph glyph-name="caron.alt" horiz-adv-x="1124" 
d="M-47 1022l-168 332h98l150 -224l207 224h104l-260 -332h-131z" />
    <glyph glyph-name="caron.slovak" horiz-adv-x="1124" 
d="M479 977l80 338h172l-145 -338h-107z" />
    </font>
</defs>
</svg>
