<?xml version="1.0" standalone="no"?>
<!DOCTYPE svg PUBLIC "-//W3C//DTD SVG 1.1//EN" "http://www.w3.org/Graphics/SVG/1.1/DTD/svg11.dtd" >
<svg xmlns="http://www.w3.org/2000/svg" xmlns:xlink="http://www.w3.org/1999/xlink" version="1.1">
<metadata>
Created by FontForge 20201107 at Fri Apr 19 15:05:43 2024
 By 
Copyright (c) 2016 by Newlyn Works Limited. All rights reserved.
</metadata>
<defs>
<font id="NewAtten-Book" horiz-adv-x="1146" >
  <font-face 
    font-family="New Atten Book"
    font-weight="300"
    font-stretch="normal"
    units-per-em="2048"
    panose-1="0 0 0 0 0 0 0 0 0 0"
    ascent="1532"
    descent="-516"
    x-height="907"
    cap-height="1393"
    bbox="-346 -557 2163 1894"
    underline-thickness="102"
    underline-position="-204"
    unicode-range="U+000D-FB04"
  />
<missing-glyph horiz-adv-x="1511" 
d="M211 -506v1899h1089v-1899h-1089zM348 -231l752 1499h-752v-1499zM412 -381h751v1499z" />
    <glyph glyph-name="f_f" unicode="ff" horiz-adv-x="1204" 
d="M791 1167q0 133 77 217t207 84q95 0 154 -32l14 -142q-83 58 -168 58q-79 0 -119.5 -52t-40.5 -135v-258h265l-31 -114h-234v-793h-124v1167zM66 793l30 114h111v260q0 133 77.5 217t207.5 84q94 0 153 -32l14 -142q-83 58 -167 58q-79 0 -119.5 -52t-40.5 -135v-258h264
l-31 -114h-233v-793h-125v793h-141z" />
    <glyph glyph-name="fi" unicode="fi" horiz-adv-x="1081" 
d="M561 1468q154 0 254 -92.5t100 -251.5h-124q0 105 -62.5 166.5t-167.5 61.5q-104 0 -166.5 -64t-62.5 -170v-211h264l-31 -114h-233v-793h-125v793h-141l30 114h111v213q0 158 100.5 253t253.5 95zM791 0v907h124v-907h-124z" />
    <glyph glyph-name="fl" unicode="fl" horiz-adv-x="1081" 
d="M561 1468q157 0 255.5 -92t98.5 -252v-1124h-124v1124q0 105 -62.5 166.5t-167.5 61.5q-104 0 -166.5 -64t-62.5 -170v-211h264l-31 -114h-233v-793h-125v793h-141l30 114h111v213q0 158 100.5 253t253.5 95z" />
    <glyph glyph-name="f_f_i" unicode="ffi" horiz-adv-x="1665" 
d="M1145 1468q154 0 254 -92.5t100 -251.5h-125q0 105 -62 166.5t-167 61.5q-104 0 -167 -64t-63 -170v-211h265l-31 -114h-234v-793h-124v1120q0 158 100.5 253t253.5 95zM66 793l30 114h111v260q0 133 77.5 217t207.5 84q94 0 153 -32l14 -142q-83 58 -167 58
q-79 0 -119.5 -52t-40.5 -135v-258h264l-31 -114h-233v-793h-125v793h-141zM1374 0v907h125v-907h-125z" />
    <glyph glyph-name="f_f_l" unicode="ffl" horiz-adv-x="1667" 
d="M1147 1468q157 0 255.5 -92t98.5 -252v-1124h-125v1124q0 105 -62 166.5t-167 61.5q-104 0 -166.5 -64t-62.5 -170v-211h264l-31 -114h-233v-793h-125v1120q0 158 100.5 253t253.5 95zM66 793l30 114h111v260q0 133 77.5 217t207.5 84q94 0 153 -32l14 -142
q-83 58 -167 58q-79 0 -119.5 -52t-40.5 -135v-258h264l-31 -114h-233v-793h-125v793h-141z" />
    <glyph glyph-name=".notdef" horiz-adv-x="1511" 
d="M211 -506v1899h1089v-1899h-1089zM348 -231l752 1499h-752v-1499zM412 -381h751v1499z" />
    <glyph glyph-name=".null" horiz-adv-x="0" 
 />
    <glyph glyph-name="nonmarkingreturn" horiz-adv-x="682" 
 />
    <glyph glyph-name="CR" unicode="&#xd;" horiz-adv-x="1126" 
 />
    <glyph glyph-name="space" unicode=" " horiz-adv-x="512" 
 />
    <glyph glyph-name="exclam" unicode="!" horiz-adv-x="514" 
d="M229 403q-18 169 -29.5 409t-11.5 370q0 121 17.5 173t52.5 52q33 0 49.5 -52t16.5 -173q0 -145 -10 -379.5t-29 -399.5h-56zM150 98q0 40 33 72.5t75 32.5t75.5 -32.5t33.5 -72.5q0 -43 -33 -75.5t-76 -32.5t-75.5 32.5t-32.5 75.5z" />
    <glyph glyph-name="quotedbl" unicode="&#x22;" horiz-adv-x="712" 
d="M164 889l-29 504h141l-28 -504h-84zM436 1393h142l-29 -504h-84z" />
    <glyph glyph-name="numbersign" unicode="#" horiz-adv-x="1386" 
d="M657 0l101 418h-285l-100 -418h-119l100 418h-282l28 112h281l80 330h-295l29 115h292l101 418h119l-101 -418h285l100 418h119l-100 -418h305l-31 -115h-301l-80 -330h318l-31 -112h-313l-101 -418h-119zM500 530h284l80 330h-284z" />
    <glyph glyph-name="dollar" unicode="$" horiz-adv-x="1030" 
d="M469 -141v209q-192 9 -352 127l-27 167q76 -67 180.5 -113t198.5 -52v473q-63 26 -103 44.5t-91 49.5t-80 62.5t-49.5 76.5t-20.5 98q0 133 92 219t252 101v211h113v-207q155 -8 282 -86l15 -164q-137 102 -297 113v-428q66 -28 106.5 -47t94.5 -52t84.5 -65.5t52.5 -80
t22 -101.5q0 -145 -99 -235.5t-261 -108.5v-211h-113zM258 1001q0 -63 54 -107t157 -89v381q-101 -12 -156 -60t-55 -125zM582 201q225 27 225 207q0 72 -58 120.5t-167 94.5v-422z" />
    <glyph glyph-name="percent" unicode="%" horiz-adv-x="1363" 
d="M231 0l807 1393h117l-803 -1393h-121zM82 1081q0 160 69 244t181 84t182 -84t70 -244q0 -158 -70 -242.5t-182 -84.5t-181 84t-69 243zM195 1081q0 -114 36 -171.5t101 -57.5q66 0 103.5 57.5t37.5 171.5t-37.5 171t-103.5 57q-65 0 -101 -57t-36 -171zM780 309
q0 160 68.5 244t181.5 84q111 0 180.5 -84.5t69.5 -243.5q0 -158 -69.5 -242.5t-180.5 -84.5q-113 0 -181.5 84t-68.5 243zM891 309q0 -114 36.5 -171.5t102.5 -57.5q65 0 102 57.5t37 171.5t-37 171t-102 57q-66 0 -102.5 -57t-36.5 -171z" />
    <glyph glyph-name="ampersand" unicode="&#x26;" horiz-adv-x="1409" 
d="M549 -20q-113 0 -210.5 48t-159.5 143t-62 218q0 66 17.5 122t44.5 97.5t73.5 83t90 70.5t108.5 67q-81 93 -115.5 159t-34.5 138q0 121 83.5 205t215.5 84q137 0 218 -84t81 -205q0 -51 -21 -97.5t-60.5 -86.5t-80 -70t-96.5 -63l315 -336l197 365h141l-250 -459
l353 -377h-170l-248 264q-83 -134 -185.5 -210t-244.5 -76zM252 393q0 -133 87 -213t210 -80q62 0 115.5 21.5t96 62t72 80.5t60.5 94l-363 387q-52 -30 -83 -50t-73 -55t-65 -67.5t-40 -79.5t-17 -100zM430 1126q0 -34 9.5 -64.5t32 -63t38.5 -50.5t51 -55q53 30 81.5 48.5
t63.5 48.5t50.5 63t15.5 73q0 73 -47 120.5t-125 47.5q-75 0 -122.5 -47t-47.5 -121z" />
    <glyph glyph-name="quotesingle" unicode="'" horiz-adv-x="411" 
d="M164 889l-29 504h141l-28 -504h-84z" />
    <glyph glyph-name="parenleft" unicode="(" horiz-adv-x="610" 
d="M109 545q0 275 92 494.5t280 424.5l80 -63q-168 -196 -243.5 -405.5t-75.5 -450.5t75.5 -450.5t243.5 -405.5l-80 -64q-188 205 -280 425t-92 495z" />
    <glyph glyph-name="parenright" unicode=")" horiz-adv-x="610" 
d="M502 545q0 -275 -92.5 -495t-280.5 -425l-80 64q168 196 244 405.5t76 450.5t-76 450.5t-244 405.5l80 63q188 -205 280.5 -425t92.5 -494z" />
    <glyph glyph-name="asterisk" unicode="*" horiz-adv-x="753" 
d="M311 836l-110 55l114 168l-200 14l18 123l195 -57l-49 194l122 21l7 -203l170 106l57 -108l-191 -70l154 -129l-86 -88l-125 160z" />
    <glyph glyph-name="plus" unicode="+" horiz-adv-x="1187" 
d="M528 18v402h-389v115h389v399h127v-399h392v-115h-392v-402h-127z" />
    <glyph glyph-name="comma" unicode="," horiz-adv-x="479" 
d="M76 -301q129 140 145 274q-37 6 -62.5 32.5t-25.5 66.5q0 44 31 74t72 30q53 0 82.5 -38.5t29.5 -108.5q0 -85 -52.5 -188.5t-125.5 -180.5z" />
    <glyph glyph-name="hyphen" unicode="-" horiz-adv-x="821" 
d="M145 420v115h531v-115h-531z" />
    <glyph glyph-name="period" unicode="." horiz-adv-x="477" 
d="M240 -10q-46 0 -80.5 34t-34.5 78q0 43 35 77t80 34q44 0 78 -34t34 -77q0 -44 -34 -78t-78 -34z" />
    <glyph glyph-name="slash" unicode="/" horiz-adv-x="823" 
d="M74 -537l555 1950h123l-557 -1950h-121z" />
    <glyph glyph-name="zero" unicode="0" horiz-adv-x="1198" 
d="M598 -20q-100 0 -185.5 46.5t-150 134.5t-101 225.5t-36.5 309.5q0 173 36.5 311t101 225.5t150 134t185.5 46.5t186 -46.5t150.5 -134t101.5 -225.5t37 -311q0 -172 -37 -310t-101.5 -225.5t-150.5 -134t-186 -46.5zM264 696q0 -278 91.5 -432.5t242.5 -154.5
q149 0 241.5 155t92.5 432q0 281 -91 434.5t-243 153.5t-243 -153.5t-91 -434.5z" />
    <glyph glyph-name="one" unicode="1" horiz-adv-x="702" 
d="M354 0v1237l-309 -113l12 144l349 127h86v-1395h-138z" />
    <glyph glyph-name="two" unicode="2" horiz-adv-x="1048" 
d="M76 55q15 16 89.5 98t120.5 133.5t114.5 129.5t122.5 143t93 117q148 198 148 344q0 115 -73.5 185.5t-196.5 70.5q-110 0 -205 -56.5t-168 -144.5l24 205q157 133 355 133q189 0 298 -108.5t109 -276.5q0 -42 -9 -85.5t-20.5 -81.5t-39 -86.5t-48.5 -84t-66 -92.5
t-74 -93.5t-90 -104t-97.5 -107.5t-110.5 -120q-25 -27 -37 -40h641l-28 -133h-852v55z" />
    <glyph glyph-name="three" unicode="3" horiz-adv-x="1044" 
d="M473 -20q-193 0 -352 116l-19 176q174 -163 371 -163q139 0 223 74.5t84 197.5q0 119 -89 198.5t-249 79.5h-139v125h125q139 0 230.5 73.5t91.5 189.5q0 109 -69 173t-192 64q-197 0 -358 -154l19 170q154 113 350 113q173 0 282 -100t109 -258q0 -106 -66 -194.5
t-166 -133.5q117 -39 190 -132.5t73 -213.5q0 -175 -128.5 -288t-320.5 -113z" />
    <glyph glyph-name="four" unicode="4" horiz-adv-x="1134" 
d="M696 0v408h-657v53l709 934h86v-860h247l-26 -127h-221v-408h-138zM246 535h450v587z" />
    <glyph glyph-name="five" unicode="5" horiz-adv-x="1040" 
d="M487 -20q-186 0 -356 137l-20 196q67 -87 166.5 -145.5t214.5 -58.5q136 0 223.5 88.5t87.5 222.5q0 132 -89.5 217.5t-226.5 85.5q-130 0 -233 -76l-94 53l55 693h666l-27 -125h-520l-39 -469q101 49 211 49q118 0 217.5 -53t160 -151.5t60.5 -223.5q0 -191 -132 -315.5
t-325 -124.5z" />
    <glyph glyph-name="six" unicode="6" horiz-adv-x="1077" 
d="M872 1327q-236 -84 -389.5 -240t-206.5 -372q57 54 136.5 84t165.5 30q174 0 294.5 -118.5t120.5 -302.5q0 -186 -125 -307t-301 -121q-90 0 -170 33t-143 96t-100 163.5t-37 225.5q0 168 52.5 319.5t142.5 265.5t203 197.5t241 132.5zM252 498q0 -175 88.5 -282
t226.5 -107q122 0 204.5 83t82.5 214q0 130 -83 212t-216 82q-91 0 -168.5 -40t-132.5 -113q-2 -16 -2 -49z" />
    <glyph glyph-name="seven" unicode="7" horiz-adv-x="940" 
d="M141 0l592 1264h-682l23 131h835v-56l-622 -1339h-146z" />
    <glyph glyph-name="eight" unicode="8" horiz-adv-x="1136" 
d="M569 -18q-195 0 -321.5 108t-126.5 270q0 118 72.5 208.5t205.5 140.5q-243 115 -243 335q0 164 116.5 266.5t292.5 102.5q177 0 295.5 -101.5t118.5 -262.5q0 -112 -66 -196.5t-184 -135.5q289 -130 289 -355q0 -165 -126.5 -272.5t-322.5 -107.5zM262 365
q0 -110 85 -183t220 -73t220 71.5t85 181.5q0 51 -23 95.5t-53.5 72.5t-78.5 53.5t-81 37.5t-77 26q-139 -36 -218 -109.5t-79 -172.5zM291 1042q0 -47 17 -85.5t41 -64t67 -49t77 -37t89 -32.5q126 35 194 103t68 167q0 106 -76.5 173t-200.5 67q-125 0 -200.5 -67
t-75.5 -175z" />
    <glyph glyph-name="nine" unicode="9" horiz-adv-x="1075" 
d="M203 63q238 85 393.5 243t206.5 370q-123 -113 -299 -113q-113 0 -209 52t-153.5 149t-57.5 219q0 186 125 307t301 121q90 0 170.5 -33t143.5 -96t100 -163.5t37 -225.5q0 -134 -34.5 -259t-94 -225.5t-141 -186t-174.5 -146t-195 -99.5zM223 985q0 -129 81 -212
t206 -83q92 0 175 41t140 115v28q0 187 -88 297.5t-227 110.5q-122 0 -204.5 -83t-82.5 -214z" />
    <glyph glyph-name="colon" unicode=":" horiz-adv-x="516" 
d="M258 -10q-46 0 -80.5 34t-34.5 78q0 43 35 77t80 34q44 0 78.5 -34t34.5 -77q0 -44 -34.5 -78t-78.5 -34zM143 735q0 43 35 77t80 34q44 0 78.5 -34t34.5 -77q0 -44 -34.5 -78t-78.5 -34q-46 0 -80.5 34t-34.5 78z" />
    <glyph glyph-name="semicolon" unicode=";" horiz-adv-x="552" 
d="M115 -301q129 140 145 274q-37 6 -62.5 32.5t-25.5 66.5q0 45 30.5 74.5t71.5 29.5q53 0 83 -38.5t30 -108.5q0 -85 -52.5 -188.5t-125.5 -180.5zM170 735q0 43 35 77t80 34q44 0 78 -34t34 -77q0 -44 -34 -78t-78 -34q-46 0 -80.5 34t-34.5 78z" />
    <glyph glyph-name="less" unicode="&#x3c;" horiz-adv-x="1187" 
d="M881 57l-674 387v64l674 387l59 -102l-547 -316l547 -315z" />
    <glyph glyph-name="equal" unicode="=" horiz-adv-x="1187" 
d="M141 633v115h906v-115h-906zM141 201v114h906v-114h-906z" />
    <glyph glyph-name="greater" unicode="&#x3e;" horiz-adv-x="1187" 
d="M305 895l674 -387v-64l-674 -387l-59 103l547 315l-547 316z" />
    <glyph glyph-name="question" unicode="?" horiz-adv-x="866" 
d="M393 1292q-174 0 -323 -159l30 180q119 100 293 100q169 0 272 -105t103 -257q0 -57 -13 -105t-40.5 -90t-51.5 -70t-65 -69q-5 -5 -31.5 -31t-36 -36t-32.5 -36t-33.5 -44.5t-25 -45.5t-22.5 -56t-11 -60h-80q-6 27 -7 54t6 53.5t13.5 48t23.5 48t27 42.5t33 42.5
t32 36.5t34 36.5t30 31.5q32 36 46 53t35 49.5t29.5 66.5t8.5 74q0 107 -65.5 177.5t-178.5 70.5zM260 98q0 40 33.5 72.5t75.5 32.5t74 -32.5t32 -72.5q0 -43 -31.5 -75.5t-74.5 -32.5t-76 32.5t-33 75.5z" />
    <glyph glyph-name="at" unicode="@" horiz-adv-x="1396" 
d="M731 -111q-178 0 -318 82t-217 225.5t-77 323.5q0 129 47.5 244t130 197t197.5 130t245 48q106 0 198.5 -30.5t158.5 -83t113.5 -121.5t70.5 -147t23 -159q0 -164 -80 -265.5t-191 -101.5q-60 0 -99 29t-50 74q-34 -51 -79 -80t-124 -29q-105 0 -179.5 76.5t-74.5 206.5
q0 121 76 199.5t180 78.5q122 0 182 -96v82h117v-344q0 -92 55 -92q63 0 109.5 68.5t46.5 193.5q0 87 -32.5 165.5t-90 137t-144 93t-188.5 34.5q-96 0 -185 -35.5t-158.5 -99t-111.5 -161t-42 -212.5q0 -119 39 -218t105.5 -163.5t152.5 -99.5t182 -35q101 0 182 17.5
t176 70.5l-26 -141q-130 -62 -320 -62zM551 506q0 -74 39.5 -122t111.5 -48q49 0 92.5 23t69.5 59v174q-19 35 -63 60.5t-99 25.5q-71 0 -111 -50t-40 -122z" />
    <glyph glyph-name="A" unicode="A" horiz-adv-x="1302" 
d="M27 0l594 1403h61l592 -1403h-144l-176 424h-608l-178 -424h-141zM397 549h504l-250 598h-2z" />
    <glyph glyph-name="B" unicode="B" horiz-adv-x="1220" 
d="M211 0v1393h420q186 0 304 -98t118 -267q0 -107 -53 -187t-132 -122q104 -38 172 -125.5t68 -208.5q0 -172 -120 -278.5t-310 -106.5h-467zM348 125h316q147 0 225 69.5t78 190.5q0 123 -78 192.5t-225 69.5h-316v-522zM348 770h297q124 0 198.5 68t74.5 190
q0 112 -77.5 176t-211.5 64h-281v-498z" />
    <glyph glyph-name="C" unicode="C" horiz-adv-x="1300" 
d="M819 -20q-159 0 -293 57t-223.5 154t-139.5 227t-50 276q0 205 90 369.5t247.5 257t350.5 92.5q211 0 368 -102l27 -172q-186 145 -387 145q-114 0 -215.5 -42t-176.5 -117.5t-119 -187t-44 -243.5q0 -175 73.5 -310t202 -207.5t289.5 -72.5q232 0 406 146l-25 -170
q-155 -100 -381 -100z" />
    <glyph glyph-name="D" unicode="D" horiz-adv-x="1456" 
d="M211 0v1393h416q160 0 294.5 -53.5t226.5 -147t143.5 -224.5t51.5 -284q0 -137 -51 -261.5t-142 -218t-227 -149t-296 -55.5h-416zM348 125h264q258 0 424 158t166 401q0 128 -42.5 236.5t-119 185t-186.5 119.5t-242 43h-264v-1143z" />
    <glyph glyph-name="E" unicode="E" horiz-adv-x="1116" 
d="M211 0v1393h760l24 -125h-647v-500h580v-123h-580v-520h670l-27 -125h-780z" />
    <glyph glyph-name="F" unicode="F" horiz-adv-x="1017" 
d="M211 0v1393h725l20 -127h-608v-510h535v-127h-535v-629h-137z" />
    <glyph glyph-name="G" unicode="G" horiz-adv-x="1445" 
d="M842 -20q-162 0 -300 57.5t-232 155t-146.5 228t-52.5 275.5q0 148 54.5 280t149.5 228.5t232.5 152.5t296.5 56q241 0 411 -100l31 -176q-193 151 -438 151q-94 0 -182 -25.5t-163 -76t-131 -120.5t-88 -165.5t-32 -204.5q0 -258 168.5 -425t429.5 -167q180 0 328 74
v365h-361l39 125h455v-572q-201 -116 -469 -116z" />
    <glyph glyph-name="H" unicode="H" horiz-adv-x="1511" 
d="M1163 0v633h-815v-633h-137v1393h137v-635h815v635h137v-1393h-137z" />
    <glyph glyph-name="I" unicode="I" horiz-adv-x="559" 
d="M211 0v1393h137v-1393h-137z" />
    <glyph glyph-name="J" unicode="J" horiz-adv-x="823" 
d="M487 334v1059h138v-1069q0 -163 -97.5 -253.5t-240.5 -90.5q-117 0 -215 67l-23 160q132 -98 234 -98q94 0 149 53.5t55 171.5z" />
    <glyph glyph-name="K" unicode="K" horiz-adv-x="1282" 
d="M211 0v1393h137v-727l690 727h174l-563 -605l631 -788h-174l-557 694l-201 -215v-479h-137z" />
    <glyph glyph-name="L" unicode="L" horiz-adv-x="985" 
d="M211 0v1393h137v-1268h596l-26 -125h-707z" />
    <glyph glyph-name="M" unicode="M" horiz-adv-x="1705" 
d="M211 0v1405h63l582 -780h6l578 780h55v-1405h-135v1085l-492 -649h-20l-504 660v-1096h-133z" />
    <glyph glyph-name="N" unicode="N" horiz-adv-x="1536" 
d="M1266 -8l-918 1126h-4v-1118h-133v1401h68l907 -1114h4v1106h135v-1401h-59z" />
    <glyph glyph-name="O" unicode="O" horiz-adv-x="1609" 
d="M805 -20q-144 0 -272.5 55t-220.5 149.5t-145.5 227t-53.5 282.5q0 200 91 365t249.5 259.5t351.5 94.5t352 -94.5t249.5 -259.5t90.5 -365q0 -150 -53 -282.5t-145 -227t-220.5 -149.5t-273.5 -55zM254 694q0 -134 46.5 -246.5t124.5 -185t176.5 -113t203.5 -40.5
q106 0 204.5 40.5t176 113t124 185t46.5 246.5q0 135 -46.5 248.5t-124 187t-176 114t-204.5 40.5t-204 -40.5t-176 -114t-124.5 -187t-46.5 -248.5z" />
    <glyph glyph-name="P" unicode="P" horiz-adv-x="1134" 
d="M211 0v1393h373q202 0 335.5 -122.5t133.5 -312.5q0 -194 -133 -316t-336 -122h-236v-520h-137zM348 645h225q155 0 246.5 83.5t91.5 229.5q0 141 -92 225.5t-244 84.5h-227v-623z" />
    <glyph glyph-name="Q" unicode="Q" horiz-adv-x="1609" 
d="M1571 -340q-243 -23 -450.5 59.5t-407.5 266.5q-171 21 -308 118t-214.5 251.5t-77.5 338.5q0 200 91 365t249.5 259.5t351.5 94.5t352 -94.5t249.5 -259.5t90.5 -365q0 -272 -162.5 -469t-414.5 -237q317 -247 706 -193zM254 694q0 -134 46.5 -246.5t124.5 -185
t176.5 -113t203.5 -40.5q106 0 204.5 40.5t176 113t124 185t46.5 246.5q0 135 -46.5 248.5t-124 187t-176 114t-204.5 40.5t-204 -40.5t-176 -114t-124.5 -187t-46.5 -248.5z" />
    <glyph glyph-name="R" unicode="R" horiz-adv-x="1226" 
d="M211 0v1393h377q212 0 334 -112.5t122 -291.5q0 -140 -76.5 -244t-209.5 -147l463 -598h-170l-437 573q-12 -2 -36 -2h-230v-571h-137zM348 694h230q152 0 239.5 76t87.5 211q0 136 -87.5 211.5t-229.5 75.5h-240v-574z" />
    <glyph glyph-name="S" unicode="S" horiz-adv-x="1073" 
d="M541 -16q-238 0 -414 133l-33 190q87 -91 211 -142.5t244 -51.5q126 0 203 65t77 176q0 46 -15.5 85t-38 66.5t-66 57t-79 48t-98.5 48.5t-100.5 49.5t-87 49.5t-78.5 58.5t-57 65.5t-40.5 82t-12.5 97q0 157 117.5 254.5t306.5 97.5q81 0 162 -20.5t141 -59.5l30 -178
q-156 129 -342 129q-129 0 -201.5 -63t-72.5 -156q0 -23 5.5 -44.5t12.5 -38.5t23 -35.5t27 -31t35.5 -29t37.5 -25.5t43.5 -24.5t43.5 -22t47.5 -23t45.5 -21.5q83 -40 139.5 -75t109 -84t78.5 -111t26 -138q0 -172 -123 -275t-307 -103z" />
    <glyph glyph-name="T" unicode="T" horiz-adv-x="1153" 
d="M508 0v1268h-463v125h1063v-125h-463v-1268h-137z" />
    <glyph glyph-name="U" unicode="U" horiz-adv-x="1492" 
d="M748 -20q-175 0 -303 78.5t-190 207.5t-62 291v836h137v-834q0 -212 109.5 -333.5t308.5 -121.5q195 0 306 122t111 329v838h135v-838q0 -161 -62.5 -289.5t-189.5 -207t-300 -78.5z" />
    <glyph glyph-name="V" unicode="V" horiz-adv-x="1282" 
d="M29 1393h147l463 -1151h6l465 1151h141l-579 -1405h-60z" />
    <glyph glyph-name="W" unicode="W" horiz-adv-x="1964" 
d="M516 -12l-479 1405h143l365 -1104h8l405 1110h52l407 -1110h8l361 1104h141l-481 -1405h-55l-406 1118l-410 -1118h-59z" />
    <glyph glyph-name="X" unicode="X" horiz-adv-x="1210" 
d="M45 0l471 696l-469 697h164l397 -592l398 592h157l-469 -699l469 -694h-164l-399 594l-395 -594h-160z" />
    <glyph glyph-name="Y" unicode="Y" horiz-adv-x="1230" 
d="M547 0v586l-510 807h162l419 -674l420 674h156l-510 -805v-588h-137z" />
    <glyph glyph-name="Z" unicode="Z" horiz-adv-x="1173" 
d="M68 0v55l825 1213h-811l20 125h996v-56l-828 -1212h834l-21 -125h-1015z" />
    <glyph glyph-name="bracketleft" unicode="[" horiz-adv-x="673" 
d="M199 -319v1769h405v-115h-280v-1540h280v-114h-405z" />
    <glyph glyph-name="backslash" unicode="\" horiz-adv-x="823" 
d="M750 -537h-121l-557 1950h123z" />
    <glyph glyph-name="bracketright" unicode="]" horiz-adv-x="673" 
d="M475 1450v-1769h-405v114h280v1540h-280v115h405z" />
    <glyph glyph-name="asciicircum" unicode="^" horiz-adv-x="901" 
d="M115 745l280 400h113l278 -400l-84 -61l-251 373l-252 -373z" />
    <glyph glyph-name="underscore" unicode="_" horiz-adv-x="983" 
d="M0 -256v115h983v-115h-983z" />
    <glyph glyph-name="grave" unicode="`" horiz-adv-x="1128" 
d="M549 1022l-227 332h163l164 -332h-100z" />
    <glyph glyph-name="a" unicode="a" horiz-adv-x="946" 
d="M666 -20v126q-146 -126 -304 -126q-118 0 -194 70.5t-76 176.5q0 184 232 252q112 35 342 60v106q0 80 -49 121t-136 41q-158 0 -317 -121l26 154q55 38 138 63t159 25q138 0 221 -71t83 -181v-660zM221 231q0 -57 45 -94t117 -37q65 0 143.5 35.5t139.5 102.5v194
q-192 -26 -291 -55q-82 -24 -118 -59t-36 -87z" />
    <glyph glyph-name="b" unicode="b" horiz-adv-x="1099" 
d="M514 -20q-79 0 -181 28t-171 82v1360h125v-610q109 88 266 88q189 0 317.5 -134.5t128.5 -338.5q0 -109 -39.5 -200t-107 -150.5t-155 -92t-183.5 -32.5zM287 168q104 -68 225 -68q97 0 177 40t130.5 121.5t50.5 191.5q0 155 -93.5 254.5t-239.5 99.5q-151 0 -250 -102
v-537z" />
    <glyph glyph-name="c" unicode="c" horiz-adv-x="931" 
d="M559 -20q-136 0 -242 64.5t-161.5 172t-55.5 236.5q0 205 131.5 340t331.5 135q137 0 244 -72l22 -147q-55 46 -126 72t-140 26q-144 0 -239 -100t-95 -258q0 -155 92.5 -252t233.5 -97q84 0 164 33t135 96l-27 -159q-117 -90 -268 -90z" />
    <glyph glyph-name="d" unicode="d" horiz-adv-x="1122" 
d="M827 -20v116q-60 -57 -135 -86.5t-143 -29.5q-192 0 -320.5 136t-128.5 337t128.5 338t318.5 137q167 0 278 -103v625h129l2 -1434zM231 453q0 -158 98.5 -255.5t227.5 -97.5q161 0 270 129v455q-44 55 -114 89t-156 34q-129 0 -227.5 -97.5t-98.5 -256.5z" />
    <glyph glyph-name="e" unicode="e" horiz-adv-x="1026" 
d="M575 -20q-207 0 -341 133t-134 346q0 130 55.5 237t154 169.5t220.5 62.5q175 0 286.5 -116.5t111.5 -283.5q0 -38 -8 -82h-695q1 -85 32 -153t81.5 -109t112 -62.5t129.5 -21.5q165 0 315 121l-45 -168q-109 -73 -275 -73zM236 555h565q0 102 -77 177t-192 75
q-114 0 -192.5 -68.5t-103.5 -183.5z" />
    <glyph glyph-name="f" unicode="f" horiz-adv-x="620" 
d="M207 1167q0 133 77.5 217t207.5 84q94 0 153 -32l14 -142q-83 58 -167 58q-79 0 -119.5 -52t-40.5 -135v-258h264l-31 -114h-233v-793h-125v793h-141l30 114h111v260z" />
    <glyph glyph-name="g" unicode="g" horiz-adv-x="972" 
d="M494 -522q-207 0 -327 77.5t-120 211.5q0 84 59 148t177 118q-50 45 -50 110q0 62 64 123q-94 39 -145.5 119t-51.5 180q0 153 108.5 247.5t285.5 94.5h403l45 -121h-209l-2 -2q103 -89 103 -219q0 -141 -99.5 -236.5t-265.5 -95.5q-14 0 -59 5q-48 -39 -48 -78t38 -59.5
t155 -43.5q83 -17 135 -30.5t106.5 -35.5t84 -48.5t48.5 -67.5t19 -94q0 -147 -119 -225t-335 -78zM170 -233q0 -77 86.5 -126t245.5 -49q153 0 238 48.5t85 128.5q0 27 -7.5 47.5t-27 37t-40.5 28t-62.5 23t-77.5 19.5t-100 21q-58 10 -113 28q-116 -47 -171.5 -94.5
t-55.5 -111.5zM225 565q0 -96 67 -157.5t179 -61.5q109 0 173.5 60.5t64.5 158.5q0 97 -66 160t-174 63q-109 0 -176.5 -63t-67.5 -160z" />
    <glyph glyph-name="h" unicode="h" horiz-adv-x="1093" 
d="M813 590q0 105 -65 161t-164 56q-86 0 -165 -47.5t-128 -132.5v-627h-125v1450h125v-664q122 142 309 142q144 0 241 -90.5t97 -231.5v-606h-125v590z" />
    <glyph glyph-name="i" unicode="i" horiz-adv-x="456" 
d="M166 0v907h125v-907h-125zM137 1257q0 37 26.5 64t63.5 27q38 0 65 -27t27 -64q0 -38 -27 -65t-65 -27q-37 0 -63.5 27t-26.5 65z" />
    <glyph glyph-name="j" unicode="j" horiz-adv-x="456" 
d="M229 1165q-37 0 -63.5 27t-26.5 65q0 37 26.5 64t63.5 27q38 0 65.5 -27t27.5 -64q0 -38 -27.5 -65t-65.5 -27zM18 -512q73 145 110.5 286.5t37.5 327.5v805h125v-805q0 -322 -123 -581z" />
    <glyph glyph-name="k" unicode="k" horiz-adv-x="989" 
d="M166 0v1450h125v-989l481 446h172l-393 -364l424 -543h-154l-356 463l-174 -150v-313h-125z" />
    <glyph glyph-name="l" unicode="l" horiz-adv-x="456" 
d="M166 0v1450h125v-1450h-125z" />
    <glyph glyph-name="m" unicode="m" horiz-adv-x="1568" 
d="M166 0v907h125v-110q103 131 270 131q85 0 153 -42t105 -118q56 77 132 118.5t163 41.5q128 0 213.5 -85.5t85.5 -226.5v-616h-125v600q0 107 -52.5 156t-141.5 49q-69 0 -136 -44t-106 -118v-27v-616h-125v600q0 107 -52 156t-140 49q-70 0 -136.5 -44.5t-107.5 -121.5
v-639h-125z" />
    <glyph glyph-name="n" unicode="n" horiz-adv-x="1093" 
d="M813 590q0 105 -65 161t-164 56q-86 0 -165 -47.5t-128 -132.5v-627h-125v907h125v-121q122 142 309 142q144 0 241 -90.5t97 -231.5v-606h-125v590z" />
    <glyph glyph-name="o" unicode="o" horiz-adv-x="1124" 
d="M561 -20q-199 0 -330 136t-131 337q0 202 130.5 338.5t330.5 136.5q202 0 332.5 -136t130.5 -339q0 -202 -130.5 -337.5t-332.5 -135.5zM229 453q0 -156 96 -254.5t236 -98.5q141 0 237.5 98t96.5 255q0 159 -96 256.5t-238 97.5q-140 0 -236 -97.5t-96 -256.5z" />
    <glyph glyph-name="p" unicode="p" horiz-adv-x="1120" 
d="M1020 451q0 -198 -128 -334.5t-317 -136.5q-180 0 -284 104v-590h-125v1413h125v-102q120 123 284 123q189 0 317 -138t128 -339zM291 229q42 -56 112.5 -92.5t159.5 -36.5q130 0 228 97.5t98 253.5q0 79 -28 147.5t-73.5 113t-104 70t-120.5 25.5q-81 0 -153 -39.5
t-119 -101.5v-437z" />
    <glyph glyph-name="q" unicode="q" horiz-adv-x="1099" 
d="M815 -506v574q-49 -41 -117.5 -64.5t-136.5 -23.5q-199 0 -330 135.5t-131 333.5q0 207 133.5 343t346.5 136q196 0 360 -125v-1309h-125zM229 449q0 -154 96.5 -251.5t237.5 -97.5q68 0 135 25.5t117 75.5v534q-109 72 -227 72q-159 0 -259 -97t-100 -261z" />
    <glyph glyph-name="r" unicode="r" horiz-adv-x="681" 
d="M166 0v907h125v-153q65 89 153 130.5t185 28.5l18 -122q-107 23 -198.5 -22.5t-157.5 -154.5v-614h-125z" />
    <glyph glyph-name="s" unicode="s" horiz-adv-x="823" 
d="M420 -20q-169 0 -289 86l-27 157q156 -123 306 -123q95 0 144.5 36.5t49.5 96.5q0 57 -46.5 92.5t-162.5 77.5q-33 12 -52 19.5t-52.5 23t-54.5 29t-47 36t-40.5 46t-25 55.5t-10.5 68q0 107 81 177.5t222 70.5q140 0 250 -78l18 -152q-133 109 -272 109
q-85 0 -128.5 -34.5t-43.5 -90.5t46.5 -88t174.5 -82q52 -20 85.5 -35.5t72 -39.5t60.5 -49.5t37 -62.5t15 -81q0 -114 -84.5 -189t-226.5 -75z" />
    <glyph glyph-name="t" unicode="t" horiz-adv-x="770" 
d="M475 -18q-133 0 -201.5 68.5t-68.5 187.5v555h-146v36l234 222h41v-144h379l-31 -114h-348l-2 -545q0 -68 37.5 -109t107.5 -41q122 0 242 90l-19 -143q-86 -63 -225 -63z" />
    <glyph glyph-name="u" unicode="u" horiz-adv-x="1093" 
d="M281 317q0 -105 65 -161t164 -56q86 0 165 48t128 133v626h125v-907h-125v121q-121 -141 -309 -141q-144 0 -241 90t-97 231v606h125v-590z" />
    <glyph glyph-name="v" unicode="v" horiz-adv-x="983" 
d="M467 -12l-438 919h137q90 -184 330 -708h2q214 490 317 708h133l-424 -919h-57z" />
    <glyph glyph-name="w" unicode="w" horiz-adv-x="1480" 
d="M391 -12l-354 919h135l254 -682l293 693h43l299 -695l254 684h129l-354 -919h-54l-297 682l-295 -682h-53z" />
    <glyph glyph-name="x" unicode="x" horiz-adv-x="929" 
d="M739 0l-274 369l-277 -369h-147l348 461l-340 446h150l268 -356l268 356h148l-340 -450l346 -457h-150z" />
    <glyph glyph-name="y" unicode="y" horiz-adv-x="968" 
d="M195 -506l229 529l-385 884h137q56 -134 174 -407t142 -328q41 93 313 735h131l-610 -1413h-131z" />
    <glyph glyph-name="z" unicode="z" horiz-adv-x="905" 
d="M80 0v47l549 746h-553l28 114h719v-47l-549 -745h557l-28 -115h-723z" />
    <glyph glyph-name="braceleft" unicode="{" horiz-adv-x="526" 
d="M362 -336q-99 7 -158 57t-59 154q0 76 50 236q38 129 38 200q0 83 -37 144.5t-94 91.5v49q57 30 94 90.5t37 144.5q0 70 -38 199q-50 160 -50 234q0 104 59.5 156.5t157.5 58.5l58 -113q-56 0 -90 -12q-60 -21 -60 -82q0 -43 35 -162q2 -8 10.5 -33.5t11.5 -36.5
t10 -34.5t9.5 -40t6.5 -39.5t5.5 -46.5t1.5 -48.5q0 -82 -31.5 -152t-80.5 -110q49 -40 80.5 -109.5t31.5 -148.5q0 -26 -1.5 -49.5t-5.5 -48t-6.5 -39.5t-9.5 -40.5t-9.5 -34t-12 -36t-10.5 -32.5q-35 -110 -35 -162q0 -56 60 -80q42 -17 90 -12z" />
    <glyph glyph-name="bar" unicode="|" horiz-adv-x="514" 
d="M199 -516v1966h116v-1966h-116z" />
    <glyph glyph-name="braceright" unicode="}" horiz-adv-x="526" 
d="M164 1475q99 -7 158 -57t59 -154q0 -79 -49 -236q-39 -132 -39 -201q0 -83 37 -144t94 -91v-49q-57 -30 -94 -91t-37 -145q0 -14 1 -28t2.5 -25t4.5 -27t4.5 -23.5t6.5 -25t6.5 -22.5t7 -24.5t6.5 -22.5q49 -157 49 -234q0 -104 -59.5 -156.5t-157.5 -58.5l-58 113
q56 0 91 12q59 20 59 82q0 43 -35 162q-3 9 -11 33.5t-11 36t-9.5 34.5t-9.5 39.5t-7 39.5t-5.5 46.5t-1.5 48.5q0 82 32 152t81 110q-49 40 -81 109.5t-32 148.5q0 26 1.5 49.5t5.5 48.5t6.5 39.5t10 41t9.5 33.5t11.5 37t10.5 32q35 110 35 162q0 56 -59 80q-42 17 -91 12
z" />
    <glyph glyph-name="asciitilde" unicode="~" horiz-adv-x="1097" 
d="M154 317q0 150 63.5 235t169.5 85q63 0 116.5 -33.5t90.5 -95.5q55 -90 119 -90q59 0 96 60t37 161h100q0 -152 -63 -236t-170 -84q-62 0 -117 33.5t-90 93.5q-55 91 -119 91q-58 0 -94.5 -59t-36.5 -161h-102z" />
    <glyph glyph-name="uni00A0" unicode="&#xa0;" horiz-adv-x="512" 
 />
    <glyph glyph-name="exclamdown" unicode="&#xa1;" horiz-adv-x="481" 
d="M268 602q18 -169 29.5 -408.5t11.5 -369.5q0 -121 -17 -173t-52 -52q-33 0 -49.5 52t-16.5 173q0 145 10 379t29 399h55zM131 909q0 41 33 74t76 33q42 0 75 -33t33 -74t-32.5 -73.5t-75.5 -32.5t-76 32.5t-33 73.5z" />
    <glyph glyph-name="cent" unicode="&#xa2;" horiz-adv-x="958" 
d="M473 -260v248q-166 30 -266.5 161t-100.5 304q0 178 102 306t265 161v237h111v-229q124 -3 229 -72l23 -147q-52 43 -119 69t-133 29v-707q79 5 152 38t124 91l-26 -159q-112 -85 -250 -90v-240h-111zM236 449q0 -129 65 -219.5t172 -118.5v684q-107 -31 -172 -123.5
t-65 -222.5z" />
    <glyph glyph-name="sterling" unicode="&#xa3;" horiz-adv-x="1187" 
d="M205 555l31 119h120l21 139q31 212 59 304q72 235 244 283q47 13 102 13q98 0 168 -33l25 -147q-82 51 -178 51q-40 0 -73.5 -9t-59.5 -30t-45.5 -44t-35.5 -62t-26.5 -72t-20.5 -86.5t-16 -92t-14 -102.5l-14 -112h342l-31 -119h-328q-22 -141 -52.5 -246t-84.5 -184
h690l-29 -125h-835v55q72 92 107.5 194.5t68.5 305.5h-135z" />
    <glyph glyph-name="currency" unicode="&#xa4;" horiz-adv-x="1134" 
d="M565 332q-108 0 -196 59l-144 -141l-82 82l144 141q-60 89 -60 199q0 109 60 198l-144 144l82 80l144 -142q89 60 196 60q114 0 201 -62l143 144l82 -80l-145 -146q59 -83 59 -196q0 -109 -59 -197l145 -143l-82 -82l-145 143q-86 -61 -199 -61zM342 672q0 -101 61 -162
t162 -61q103 0 165.5 61t62.5 162t-62.5 162t-165.5 61q-101 0 -162 -61t-61 -162z" />
    <glyph glyph-name="yen" unicode="&#xa5;" horiz-adv-x="1277" 
d="M229 582l31 118h238l-437 693h162l420 -674l420 674h156l-439 -693h269l-31 -118h-309v-150h338l-31 -119h-307v-313h-138v313h-344l31 119h313v150h-342z" />
    <glyph glyph-name="brokenbar" unicode="&#xa6;" horiz-adv-x="514" 
d="M199 555v895h116v-895h-116zM199 -516v897h116v-897h-116z" />
    <glyph glyph-name="section" unicode="&#xa7;" horiz-adv-x="876" 
d="M442 -16q-162 0 -282 86l-27 157q75 -59 143.5 -91t161.5 -32q90 0 136.5 41t46.5 101q0 32 -12.5 57t-44 49t-59 39t-83.5 43q-41 20 -71.5 37.5t-71 48t-66.5 62t-44.5 75.5t-18.5 93q0 111 83 194q-100 77 -100 195q0 112 83.5 189t223.5 77q161 0 260 -74l27 -157
q-64 55 -131.5 82.5t-155.5 27.5t-133 -40.5t-45 -100.5q0 -32 12.5 -57.5t43 -49t59 -39.5t82.5 -43q41 -21 71.5 -38t71 -47.5t66.5 -61.5t44.5 -75t18.5 -93q0 -115 -84 -195q101 -78 101 -194q0 -111 -84 -188.5t-222 -77.5zM276 760q0 -24 6.5 -46t14.5 -37.5
t27.5 -33.5t31.5 -28t42 -27.5t43.5 -24.5t50.5 -26l63 -33q49 52 49 125q0 24 -6.5 45.5t-14.5 37.5t-27 34t-31.5 28.5t-42 27.5t-43.5 24t-50 26l-63 33q-50 -53 -50 -125z" />
    <glyph glyph-name="dieresis" unicode="&#xa8;" horiz-adv-x="1128" 
d="M743 1106q-35 0 -59.5 24.5t-24.5 61.5q0 35 24.5 59.5t59.5 24.5q37 0 61.5 -24.5t24.5 -59.5q0 -37 -24.5 -61.5t-61.5 -24.5zM297 1192q0 35 24.5 59.5t59.5 24.5q37 0 61.5 -24.5t24.5 -59.5q0 -37 -24.5 -61.5t-61.5 -24.5q-35 0 -59.5 24.5t-24.5 61.5z" />
    <glyph glyph-name="copyright" unicode="&#xa9;" horiz-adv-x="1464" 
d="M733 -25q-273 0 -443.5 178t-170.5 455q0 180 78.5 324.5t218.5 225.5t317 81q269 0 441 -177.5t172 -453.5q0 -180 -77 -324t-217.5 -226.5t-318.5 -82.5zM211 608q0 -155 66.5 -279.5t186 -195t269.5 -70.5q228 0 374 154t146 391q0 154 -67 278t-186.5 194.5
t-268.5 70.5q-228 0 -374 -153.5t-146 -389.5zM422 604q0 161 97 259t253 98q105 0 193 -54l22 -121q-93 68 -215 68q-108 0 -177 -67t-69 -175q0 -114 70.5 -184t187.5 -70q132 0 213 84l-18 -127q-85 -59 -207 -59q-156 0 -253 96t-97 252z" />
    <glyph glyph-name="ordfeminine" unicode="&#xaa;" horiz-adv-x="681" 
d="M444 793v63q-79 -63 -163 -63q-74 0 -121 43t-47 104q0 107 133 152q75 25 192 41v47q0 96 -104 96q-101 0 -180 -57l18 102q87 47 180 47q86 0 135.5 -46t49.5 -128v-379zM209 944q0 -30 24 -46.5t60 -16.5q77 0 145 65v107q-79 -9 -151 -31q-78 -25 -78 -78z" />
    <glyph glyph-name="guillemotleft" unicode="&#xab;" horiz-adv-x="1005" 
d="M84 455l283 358h145l-283 -358l283 -361h-145zM471 455l283 358h145l-283 -358l283 -361h-145z" />
    <glyph glyph-name="logicalnot" unicode="&#xac;" horiz-adv-x="1187" 
d="M907 205v401h-794v115h919v-516h-125z" />
    <glyph glyph-name="uni00AD" unicode="&#xad;" horiz-adv-x="821" 
d="M145 420v115h531v-115h-531z" />
    <glyph glyph-name="registered" unicode="&#xae;" horiz-adv-x="847" 
d="M424 631q-130 0 -215.5 86t-85.5 217q0 125 86 213t215 88t215 -88t86 -213q0 -132 -85 -217.5t-216 -85.5zM188 934q0 -112 70.5 -177t165.5 -65t165 65t70 177q0 109 -70.5 174.5t-164.5 65.5t-165 -65.5t-71 -174.5zM319 780v314h117q51 0 83 -27.5t32 -69.5
q0 -37 -22 -64t-66 -34l104 -119h-80l-94 113h-10v-113h-64zM383 950h45q27 0 42 12t15 31q0 41 -51 41h-51v-84z" />
    <glyph glyph-name="macron" unicode="&#xaf;" horiz-adv-x="1128" 
d="M305 1108v106h520v-106h-520z" />
    <glyph glyph-name="degree" unicode="&#xb0;" horiz-adv-x="796" 
d="M397 793q-122 0 -207.5 85.5t-85.5 208.5t85.5 209t207.5 86q123 0 209 -86t86 -209t-86 -208.5t-209 -85.5zM219 1087q0 -74 52.5 -126t125.5 -52q74 0 127.5 52t53.5 126q0 73 -54 127t-127 54q-72 0 -125 -54t-53 -127z" />
    <glyph glyph-name="plusminus" unicode="&#xb1;" horiz-adv-x="1187" 
d="M528 168v401h-389v115h389v399h127v-399h392v-115h-392v-401h-127zM141 -133v115h906v-115h-906z" />
    <glyph glyph-name="uni00B2" unicode="&#xb2;" horiz-adv-x="776" 
d="M137 565v72l225 244q73 78 110.5 139t37.5 119q0 70 -39 109.5t-106 39.5q-131 0 -232 -125l25 164q104 74 215 74q114 0 183 -70t69 -178q0 -85 -44 -166t-147 -184l-123 -125h338l-16 -113h-496z" />
    <glyph glyph-name="uni00B3" unicode="&#xb3;" horiz-adv-x="737" 
d="M336 555q-99 0 -191 61l-18 140q40 -40 100 -65t109 -25q75 0 121.5 39t46.5 102q0 67 -43.5 108t-132.5 41h-101v105h90q77 0 116.5 32t39.5 85q0 52 -38 83t-101 31q-114 0 -207 -86l29 142q90 55 186 55q111 0 179.5 -58.5t68.5 -154.5q0 -63 -35 -108.5t-92 -65.5
q68 -12 113 -67.5t45 -137.5q0 -116 -78 -186t-207 -70z" />
    <glyph glyph-name="acute" unicode="&#xb4;" horiz-adv-x="1128" 
d="M569 1022h-100l164 332h164z" />
    <glyph glyph-name="uni00B5" unicode="&#xb5;" horiz-adv-x="1187" 
d="M209 -506v1413h125v-590q0 -105 65 -161t164 -56q86 0 165 48t128 133v626h125v-907h-125v121q-121 -141 -309 -141q-134 0 -213 79v-565h-125z" />
    <glyph glyph-name="paragraph" unicode="&#xb6;" horiz-adv-x="1187" 
d="M485 612q-187 0 -303.5 108.5t-115.5 289.5q1 170 117.5 276.5t301.5 106.5h484v-1669h-117v1554h-193v-1554h-116v888h-58z" />
    <glyph glyph-name="periodcentered" unicode="&#xb7;" horiz-adv-x="514" 
d="M258 383q-46 0 -80.5 34.5t-34.5 78.5q0 43 34.5 76.5t80.5 33.5q44 0 78.5 -33.5t34.5 -76.5q0 -44 -34.5 -78.5t-78.5 -34.5z" />
    <glyph glyph-name="cedilla" unicode="&#xb8;" horiz-adv-x="1128" 
d="M557 -442q-87 0 -154 43l-14 116q78 -63 164 -63q34 0 64 21.5t30 54.5q0 42 -40 65t-146 23l71 223h91l-45 -141q92 -8 134 -55.5t42 -114.5q0 -77 -58 -124.5t-139 -47.5z" />
    <glyph glyph-name="uni00B9" unicode="&#xb9;" horiz-adv-x="530" 
d="M256 565v697l-182 -70l10 123l207 78h80v-828h-115z" />
    <glyph glyph-name="ordmasculine" unicode="&#xba;" horiz-adv-x="776" 
d="M389 795q-122 0 -203.5 82t-81.5 206q0 123 81.5 205t203.5 82q120 0 200.5 -82t80.5 -205q0 -124 -80.5 -206t-200.5 -82zM209 1083q0 -79 51.5 -132.5t128.5 -53.5q75 0 126.5 54t51.5 132t-51.5 131.5t-126.5 53.5q-78 0 -129 -53t-51 -132z" />
    <glyph glyph-name="guillemotright" unicode="&#xbb;" horiz-adv-x="1005" 
d="M922 455l-283 -361h-145l282 361l-282 358h145zM106 94l283 361l-283 358h146l283 -358l-283 -361h-146z" />
    <glyph glyph-name="onequarter" unicode="&#xbc;" horiz-adv-x="1509" 
d="M254 565v697l-182 -70l10 123l207 78h80v-828h-115zM188 0l854 1393h138l-856 -1397zM821 211v57l412 572h67v-523h144l-29 -106h-115v-199h-114v199h-365zM979 317h207v285z" />
    <glyph glyph-name="onehalf" unicode="&#xbd;" horiz-adv-x="1527" 
d="M252 565v697l-182 -70l10 123l207 78h80v-828h-115zM186 0l854 1393h138l-856 -1397zM924 610l24 164q104 74 215 74q114 0 183 -70t69 -178q0 -85 -44 -166.5t-146 -183.5l-123 -125h338l-17 -113h-495v72l225 244q72 77 109.5 138t37.5 120q0 70 -39 109.5t-106 39.5
q-130 0 -231 -125z" />
    <glyph glyph-name="threequarters" unicode="&#xbe;" horiz-adv-x="1683" 
d="M313 555q-98 0 -190 61l-19 140q40 -40 100 -65t109 -25q75 0 121.5 39t46.5 102q0 67 -43.5 108t-132.5 41h-100v105h90q77 0 116.5 32t39.5 85q0 52 -38.5 83t-101.5 31q-114 0 -207 -86l29 142q90 55 186 55q111 0 179.5 -58.5t68.5 -154.5q0 -63 -35 -108.5
t-92 -65.5q68 -12 113 -67.5t45 -137.5q0 -116 -78 -186t-207 -70zM362 0l855 1393h137l-856 -1397zM995 211v57l412 572h68v-523h143l-29 -106h-114v-199h-115v199h-365zM1153 317h207v285z" />
    <glyph glyph-name="questiondown" unicode="&#xbf;" horiz-adv-x="841" 
d="M455 -289q173 0 323 160l-30 -180q-120 -101 -293 -101q-169 0 -272 105t-103 258q0 57 13 105t40.5 90t51.5 70t65 69q5 5 31.5 31t36 36t32.5 36t33.5 44.5t25 45.5t22.5 56t11 60h80q6 -27 7 -54t-6 -53.5t-13.5 -48t-23.5 -48t-27 -42.5t-33 -42.5t-32 -36.5
t-34 -36.5t-30 -31.5q-41 -46 -60.5 -70.5t-39 -72.5t-19.5 -101q0 -107 65.5 -177.5t178.5 -70.5zM373 907q0 42 32 74.5t74 32.5q43 0 76 -33t33 -74t-33 -73.5t-76 -32.5q-42 0 -74 32t-32 74z" />
    <glyph glyph-name="Agrave" unicode="&#xc0;" horiz-adv-x="1302" 
d="M27 0l594 1403h61l592 -1403h-144l-176 424h-608l-178 -424h-141zM397 549h504l-250 598h-2zM403 1837h164l164 -332h-100z" />
    <glyph glyph-name="Aacute" unicode="&#xc1;" horiz-adv-x="1302" 
d="M27 0l594 1403h61l592 -1403h-144l-176 424h-608l-178 -424h-141zM397 549h504l-250 598h-2zM580 1505l163 332h164l-227 -332h-100z" />
    <glyph glyph-name="Acircumflex" unicode="&#xc2;" horiz-adv-x="1302" 
d="M27 0l594 1403h61l592 -1403h-144l-176 424h-608l-178 -424h-141zM381 1505l213 332h121l213 -332h-94l-179 232l-180 -232h-94zM397 549h504l-250 598h-2z" />
    <glyph glyph-name="Atilde" unicode="&#xc3;" horiz-adv-x="1302" 
d="M27 0l594 1403h61l592 -1403h-144l-176 424h-608l-178 -424h-141zM346 1559q0 80 50.5 142t133.5 62q37 0 69.5 -13.5t56 -32.5t44 -37.5t42 -32t42.5 -13.5q75 0 95 127l88 -22q0 -80 -51 -142.5t-134 -62.5q-37 0 -70 13.5t-56.5 32t-44 37.5t-42 32.5t-41.5 13.5
q-74 0 -94 -127zM397 549h504l-250 598h-2z" />
    <glyph glyph-name="Adieresis" unicode="&#xc4;" horiz-adv-x="1302" 
d="M27 0l594 1403h61l592 -1403h-144l-176 424h-608l-178 -424h-141zM391 1675q0 35 24.5 59.5t59.5 24.5q37 0 61.5 -24.5t24.5 -59.5q0 -37 -24.5 -61.5t-61.5 -24.5q-35 0 -59.5 24.5t-24.5 61.5zM397 549h504l-250 598h-2zM754 1675q0 35 24.5 59.5t59.5 24.5
q37 0 61.5 -24.5t24.5 -59.5q0 -37 -24.5 -61.5t-61.5 -24.5q-35 0 -59.5 24.5t-24.5 61.5z" />
    <glyph glyph-name="Aring" unicode="&#xc5;" horiz-adv-x="1302" 
d="M27 0l594 1403h61l592 -1403h-144l-176 424h-608l-178 -424h-141zM397 549h504l-250 598h-2zM463 1683q0 79 55.5 134t136.5 55t137 -55.5t56 -133.5q0 -80 -55.5 -135t-137.5 -55q-81 0 -136.5 55t-55.5 135zM545 1683q0 -47 32 -78.5t78 -31.5t78.5 31.5t32.5 78.5
q0 46 -32.5 77.5t-78.5 31.5t-78 -31.5t-32 -77.5z" />
    <glyph glyph-name="AE" unicode="&#xc6;" horiz-adv-x="1849" 
d="M1704 1393l25 -125h-648v-500h580v-123h-580v-520h670l-27 -125h-780v424h-534l-269 -424h-147l885 1393h825zM487 549h457v721z" />
    <glyph glyph-name="Ccedilla" unicode="&#xc7;" horiz-adv-x="1300" 
d="M811 -442q-87 0 -154 43l-14 116q78 -63 164 -63q34 0 64 21.5t30 54.5q0 42 -40 65t-146 23l53 164q-198 12 -348.5 112t-228.5 256.5t-78 343.5q0 205 90 369.5t247.5 257t350.5 92.5q211 0 368 -102l27 -172q-186 145 -387 145q-114 0 -215.5 -42t-176.5 -117.5
t-119 -187t-44 -243.5q0 -175 73.5 -310t202 -207.5t289.5 -72.5q232 0 406 146l-25 -170q-145 -91 -342 -100l-27 -80q92 -8 134.5 -55.5t42.5 -114.5q0 -77 -58 -124.5t-139 -47.5z" />
    <glyph glyph-name="Egrave" unicode="&#xc8;" horiz-adv-x="1116" 
d="M211 0v1393h760l24 -125h-647v-500h580v-123h-580v-520h670l-27 -125h-780zM342 1837h164l164 -332h-101z" />
    <glyph glyph-name="Eacute" unicode="&#xc9;" horiz-adv-x="1116" 
d="M211 0v1393h760l24 -125h-647v-500h580v-123h-580v-520h670l-27 -125h-780zM518 1505l164 332h164l-228 -332h-100z" />
    <glyph glyph-name="Ecircumflex" unicode="&#xca;" horiz-adv-x="1116" 
d="M211 0v1393h760l24 -125h-647v-500h580v-123h-580v-520h670l-27 -125h-780zM319 1505l213 332h121l213 -332h-94l-178 232l-180 -232h-95z" />
    <glyph glyph-name="Edieresis" unicode="&#xcb;" horiz-adv-x="1116" 
d="M211 0v1393h760l24 -125h-647v-500h580v-123h-580v-520h670l-27 -125h-780zM330 1675q0 35 24.5 59.5t59.5 24.5q37 0 61.5 -24.5t24.5 -59.5q0 -37 -24.5 -61.5t-61.5 -24.5q-35 0 -59.5 24.5t-24.5 61.5zM692 1675q0 35 24.5 59.5t59.5 24.5q37 0 61.5 -24.5
t24.5 -59.5q0 -37 -24.5 -61.5t-61.5 -24.5q-35 0 -59.5 24.5t-24.5 61.5z" />
    <glyph glyph-name="Igrave" unicode="&#xcc;" horiz-adv-x="559" 
d="M211 0v1393h137v-1393h-137zM27 1837h163l164 -332h-100z" />
    <glyph glyph-name="Iacute" unicode="&#xcd;" horiz-adv-x="559" 
d="M211 0v1393h137v-1393h-137zM203 1505l164 332h163l-227 -332h-100z" />
    <glyph glyph-name="Icircumflex" unicode="&#xce;" horiz-adv-x="559" 
d="M211 0v1393h137v-1393h-137zM4 1505l213 332h121l213 -332h-94l-178 232l-181 -232h-94z" />
    <glyph glyph-name="Idieresis" unicode="&#xcf;" horiz-adv-x="559" 
d="M211 0v1393h137v-1393h-137zM14 1675q0 35 24.5 59.5t59.5 24.5q37 0 61.5 -24.5t24.5 -59.5q0 -37 -24.5 -61.5t-61.5 -24.5q-35 0 -59.5 24.5t-24.5 61.5zM377 1675q0 35 24.5 59.5t59.5 24.5q37 0 61.5 -24.5t24.5 -59.5q0 -37 -24.5 -61.5t-61.5 -24.5
q-35 0 -59.5 24.5t-24.5 61.5z" />
    <glyph glyph-name="Eth" unicode="&#xd0;" horiz-adv-x="1474" 
d="M229 0v641h-186v107h186v645h416q213 0 377 -91.5t252 -252.5t88 -365q0 -137 -51 -261.5t-142.5 -218t-227.5 -149t-296 -55.5h-416zM367 125h264q258 0 424 158t166 401q0 260 -162.5 422t-427.5 162h-264v-520h221v-107h-221v-516z" />
    <glyph glyph-name="Ntilde" unicode="&#xd1;" horiz-adv-x="1536" 
d="M1266 -8l-918 1126h-4v-1118h-133v1401h68l907 -1114h4v1106h135v-1401h-59zM465 1559q0 80 50.5 142t133.5 62q37 0 69.5 -13.5t56 -32.5t44 -37.5t42 -32t42.5 -13.5q74 0 94 127l88 -22q0 -81 -50.5 -143t-133.5 -62q-37 0 -70 13.5t-56.5 32t-44 37.5t-42 32.5
t-41.5 13.5q-74 0 -94 -127z" />
    <glyph glyph-name="Ograve" unicode="&#xd2;" horiz-adv-x="1609" 
d="M805 -20q-144 0 -272.5 55t-220.5 149.5t-145.5 227t-53.5 282.5q0 200 91 365t249.5 259.5t351.5 94.5t352 -94.5t249.5 -259.5t90.5 -365q0 -150 -53 -282.5t-145 -227t-220.5 -149.5t-273.5 -55zM254 694q0 -134 46.5 -246.5t124.5 -185t176.5 -113t203.5 -40.5
q106 0 204.5 40.5t176 113t124 185t46.5 246.5q0 135 -46.5 248.5t-124 187t-176 114t-204.5 40.5t-204 -40.5t-176 -114t-124.5 -187t-46.5 -248.5zM553 1837h164l164 -332h-101z" />
    <glyph glyph-name="Oacute" unicode="&#xd3;" horiz-adv-x="1609" 
d="M805 -20q-144 0 -272.5 55t-220.5 149.5t-145.5 227t-53.5 282.5q0 200 91 365t249.5 259.5t351.5 94.5t352 -94.5t249.5 -259.5t90.5 -365q0 -150 -53 -282.5t-145 -227t-220.5 -149.5t-273.5 -55zM254 694q0 -134 46.5 -246.5t124.5 -185t176.5 -113t203.5 -40.5
q106 0 204.5 40.5t176 113t124 185t46.5 246.5q0 135 -46.5 248.5t-124 187t-176 114t-204.5 40.5t-204 -40.5t-176 -114t-124.5 -187t-46.5 -248.5zM729 1505l164 332h164l-228 -332h-100z" />
    <glyph glyph-name="Ocircumflex" unicode="&#xd4;" horiz-adv-x="1609" 
d="M805 -20q-144 0 -272.5 55t-220.5 149.5t-145.5 227t-53.5 282.5q0 200 91 365t249.5 259.5t351.5 94.5t352 -94.5t249.5 -259.5t90.5 -365q0 -150 -53 -282.5t-145 -227t-220.5 -149.5t-273.5 -55zM254 694q0 -134 46.5 -246.5t124.5 -185t176.5 -113t203.5 -40.5
q106 0 204.5 40.5t176 113t124 185t46.5 246.5q0 135 -46.5 248.5t-124 187t-176 114t-204.5 40.5t-204 -40.5t-176 -114t-124.5 -187t-46.5 -248.5zM530 1505l213 332h121l213 -332h-94l-178 232l-180 -232h-95z" />
    <glyph glyph-name="Otilde" unicode="&#xd5;" horiz-adv-x="1609" 
d="M805 -20q-144 0 -272.5 55t-220.5 149.5t-145.5 227t-53.5 282.5q0 200 91 365t249.5 259.5t351.5 94.5t352 -94.5t249.5 -259.5t90.5 -365q0 -150 -53 -282.5t-145 -227t-220.5 -149.5t-273.5 -55zM254 694q0 -134 46.5 -246.5t124.5 -185t176.5 -113t203.5 -40.5
q106 0 204.5 40.5t176 113t124 185t46.5 246.5q0 135 -46.5 248.5t-124 187t-176 114t-204.5 40.5t-204 -40.5t-176 -114t-124.5 -187t-46.5 -248.5zM496 1559q0 80 50.5 142t133.5 62q37 0 69.5 -13.5t56 -32.5t44 -37.5t42 -32t42.5 -13.5q74 0 94 127l88 -22
q0 -81 -50.5 -143t-133.5 -62q-37 0 -70 13.5t-56.5 32t-44 37.5t-42 32.5t-41.5 13.5q-74 0 -94 -127z" />
    <glyph glyph-name="Odieresis" unicode="&#xd6;" horiz-adv-x="1609" 
d="M805 -20q-144 0 -272.5 55t-220.5 149.5t-145.5 227t-53.5 282.5q0 200 91 365t249.5 259.5t351.5 94.5t352 -94.5t249.5 -259.5t90.5 -365q0 -150 -53 -282.5t-145 -227t-220.5 -149.5t-273.5 -55zM254 694q0 -134 46.5 -246.5t124.5 -185t176.5 -113t203.5 -40.5
q106 0 204.5 40.5t176 113t124 185t46.5 246.5q0 135 -46.5 248.5t-124 187t-176 114t-204.5 40.5t-204 -40.5t-176 -114t-124.5 -187t-46.5 -248.5zM541 1675q0 35 24.5 59.5t59.5 24.5q37 0 61.5 -24.5t24.5 -59.5q0 -37 -24.5 -61.5t-61.5 -24.5q-35 0 -59.5 24.5
t-24.5 61.5zM903 1675q0 35 24.5 59.5t59.5 24.5q37 0 61.5 -24.5t24.5 -59.5q0 -37 -24.5 -61.5t-61.5 -24.5q-35 0 -59.5 24.5t-24.5 61.5z" />
    <glyph glyph-name="multiply" unicode="&#xd7;" horiz-adv-x="1187" 
d="M915 74l-323 315l-318 -317l-79 82l317 315l-326 319l88 91l326 -322l322 322l79 -80l-321 -322l321 -315z" />
    <glyph glyph-name="Oslash" unicode="&#xd8;" horiz-adv-x="1609" 
d="M805 -20q-209 0 -377 108l-92 -125l-88 70l92 125q-107 98 -167 237t-60 299q0 200 91 365t249.5 259.5t351.5 94.5q213 0 379 -113l100 136l92 -64l-104 -141q106 -98 165.5 -237.5t59.5 -299.5q0 -150 -53 -282.5t-145 -227t-220.5 -149.5t-273.5 -55zM254 694
q0 -263 168 -428l684 928q-137 90 -301 90q-106 0 -204 -40.5t-176 -114t-124.5 -187t-46.5 -248.5zM508 197q136 -88 297 -88q106 0 204.5 40.5t176 113t124 185t46.5 246.5q0 261 -164 428z" />
    <glyph glyph-name="Ugrave" unicode="&#xd9;" horiz-adv-x="1492" 
d="M748 -20q-175 0 -303 78.5t-190 207.5t-62 291v836h137v-834q0 -212 109.5 -333.5t308.5 -121.5q195 0 306 122t111 329v838h135v-838q0 -161 -62.5 -289.5t-189.5 -207t-300 -78.5zM498 1837h164l163 -332h-100z" />
    <glyph glyph-name="Uacute" unicode="&#xda;" horiz-adv-x="1492" 
d="M748 -20q-175 0 -303 78.5t-190 207.5t-62 291v836h137v-834q0 -212 109.5 -333.5t308.5 -121.5q195 0 306 122t111 329v838h135v-838q0 -161 -62.5 -289.5t-189.5 -207t-300 -78.5zM674 1505l164 332h163l-227 -332h-100z" />
    <glyph glyph-name="Ucircumflex" unicode="&#xdb;" horiz-adv-x="1492" 
d="M748 -20q-175 0 -303 78.5t-190 207.5t-62 291v836h137v-834q0 -212 109.5 -333.5t308.5 -121.5q195 0 306 122t111 329v838h135v-838q0 -161 -62.5 -289.5t-189.5 -207t-300 -78.5zM475 1505l213 332h121l213 -332h-94l-178 232l-181 -232h-94z" />
    <glyph glyph-name="Udieresis" unicode="&#xdc;" horiz-adv-x="1492" 
d="M748 -20q-175 0 -303 78.5t-190 207.5t-62 291v836h137v-834q0 -212 109.5 -333.5t308.5 -121.5q195 0 306 122t111 329v838h135v-838q0 -161 -62.5 -289.5t-189.5 -207t-300 -78.5zM485 1675q0 35 24.5 59.5t59.5 24.5q37 0 61.5 -24.5t24.5 -59.5q0 -37 -24.5 -61.5
t-61.5 -24.5q-35 0 -59.5 24.5t-24.5 61.5zM848 1675q0 35 24.5 59.5t59.5 24.5q37 0 61.5 -24.5t24.5 -59.5q0 -37 -24.5 -61.5t-61.5 -24.5q-35 0 -59.5 24.5t-24.5 61.5z" />
    <glyph glyph-name="Yacute" unicode="&#xdd;" horiz-adv-x="1230" 
d="M547 0v586l-510 807h162l419 -674l420 674h156l-510 -805v-588h-137zM541 1505l164 332h163l-227 -332h-100z" />
    <glyph glyph-name="Thorn" unicode="&#xde;" horiz-adv-x="1140" 
d="M211 0v1393h137v-291h244q196 0 323 -109.5t127 -281.5q0 -177 -126.5 -285.5t-323.5 -108.5h-244v-317h-137zM348 442h242q141 0 225 73.5t84 195.5q0 117 -84.5 191.5t-222.5 74.5h-244v-535z" />
    <glyph glyph-name="germandbls" unicode="&#xdf;" horiz-adv-x="1140" 
d="M762 -16q-84 0 -161.5 21.5t-129.5 55.5l-12 150q144 -107 282 -107q104 0 152.5 41t48.5 107q0 56 -33.5 98.5t-117.5 93.5l-340 203v78q16 15 70 64t74.5 69t60.5 63.5t57 72.5t32 69.5t15 79.5q0 96 -62 146t-159 50q-123 0 -185.5 -78t-62.5 -229v-1032h-125v1024
q0 214 100 325t283 111q141 0 240.5 -87t99.5 -224q0 -49 -16 -97.5t-35 -83t-58.5 -79.5t-61.5 -66.5t-70.5 -65t-61.5 -55.5l254 -155q128 -78 180.5 -140.5t52.5 -148.5q0 -118 -83 -196t-228 -78z" />
    <glyph glyph-name="agrave" unicode="&#xe0;" horiz-adv-x="946" 
d="M666 -20v126q-146 -126 -304 -126q-118 0 -194 70.5t-76 176.5q0 184 232 252q112 35 342 60v106q0 80 -49 121t-136 41q-158 0 -317 -121l26 154q55 38 138 63t159 25q138 0 221 -71t83 -181v-660zM219 1393h164l164 -332h-101zM221 231q0 -57 45 -94t117 -37
q65 0 143.5 35.5t139.5 102.5v194q-192 -26 -291 -55q-82 -24 -118 -59t-36 -87z" />
    <glyph glyph-name="aacute" unicode="&#xe1;" horiz-adv-x="946" 
d="M666 -20v126q-146 -126 -304 -126q-118 0 -194 70.5t-76 176.5q0 184 232 252q112 35 342 60v106q0 80 -49 121t-136 41q-158 0 -317 -121l26 154q55 38 138 63t159 25q138 0 221 -71t83 -181v-660zM221 231q0 -57 45 -94t117 -37q65 0 143.5 35.5t139.5 102.5v194
q-192 -26 -291 -55q-82 -24 -118 -59t-36 -87zM395 1061l164 332h164l-227 -332h-101z" />
    <glyph glyph-name="acircumflex" unicode="&#xe2;" horiz-adv-x="946" 
d="M666 -20v126q-146 -126 -304 -126q-118 0 -194 70.5t-76 176.5q0 184 232 252q112 35 342 60v106q0 80 -49 121t-136 41q-158 0 -317 -121l26 154q55 38 138 63t159 25q138 0 221 -71t83 -181v-660zM197 1061l213 332h120l213 -332h-94l-178 231l-180 -231h-94zM221 231
q0 -57 45 -94t117 -37q65 0 143.5 35.5t139.5 102.5v194q-192 -26 -291 -55q-82 -24 -118 -59t-36 -87z" />
    <glyph glyph-name="atilde" unicode="&#xe3;" horiz-adv-x="946" 
d="M666 -20v126q-146 -126 -304 -126q-118 0 -194 70.5t-76 176.5q0 184 232 252q112 35 342 60v106q0 80 -49 121t-136 41q-158 0 -317 -121l26 154q55 38 138 63t159 25q138 0 221 -71t83 -181v-660zM162 1114q0 81 50.5 143t133.5 62q37 0 69.5 -13.5t56 -32.5t44 -37.5
t42 -32t42.5 -13.5q74 0 94 127l88 -23q0 -80 -50.5 -142t-133.5 -62q-37 0 -70 13.5t-56.5 32t-44 37.5t-42 32.5t-41.5 13.5q-74 0 -94 -127zM221 231q0 -57 45 -94t117 -37q65 0 143.5 35.5t139.5 102.5v194q-192 -26 -291 -55q-82 -24 -118 -59t-36 -87z" />
    <glyph glyph-name="adieresis" unicode="&#xe4;" horiz-adv-x="946" 
d="M666 -20v126q-146 -126 -304 -126q-118 0 -194 70.5t-76 176.5q0 184 232 252q112 35 342 60v106q0 80 -49 121t-136 41q-158 0 -317 -121l26 154q55 38 138 63t159 25q138 0 221 -71t83 -181v-660zM207 1231q0 35 24.5 59.5t59.5 24.5q37 0 61.5 -24.5t24.5 -59.5
q0 -37 -24.5 -61.5t-61.5 -24.5q-35 0 -59.5 24.5t-24.5 61.5zM221 231q0 -57 45 -94t117 -37q65 0 143.5 35.5t139.5 102.5v194q-192 -26 -291 -55q-82 -24 -118 -59t-36 -87zM569 1231q0 35 24.5 59.5t59.5 24.5q37 0 61.5 -24.5t24.5 -59.5q0 -37 -24.5 -61.5
t-61.5 -24.5q-35 0 -59.5 24.5t-24.5 61.5z" />
    <glyph glyph-name="aring" unicode="&#xe5;" horiz-adv-x="946" 
d="M666 -20v126q-146 -126 -304 -126q-118 0 -194 70.5t-76 176.5q0 184 232 252q112 35 342 60v106q0 80 -49 121t-136 41q-158 0 -317 -121l26 154q55 38 138 63t159 25q138 0 221 -71t83 -181v-660zM221 231q0 -57 45 -94t117 -37q65 0 143.5 35.5t139.5 102.5v194
q-192 -26 -291 -55q-82 -24 -118 -59t-36 -87zM279 1239q0 78 55.5 133t136.5 55t137 -55t56 -133q0 -80 -55.5 -135t-137.5 -55q-81 0 -136.5 55t-55.5 135zM360 1239q0 -47 32.5 -79t78.5 -32t78.5 32t32.5 79q0 46 -32.5 77.5t-78.5 31.5t-78.5 -31.5t-32.5 -77.5z" />
    <glyph glyph-name="ae" unicode="&#xe6;" horiz-adv-x="1550" 
d="M1120 -20q-223 0 -352 163q-183 -163 -393 -163q-126 0 -204.5 72t-78.5 179q0 184 232 248q124 36 342 60v106q0 80 -49 121t-136 41q-158 0 -317 -121l26 154q55 38 138 63t159 25q102 0 176 -41t107 -111q120 152 305 152q165 0 271 -116.5t106 -283.5q0 -38 -8 -82
h-653q3 -167 100.5 -256.5t232.5 -89.5q87 0 154.5 31.5t140.5 89.5l-45 -168q-109 -73 -254 -73zM221 233q0 -61 44.5 -97t117.5 -36q176 0 324 144q-35 87 -41 188q-190 -26 -279 -51q-85 -24 -125.5 -58.5t-40.5 -89.5zM801 555h524q0 102 -71.5 177t-176.5 75
q-106 0 -179 -68.5t-97 -183.5z" />
    <glyph glyph-name="ccedilla" unicode="&#xe7;" horiz-adv-x="931" 
d="M559 -20l-35 2l-26 -82q92 -8 134 -55.5t42 -114.5q0 -77 -58 -124.5t-139 -47.5q-86 0 -153 43l-15 116q78 -63 164 -63q34 0 64 21.5t30 54.5q0 42 -40 65t-146 23l57 176q-155 39 -246.5 166t-91.5 293q0 205 131.5 340t331.5 135q137 0 244 -72l22 -147
q-55 46 -126 72t-140 26q-144 0 -239 -100t-95 -258q0 -155 92.5 -252t233.5 -97q84 0 164 33t135 96l-27 -159q-117 -90 -268 -90z" />
    <glyph glyph-name="egrave" unicode="&#xe8;" horiz-adv-x="1026" 
d="M575 -20q-207 0 -341 133t-134 346q0 130 55.5 237t154 169.5t220.5 62.5q175 0 286.5 -116.5t111.5 -283.5q0 -38 -8 -82h-695q1 -85 32 -153t81.5 -109t112 -62.5t129.5 -21.5q165 0 315 121l-45 -168q-109 -73 -275 -73zM236 555h565q0 102 -77 177t-192 75
q-114 0 -192.5 -68.5t-103.5 -183.5zM279 1393h163l164 -332h-100z" />
    <glyph glyph-name="eacute" unicode="&#xe9;" horiz-adv-x="1026" 
d="M575 -20q-207 0 -341 133t-134 346q0 130 55.5 237t154 169.5t220.5 62.5q175 0 286.5 -116.5t111.5 -283.5q0 -38 -8 -82h-695q1 -85 32 -153t81.5 -109t112 -62.5t129.5 -21.5q165 0 315 121l-45 -168q-109 -73 -275 -73zM236 555h565q0 102 -77 177t-192 75
q-114 0 -192.5 -68.5t-103.5 -183.5zM455 1061l163 332h164l-227 -332h-100z" />
    <glyph glyph-name="ecircumflex" unicode="&#xea;" horiz-adv-x="1026" 
d="M575 -20q-207 0 -341 133t-134 346q0 130 55.5 237t154 169.5t220.5 62.5q175 0 286.5 -116.5t111.5 -283.5q0 -38 -8 -82h-695q1 -85 32 -153t81.5 -109t112 -62.5t129.5 -21.5q165 0 315 121l-45 -168q-109 -73 -275 -73zM236 555h565q0 102 -77 177t-192 75
q-114 0 -192.5 -68.5t-103.5 -183.5zM256 1061l213 332h121l213 -332h-94l-179 231l-180 -231h-94z" />
    <glyph glyph-name="edieresis" unicode="&#xeb;" horiz-adv-x="1026" 
d="M575 -20q-207 0 -341 133t-134 346q0 130 55.5 237t154 169.5t220.5 62.5q175 0 286.5 -116.5t111.5 -283.5q0 -38 -8 -82h-695q1 -85 32 -153t81.5 -109t112 -62.5t129.5 -21.5q165 0 315 121l-45 -168q-109 -73 -275 -73zM236 555h565q0 102 -77 177t-192 75
q-114 0 -192.5 -68.5t-103.5 -183.5zM266 1231q0 35 24.5 59.5t59.5 24.5q37 0 61.5 -24.5t24.5 -59.5q0 -37 -24.5 -61.5t-61.5 -24.5q-35 0 -59.5 24.5t-24.5 61.5zM629 1231q0 35 24.5 59.5t59.5 24.5q37 0 61.5 -24.5t24.5 -59.5q0 -37 -24.5 -61.5t-61.5 -24.5
q-35 0 -59.5 24.5t-24.5 61.5z" />
    <glyph glyph-name="igrave" unicode="&#xec;" horiz-adv-x="456" 
d="M166 0v907h125v-907h-125zM-20 1393h163l164 -332h-100z" />
    <glyph glyph-name="iacute" unicode="&#xed;" horiz-adv-x="456" 
d="M166 0v907h125v-907h-125zM156 1061l163 332h164l-227 -332h-100z" />
    <glyph glyph-name="icircumflex" unicode="&#xee;" horiz-adv-x="456" 
d="M166 0v907h125v-907h-125zM-43 1061l213 332h121l213 -332h-94l-179 231l-180 -231h-94z" />
    <glyph glyph-name="idieresis" unicode="&#xef;" horiz-adv-x="456" 
d="M166 0v907h125v-907h-125zM-33 1231q0 35 24.5 59.5t59.5 24.5q37 0 61.5 -24.5t24.5 -59.5q0 -37 -24.5 -61.5t-61.5 -24.5q-35 0 -59.5 24.5t-24.5 61.5zM330 1231q0 35 24.5 59.5t59.5 24.5q37 0 61.5 -24.5t24.5 -59.5q0 -37 -24.5 -61.5t-61.5 -24.5
q-35 0 -59.5 24.5t-24.5 61.5z" />
    <glyph glyph-name="eth" unicode="&#xf0;" horiz-adv-x="1107" 
d="M530 -18q-182 0 -305 120t-123 316q0 192 125.5 315t309.5 123q83 0 163.5 -30t139.5 -81q-44 210 -187 359l-133 -160l-82 68l135 162q-87 63 -213 112l111 94q104 -39 188 -104l129 154l82 -68l-131 -156q244 -244 244 -639q0 -274 -120.5 -429.5t-332.5 -155.5z
M231 418q0 -140 89 -228t223 -88q148 0 231.5 119.5t83.5 323.5v20q-48 76 -132.5 123t-178.5 47q-140 0 -228 -89.5t-88 -227.5z" />
    <glyph glyph-name="ntilde" unicode="&#xf1;" horiz-adv-x="1093" 
d="M813 590q0 105 -65 161t-164 56q-86 0 -165 -47.5t-128 -132.5v-627h-125v907h125v-121q122 142 309 142q144 0 241 -90.5t97 -231.5v-606h-125v590zM246 1114q0 81 50.5 143t133.5 62q37 0 69.5 -13.5t56 -32.5t44 -37.5t42 -32t42.5 -13.5q74 0 94 127l88 -23
q0 -80 -50.5 -142t-133.5 -62q-37 0 -70 13.5t-56.5 32t-44 37.5t-42 32.5t-41.5 13.5q-74 0 -94 -127z" />
    <glyph glyph-name="ograve" unicode="&#xf2;" horiz-adv-x="1124" 
d="M561 -20q-199 0 -330 136t-131 337q0 202 130.5 338.5t330.5 136.5q202 0 332.5 -136t130.5 -339q0 -202 -130.5 -337.5t-332.5 -135.5zM229 453q0 -156 96 -254.5t236 -98.5q141 0 237.5 98t96.5 255q0 159 -96 256.5t-238 97.5q-140 0 -236 -97.5t-96 -256.5zM309 1393
h164l164 -332h-100z" />
    <glyph glyph-name="oacute" unicode="&#xf3;" horiz-adv-x="1124" 
d="M561 -20q-199 0 -330 136t-131 337q0 202 130.5 338.5t330.5 136.5q202 0 332.5 -136t130.5 -339q0 -202 -130.5 -337.5t-332.5 -135.5zM229 453q0 -156 96 -254.5t236 -98.5q141 0 237.5 98t96.5 255q0 159 -96 256.5t-238 97.5q-140 0 -236 -97.5t-96 -256.5zM485 1061
l164 332h164l-227 -332h-101z" />
    <glyph glyph-name="ocircumflex" unicode="&#xf4;" horiz-adv-x="1124" 
d="M561 -20q-199 0 -330 136t-131 337q0 202 130.5 338.5t330.5 136.5q202 0 332.5 -136t130.5 -339q0 -202 -130.5 -337.5t-332.5 -135.5zM229 453q0 -156 96 -254.5t236 -98.5q141 0 237.5 98t96.5 255q0 159 -96 256.5t-238 97.5q-140 0 -236 -97.5t-96 -256.5zM287 1061
l213 332h121l213 -332h-95l-178 231l-180 -231h-94z" />
    <glyph glyph-name="otilde" unicode="&#xf5;" horiz-adv-x="1124" 
d="M561 -20q-199 0 -330 136t-131 337q0 202 130.5 338.5t330.5 136.5q202 0 332.5 -136t130.5 -339q0 -202 -130.5 -337.5t-332.5 -135.5zM229 453q0 -156 96 -254.5t236 -98.5q141 0 237.5 98t96.5 255q0 159 -96 256.5t-238 97.5q-140 0 -236 -97.5t-96 -256.5zM252 1114
q0 81 50.5 143t133.5 62q37 0 69.5 -13.5t56 -32.5t44 -37.5t42 -32t42.5 -13.5q74 0 94 127l88 -23q0 -80 -50.5 -142t-133.5 -62q-37 0 -70 13.5t-56.5 32t-44 37.5t-42 32.5t-41.5 13.5q-74 0 -94 -127z" />
    <glyph glyph-name="odieresis" unicode="&#xf6;" horiz-adv-x="1124" 
d="M561 -20q-199 0 -330 136t-131 337q0 202 130.5 338.5t330.5 136.5q202 0 332.5 -136t130.5 -339q0 -202 -130.5 -337.5t-332.5 -135.5zM229 453q0 -156 96 -254.5t236 -98.5q141 0 237.5 98t96.5 255q0 159 -96 256.5t-238 97.5q-140 0 -236 -97.5t-96 -256.5zM297 1231
q0 35 24.5 59.5t59.5 24.5q37 0 61.5 -24.5t24.5 -59.5q0 -37 -24.5 -61.5t-61.5 -24.5q-35 0 -59.5 24.5t-24.5 61.5zM659 1231q0 35 24.5 59.5t59.5 24.5q37 0 61.5 -24.5t24.5 -59.5q0 -37 -24.5 -61.5t-61.5 -24.5q-35 0 -59.5 24.5t-24.5 61.5z" />
    <glyph glyph-name="divide" unicode="&#xf7;" horiz-adv-x="1187" 
d="M592 727q-34 0 -61 27t-27 61q0 37 26.5 63.5t61.5 26.5q38 0 64 -26t26 -64q0 -35 -26.5 -61.5t-63.5 -26.5zM141 420v115h906v-115h-906zM504 143q0 37 26.5 63.5t61.5 26.5q37 0 63.5 -26.5t26.5 -63.5q0 -36 -27 -63t-63 -27q-35 0 -61.5 27.5t-26.5 62.5z" />
    <glyph glyph-name="oslash" unicode="&#xf8;" horiz-adv-x="1124" 
d="M231 -100l-86 59l101 141q-69 66 -107.5 157.5t-38.5 195.5q0 202 130.5 338.5t330.5 136.5q129 0 234 -60l98 140l86 -60l-102 -141q70 -65 108.5 -156.5t38.5 -197.5q0 -202 -130.5 -337.5t-332.5 -135.5q-129 0 -235 61zM229 453q0 -151 90 -248l404 563
q-76 39 -162 39q-140 0 -236 -97.5t-96 -256.5zM397 143q70 -43 164 -43q141 0 237.5 98t96.5 255q0 156 -92 254z" />
    <glyph glyph-name="ugrave" unicode="&#xf9;" horiz-adv-x="1093" 
d="M281 317q0 -105 65 -161t164 -56q86 0 165 48t128 133v626h125v-907h-125v121q-121 -141 -309 -141q-144 0 -241 90t-97 231v606h125v-590zM295 1393h164l164 -332h-101z" />
    <glyph glyph-name="uacute" unicode="&#xfa;" horiz-adv-x="1093" 
d="M281 317q0 -105 65 -161t164 -56q86 0 165 48t128 133v626h125v-907h-125v121q-121 -141 -309 -141q-144 0 -241 90t-97 231v606h125v-590zM471 1061l164 332h164l-228 -332h-100z" />
    <glyph glyph-name="ucircumflex" unicode="&#xfb;" horiz-adv-x="1093" 
d="M281 317q0 -105 65 -161t164 -56q86 0 165 48t128 133v626h125v-907h-125v121q-121 -141 -309 -141q-144 0 -241 90t-97 231v606h125v-590zM272 1061l213 332h121l213 -332h-94l-178 231l-180 -231h-95z" />
    <glyph glyph-name="udieresis" unicode="&#xfc;" horiz-adv-x="1093" 
d="M281 317q0 -105 65 -161t164 -56q86 0 165 48t128 133v626h125v-907h-125v121q-121 -141 -309 -141q-144 0 -241 90t-97 231v606h125v-590zM283 1231q0 35 24.5 59.5t59.5 24.5q37 0 61.5 -24.5t24.5 -59.5q0 -37 -24.5 -61.5t-61.5 -24.5q-35 0 -59.5 24.5t-24.5 61.5z
M645 1231q0 35 24.5 59.5t59.5 24.5q37 0 61.5 -24.5t24.5 -59.5q0 -37 -24.5 -61.5t-61.5 -24.5q-35 0 -59.5 24.5t-24.5 61.5z" />
    <glyph glyph-name="yacute" unicode="&#xfd;" horiz-adv-x="968" 
d="M195 -506l229 529l-385 884h137q56 -134 174 -407t142 -328q41 93 313 735h131l-610 -1413h-131zM412 1061l163 332h164l-227 -332h-100z" />
    <glyph glyph-name="thorn" unicode="&#xfe;" horiz-adv-x="1120" 
d="M166 -506v1956h125v-645q120 123 284 123q189 0 317 -138t128 -339q0 -198 -128 -334.5t-317 -136.5q-180 0 -284 104v-590h-125zM291 229q42 -56 112.5 -92.5t159.5 -36.5q130 0 228 97.5t98 253.5q0 79 -28 147.5t-73.5 113t-104 70t-120.5 25.5q-81 0 -153 -39.5
t-119 -101.5v-437z" />
    <glyph glyph-name="ydieresis" unicode="&#xff;" horiz-adv-x="968" 
d="M195 -506l229 529l-385 884h137q56 -134 174 -407t142 -328q41 93 313 735h131l-610 -1413h-131zM223 1231q0 35 24.5 59.5t59.5 24.5q37 0 61.5 -24.5t24.5 -59.5q0 -37 -24.5 -61.5t-61.5 -24.5q-35 0 -59.5 24.5t-24.5 61.5zM586 1231q0 35 24.5 59.5t59.5 24.5
q37 0 61.5 -24.5t24.5 -59.5q0 -37 -24.5 -61.5t-61.5 -24.5q-35 0 -59.5 24.5t-24.5 61.5z" />
    <glyph glyph-name="Amacron" unicode="&#x100;" horiz-adv-x="1302" 
d="M27 0l594 1403h61l592 -1403h-144l-176 424h-608l-178 -424h-141zM395 1591v107h520v-107h-520zM397 549h504l-250 598h-2z" />
    <glyph glyph-name="amacron" unicode="&#x101;" horiz-adv-x="946" 
d="M666 -20v126q-146 -126 -304 -126q-118 0 -194 70.5t-76 176.5q0 184 232 252q112 35 342 60v106q0 80 -49 121t-136 41q-158 0 -317 -121l26 154q55 38 138 63t159 25q138 0 221 -71t83 -181v-660zM211 1147v106h520v-106h-520zM221 231q0 -57 45 -94t117 -37
q65 0 143.5 35.5t139.5 102.5v194q-192 -26 -291 -55q-82 -24 -118 -59t-36 -87z" />
    <glyph glyph-name="Abreve" unicode="&#x102;" horiz-adv-x="1302" 
d="M27 0l594 1403h61l592 -1403h-144l-176 424h-608l-178 -424h-141zM383 1812l98 33q13 -99 56.5 -164t117.5 -65t117.5 65t56.5 164l99 -33q-1 -77 -33.5 -146.5t-96.5 -116t-143 -46.5t-142.5 46.5t-96 116t-33.5 146.5zM397 549h504l-250 598h-2z" />
    <glyph glyph-name="abreve" unicode="&#x103;" horiz-adv-x="946" 
d="M666 -20v126q-146 -126 -304 -126q-118 0 -194 70.5t-76 176.5q0 184 232 252q112 35 342 60v106q0 80 -49 121t-136 41q-158 0 -317 -121l26 154q55 38 138 63t159 25q138 0 221 -71t83 -181v-660zM199 1368l98 33q13 -99 56.5 -164.5t117.5 -65.5t117.5 65.5
t56.5 164.5l98 -33q-1 -77 -33.5 -146.5t-96 -116t-142.5 -46.5t-142.5 46.5t-96 116t-33.5 146.5zM221 231q0 -57 45 -94t117 -37q65 0 143.5 35.5t139.5 102.5v194q-192 -26 -291 -55q-82 -24 -118 -59t-36 -87z" />
    <glyph glyph-name="Aogonek" unicode="&#x104;" horiz-adv-x="1302" 
d="M27 0l594 1403h61l592 -1403h-76v-2q-88 -50 -130 -116.5t-42 -125.5q0 -46 26 -72t64 -26q67 0 127 63l-10 -108q-49 -64 -143 -64q-73 0 -122.5 51.5t-49.5 135.5q0 89 54.5 169t143.5 128l-162 391h-608l-178 -424h-141zM397 549h504l-250 598h-2z" />
    <glyph glyph-name="aogonek" unicode="&#x105;" horiz-adv-x="946" 
d="M362 -20q-118 0 -194 70.5t-76 176.5q0 184 232 252q112 35 342 60v106q0 80 -49 121t-136 41q-158 0 -317 -121l26 154q55 38 138 63t159 25q138 0 221 -71t83 -181v-660l-25 -6l6 -12q-88 -50 -130 -116.5t-42 -125.5q0 -46 26 -72t64 -26q67 0 127 63l-10 -108
q-49 -64 -143 -64q-73 0 -122.5 51.5t-49.5 135.5q0 83 47 157t127 125v88q-146 -126 -304 -126zM221 231q0 -57 45 -94t117 -37q65 0 143.5 35.5t139.5 102.5v194q-192 -26 -291 -55q-82 -24 -118 -59t-36 -87z" />
    <glyph glyph-name="Cacute" unicode="&#x106;" horiz-adv-x="1300" 
d="M819 -20q-159 0 -293 57t-223.5 154t-139.5 227t-50 276q0 205 90 369.5t247.5 257t350.5 92.5q211 0 368 -102l27 -172q-186 145 -387 145q-114 0 -215.5 -42t-176.5 -117.5t-119 -187t-44 -243.5q0 -175 73.5 -310t202 -207.5t289.5 -72.5q232 0 406 146l-25 -170
q-155 -100 -381 -100zM715 1505l164 332h163l-227 -332h-100z" />
    <glyph glyph-name="cacute" unicode="&#x107;" horiz-adv-x="931" 
d="M559 -20q-136 0 -242 64.5t-161.5 172t-55.5 236.5q0 205 131.5 340t331.5 135q137 0 244 -72l22 -147q-55 46 -126 72t-140 26q-144 0 -239 -100t-95 -258q0 -155 92.5 -252t233.5 -97q84 0 164 33t135 96l-27 -159q-117 -90 -268 -90zM487 1061l164 332h164l-227 -332
h-101z" />
    <glyph glyph-name="Ccircumflex" unicode="&#x108;" horiz-adv-x="1300" 
d="M819 -20q-159 0 -293 57t-223.5 154t-139.5 227t-50 276q0 205 90 369.5t247.5 257t350.5 92.5q211 0 368 -102l27 -172q-186 145 -387 145q-114 0 -215.5 -42t-176.5 -117.5t-119 -187t-44 -243.5q0 -175 73.5 -310t202 -207.5t289.5 -72.5q232 0 406 146l-25 -170
q-155 -100 -381 -100zM516 1505l213 332h121l213 -332h-94l-178 232l-181 -232h-94z" />
    <glyph glyph-name="ccircumflex" unicode="&#x109;" horiz-adv-x="931" 
d="M559 -20q-136 0 -242 64.5t-161.5 172t-55.5 236.5q0 205 131.5 340t331.5 135q137 0 244 -72l22 -147q-55 46 -126 72t-140 26q-144 0 -239 -100t-95 -258q0 -155 92.5 -252t233.5 -97q84 0 164 33t135 96l-27 -159q-117 -90 -268 -90zM289 1061l213 332h121l213 -332
h-95l-178 231l-180 -231h-94z" />
    <glyph glyph-name="Cdotaccent" unicode="&#x10a;" horiz-adv-x="1300" 
d="M819 -20q-159 0 -293 57t-223.5 154t-139.5 227t-50 276q0 205 90 369.5t247.5 257t350.5 92.5q211 0 368 -102l27 -172q-186 145 -387 145q-114 0 -215.5 -42t-176.5 -117.5t-119 -187t-44 -243.5q0 -175 73.5 -310t202 -207.5t289.5 -72.5q232 0 406 146l-25 -170
q-155 -100 -381 -100zM707 1665q0 35 24.5 59.5t59.5 24.5q37 0 61.5 -24.5t24.5 -59.5q0 -37 -24.5 -61.5t-61.5 -24.5q-35 0 -59.5 24.5t-24.5 61.5z" />
    <glyph glyph-name="cdotaccent" unicode="&#x10b;" horiz-adv-x="931" 
d="M559 -20q-136 0 -242 64.5t-161.5 172t-55.5 236.5q0 205 131.5 340t331.5 135q137 0 244 -72l22 -147q-55 46 -126 72t-140 26q-144 0 -239 -100t-95 -258q0 -155 92.5 -252t233.5 -97q84 0 164 33t135 96l-27 -159q-117 -90 -268 -90zM479 1221q0 35 24.5 59.5
t59.5 24.5q37 0 61.5 -24.5t24.5 -59.5q0 -37 -24.5 -61.5t-61.5 -24.5q-35 0 -59.5 24.5t-24.5 61.5z" />
    <glyph glyph-name="Ccaron" unicode="&#x10c;" horiz-adv-x="1300" 
d="M819 -20q-159 0 -293 57t-223.5 154t-139.5 227t-50 276q0 205 90 369.5t247.5 257t350.5 92.5q211 0 368 -102l27 -172q-186 145 -387 145q-114 0 -215.5 -42t-176.5 -117.5t-119 -187t-44 -243.5q0 -175 73.5 -310t202 -207.5t289.5 -72.5q232 0 406 146l-25 -170
q-155 -100 -381 -100zM516 1837h94l181 -231l178 231h94l-213 -332h-121z" />
    <glyph glyph-name="ccaron" unicode="&#x10d;" horiz-adv-x="931" 
d="M559 -20q-136 0 -242 64.5t-161.5 172t-55.5 236.5q0 205 131.5 340t331.5 135q137 0 244 -72l22 -147q-55 46 -126 72t-140 26q-144 0 -239 -100t-95 -258q0 -155 92.5 -252t233.5 -97q84 0 164 33t135 96l-27 -159q-117 -90 -268 -90zM289 1393h94l180 -232l178 232h95
l-213 -332h-121z" />
    <glyph glyph-name="Dcaron" unicode="&#x10e;" horiz-adv-x="1456" 
d="M211 0v1393h416q160 0 294.5 -53.5t226.5 -147t143.5 -224.5t51.5 -284q0 -137 -51 -261.5t-142 -218t-227 -149t-296 -55.5h-416zM348 125h264q258 0 424 158t166 401q0 128 -42.5 236.5t-119 185t-186.5 119.5t-242 43h-264v-1143zM369 1837h94l180 -231l178 231h94
l-213 -332h-120z" />
    <glyph glyph-name="dcaron" unicode="&#x10f;" 
d="M827 -20v116q-60 -57 -135 -86.5t-143 -29.5q-192 0 -320.5 136t-128.5 337t128.5 338t318.5 137q167 0 278 -103v625h129l2 -1434zM231 453q0 -158 98.5 -255.5t227.5 -97.5q161 0 270 129v455q-44 55 -114 89t-156 34q-129 0 -227.5 -97.5t-98.5 -256.5zM1085 1118
l80 332h140l-144 -332h-76z" />
    <glyph glyph-name="Dcroat" unicode="&#x110;" horiz-adv-x="1474" 
d="M229 0v641h-186v107h186v645h416q213 0 377 -91.5t252 -252.5t88 -365q0 -137 -51 -261.5t-142.5 -218t-227.5 -149t-296 -55.5h-416zM367 125h264q258 0 424 158t166 401q0 260 -162.5 422t-427.5 162h-264v-520h221v-107h-221v-516z" />
    <glyph glyph-name="dcroat" unicode="&#x111;" horiz-adv-x="1122" 
d="M827 -20v116q-60 -57 -135 -86.5t-143 -29.5q-192 0 -320.5 136t-128.5 337t128.5 338t318.5 137q167 0 278 -103v289h-207v107h207v229h129v-229h209v-107h-209l2 -1098zM231 453q0 -158 98.5 -255.5t227.5 -97.5q161 0 270 129v455q-44 55 -114 89t-156 34
q-129 0 -227.5 -97.5t-98.5 -256.5z" />
    <glyph glyph-name="Emacron" unicode="&#x112;" horiz-adv-x="1116" 
d="M211 0v1393h760l24 -125h-647v-500h580v-123h-580v-520h670l-27 -125h-780zM334 1591v107h520v-107h-520z" />
    <glyph glyph-name="emacron" unicode="&#x113;" horiz-adv-x="1026" 
d="M575 -20q-207 0 -341 133t-134 346q0 130 55.5 237t154 169.5t220.5 62.5q175 0 286.5 -116.5t111.5 -283.5q0 -38 -8 -82h-695q1 -85 32 -153t81.5 -109t112 -62.5t129.5 -21.5q165 0 315 121l-45 -168q-109 -73 -275 -73zM236 555h565q0 102 -77 177t-192 75
q-114 0 -192.5 -68.5t-103.5 -183.5zM270 1147v106h521v-106h-521z" />
    <glyph glyph-name="Ebreve" unicode="&#x114;" horiz-adv-x="1116" 
d="M211 0v1393h760l24 -125h-647v-500h580v-123h-580v-520h670l-27 -125h-780zM322 1812l98 33q13 -99 56.5 -164t117.5 -65t117.5 65t56.5 164l98 -33q-1 -77 -33.5 -146.5t-96 -116t-142.5 -46.5t-142.5 46.5t-96 116t-33.5 146.5z" />
    <glyph glyph-name="ebreve" unicode="&#x115;" horiz-adv-x="1026" 
d="M575 -20q-207 0 -341 133t-134 346q0 130 55.5 237t154 169.5t220.5 62.5q175 0 286.5 -116.5t111.5 -283.5q0 -38 -8 -82h-695q1 -85 32 -153t81.5 -109t112 -62.5t129.5 -21.5q165 0 315 121l-45 -168q-109 -73 -275 -73zM236 555h565q0 102 -77 177t-192 75
q-114 0 -192.5 -68.5t-103.5 -183.5zM258 1368l98 33q13 -99 56.5 -164.5t117.5 -65.5t118 65.5t57 164.5l98 -33q-1 -77 -33.5 -146.5t-96.5 -116t-143 -46.5t-142.5 46.5t-96 116t-33.5 146.5z" />
    <glyph glyph-name="Edotaccent" unicode="&#x116;" horiz-adv-x="1116" 
d="M211 0v1393h760l24 -125h-647v-500h580v-123h-580v-520h670l-27 -125h-780zM510 1665q0 35 24.5 59.5t59.5 24.5q37 0 61.5 -24.5t24.5 -59.5q0 -37 -24.5 -61.5t-61.5 -24.5q-35 0 -59.5 24.5t-24.5 61.5z" />
    <glyph glyph-name="edotaccent" unicode="&#x117;" horiz-adv-x="1026" 
d="M575 -20q-207 0 -341 133t-134 346q0 130 55.5 237t154 169.5t220.5 62.5q175 0 286.5 -116.5t111.5 -283.5q0 -38 -8 -82h-695q1 -85 32 -153t81.5 -109t112 -62.5t129.5 -21.5q165 0 315 121l-45 -168q-109 -73 -275 -73zM236 555h565q0 102 -77 177t-192 75
q-114 0 -192.5 -68.5t-103.5 -183.5zM446 1221q0 35 24.5 59.5t59.5 24.5q37 0 61.5 -24.5t24.5 -59.5q0 -37 -24.5 -61.5t-61.5 -24.5q-35 0 -59.5 24.5t-24.5 61.5z" />
    <glyph glyph-name="Eogonek" unicode="&#x118;" horiz-adv-x="1116" 
d="M991 0q-90 -13 -147.5 -72t-57.5 -121q0 -51 30.5 -80.5t82.5 -29.5q49 0 109 35l43 -76q-64 -49 -164 -49q-86 0 -144.5 51.5t-58.5 142.5q0 57 34 111.5t93 87.5h-600v1393h760l24 -125h-647v-500h580v-123h-580v-520h670z" />
    <glyph glyph-name="eogonek" unicode="&#x119;" horiz-adv-x="1026" 
d="M575 -20q-207 0 -341 133t-134 346q0 130 55.5 237t154 169.5t220.5 62.5q175 0 286.5 -116.5t111.5 -283.5q0 -38 -8 -82h-695q1 -85 32 -153t81.5 -109t112 -62.5t129.5 -21.5q165 0 315 121l-45 -168l-23 -14l2 -4q-88 -50 -130 -116.5t-42 -125.5q0 -45 26.5 -71.5
t64.5 -26.5q66 0 126 63l-10 -108q-49 -64 -143 -64q-73 0 -122.5 51.5t-49.5 135.5q0 112 86 211q-36 -4 -60 -4zM236 555h565q0 102 -77 177t-192 75q-114 0 -192.5 -68.5t-103.5 -183.5z" />
    <glyph glyph-name="Ecaron" unicode="&#x11a;" horiz-adv-x="1116" 
d="M211 0v1393h760l24 -125h-647v-500h580v-123h-580v-520h670l-27 -125h-780zM319 1837h95l180 -231l178 231h94l-213 -332h-121z" />
    <glyph glyph-name="ecaron" unicode="&#x11b;" horiz-adv-x="1026" 
d="M575 -20q-207 0 -341 133t-134 346q0 130 55.5 237t154 169.5t220.5 62.5q175 0 286.5 -116.5t111.5 -283.5q0 -38 -8 -82h-695q1 -85 32 -153t81.5 -109t112 -62.5t129.5 -21.5q165 0 315 121l-45 -168q-109 -73 -275 -73zM236 555h565q0 102 -77 177t-192 75
q-114 0 -192.5 -68.5t-103.5 -183.5zM256 1393h94l180 -232l179 232h94l-213 -332h-121z" />
    <glyph glyph-name="Gcircumflex" unicode="&#x11c;" horiz-adv-x="1445" 
d="M842 -20q-162 0 -300 57.5t-232 155t-146.5 228t-52.5 275.5q0 148 54.5 280t149.5 228.5t232.5 152.5t296.5 56q241 0 411 -100l31 -176q-193 151 -438 151q-94 0 -182 -25.5t-163 -76t-131 -120.5t-88 -165.5t-32 -204.5q0 -258 168.5 -425t429.5 -167q180 0 328 74
v365h-361l39 125h455v-572q-201 -116 -469 -116zM555 1505l213 332h121l213 -332h-94l-179 232l-180 -232h-94z" />
    <glyph glyph-name="gcircumflex" unicode="&#x11d;" horiz-adv-x="972" 
d="M494 -522q-207 0 -327 77.5t-120 211.5q0 84 59 148t177 118q-50 45 -50 110q0 62 64 123q-94 39 -145.5 119t-51.5 180q0 153 108.5 247.5t285.5 94.5h403l45 -121h-209l-2 -2q103 -89 103 -219q0 -141 -99.5 -236.5t-265.5 -95.5q-14 0 -59 5q-48 -39 -48 -78t38 -59.5
t155 -43.5q83 -17 135 -30.5t106.5 -35.5t84 -48.5t48.5 -67.5t19 -94q0 -147 -119 -225t-335 -78zM170 -233q0 -77 86.5 -126t245.5 -49q153 0 238 48.5t85 128.5q0 27 -7.5 47.5t-27 37t-40.5 28t-62.5 23t-77.5 19.5t-100 21q-58 10 -113 28q-116 -47 -171.5 -94.5
t-55.5 -111.5zM215 1061l213 332h121l213 -332h-94l-179 231l-180 -231h-94zM225 565q0 -96 67 -157.5t179 -61.5q109 0 173.5 60.5t64.5 158.5q0 97 -66 160t-174 63q-109 0 -176.5 -63t-67.5 -160z" />
    <glyph glyph-name="Gbreve" unicode="&#x11e;" horiz-adv-x="1445" 
d="M842 -20q-162 0 -300 57.5t-232 155t-146.5 228t-52.5 275.5q0 148 54.5 280t149.5 228.5t232.5 152.5t296.5 56q241 0 411 -100l31 -176q-193 151 -438 151q-94 0 -182 -25.5t-163 -76t-131 -120.5t-88 -165.5t-32 -204.5q0 -258 168.5 -425t429.5 -167q180 0 328 74
v365h-361l39 125h455v-572q-201 -116 -469 -116zM557 1812l98 33q13 -99 56.5 -164t117.5 -65t118 65t57 164l98 -33q-1 -77 -33.5 -146.5t-96.5 -116t-143 -46.5t-142.5 46.5t-96 116t-33.5 146.5z" />
    <glyph glyph-name="gbreve" unicode="&#x11f;" horiz-adv-x="972" 
d="M494 -522q-207 0 -327 77.5t-120 211.5q0 84 59 148t177 118q-50 45 -50 110q0 62 64 123q-94 39 -145.5 119t-51.5 180q0 153 108.5 247.5t285.5 94.5h403l45 -121h-209l-2 -2q103 -89 103 -219q0 -141 -99.5 -236.5t-265.5 -95.5q-14 0 -59 5q-48 -39 -48 -78t38 -59.5
t155 -43.5q83 -17 135 -30.5t106.5 -35.5t84 -48.5t48.5 -67.5t19 -94q0 -147 -119 -225t-335 -78zM170 -233q0 -77 86.5 -126t245.5 -49q153 0 238 48.5t85 128.5q0 27 -7.5 47.5t-27 37t-40.5 28t-62.5 23t-77.5 19.5t-100 21q-58 10 -113 28q-116 -47 -171.5 -94.5
t-55.5 -111.5zM205 1368l98 33q13 -99 56.5 -164.5t117.5 -65.5t117.5 65.5t56.5 164.5l99 -33q-1 -77 -33.5 -146.5t-96.5 -116t-143 -46.5t-142.5 46.5t-96 116t-33.5 146.5zM225 565q0 -96 67 -157.5t179 -61.5q109 0 173.5 60.5t64.5 158.5q0 97 -66 160t-174 63
q-109 0 -176.5 -63t-67.5 -160z" />
    <glyph glyph-name="Gdotaccent" unicode="&#x120;" horiz-adv-x="1445" 
d="M842 -20q-162 0 -300 57.5t-232 155t-146.5 228t-52.5 275.5q0 148 54.5 280t149.5 228.5t232.5 152.5t296.5 56q241 0 411 -100l31 -176q-193 151 -438 151q-94 0 -182 -25.5t-163 -76t-131 -120.5t-88 -165.5t-32 -204.5q0 -258 168.5 -425t429.5 -167q180 0 328 74
v365h-361l39 125h455v-572q-201 -116 -469 -116zM745 1665q0 35 24.5 59.5t59.5 24.5q37 0 61.5 -24.5t24.5 -59.5q0 -37 -24.5 -61.5t-61.5 -24.5q-35 0 -59.5 24.5t-24.5 61.5z" />
    <glyph glyph-name="gdotaccent" unicode="&#x121;" horiz-adv-x="972" 
d="M494 -522q-207 0 -327 77.5t-120 211.5q0 84 59 148t177 118q-50 45 -50 110q0 62 64 123q-94 39 -145.5 119t-51.5 180q0 153 108.5 247.5t285.5 94.5h403l45 -121h-209l-2 -2q103 -89 103 -219q0 -141 -99.5 -236.5t-265.5 -95.5q-14 0 -59 5q-48 -39 -48 -78t38 -59.5
t155 -43.5q83 -17 135 -30.5t106.5 -35.5t84 -48.5t48.5 -67.5t19 -94q0 -147 -119 -225t-335 -78zM170 -233q0 -77 86.5 -126t245.5 -49q153 0 238 48.5t85 128.5q0 27 -7.5 47.5t-27 37t-40.5 28t-62.5 23t-77.5 19.5t-100 21q-58 10 -113 28q-116 -47 -171.5 -94.5
t-55.5 -111.5zM225 565q0 -96 67 -157.5t179 -61.5q109 0 173.5 60.5t64.5 158.5q0 97 -66 160t-174 63q-109 0 -176.5 -63t-67.5 -160zM393 1221q0 35 24.5 59.5t59.5 24.5q37 0 61.5 -24.5t24.5 -59.5q0 -37 -24.5 -61.5t-61.5 -24.5q-35 0 -59.5 24.5t-24.5 61.5z" />
    <glyph glyph-name="uni0122" unicode="&#x122;" horiz-adv-x="1445" 
d="M842 -20q-162 0 -300 57.5t-232 155t-146.5 228t-52.5 275.5q0 148 54.5 280t149.5 228.5t232.5 152.5t296.5 56q241 0 411 -100l31 -176q-193 151 -438 151q-94 0 -182 -25.5t-163 -76t-131 -120.5t-88 -165.5t-32 -204.5q0 -258 168.5 -425t429.5 -167q180 0 328 74
v365h-361l39 125h455v-572q-201 -116 -469 -116zM711 -524q108 119 123 229q-32 5 -54 27t-22 55q0 38 26 63t60 25q45 0 70.5 -32.5t25.5 -90.5q0 -71 -44 -158t-105 -151z" />
    <glyph glyph-name="uni0123" unicode="&#x123;" horiz-adv-x="972" 
d="M494 -522q-207 0 -327 77.5t-120 211.5q0 84 59 148t177 118q-50 45 -50 110q0 62 64 123q-94 39 -145.5 119t-51.5 180q0 153 108.5 247.5t285.5 94.5h403l45 -121h-209l-2 -2q103 -89 103 -219q0 -141 -99.5 -236.5t-265.5 -95.5q-14 0 -59 5q-48 -39 -48 -78t38 -59.5
t155 -43.5q83 -17 135 -30.5t106.5 -35.5t84 -48.5t48.5 -67.5t19 -94q0 -147 -119 -225t-335 -78zM170 -233q0 -77 86.5 -126t245.5 -49q153 0 238 48.5t85 128.5q0 27 -7.5 47.5t-27 37t-40.5 28t-62.5 23t-77.5 19.5t-100 21q-58 10 -113 28q-116 -47 -171.5 -94.5
t-55.5 -111.5zM225 565q0 -96 67 -157.5t179 -61.5q109 0 173.5 60.5t64.5 158.5q0 97 -66 160t-174 63q-109 0 -176.5 -63t-67.5 -160zM375 1153q0 71 44 158t105 151l80 -32q-108 -119 -123 -230q32 -5 54 -27t22 -55q0 -38 -26 -63t-60 -25q-45 0 -70.5 32.5t-25.5 90.5z
" />
    <glyph glyph-name="Hcircumflex" unicode="&#x124;" horiz-adv-x="1511" 
d="M1163 0v633h-815v-633h-137v1393h137v-635h815v635h137v-1393h-137zM483 1505l213 332h121l213 -332h-94l-178 232l-180 -232h-95z" />
    <glyph glyph-name="hcircumflex" unicode="&#x125;" horiz-adv-x="1093" 
d="M813 590q0 105 -65 161t-164 56q-86 0 -165 -47.5t-128 -132.5v-627h-125v1450h125v-664q122 142 309 142q144 0 241 -90.5t97 -231.5v-606h-125v590zM-45 1540l213 332h121l213 -332h-94l-179 232l-180 -232h-94z" />
    <glyph glyph-name="Hbar" unicode="&#x126;" horiz-adv-x="1538" 
d="M1176 0v633h-816v-633h-137v985h-160v107h160v301h137v-301h816v301h137v-301h164v-107h-164v-985h-137zM360 758h816v227h-816v-227z" />
    <glyph glyph-name="hbar" unicode="&#x127;" horiz-adv-x="1093" 
d="M813 590q0 105 -65 161t-164 56q-86 0 -165 -47.5t-128 -132.5v-627h-125v1114h-182v107h182v229h125v-229h237v-107h-237v-328q122 142 309 142q144 0 241 -90.5t97 -231.5v-606h-125v590z" />
    <glyph glyph-name="Itilde" unicode="&#x128;" horiz-adv-x="559" 
d="M211 0v1393h137v-1393h-137zM-31 1559q0 80 51 142t134 62q37 0 69.5 -13.5t56 -32.5t44 -37.5t42 -32t42.5 -13.5q74 0 94 127l88 -22q0 -81 -50.5 -143t-133.5 -62q-37 0 -70 13.5t-56.5 32t-44 37.5t-42 32.5t-41.5 13.5q-75 0 -95 -127z" />
    <glyph glyph-name="itilde" unicode="&#x129;" horiz-adv-x="456" 
d="M166 0v907h125v-907h-125zM-78 1114q0 81 50.5 143t133.5 62q37 0 69.5 -13.5t56 -32.5t44 -37.5t42 -32t42.5 -13.5q75 0 95 127l88 -23q0 -80 -51 -142t-134 -62q-37 0 -70 13.5t-56.5 32t-44 37.5t-42 32.5t-41.5 13.5q-74 0 -94 -127z" />
    <glyph glyph-name="Imacron" unicode="&#x12a;" horiz-adv-x="559" 
d="M211 0v1393h137v-1393h-137zM18 1591v107h521v-107h-521z" />
    <glyph glyph-name="imacron" unicode="&#x12b;" horiz-adv-x="456" 
d="M166 0v907h125v-907h-125zM-29 1147v106h521v-106h-521z" />
    <glyph glyph-name="Ibreve" unicode="&#x12c;" horiz-adv-x="559" 
d="M211 0v1393h137v-1393h-137zM6 1812l98 33q13 -99 57 -164t118 -65t117.5 65t56.5 164l98 -33q-1 -77 -33.5 -146.5t-96 -116t-142.5 -46.5t-143 46.5t-96.5 116t-33.5 146.5z" />
    <glyph glyph-name="ibreve" unicode="&#x12d;" horiz-adv-x="456" 
d="M166 0v907h125v-907h-125zM-41 1368l98 33q13 -99 56.5 -164.5t117.5 -65.5t118 65.5t57 164.5l98 -33q-1 -77 -33.5 -146.5t-96.5 -116t-143 -46.5t-142.5 46.5t-96 116t-33.5 146.5z" />
    <glyph glyph-name="Iogonek" unicode="&#x12e;" horiz-adv-x="561" 
d="M207 -451q-73 0 -122.5 51.5t-49.5 135.5t48 158.5t130 125.5v1373h137v-1393h-35v-2q-88 -50 -130 -116.5t-42 -125.5q0 -46 26 -72t64 -26q67 0 127 63l-10 -108q-49 -64 -143 -64z" />
    <glyph glyph-name="iogonek" unicode="&#x12f;" horiz-adv-x="460" 
d="M236 1135q-35 0 -59.5 24.5t-24.5 61.5q0 35 24.5 59.5t59.5 24.5q37 0 61.5 -24.5t24.5 -59.5q0 -37 -24.5 -61.5t-61.5 -24.5zM-23 -264q0 88 52.5 166.5t140.5 126.5v878h125v-907h-37v-2q-88 -50 -130 -116.5t-42 -125.5q0 -46 26 -72t64 -26q67 0 127 63l-10 -108
q-49 -64 -143 -64q-73 0 -123 51.5t-50 135.5z" />
    <glyph glyph-name="Idotaccent" unicode="&#x130;" horiz-adv-x="559" 
d="M211 0v1393h137v-1393h-137zM195 1665q0 35 24.5 59.5t59.5 24.5q37 0 61.5 -24.5t24.5 -59.5q0 -37 -24.5 -61.5t-61.5 -24.5q-35 0 -59.5 24.5t-24.5 61.5z" />
    <glyph glyph-name="dotlessi" unicode="&#x131;" horiz-adv-x="456" 
d="M166 0v907h125v-907h-125z" />
    <glyph glyph-name="IJ" unicode="&#x132;" horiz-adv-x="1212" 
d="M635 -20q-96 0 -181.5 32t-142.5 76l-18 166q91 -76 168 -110.5t174 -34.5q108 0 176 54t68 159v1071h135v-1059q0 -160 -106.5 -257t-272.5 -97zM211 420v973h135v-973h-135z" />
    <glyph glyph-name="ij" unicode="&#x133;" horiz-adv-x="917" 
d="M166 0v907h125v-907h-125zM137 1257q0 37 26.5 64t63.5 27q38 0 65 -27t27 -64q0 -38 -27 -65t-65 -27q-37 0 -63.5 27t-26.5 65zM479 -512q73 145 110.5 286.5t37.5 327.5v805h125v-805q0 -322 -123 -581zM600 1257q0 37 26.5 64t63.5 27q38 0 65 -27t27 -64
q0 -38 -27 -65t-65 -27q-37 0 -63.5 27t-26.5 65z" />
    <glyph glyph-name="Jcircumflex" unicode="&#x134;" horiz-adv-x="823" 
d="M487 334v1059h138v-1069q0 -163 -97.5 -253.5t-240.5 -90.5q-117 0 -215 67l-23 160q132 -98 234 -98q94 0 149 53.5t55 171.5zM281 1505l213 332h120l213 -332h-94l-178 232l-180 -232h-94z" />
    <glyph glyph-name="jcircumflex" unicode="&#x135;" horiz-adv-x="456" 
d="M18 -512q73 145 110.5 286.5t37.5 327.5v805h125v-805q0 -322 -123 -581zM-43 1061l213 332h121l213 -332h-94l-179 231l-180 -231h-94z" />
    <glyph glyph-name="uni0136" unicode="&#x136;" horiz-adv-x="1282" 
d="M211 0v1393h137v-727l690 727h174l-563 -605l631 -788h-174l-557 694l-201 -215v-479h-137zM522 -524q108 119 123 229q-32 5 -54 27t-22 55q0 38 26 63t60 25q45 0 71 -32.5t26 -90.5q0 -71 -44.5 -157.5t-105.5 -151.5z" />
    <glyph glyph-name="uni0137" unicode="&#x137;" horiz-adv-x="989" 
d="M166 0v1450h125v-989l481 446h172l-393 -364l424 -543h-154l-356 463l-174 -150v-313h-125zM410 -524q107 118 122 229q-32 5 -53.5 27t-21.5 55q0 38 26 63t60 25q45 0 70.5 -32.5t25.5 -90.5q0 -71 -44.5 -157.5t-105.5 -151.5z" />
    <glyph glyph-name="kgreenlandic" unicode="&#x138;" horiz-adv-x="989" 
d="M166 0v907h125v-446l481 446h172l-393 -364l424 -543h-154l-356 463l-174 -150v-313h-125z" />
    <glyph glyph-name="Lacute" unicode="&#x139;" horiz-adv-x="985" 
d="M211 0v1393h137v-1268h596l-26 -125h-707zM205 1505l164 332h163l-227 -332h-100z" />
    <glyph glyph-name="lacute" unicode="&#x13a;" horiz-adv-x="456" 
d="M166 0v1450h125v-1450h-125zM154 1563l163 331h164l-227 -331h-100z" />
    <glyph glyph-name="uni013B" unicode="&#x13b;" horiz-adv-x="985" 
d="M211 0v1393h137v-1268h596l-26 -125h-707zM442 -524q108 119 123 229q-32 5 -54 27t-22 55q0 38 26 63t60 25q45 0 71 -32.5t26 -90.5q0 -71 -44.5 -157.5t-105.5 -151.5z" />
    <glyph glyph-name="uni013C" unicode="&#x13c;" horiz-adv-x="456" 
d="M166 0v1450h125v-1450h-125zM94 -524q108 119 123 229q-32 5 -54 27t-22 55q0 38 26 63t60 25q45 0 71 -32.5t26 -90.5q0 -71 -44.5 -157.5t-105.5 -151.5z" />
    <glyph glyph-name="Lcaron" unicode="&#x13d;" horiz-adv-x="1007" 
d="M211 0v1393h137v-1268h596l-26 -125h-707zM733 1061l80 332h139l-143 -332h-76z" />
    <glyph glyph-name="lcaron" unicode="&#x13e;" horiz-adv-x="479" 
d="M166 0v1450h125v-1450h-125zM403 1118l80 332h140l-144 -332h-76z" />
    <glyph glyph-name="Ldot" unicode="&#x13f;" horiz-adv-x="987" 
d="M211 0v1393h137v-1268h596l-26 -125h-707zM522 766q0 43 35 77t80 34q44 0 78.5 -34t34.5 -77q0 -44 -34.5 -78.5t-78.5 -34.5q-46 0 -80.5 34.5t-34.5 78.5z" />
    <glyph glyph-name="ldot" unicode="&#x140;" horiz-adv-x="514" 
d="M166 0v1450h125v-1450h-125zM342 752q0 43 34.5 76.5t80.5 33.5q44 0 78 -33.5t34 -76.5q0 -44 -34 -78.5t-78 -34.5q-46 0 -80.5 34.5t-34.5 78.5z" />
    <glyph glyph-name="Lslash" unicode="&#x141;" horiz-adv-x="1009" 
d="M236 0v571l-168 -110v127l168 110v695h137v-602l217 143v-127l-217 -143v-539h596l-27 -125h-706z" />
    <glyph glyph-name="lslash" unicode="&#x142;" horiz-adv-x="632" 
d="M258 0v651l-192 -127v127l192 127v672h125v-588l205 135v-127l-205 -135v-735h-125z" />
    <glyph glyph-name="Nacute" unicode="&#x143;" horiz-adv-x="1536" 
d="M1266 -8l-918 1126h-4v-1118h-133v1401h68l907 -1114h4v1106h135v-1401h-59zM698 1505l164 332h164l-227 -332h-101z" />
    <glyph glyph-name="nacute" unicode="&#x144;" horiz-adv-x="1093" 
d="M813 590q0 105 -65 161t-164 56q-86 0 -165 -47.5t-128 -132.5v-627h-125v907h125v-121q122 142 309 142q144 0 241 -90.5t97 -231.5v-606h-125v590zM479 1061l164 332h164l-227 -332h-101z" />
    <glyph glyph-name="uni0145" unicode="&#x145;" horiz-adv-x="1536" 
d="M1266 -8l-918 1126h-4v-1118h-133v1401h68l907 -1114h4v1106h135v-1401h-59zM639 -524q108 119 123 229q-32 5 -54 27t-22 55q0 38 26 63t60 25q45 0 70.5 -32.5t25.5 -90.5q0 -71 -44 -158t-105 -151z" />
    <glyph glyph-name="uni0146" unicode="&#x146;" horiz-adv-x="1093" 
d="M813 590q0 105 -65 161t-164 56q-86 0 -165 -47.5t-128 -132.5v-627h-125v907h125v-121q122 142 309 142q144 0 241 -90.5t97 -231.5v-606h-125v590zM432 -524q108 119 123 229q-32 5 -54 27t-22 55q0 38 26 63t60 25q45 0 71 -32.5t26 -90.5q0 -71 -44.5 -157.5
t-105.5 -151.5z" />
    <glyph glyph-name="Ncaron" unicode="&#x147;" horiz-adv-x="1536" 
d="M1266 -8l-918 1126h-4v-1118h-133v1401h68l907 -1114h4v1106h135v-1401h-59zM500 1837h94l180 -231l178 231h95l-213 -332h-121z" />
    <glyph glyph-name="ncaron" unicode="&#x148;" horiz-adv-x="1093" 
d="M813 590q0 105 -65 161t-164 56q-86 0 -165 -47.5t-128 -132.5v-627h-125v907h125v-121q122 142 309 142q144 0 241 -90.5t97 -231.5v-606h-125v590zM281 1393h94l180 -232l178 232h94l-213 -332h-120z" />
    <glyph glyph-name="Eng" unicode="&#x14a;" horiz-adv-x="1536" 
d="M946 -465q-95 0 -180 32t-143 77l-19 166q92 -77 168.5 -111.5t173.5 -34.5q107 0 175.5 54t68.5 155v119l-842 1126h-4v-1118h-133v1401h68l907 -1198h4v1190h135v-1508q0 -160 -106.5 -255t-272.5 -95z" />
    <glyph glyph-name="eng" unicode="&#x14b;" horiz-adv-x="1093" 
d="M600 928q144 0 241 -90.5t97 -231.5v-504q0 -322 -123 -581l-149 -33q73 144 110 285.5t37 328.5v488q0 105 -65 161t-164 56q-86 0 -165 -47.5t-128 -132.5v-627h-125v907h125v-121q122 142 309 142z" />
    <glyph glyph-name="Omacron" unicode="&#x14c;" horiz-adv-x="1609" 
d="M805 -20q-144 0 -272.5 55t-220.5 149.5t-145.5 227t-53.5 282.5q0 200 91 365t249.5 259.5t351.5 94.5t352 -94.5t249.5 -259.5t90.5 -365q0 -150 -53 -282.5t-145 -227t-220.5 -149.5t-273.5 -55zM254 694q0 -134 46.5 -246.5t124.5 -185t176.5 -113t203.5 -40.5
q106 0 204.5 40.5t176 113t124 185t46.5 246.5q0 135 -46.5 248.5t-124 187t-176 114t-204.5 40.5t-204 -40.5t-176 -114t-124.5 -187t-46.5 -248.5zM545 1591v107h520v-107h-520z" />
    <glyph glyph-name="omacron" unicode="&#x14d;" horiz-adv-x="1124" 
d="M561 -20q-199 0 -330 136t-131 337q0 202 130.5 338.5t330.5 136.5q202 0 332.5 -136t130.5 -339q0 -202 -130.5 -337.5t-332.5 -135.5zM229 453q0 -156 96 -254.5t236 -98.5q141 0 237.5 98t96.5 255q0 159 -96 256.5t-238 97.5q-140 0 -236 -97.5t-96 -256.5zM301 1147
v106h520v-106h-520z" />
    <glyph glyph-name="Obreve" unicode="&#x14e;" horiz-adv-x="1609" 
d="M805 -20q-144 0 -272.5 55t-220.5 149.5t-145.5 227t-53.5 282.5q0 200 91 365t249.5 259.5t351.5 94.5t352 -94.5t249.5 -259.5t90.5 -365q0 -150 -53 -282.5t-145 -227t-220.5 -149.5t-273.5 -55zM254 694q0 -134 46.5 -246.5t124.5 -185t176.5 -113t203.5 -40.5
q106 0 204.5 40.5t176 113t124 185t46.5 246.5q0 135 -46.5 248.5t-124 187t-176 114t-204.5 40.5t-204 -40.5t-176 -114t-124.5 -187t-46.5 -248.5zM532 1812l99 33q13 -99 56.5 -164t117.5 -65t117.5 65t56.5 164l98 -33q-1 -77 -33.5 -146.5t-96 -116t-142.5 -46.5
t-143 46.5t-96.5 116t-33.5 146.5z" />
    <glyph glyph-name="obreve" unicode="&#x14f;" horiz-adv-x="1124" 
d="M561 -20q-199 0 -330 136t-131 337q0 202 130.5 338.5t330.5 136.5q202 0 332.5 -136t130.5 -339q0 -202 -130.5 -337.5t-332.5 -135.5zM229 453q0 -156 96 -254.5t236 -98.5q141 0 237.5 98t96.5 255q0 159 -96 256.5t-238 97.5q-140 0 -236 -97.5t-96 -256.5zM289 1368
l98 33q13 -99 56.5 -164.5t117.5 -65.5t117.5 65.5t56.5 164.5l99 -33q-1 -77 -33.5 -146.5t-96.5 -116t-143 -46.5t-142.5 46.5t-96 116t-33.5 146.5z" />
    <glyph glyph-name="Ohungarumlaut" unicode="&#x150;" horiz-adv-x="1609" 
d="M805 -20q-144 0 -272.5 55t-220.5 149.5t-145.5 227t-53.5 282.5q0 200 91 365t249.5 259.5t351.5 94.5t352 -94.5t249.5 -259.5t90.5 -365q0 -150 -53 -282.5t-145 -227t-220.5 -149.5t-273.5 -55zM254 694q0 -134 46.5 -246.5t124.5 -185t176.5 -113t203.5 -40.5
q106 0 204.5 40.5t176 113t124 185t46.5 246.5q0 135 -46.5 248.5t-124 187t-176 114t-204.5 40.5t-204 -40.5t-176 -114t-124.5 -187t-46.5 -248.5zM612 1501l140 332h141l-182 -332h-99zM854 1501l139 332h142l-183 -332h-98z" />
    <glyph glyph-name="ohungarumlaut" unicode="&#x151;" horiz-adv-x="1124" 
d="M561 -20q-199 0 -330 136t-131 337q0 202 130.5 338.5t330.5 136.5q202 0 332.5 -136t130.5 -339q0 -202 -130.5 -337.5t-332.5 -135.5zM229 453q0 -156 96 -254.5t236 -98.5q141 0 237.5 98t96.5 255q0 159 -96 256.5t-238 97.5q-140 0 -236 -97.5t-96 -256.5zM369 1057
l139 332h141l-182 -332h-98zM610 1057l140 332h141l-182 -332h-99z" />
    <glyph glyph-name="OE" unicode="&#x152;" horiz-adv-x="2260" 
d="M805 -20q-144 0 -272.5 55t-220.5 149.5t-145.5 227t-53.5 282.5q0 200 91 365t249.5 259.5t351.5 94.5q173 0 315.5 -77t235.5 -212v269h760l20 -125h-643v-500h580v-123h-580v-520h670l-27 -125h-780v264q-93 -133 -235 -208.5t-316 -75.5zM254 694
q-1 -132 45.5 -244.5t124 -185.5t176 -114t203.5 -41q106 0 205 41t176 114t124 185t48 245q1 135 -45.5 248t-124 186.5t-176.5 114.5t-205 41q-105 0 -203.5 -41t-176 -114.5t-124 -186.5t-47.5 -248z" />
    <glyph glyph-name="oe" unicode="&#x153;" horiz-adv-x="1826" 
d="M561 -20q-199 0 -330 136t-131 337q0 202 130.5 338.5t330.5 136.5q133 0 235.5 -62.5t159.5 -171.5q55 107 154 170.5t221 63.5q175 0 286.5 -116.5t111.5 -283.5q0 -34 -9 -84h-694q2 -84 32.5 -151t81 -108t111.5 -62t129 -21q168 0 316 119l-45 -168
q-109 -73 -275 -73q-139 0 -249 63t-169 174q-55 -110 -158.5 -173.5t-238.5 -63.5zM229 453q0 -156 96 -252.5t236 -96.5q142 0 238 96.5t96 252.5q0 159 -96 254.5t-238 95.5q-141 0 -236.5 -96t-95.5 -254zM1036 555h566q0 102 -77 175t-192 73q-113 0 -191.5 -67.5
t-105.5 -180.5z" />
    <glyph glyph-name="Racute" unicode="&#x154;" horiz-adv-x="1226" 
d="M211 0v1393h377q212 0 334 -112.5t122 -291.5q0 -140 -76.5 -244t-209.5 -147l463 -598h-170l-437 573q-12 -2 -36 -2h-230v-571h-137zM348 694h230q152 0 239.5 76t87.5 211q0 136 -87.5 211.5t-229.5 75.5h-240v-574zM502 1505l164 332h163l-227 -332h-100z" />
    <glyph glyph-name="racute" unicode="&#x155;" horiz-adv-x="681" 
d="M166 0v907h125v-153q65 89 153 130.5t185 28.5l18 -122q-107 23 -198.5 -22.5t-157.5 -154.5v-614h-125zM272 1061l164 332h164l-227 -332h-101z" />
    <glyph glyph-name="uni0156" unicode="&#x156;" horiz-adv-x="1226" 
d="M211 0v1393h377q212 0 334 -112.5t122 -291.5q0 -140 -76.5 -244t-209.5 -147l463 -598h-170l-437 573q-12 -2 -36 -2h-230v-571h-137zM348 694h230q152 0 239.5 76t87.5 211q0 136 -87.5 211.5t-229.5 75.5h-240v-574zM500 -524q108 119 123 229q-32 5 -54 27t-22 55
q0 38 26 63t60 25q45 0 70.5 -32.5t25.5 -90.5q0 -71 -44 -158t-105 -151z" />
    <glyph glyph-name="uni0157" unicode="&#x157;" horiz-adv-x="681" 
d="M166 0v907h125v-153q65 89 153 130.5t185 28.5l18 -122q-107 23 -198.5 -22.5t-157.5 -154.5v-614h-125zM96 -524q108 119 123 229q-32 5 -54 27t-22 55q0 38 26 63t60 25q45 0 71 -32.5t26 -90.5q0 -71 -44.5 -157.5t-105.5 -151.5z" />
    <glyph glyph-name="Rcaron" unicode="&#x158;" horiz-adv-x="1226" 
d="M211 0v1393h377q212 0 334 -112.5t122 -291.5q0 -140 -76.5 -244t-209.5 -147l463 -598h-170l-437 573q-12 -2 -36 -2h-230v-571h-137zM303 1837h94l181 -231l178 231h94l-213 -332h-121zM348 694h230q152 0 239.5 76t87.5 211q0 136 -87.5 211.5t-229.5 75.5h-240v-574z
" />
    <glyph glyph-name="rcaron" unicode="&#x159;" horiz-adv-x="681" 
d="M166 0v907h125v-153q65 89 153 130.5t185 28.5l18 -122q-107 23 -198.5 -22.5t-157.5 -154.5v-614h-125zM74 1393h94l180 -232l178 232h95l-213 -332h-121z" />
    <glyph glyph-name="Sacute" unicode="&#x15a;" horiz-adv-x="1073" 
d="M541 -16q-238 0 -414 133l-33 190q87 -91 211 -142.5t244 -51.5q126 0 203 65t77 176q0 46 -15.5 85t-38 66.5t-66 57t-79 48t-98.5 48.5t-100.5 49.5t-87 49.5t-78.5 58.5t-57 65.5t-40.5 82t-12.5 97q0 157 117.5 254.5t306.5 97.5q81 0 162 -20.5t141 -59.5l30 -178
q-156 129 -342 129q-129 0 -201.5 -63t-72.5 -156q0 -23 5.5 -44.5t12.5 -38.5t23 -35.5t27 -31t35.5 -29t37.5 -25.5t43.5 -24.5t43.5 -22t47.5 -23t45.5 -21.5q83 -40 139.5 -75t109 -84t78.5 -111t26 -138q0 -172 -123 -275t-307 -103zM483 1505l164 332h164l-227 -332
h-101z" />
    <glyph glyph-name="sacute" unicode="&#x15b;" horiz-adv-x="823" 
d="M420 -20q-169 0 -289 86l-27 157q156 -123 306 -123q95 0 144.5 36.5t49.5 96.5q0 57 -46.5 92.5t-162.5 77.5q-33 12 -52 19.5t-52.5 23t-54.5 29t-47 36t-40.5 46t-25 55.5t-10.5 68q0 107 81 177.5t222 70.5q140 0 250 -78l18 -152q-133 109 -272 109
q-85 0 -128.5 -34.5t-43.5 -90.5t46.5 -88t174.5 -82q52 -20 85.5 -35.5t72 -39.5t60.5 -49.5t37 -62.5t15 -81q0 -114 -84.5 -189t-226.5 -75zM340 1061l164 332h164l-228 -332h-100z" />
    <glyph glyph-name="Scircumflex" unicode="&#x15c;" horiz-adv-x="1073" 
d="M541 -16q-238 0 -414 133l-33 190q87 -91 211 -142.5t244 -51.5q126 0 203 65t77 176q0 46 -15.5 85t-38 66.5t-66 57t-79 48t-98.5 48.5t-100.5 49.5t-87 49.5t-78.5 58.5t-57 65.5t-40.5 82t-12.5 97q0 157 117.5 254.5t306.5 97.5q81 0 162 -20.5t141 -59.5l30 -178
q-156 129 -342 129q-129 0 -201.5 -63t-72.5 -156q0 -23 5.5 -44.5t12.5 -38.5t23 -35.5t27 -31t35.5 -29t37.5 -25.5t43.5 -24.5t43.5 -22t47.5 -23t45.5 -21.5q83 -40 139.5 -75t109 -84t78.5 -111t26 -138q0 -172 -123 -275t-307 -103zM285 1505l213 332h120l213 -332
h-94l-178 232l-180 -232h-94z" />
    <glyph glyph-name="scircumflex" unicode="&#x15d;" horiz-adv-x="823" 
d="M420 -20q-169 0 -289 86l-27 157q156 -123 306 -123q95 0 144.5 36.5t49.5 96.5q0 57 -46.5 92.5t-162.5 77.5q-33 12 -52 19.5t-52.5 23t-54.5 29t-47 36t-40.5 46t-25 55.5t-10.5 68q0 107 81 177.5t222 70.5q140 0 250 -78l18 -152q-133 109 -272 109
q-85 0 -128.5 -34.5t-43.5 -90.5t46.5 -88t174.5 -82q52 -20 85.5 -35.5t72 -39.5t60.5 -49.5t37 -62.5t15 -81q0 -114 -84.5 -189t-226.5 -75zM141 1061l213 332h121l213 -332h-94l-178 231l-180 -231h-95z" />
    <glyph glyph-name="Scedilla" unicode="&#x15e;" horiz-adv-x="1073" 
d="M551 -442q-87 0 -154 43l-14 116q78 -63 164 -63q34 0 64 21.5t30 54.5q0 42 -40 65t-146 23l53 166q-218 10 -381 133l-33 190q87 -91 211 -142.5t244 -51.5q126 0 203 65t77 176q0 46 -15.5 85t-38 66.5t-66 57t-79 48t-98.5 48.5t-100.5 49.5t-87 49.5t-78.5 58.5
t-57 65.5t-40.5 82t-12.5 97q0 157 117.5 254.5t306.5 97.5q81 0 162 -20.5t141 -59.5l30 -178q-156 129 -342 129q-129 0 -201.5 -63t-72.5 -156q0 -23 5.5 -44.5t12.5 -38.5t23 -35.5t27 -31t35.5 -29t37.5 -25.5t43.5 -24.5t43.5 -22t47.5 -23t45.5 -21.5
q83 -40 139.5 -75t109 -84t78.5 -111t26 -138q0 -157 -104.5 -257.5t-266.5 -118.5l-29 -86q92 -8 134.5 -55.5t42.5 -114.5q0 -77 -58 -124.5t-139 -47.5z" />
    <glyph glyph-name="scedilla" unicode="&#x15f;" horiz-adv-x="823" 
d="M403 -442q-86 0 -153 43l-14 116q78 -63 163 -63q34 0 64.5 21.5t30.5 54.5q0 41 -40.5 64.5t-146.5 23.5l53 164q-133 13 -229 84l-27 157q156 -123 306 -123q95 0 144.5 36.5t49.5 96.5q0 57 -46.5 92.5t-162.5 77.5q-33 12 -52 19.5t-52.5 23t-54.5 29t-47 36
t-40.5 46t-25 55.5t-10.5 68q0 107 81 177.5t222 70.5q140 0 250 -78l18 -152q-133 109 -272 109q-85 0 -128.5 -34.5t-43.5 -90.5t46.5 -88t174.5 -82q52 -20 85.5 -35.5t72 -39.5t60.5 -49.5t37 -62.5t15 -81q0 -107 -75.5 -181t-204.5 -83l-27 -80q92 -8 134 -55.5
t42 -114.5q0 -77 -58 -124.5t-139 -47.5z" />
    <glyph glyph-name="Scaron" unicode="&#x160;" horiz-adv-x="1073" 
d="M541 -16q-238 0 -414 133l-33 190q87 -91 211 -142.5t244 -51.5q126 0 203 65t77 176q0 46 -15.5 85t-38 66.5t-66 57t-79 48t-98.5 48.5t-100.5 49.5t-87 49.5t-78.5 58.5t-57 65.5t-40.5 82t-12.5 97q0 157 117.5 254.5t306.5 97.5q81 0 162 -20.5t141 -59.5l30 -178
q-156 129 -342 129q-129 0 -201.5 -63t-72.5 -156q0 -23 5.5 -44.5t12.5 -38.5t23 -35.5t27 -31t35.5 -29t37.5 -25.5t43.5 -24.5t43.5 -22t47.5 -23t45.5 -21.5q83 -40 139.5 -75t109 -84t78.5 -111t26 -138q0 -172 -123 -275t-307 -103zM285 1837h94l180 -231l178 231h94
l-213 -332h-120z" />
    <glyph glyph-name="scaron" unicode="&#x161;" horiz-adv-x="823" 
d="M420 -20q-169 0 -289 86l-27 157q156 -123 306 -123q95 0 144.5 36.5t49.5 96.5q0 57 -46.5 92.5t-162.5 77.5q-33 12 -52 19.5t-52.5 23t-54.5 29t-47 36t-40.5 46t-25 55.5t-10.5 68q0 107 81 177.5t222 70.5q140 0 250 -78l18 -152q-133 109 -272 109
q-85 0 -128.5 -34.5t-43.5 -90.5t46.5 -88t174.5 -82q52 -20 85.5 -35.5t72 -39.5t60.5 -49.5t37 -62.5t15 -81q0 -114 -84.5 -189t-226.5 -75zM141 1393h95l180 -232l178 232h94l-213 -332h-121z" />
    <glyph glyph-name="uni0162" unicode="&#x162;" horiz-adv-x="1153" 
d="M508 0v1268h-463v125h1063v-125h-463v-1268h-18l-33 -100q92 -8 134 -55.5t42 -114.5q0 -77 -58 -124.5t-139 -47.5q-86 0 -153 43l-14 116q78 -63 163 -63q34 0 64.5 21.5t30.5 54.5q0 41 -40.5 64.5t-146.5 23.5l60 182h-29z" />
    <glyph glyph-name="uni0163" unicode="&#x163;" horiz-adv-x="770" 
d="M451 -442q-87 0 -154 43l-14 116q78 -63 163 -63q34 0 64.5 21.5t30.5 54.5q0 41 -40.5 64.5t-146.5 23.5l54 170q-99 15 -151 81.5t-52 168.5v555h-146v36l234 222h41v-144h379l-31 -114h-348l-2 -545q0 -68 37.5 -109t107.5 -41q122 0 242 90l-19 -143
q-77 -56 -202 -63l-27 -82q92 -8 134 -55.5t42 -114.5q0 -77 -57.5 -124.5t-138.5 -47.5z" />
    <glyph glyph-name="Tcaron" unicode="&#x164;" horiz-adv-x="1153" 
d="M508 0v1268h-463v125h1063v-125h-463v-1268h-137zM303 1837h94l181 -231l178 231h94l-213 -332h-121z" />
    <glyph glyph-name="tcaron" unicode="&#x165;" horiz-adv-x="770" 
d="M475 -18q-133 0 -201.5 68.5t-68.5 187.5v555h-146v36l234 222h41v-144h379l-31 -114h-348l-2 -545q0 -68 37.5 -109t107.5 -41q122 0 242 90l-19 -143q-86 -63 -225 -63zM530 1061l80 332h140l-144 -332h-76z" />
    <glyph glyph-name="Tbar" unicode="&#x166;" horiz-adv-x="1165" 
d="M514 0v641h-203v107h203v520h-463v125h1063v-125h-463v-520h205v-107h-205v-641h-137z" />
    <glyph glyph-name="tbar" unicode="&#x167;" horiz-adv-x="776" 
d="M477 -18q-133 0 -201.5 68.5t-68.5 187.5v172h-78v106h78v277h-146v36l234 222h41v-144h379l-31 -114h-348l-2 -277h340v-106h-340v-162q0 -68 37.5 -109t107.5 -41q122 0 242 90l-19 -143q-86 -63 -225 -63z" />
    <glyph glyph-name="Utilde" unicode="&#x168;" horiz-adv-x="1492" 
d="M748 -20q-175 0 -303 78.5t-190 207.5t-62 291v836h137v-834q0 -212 109.5 -333.5t308.5 -121.5q195 0 306 122t111 329v838h135v-838q0 -161 -62.5 -289.5t-189.5 -207t-300 -78.5zM440 1559q0 80 51 142t134 62q37 0 69.5 -13.5t56 -32.5t44 -37.5t42 -32t42.5 -13.5
q74 0 94 127l88 -22q0 -81 -50.5 -143t-133.5 -62q-37 0 -70 13.5t-56.5 32t-44 37.5t-42 32.5t-41.5 13.5q-75 0 -95 -127z" />
    <glyph glyph-name="utilde" unicode="&#x169;" horiz-adv-x="1093" 
d="M281 317q0 -105 65 -161t164 -56q86 0 165 48t128 133v626h125v-907h-125v121q-121 -141 -309 -141q-144 0 -241 90t-97 231v606h125v-590zM238 1114q0 81 50.5 143t133.5 62q37 0 69.5 -13.5t56 -32.5t44 -37.5t42 -32t42.5 -13.5q74 0 94 127l88 -23q0 -80 -50.5 -142
t-133.5 -62q-37 0 -70 13.5t-56.5 32t-44 37.5t-42 32.5t-41.5 13.5q-74 0 -94 -127z" />
    <glyph glyph-name="Umacron" unicode="&#x16a;" horiz-adv-x="1492" 
d="M748 -20q-175 0 -303 78.5t-190 207.5t-62 291v836h137v-834q0 -212 109.5 -333.5t308.5 -121.5q195 0 306 122t111 329v838h135v-838q0 -161 -62.5 -289.5t-189.5 -207t-300 -78.5zM489 1591v107h521v-107h-521z" />
    <glyph glyph-name="umacron" unicode="&#x16b;" horiz-adv-x="1093" 
d="M281 317q0 -105 65 -161t164 -56q86 0 165 48t128 133v626h125v-907h-125v121q-121 -141 -309 -141q-144 0 -241 90t-97 231v606h125v-590zM287 1147v106h520v-106h-520z" />
    <glyph glyph-name="Ubreve" unicode="&#x16c;" horiz-adv-x="1492" 
d="M748 -20q-175 0 -303 78.5t-190 207.5t-62 291v836h137v-834q0 -212 109.5 -333.5t308.5 -121.5q195 0 306 122t111 329v838h135v-838q0 -161 -62.5 -289.5t-189.5 -207t-300 -78.5zM477 1812l98 33q13 -99 57 -164t118 -65t117.5 65t56.5 164l98 -33
q-1 -77 -33.5 -146.5t-96 -116t-142.5 -46.5t-143 46.5t-96.5 116t-33.5 146.5z" />
    <glyph glyph-name="ubreve" unicode="&#x16d;" horiz-adv-x="1093" 
d="M281 317q0 -105 65 -161t164 -56q86 0 165 48t128 133v626h125v-907h-125v121q-121 -141 -309 -141q-144 0 -241 90t-97 231v606h125v-590zM274 1368l99 33q13 -99 56.5 -164.5t117.5 -65.5t117.5 65.5t56.5 164.5l98 -33q-1 -77 -33.5 -146.5t-96 -116t-142.5 -46.5
t-143 46.5t-96.5 116t-33.5 146.5z" />
    <glyph glyph-name="Uring" unicode="&#x16e;" horiz-adv-x="1492" 
d="M748 -20q-175 0 -303 78.5t-190 207.5t-62 291v836h137v-834q0 -212 109.5 -333.5t308.5 -121.5q195 0 306 122t111 329v838h135v-838q0 -161 -62.5 -289.5t-189.5 -207t-300 -78.5zM557 1683q0 78 56 133.5t137 55.5t136.5 -55t55.5 -134q0 -80 -55.5 -135t-136.5 -55
q-82 0 -137.5 55t-55.5 135zM639 1683q0 -47 32.5 -78.5t78.5 -31.5t78 31.5t32 78.5q0 46 -32 77.5t-78 31.5t-78.5 -31.5t-32.5 -77.5z" />
    <glyph glyph-name="uring" unicode="&#x16f;" horiz-adv-x="1093" 
d="M281 317q0 -105 65 -161t164 -56q86 0 165 48t128 133v626h125v-907h-125v121q-121 -141 -309 -141q-144 0 -241 90t-97 231v606h125v-590zM354 1239q0 78 56 133t137 55t136.5 -55t55.5 -133q0 -80 -55.5 -135t-136.5 -55q-82 0 -137.5 55t-55.5 135zM436 1239
q0 -47 32.5 -79t78.5 -32t78 32t32 79q0 46 -32 77.5t-78 31.5t-78.5 -31.5t-32.5 -77.5z" />
    <glyph glyph-name="Uhungarumlaut" unicode="&#x170;" horiz-adv-x="1492" 
d="M748 -20q-175 0 -303 78.5t-190 207.5t-62 291v836h137v-834q0 -212 109.5 -333.5t308.5 -121.5q195 0 306 122t111 329v838h135v-838q0 -161 -62.5 -289.5t-189.5 -207t-300 -78.5zM557 1501l139 332h142l-183 -332h-98zM799 1501l139 332h141l-182 -332h-98z" />
    <glyph glyph-name="uhungarumlaut" unicode="&#x171;" horiz-adv-x="1093" 
d="M281 317q0 -105 65 -161t164 -56q86 0 165 48t128 133v626h125v-907h-125v121q-121 -141 -309 -141q-144 0 -241 90t-97 231v606h125v-590zM354 1057l140 332h141l-182 -332h-99zM596 1057l139 332h142l-183 -332h-98z" />
    <glyph glyph-name="Uogonek" unicode="&#x172;" horiz-adv-x="1492" 
d="M795 -451q-73 0 -122.5 51.5t-49.5 135.5q0 68 32 132t88 112q-132 1 -237.5 46t-173 123.5t-103.5 182.5t-36 225v836h137v-834q0 -212 109.5 -333.5t308.5 -121.5q195 0 306 122t111 329v838h135v-838q0 -207 -104 -359t-293 -198q-88 -50 -130 -116.5t-42 -125.5
q0 -46 26 -72t64 -26q67 0 127 63l-10 -108q-49 -64 -143 -64z" />
    <glyph glyph-name="uogonek" unicode="&#x173;" horiz-adv-x="1093" 
d="M281 317q0 -105 65 -161t164 -56q86 0 165 48t128 133v626h125v-907h-27v-2q-88 -50 -130 -116.5t-42 -125.5q0 -46 26 -72t64 -26q67 0 127 63l-10 -108q-49 -64 -143 -64q-73 0 -122.5 51.5t-49.5 135.5q0 85 49.5 162t132.5 125v98q-121 -141 -309 -141
q-144 0 -241 90t-97 231v606h125v-590z" />
    <glyph glyph-name="Wcircumflex" unicode="&#x174;" horiz-adv-x="1964" 
d="M516 -12l-479 1405h143l365 -1104h8l405 1110h52l407 -1110h8l361 1104h141l-481 -1405h-55l-406 1118l-410 -1118h-59zM711 1505l213 332h120l213 -332h-94l-178 232l-180 -232h-94z" />
    <glyph glyph-name="wcircumflex" unicode="&#x175;" horiz-adv-x="1480" 
d="M391 -12l-354 919h135l254 -682l293 693h43l299 -695l254 684h129l-354 -919h-54l-297 682l-295 -682h-53zM461 1061l213 332h121l213 -332h-95l-178 231l-180 -231h-94z" />
    <glyph glyph-name="Ycircumflex" unicode="&#x176;" horiz-adv-x="1230" 
d="M547 0v586l-510 807h162l419 -674l420 674h156l-510 -805v-588h-137zM342 1505l213 332h121l213 -332h-94l-179 232l-180 -232h-94z" />
    <glyph glyph-name="ycircumflex" unicode="&#x177;" horiz-adv-x="968" 
d="M195 -506l229 529l-385 884h137q56 -134 174 -407t142 -328q41 93 313 735h131l-610 -1413h-131zM213 1061l213 332h121l213 -332h-94l-179 231l-180 -231h-94z" />
    <glyph glyph-name="Ydieresis" unicode="&#x178;" horiz-adv-x="1230" 
d="M547 0v586l-510 807h162l419 -674l420 674h156l-510 -805v-588h-137zM352 1675q0 35 24.5 59.5t59.5 24.5q37 0 61.5 -24.5t24.5 -59.5q0 -37 -24.5 -61.5t-61.5 -24.5q-35 0 -59.5 24.5t-24.5 61.5zM715 1675q0 35 24.5 59.5t59.5 24.5q37 0 61.5 -24.5t24.5 -59.5
q0 -37 -24.5 -61.5t-61.5 -24.5q-35 0 -59.5 24.5t-24.5 61.5z" />
    <glyph glyph-name="Zacute" unicode="&#x179;" horiz-adv-x="1173" 
d="M68 0v55l825 1213h-811l20 125h996v-56l-828 -1212h834l-21 -125h-1015zM530 1505l164 332h164l-227 -332h-101z" />
    <glyph glyph-name="zacute" unicode="&#x17a;" horiz-adv-x="905" 
d="M80 0v47l549 746h-553l28 114h719v-47l-549 -745h557l-28 -115h-723zM383 1061l164 332h164l-228 -332h-100z" />
    <glyph glyph-name="Zdotaccent" unicode="&#x17b;" horiz-adv-x="1173" 
d="M68 0v55l825 1213h-811l20 125h996v-56l-828 -1212h834l-21 -125h-1015zM522 1665q0 35 24.5 59.5t59.5 24.5q37 0 61.5 -24.5t24.5 -59.5q0 -37 -24.5 -61.5t-61.5 -24.5q-35 0 -59.5 24.5t-24.5 61.5z" />
    <glyph glyph-name="zdotaccent" unicode="&#x17c;" horiz-adv-x="905" 
d="M80 0v47l549 746h-553l28 114h719v-47l-549 -745h557l-28 -115h-723zM375 1221q0 35 24.5 59.5t59.5 24.5q37 0 61.5 -24.5t24.5 -59.5q0 -37 -24.5 -61.5t-61.5 -24.5q-35 0 -59.5 24.5t-24.5 61.5z" />
    <glyph glyph-name="Zcaron" unicode="&#x17d;" horiz-adv-x="1173" 
d="M68 0v55l825 1213h-811l20 125h996v-56l-828 -1212h834l-21 -125h-1015zM332 1837h94l180 -231l178 231h95l-213 -332h-121z" />
    <glyph glyph-name="zcaron" unicode="&#x17e;" horiz-adv-x="905" 
d="M80 0v47l549 746h-553l28 114h719v-47l-549 -745h557l-28 -115h-723zM184 1393h95l180 -232l178 232h94l-213 -332h-121z" />
    <glyph glyph-name="florin" unicode="&#x192;" horiz-adv-x="1083" 
d="M-8 -459q-39 0 -87.5 8.5t-74.5 20.5l-23 143q69 -45 177 -45q257 0 301 275l133 845h-144l31 119h131l15 88q32 202 143.5 306t286.5 104q98 0 163 -35v-137q-78 51 -178 51q-118 0 -192 -73t-94 -207l-15 -97h252l-31 -119h-241l-133 -839q-34 -210 -143.5 -309
t-276.5 -99z" />
    <glyph glyph-name="uni0218" unicode="&#x218;" horiz-adv-x="1073" 
d="M541 -16q-238 0 -414 133l-33 190q87 -91 211 -142.5t244 -51.5q126 0 203 65t77 176q0 46 -15.5 85t-38 66.5t-66 57t-79 48t-98.5 48.5t-100.5 49.5t-87 49.5t-78.5 58.5t-57 65.5t-40.5 82t-12.5 97q0 157 117.5 254.5t306.5 97.5q81 0 162 -20.5t141 -59.5l30 -178
q-156 129 -342 129q-129 0 -201.5 -63t-72.5 -156q0 -23 5.5 -44.5t12.5 -38.5t23 -35.5t27 -31t35.5 -29t37.5 -25.5t43.5 -24.5t43.5 -22t47.5 -23t45.5 -21.5q83 -40 139.5 -75t109 -84t78.5 -111t26 -138q0 -172 -123 -275t-307 -103zM422 -524q108 119 123 229
q-32 5 -54 27t-22 55q0 38 26 63t60 25q45 0 70.5 -32.5t25.5 -90.5q0 -71 -44 -158t-105 -151z" />
    <glyph glyph-name="uni0219" unicode="&#x219;" horiz-adv-x="823" 
d="M420 -20q-169 0 -289 86l-27 157q156 -123 306 -123q95 0 144.5 36.5t49.5 96.5q0 57 -46.5 92.5t-162.5 77.5q-33 12 -52 19.5t-52.5 23t-54.5 29t-47 36t-40.5 46t-25 55.5t-10.5 68q0 107 81 177.5t222 70.5q140 0 250 -78l18 -152q-133 109 -272 109
q-85 0 -128.5 -34.5t-43.5 -90.5t46.5 -88t174.5 -82q52 -20 85.5 -35.5t72 -39.5t60.5 -49.5t37 -62.5t15 -81q0 -114 -84.5 -189t-226.5 -75zM274 -524q108 119 123 229q-32 5 -53.5 27t-21.5 55q0 38 26 63t60 25q45 0 70.5 -32.5t25.5 -90.5q0 -71 -44.5 -157.5
t-105.5 -151.5z" />
    <glyph glyph-name="uni021A" unicode="&#x21a;" horiz-adv-x="1153" 
d="M508 0v1268h-463v125h1063v-125h-463v-1268h-137zM444 -524q108 119 123 229q-32 5 -53.5 27t-21.5 55q0 38 26 63t60 25q45 0 70.5 -32.5t25.5 -90.5q0 -71 -44.5 -157.5t-105.5 -151.5z" />
    <glyph glyph-name="uni021B" unicode="&#x21b;" horiz-adv-x="770" 
d="M475 -18q-133 0 -201.5 68.5t-68.5 187.5v555h-146v36l234 222h41v-144h379l-31 -114h-348l-2 -545q0 -68 37.5 -109t107.5 -41q122 0 242 90l-19 -143q-86 -63 -225 -63zM322 -524q107 118 122 229q-32 5 -53.5 27t-21.5 55q0 38 26 63t60 25q45 0 70.5 -32.5
t25.5 -90.5q0 -71 -44.5 -157.5t-105.5 -151.5z" />
    <glyph glyph-name="uni0237" unicode="&#x237;" horiz-adv-x="456" 
d="M18 -512q73 145 110.5 286.5t37.5 327.5v805h125v-805q0 -322 -123 -581z" />
    <glyph glyph-name="uni0259" unicode="&#x259;" horiz-adv-x="1026" 
d="M451 928q207 0 341 -133t134 -346q0 -130 -55.5 -237t-154 -169.5t-220.5 -62.5q-175 0 -286.5 116t-111.5 283q0 38 8 82h695q-1 85 -32 153t-81.5 109t-112 62.5t-129.5 21.5q-165 0 -315 -121l45 168q48 33 121 53.5t154 20.5zM225 352q0 -102 77 -177t192 -75
q114 0 193 69t104 183h-566z" />
    <glyph glyph-name="circumflex" unicode="&#x2c6;" horiz-adv-x="1128" 
d="M502 1354h121l213 -332h-95l-178 231l-180 -231h-94z" />
    <glyph glyph-name="caron" unicode="&#x2c7;" horiz-adv-x="1128" 
d="M502 1020l-213 332h94l180 -232l178 232h95l-213 -332h-121z" />
    <glyph glyph-name="breve" unicode="&#x2d8;" horiz-adv-x="1128" 
d="M563 1020q-79 0 -142.5 46.5t-96 116t-33.5 146.5l98 33q13 -99 56.5 -164t117.5 -65t117.5 65t56.5 164l99 -33q-1 -77 -33.5 -146.5t-96.5 -116t-143 -46.5z" />
    <glyph glyph-name="dotaccent" unicode="&#x2d9;" horiz-adv-x="1128" 
d="M563 1096q-35 0 -59.5 24.5t-24.5 61.5q0 35 24.5 59.5t59.5 24.5q37 0 61.5 -24.5t24.5 -59.5q0 -37 -24.5 -61.5t-61.5 -24.5z" />
    <glyph glyph-name="ring" unicode="&#x2da;" horiz-adv-x="1128" 
d="M563 1010q-81 0 -136.5 55t-55.5 135q0 79 55.5 134t136.5 55t137 -55.5t56 -133.5q0 -80 -55.5 -135t-137.5 -55zM453 1200q0 -47 32 -78.5t78 -31.5t78.5 31.5t32.5 78.5q0 46 -32.5 77.5t-78.5 31.5t-78 -31.5t-32 -77.5z" />
    <glyph glyph-name="ogonek" unicode="&#x2db;" horiz-adv-x="1128" 
d="M565 -451q-73 0 -122.5 51.5t-49.5 135.5q0 103 71 191t183 130l27 -59q-88 -50 -130 -116.5t-42 -125.5q0 -46 26 -72t64 -26q67 0 127 63l-10 -108q-49 -64 -144 -64z" />
    <glyph glyph-name="tilde" unicode="&#x2dc;" horiz-adv-x="1128" 
d="M690 1051q-37 0 -70 13.5t-56.5 32.5t-44 37.5t-42 32t-41.5 13.5q-74 0 -94 -127l-88 22q0 81 50.5 143t133.5 62q37 0 69.5 -13.5t56 -32t44 -37.5t42 -32.5t42.5 -13.5q74 0 94 127l88 -23q0 -80 -50.5 -142t-133.5 -62z" />
    <glyph glyph-name="hungarumlaut" unicode="&#x2dd;" horiz-adv-x="1128" 
d="M537 1022l139 332h141l-182 -332h-98zM295 1022l139 332h141l-182 -332h-98z" />
    <glyph glyph-name="gravecomb" unicode="&#x300;" horiz-adv-x="0" 
d="M-25 1022l-227 332h164l164 -332h-101z" />
    <glyph glyph-name="acutecomb" unicode="&#x301;" horiz-adv-x="0" 
d="M25 1022h-101l164 332h164z" />
    <glyph glyph-name="uni0302" unicode="&#x302;" horiz-adv-x="0" 
d="M-61 1354h120l213 -332h-94l-178 231l-180 -231h-94z" />
    <glyph glyph-name="tildecomb" unicode="&#x303;" horiz-adv-x="0" 
d="M127 1051q-37 0 -70 13.5t-56.5 32.5t-44 37.5t-42 32t-41.5 13.5q-74 0 -94 -127l-88 22q0 81 50.5 143t133.5 62q37 0 69.5 -13.5t56 -32t44 -37.5t42 -32.5t42.5 -13.5q74 0 94 127l88 -23q0 -80 -50.5 -142t-133.5 -62z" />
    <glyph glyph-name="uni0304" unicode="&#x304;" horiz-adv-x="0" 
d="M-260 1108v106h520v-106h-520z" />
    <glyph glyph-name="uni0306" unicode="&#x306;" horiz-adv-x="0" 
d="M0 1020q-79 0 -142.5 46.5t-96 116t-33.5 146.5l98 33q13 -99 56.5 -164t117.5 -65t117.5 65t56.5 164l98 -33q-1 -77 -33.5 -146.5t-96 -116t-142.5 -46.5z" />
    <glyph glyph-name="uni0307" unicode="&#x307;" horiz-adv-x="0" 
d="M0 1096q-35 0 -59.5 24.5t-24.5 61.5q0 35 24.5 59.5t59.5 24.5q37 0 61.5 -24.5t24.5 -59.5q0 -37 -24.5 -61.5t-61.5 -24.5z" />
    <glyph glyph-name="uni0308" unicode="&#x308;" horiz-adv-x="0" 
d="M182 1106q-35 0 -59.5 24.5t-24.5 61.5q0 35 24.5 59.5t59.5 24.5q37 0 61.5 -24.5t24.5 -59.5q0 -37 -24.5 -61.5t-61.5 -24.5zM-264 1192q0 35 24.5 59.5t59.5 24.5q37 0 61.5 -24.5t24.5 -59.5q0 -37 -24.5 -61.5t-61.5 -24.5q-35 0 -59.5 24.5t-24.5 61.5z" />
    <glyph glyph-name="uni030A" unicode="&#x30a;" horiz-adv-x="0" 
d="M0 1010q-82 0 -137.5 55t-55.5 135q0 78 56 133.5t137 55.5t137 -55.5t56 -133.5q0 -80 -55.5 -135t-137.5 -55zM-111 1200q0 -47 32.5 -78.5t78.5 -31.5t78.5 31.5t32.5 78.5q0 46 -32.5 77.5t-78.5 31.5t-78.5 -31.5t-32.5 -77.5z" />
    <glyph glyph-name="uni030B" unicode="&#x30b;" horiz-adv-x="0" 
d="M49 1022l139 332h142l-183 -332h-98zM-193 1022l140 332h141l-182 -332h-99z" />
    <glyph glyph-name="uni030C" unicode="&#x30c;" horiz-adv-x="0" 
d="M-61 1022l-213 332h94l180 -232l178 232h94l-213 -332h-120z" />
    <glyph glyph-name="uni0312" unicode="&#x312;" horiz-adv-x="0" 
d="M127 1391q-108 -119 -123 -230q32 -5 54 -27t22 -55q0 -38 -26 -63t-60 -25q-45 0 -70.5 32.5t-25.5 90.5q0 71 44 158t105 151z" />
    <glyph glyph-name="uni0326" unicode="&#x326;" horiz-adv-x="0" 
d="M-123 -524q108 119 123 229q-32 5 -54 27t-22 55q0 38 26 63t60 25q45 0 70.5 -32.5t25.5 -90.5q0 -71 -44 -158t-105 -151z" />
    <glyph glyph-name="uni0327" unicode="&#x327;" horiz-adv-x="0" 
d="M-6 -442q-87 0 -154 43l-14 116q78 -63 164 -63q34 0 64 21.5t30 54.5q0 42 -40 65t-146 23l71 223h90l-45 -141q92 -8 134 -55.5t42 -114.5q0 -77 -57.5 -124.5t-138.5 -47.5z" />
    <glyph glyph-name="uni0328" unicode="&#x328;" horiz-adv-x="0" 
d="M-174 -451q-73 0 -122.5 51.5t-49.5 135.5q0 103 71 191t183 130l26 -59q-88 -50 -130 -116.5t-42 -125.5q0 -46 26 -72t65 -26q67 0 127 63l-11 -108q-49 -64 -143 -64z" />
    <glyph glyph-name="uni0335" unicode="&#x335;" horiz-adv-x="0" 
d="M289 401v107h545v-107h-545z" />
    <glyph glyph-name="uni0336" unicode="&#x336;" horiz-adv-x="0" 
d="M-172 401v107h1413v-107h-1413z" />
    <glyph glyph-name="uni0337" unicode="&#x337;" horiz-adv-x="0" 
d="M299 344l522 346v-127l-522 -346v127z" />
    <glyph glyph-name="uni0338" unicode="&#x338;" horiz-adv-x="0" 
d="M98 -49l-88 69l1037 1403l92 -63z" />
    <glyph glyph-name="uni0394" unicode="&#x394;" horiz-adv-x="1243" 
d="M59 0l533 1403h61l531 -1403h-1125zM248 129h745l-370 1022h-2z" />
    <glyph glyph-name="uni03A9" unicode="&#x3a9;" horiz-adv-x="1355" 
d="M127 0l-25 131h285q-108 103 -167.5 268t-59.5 385q0 280 141.5 448.5t374.5 168.5q236 0 378 -168.5t142 -448.5q0 -219 -60.5 -384.5t-168.5 -268.5h284l-26 -131h-494v90q170 109 249 270t79 416q0 222 -105.5 358t-277.5 136t-276.5 -135.5t-104.5 -358.5
q0 -256 79.5 -416t248.5 -270v-90h-496z" />
    <glyph glyph-name="pi" unicode="&#x3c0;" horiz-adv-x="1126" 
d="M809 0v793h-490v-793h-126v907h741v-907h-125z" />
    <glyph glyph-name="Wgrave" unicode="&#x1e80;" horiz-adv-x="1964" 
d="M516 -12l-479 1405h143l365 -1104h8l405 1110h52l407 -1110h8l361 1104h141l-481 -1405h-55l-406 1118l-410 -1118h-59zM733 1837h164l164 -332h-100z" />
    <glyph glyph-name="wgrave" unicode="&#x1e81;" horiz-adv-x="1480" 
d="M391 -12l-354 919h135l254 -682l293 693h43l299 -695l254 684h129l-354 -919h-54l-297 682l-295 -682h-53zM483 1393h164l164 -332h-100z" />
    <glyph glyph-name="Wacute" unicode="&#x1e82;" horiz-adv-x="1964" 
d="M516 -12l-479 1405h143l365 -1104h8l405 1110h52l407 -1110h8l361 1104h141l-481 -1405h-55l-406 1118l-410 -1118h-59zM909 1505l164 332h164l-227 -332h-101z" />
    <glyph glyph-name="wacute" unicode="&#x1e83;" horiz-adv-x="1480" 
d="M391 -12l-354 919h135l254 -682l293 693h43l299 -695l254 684h129l-354 -919h-54l-297 682l-295 -682h-53zM659 1061l164 332h164l-227 -332h-101z" />
    <glyph glyph-name="Wdieresis" unicode="&#x1e84;" horiz-adv-x="1964" 
d="M516 -12l-479 1405h143l365 -1104h8l405 1110h52l407 -1110h8l361 1104h141l-481 -1405h-55l-406 1118l-410 -1118h-59zM721 1675q0 35 24.5 59.5t59.5 24.5q37 0 61.5 -24.5t24.5 -59.5q0 -37 -24.5 -61.5t-61.5 -24.5q-35 0 -59.5 24.5t-24.5 61.5zM1083 1675
q0 35 24.5 59.5t59.5 24.5q37 0 61.5 -24.5t24.5 -59.5q0 -37 -24.5 -61.5t-61.5 -24.5q-35 0 -59.5 24.5t-24.5 61.5z" />
    <glyph glyph-name="wdieresis" unicode="&#x1e85;" horiz-adv-x="1480" 
d="M391 -12l-354 919h135l254 -682l293 693h43l299 -695l254 684h129l-354 -919h-54l-297 682l-295 -682h-53zM471 1231q0 35 24.5 59.5t59.5 24.5q37 0 61.5 -24.5t24.5 -59.5q0 -37 -24.5 -61.5t-61.5 -24.5q-35 0 -59.5 24.5t-24.5 61.5zM834 1231q0 35 24.5 59.5
t59.5 24.5q37 0 61.5 -24.5t24.5 -59.5q0 -37 -24.5 -61.5t-61.5 -24.5q-35 0 -59.5 24.5t-24.5 61.5z" />
    <glyph glyph-name="uni1E9E" unicode="&#x1e9e;" horiz-adv-x="1216" 
d="M680 -20q-135 0 -227 57l-31 151q105 -79 258 -79q141 0 218 75.5t77 182.5q0 132 -100.5 202t-282.5 95l-27 75l322 338q-3 85 -78 146t-182 61q-143 0 -222 -94.5t-79 -255.5v-934h-131v956q0 199 119 328t313 129q171 0 284.5 -103t116.5 -261l-285 -287
q178 -40 272.5 -143t94.5 -242q0 -175 -119 -286t-311 -111z" />
    <glyph glyph-name="Ygrave" unicode="&#x1ef2;" horiz-adv-x="1230" 
d="M547 0v586l-510 807h162l419 -674l420 674h156l-510 -805v-588h-137zM365 1837h163l164 -332h-100z" />
    <glyph glyph-name="ygrave" unicode="&#x1ef3;" horiz-adv-x="968" 
d="M195 -506l229 529l-385 884h137q56 -134 174 -407t142 -328q41 93 313 735h131l-610 -1413h-131zM236 1393h163l164 -332h-100z" />
    <glyph glyph-name="endash" unicode="&#x2013;" horiz-adv-x="1179" 
d="M145 420v115h889v-115h-889z" />
    <glyph glyph-name="emdash" unicode="&#x2014;" horiz-adv-x="2195" 
d="M145 420v115h1905v-115h-1905z" />
    <glyph glyph-name="uni2015" unicode="&#x2015;" horiz-adv-x="2195" 
d="M145 420v115h1905v-115h-1905z" />
    <glyph glyph-name="quoteleft" unicode="&#x2018;" horiz-adv-x="475" 
d="M385 1370q-129 -140 -145 -274q37 -6 62.5 -32.5t25.5 -66.5q0 -44 -31 -74t-72 -30q-53 0 -82.5 38.5t-29.5 108.5q0 85 52.5 188.5t125.5 180.5z" />
    <glyph glyph-name="quoteright" unicode="&#x2019;" horiz-adv-x="475" 
d="M102 934q131 142 146 274q-37 6 -62.5 32.5t-25.5 66.5q0 45 30.5 74.5t71.5 29.5q53 0 83 -38.5t30 -108.5q0 -85 -52.5 -188.5t-125.5 -180.5z" />
    <glyph glyph-name="quotesinglbase" unicode="&#x201a;" horiz-adv-x="479" 
d="M76 -301q129 140 145 274q-37 6 -62.5 32.5t-25.5 66.5q0 44 31 74t72 30q53 0 82.5 -38.5t29.5 -108.5q0 -85 -52.5 -188.5t-125.5 -180.5z" />
    <glyph glyph-name="quotedblleft" unicode="&#x201c;" horiz-adv-x="835" 
d="M385 1370q-129 -140 -145 -274q37 -6 62.5 -32.5t25.5 -66.5q0 -44 -31 -74t-72 -30q-53 0 -82.5 38.5t-29.5 108.5q0 85 52.5 188.5t125.5 180.5zM473 1040q0 85 52.5 188.5t125.5 180.5l94 -39q-129 -140 -145 -274q37 -6 62.5 -32.5t25.5 -66.5q0 -45 -30.5 -74.5
t-71.5 -29.5q-53 0 -83 38.5t-30 108.5z" />
    <glyph glyph-name="quotedblright" unicode="&#x201d;" horiz-adv-x="835" 
d="M463 934q129 140 145 274q-37 6 -62.5 32.5t-25.5 66.5q0 44 31 74t72 30q53 0 82.5 -38.5t29.5 -108.5q0 -85 -52.5 -188.5t-125.5 -180.5zM102 934q131 142 146 274q-37 6 -62.5 32.5t-25.5 66.5q0 45 30.5 74.5t71.5 29.5q53 0 83 -38.5t30 -108.5q0 -85 -52.5 -188.5
t-125.5 -180.5z" />
    <glyph glyph-name="quotedblbase" unicode="&#x201e;" horiz-adv-x="839" 
d="M436 -301q131 142 146 274q-37 6 -62.5 32.5t-25.5 66.5q0 45 30.5 74.5t71.5 29.5q53 0 83 -38.5t30 -108.5q0 -85 -52.5 -188.5t-126.5 -180.5zM76 -301q129 140 145 274q-37 6 -62.5 32.5t-25.5 66.5q0 44 31 74t72 30q53 0 82.5 -38.5t29.5 -108.5
q0 -85 -52.5 -188.5t-125.5 -180.5z" />
    <glyph glyph-name="dagger" unicode="&#x2020;" horiz-adv-x="954" 
d="M477 -287q-36 0 -53.5 52.5t-17.5 173.5q0 83 14.5 367.5t19.5 443.5q-42 -4 -94 -11t-85 -10.5t-68 -3.5q-57 0 -95.5 18.5t-38.5 49.5t38.5 50t95.5 19q35 0 67.5 -3.5t84.5 -11.5t93 -13q-7 99 -19.5 216.5t-12.5 180.5q0 164 71 164q70 0 70 -164q0 -52 -4 -99
t-12.5 -129t-14.5 -174q46 5 97 13.5t85.5 13t69.5 4.5q55 0 91 -18t36 -49t-36 -48.5t-91 -17.5q-37 0 -70 3.5t-87 11t-97 12.5q5 -129 13.5 -311t14 -308t5.5 -196q0 -122 -17 -174t-53 -52z" />
    <glyph glyph-name="daggerdbl" unicode="&#x2021;" horiz-adv-x="991" 
d="M496 -287q-72 0 -72 164q0 63 13 179t20 218q-41 -5 -93.5 -13t-85 -11.5t-67.5 -3.5q-57 0 -95 19t-38 50t38 49.5t95 18.5q28 0 56.5 -2t50 -5t64.5 -8.5t75 -9.5q-7 99 -19 195q13 110 19 197q-32 -4 -75 -9.5t-64.5 -8.5t-50 -5t-56.5 -2q-57 0 -95 18.5t-38 49.5
t38 50t95 19q35 0 67.5 -3.5t85 -11.5t93.5 -13q-7 102 -20 218t-13 179q0 164 72 164q69 0 69 -164q0 -52 -3.5 -99t-12 -129.5t-14.5 -173.5q46 5 96.5 13.5t85 13t69.5 4.5q55 0 91 -18t36 -49t-36 -48.5t-91 -17.5q-36 0 -68.5 3.5t-86.5 11t-96 12.5q5 -74 20 -201
q-15 -121 -20 -199q42 5 96 12.5t86.5 11t68.5 3.5q55 0 91 -17.5t36 -48.5t-36 -49t-91 -18q-35 0 -69.5 4.5t-85 13t-96.5 13.5q6 -91 14.5 -173.5t12 -129.5t3.5 -99q0 -164 -69 -164z" />
    <glyph glyph-name="bullet" unicode="&#x2022;" horiz-adv-x="802" 
d="M403 350q-99 0 -164 65t-65 163q0 97 65 161t164 64q97 0 161.5 -64t64.5 -161q0 -98 -64.5 -163t-161.5 -65z" />
    <glyph glyph-name="ellipsis" unicode="&#x2026;" horiz-adv-x="1419" 
d="M240 -10q-46 0 -80.5 34t-34.5 78q0 43 35 77t80 34q44 0 78 -34t34 -77q0 -44 -34 -78t-78 -34zM596 102q0 43 35 77t80 34q44 0 78 -34t34 -77q0 -44 -34 -78t-78 -34q-46 0 -80.5 34t-34.5 78zM1067 102q0 43 35 77t80 34q44 0 78 -34t34 -77q0 -44 -34 -78t-78 -34
q-46 0 -80.5 34t-34.5 78z" />
    <glyph glyph-name="perthousand" unicode="&#x2030;" horiz-adv-x="1994" 
d="M1671 -18q-112 0 -181 84t-69 243q0 160 69 244t181 84t182 -84t70 -244q0 -158 -70 -242.5t-182 -84.5zM82 1081q0 160 69 244t181 84t182 -84t70 -244q0 -158 -70 -242.5t-182 -84.5t-181 84t-69 243zM195 1081q0 -114 36 -171.5t101 -57.5q66 0 103.5 57.5t37.5 171.5
t-37.5 171t-103.5 57q-65 0 -101 -57t-36 -171zM231 0l807 1393h117l-803 -1393h-121zM780 309q0 160 68.5 244t181.5 84q111 0 180.5 -84.5t69.5 -243.5q0 -158 -69.5 -242.5t-180.5 -84.5q-113 0 -181.5 84t-68.5 243zM891 309q0 -114 36.5 -171.5t102.5 -57.5
q65 0 102 57.5t37 171.5t-37 171t-102 57q-66 0 -102.5 -57t-36.5 -171zM1532 309q0 -114 37 -171.5t102 -57.5t103 57.5t38 171.5q0 113 -38 170.5t-103 57.5t-102 -57t-37 -171z" />
    <glyph glyph-name="minute" unicode="&#x2032;" 
d="M442 870l129 523h134l-154 -523h-109z" />
    <glyph glyph-name="second" unicode="&#x2033;" 
d="M197 870l129 523h133l-154 -523h-108zM688 870l129 523h133l-153 -523h-109z" />
    <glyph glyph-name="guilsinglleft" unicode="&#x2039;" horiz-adv-x="618" 
d="M84 455l283 358h145l-283 -358l283 -361h-145z" />
    <glyph glyph-name="guilsinglright" unicode="&#x203a;" horiz-adv-x="618" 
d="M535 455l-283 -361h-146l283 361l-283 358h146z" />
    <glyph glyph-name="fraction" unicode="&#x2044;" horiz-adv-x="368" 
d="M-311 0l854 1393h137l-856 -1397z" />
    <glyph glyph-name="uni2074" unicode="&#x2074;" horiz-adv-x="714" 
d="M403 565v199h-364v57l412 572h67v-523h144l-29 -106h-115v-199h-115zM197 870h206v285z" />
    <glyph glyph-name="Euro" unicode="&#x20ac;" horiz-adv-x="1271" 
d="M829 -20q-211 0 -368.5 140.5t-210.5 371.5h-172l31 118h122q-4 58 -4 88q0 26 4 76h-153l31 119h139q53 232 211.5 376t369.5 144q176 0 304 -70l32 -165q-81 59 -159 82.5t-177 23.5q-157 0 -277.5 -108t-166.5 -283h512l-31 -119h-501q-5 -62 -5 -76q0 -16 5 -88h532
l-31 -118h-481q45 -179 165 -281t279 -102q209 0 336 124l-30 -170q-40 -31 -125.5 -57t-180.5 -26z" />
    <glyph glyph-name="uni20B9" unicode="&#x20b9;" horiz-adv-x="1079" 
d="M698 0l-555 612v78h88q132 0 217 56.5t107 160.5h-418l35 131h383q-20 110 -103.5 167t-209.5 57h-109l35 131h827l-34 -131h-398q107 -82 129 -224h307l-34 -131h-275q-21 -132 -113 -213.5t-225 -101.5l527 -592h-181z" />
    <glyph glyph-name="uni20BA" unicode="&#x20ba;" horiz-adv-x="1253" 
d="M358 0v449l-245 -123v116l245 123v240l-245 -123v117l245 123v471h138v-402l264 133v-120l-264 -132v-237l264 133v-121l-264 -131v-387h231q157 0 246.5 90t89.5 283l125 -58q0 -203 -128 -323.5t-333 -120.5h-369z" />
    <glyph glyph-name="uni20BD" unicode="&#x20bd;" horiz-adv-x="1196" 
d="M94 584l33 129h192v680h373q188 0 310 -115t122 -289q0 -178 -121.5 -291.5t-310.5 -113.5h-235v-201h383l-31 -129h-352v-254h-138v254h-223l31 129h192v201h-225zM457 713h233q132 0 212.5 75t80.5 201q0 124 -80 199.5t-211 75.5h-235v-551z" />
    <glyph glyph-name="uni20BF" unicode="&#x20bf;" horiz-adv-x="1079" 
d="M209 84v1225h164v225h112v-225h105h8v225h113v-240q117 -28 184.5 -108.5t67.5 -198.5q0 -92 -44.5 -162t-113.5 -108q91 -36 149 -112.5t58 -180.5q0 -131 -82 -221t-219 -113v-229h-113v223h-113v-223h-112v223h-164zM346 207h270q122 0 188 59t66 160
q0 102 -65.5 161.5t-188.5 59.5h-270v-440zM346 768h252q105 0 167 57t62 160q0 93 -65 147t-178 54h-238v-418z" />
    <glyph glyph-name="uni2117" unicode="&#x2117;" horiz-adv-x="1464" 
d="M514 264v697h260q116 0 192 -70t76 -180q0 -111 -75.5 -180.5t-192.5 -69.5h-156v-197h-104zM119 608q0 180 78.5 324.5t218.5 225.5t317 81q269 0 441 -177.5t172 -453.5q0 -180 -77 -324t-217.5 -226.5t-318.5 -82.5q-273 0 -443.5 178t-170.5 455zM211 608
q0 -155 66.5 -279.5t186 -195t269.5 -70.5q228 0 374 154t146 391q0 154 -67 278t-186.5 194.5t-268.5 70.5q-228 0 -374 -153.5t-146 -389.5zM618 557h156q76 0 120 40.5t44 113.5q0 71 -44 112t-118 41h-158v-307z" />
    <glyph glyph-name="trademark" unicode="&#x2122;" horiz-adv-x="1337" 
d="M627 670v579h45l227 -356l225 356h41v-579h-75l-3 379l-174 -271h-30l-176 271v-379h-80zM102 1165l17 78h413l17 -78h-182v-495h-80v495h-185z" />
    <glyph glyph-name="arrowleft" unicode="&#x2190;" horiz-adv-x="1214" 
d="M680 764l-342 -242q344 8 506 8h270v-114h-270q-117 0 -498 6l334 -238l-74 -96l-518 387l518 389z" />
    <glyph glyph-name="arrowup" unicode="&#x2191;" horiz-adv-x="892" 
d="M735 422l-241 342q8 -344 8 -506v-270h-115v270q0 117 6 498l-237 -334l-97 74l387 518l390 -518z" />
    <glyph glyph-name="arrowright" unicode="&#x2192;" horiz-adv-x="1212" 
d="M532 186l342 242q-344 -8 -505 -8h-271v115h271q53 0 497 -7l-334 238l74 96l518 -387l-518 -389z" />
    <glyph glyph-name="arrowdown" unicode="&#x2193;" horiz-adv-x="890" 
d="M158 528l241 -342q-8 344 -8 506v271h115v-271q0 -116 -6 -497l237 333l97 -73l-388 -518l-389 518z" />
    <glyph glyph-name="uni2196" unicode="&#x2196;" horiz-adv-x="952" 
d="M727 643l-412 70q279 -267 363 -351l192 -192l-82 -80l-190 191q-113 113 -348 356l67 -404l-118 -16l-95 641l644 -92z" />
    <glyph glyph-name="uni2197" unicode="&#x2197;" horiz-adv-x="958" 
d="M637 233l70 412q-245 -256 -351 -362l-192 -193l-80 82l190 190q114 114 357 349l-404 -68l-16 119l641 94l-92 -643z" />
    <glyph glyph-name="uni2198" unicode="&#x2198;" horiz-adv-x="950" 
d="M219 307l412 -69q-302 289 -363 350l-192 192l82 80l190 -190q84 -84 348 -357l-67 404l119 16l94 -641l-643 92z" />
    <glyph glyph-name="uni2199" unicode="&#x2199;" horiz-adv-x="954" 
d="M326 719l-70 -412q289 302 350 363l193 192l80 -82l-191 -190q-113 -113 -356 -348l403 67l17 -119l-641 -94l92 643z" />
    <glyph glyph-name="partialdiff" unicode="&#x2202;" horiz-adv-x="1114" 
d="M541 -18q-128 0 -229 63t-155.5 170.5t-54.5 239.5q0 199 122 331t313 132q99 0 180.5 -36t136.5 -94q-15 242 -109.5 367t-267.5 125q-166 0 -301 -119l25 160q44 36 121.5 60t166.5 24q240 0 369 -184t129 -539q0 -214 -47.5 -369t-149 -243t-249.5 -88zM233 453
q0 -155 88 -252t220 -97q153 0 231 137t86 382q-45 73 -129.5 121.5t-181.5 48.5q-135 0 -224.5 -92.5t-89.5 -247.5z" />
    <glyph glyph-name="emptyset" unicode="&#x2205;" horiz-adv-x="1316" 
d="M137 -23l139 168q-143 153 -143 377q0 230 151 384.5t375 154.5q164 0 295 -88l133 162l91 -72l-136 -166q142 -152 142 -375q0 -230 -150.5 -385t-374.5 -155q-164 0 -297 90l-137 -168zM264 522q0 -158 94 -276l514 626q-97 62 -215 62q-169 0 -281 -117.5t-112 -294.5
zM444 170q95 -61 215 -61q169 0 282.5 117.5t113.5 295.5q0 161 -97 275z" />
    <glyph glyph-name="product" unicode="&#x220f;" horiz-adv-x="1187" 
d="M858 -264v1550h-530v-1550h-125v1657h780v-1657h-125z" />
    <glyph glyph-name="summation" unicode="&#x2211;" horiz-adv-x="1187" 
d="M184 -283v56l404 805l-363 759v56h733l21 -127h-576l326 -688l-360 -734h637l-27 -127h-795z" />
    <glyph glyph-name="minus" unicode="&#x2212;" horiz-adv-x="1187" 
d="M141 420v115h906v-115h-906z" />
    <glyph glyph-name="radical" unicode="&#x221a;" horiz-adv-x="1187" 
d="M500 0l-195 610h-4l-119 -204l-100 57l162 282h135l205 -632h4l360 1261l127 -33l-399 -1341h-176z" />
    <glyph glyph-name="infinity" unicode="&#x221e;" horiz-adv-x="1187" 
d="M854 121q-77 0 -146.5 44.5t-111.5 125.5q-44 -85 -118.5 -127.5t-147.5 -42.5q-110 0 -188.5 96t-78.5 262q0 168 80 263.5t193 95.5q77 0 147 -45.5t113 -128.5q44 86 118 130t146 44q109 0 187.5 -96t78.5 -263q0 -170 -79.5 -264t-192.5 -94zM182 483
q0 -101 43.5 -162t110.5 -61q136 0 201 217q-34 114 -84.5 174t-112.5 60q-69 0 -113.5 -62t-44.5 -166zM651 481q33 -114 85 -173.5t114 -59.5q69 0 113.5 61t44.5 166q0 101 -43.5 162t-110.5 61q-59 0 -113.5 -49t-89.5 -168z" />
    <glyph glyph-name="integral" unicode="&#x222b;" horiz-adv-x="1187" 
d="M297 -455q-100 0 -174 29l31 121q85 -23 143 -23q114 0 174.5 69t60.5 202v1042q0 188 102 297t261 109q104 0 174 -31l-33 -117q-3 1 -22.5 5.5t-32 7.5t-37 5.5t-49.5 2.5q-114 0 -175 -69.5t-61 -201.5v-1044q0 -186 -101.5 -295t-260.5 -109z" />
    <glyph glyph-name="approxequal" unicode="&#x2248;" horiz-adv-x="1187" 
d="M199 100q0 150 63.5 235t169.5 85q63 0 116.5 -33.5t90.5 -95.5q55 -90 119 -90q59 0 96 60t37 161h100q0 -152 -63 -236t-170 -84q-62 0 -117 33.5t-90 93.5q-55 90 -119 90q-58 0 -94.5 -58.5t-36.5 -160.5h-102zM199 535q0 150 63.5 234.5t169.5 84.5
q63 0 116.5 -33.5t90.5 -95.5q55 -90 119 -90q59 0 96 60t37 161h100q0 -152 -63 -235.5t-170 -83.5q-62 0 -117 33.5t-90 93.5q-55 90 -119 90q-58 0 -94.5 -58.5t-36.5 -160.5h-102z" />
    <glyph glyph-name="notequal" unicode="&#x2260;" horiz-adv-x="1187" 
d="M420 2l53 199h-330v114h361l84 318h-445v115h475l52 196l100 -26l-45 -170h324v-115h-355l-86 -318h441v-114h-471l-60 -226z" />
    <glyph glyph-name="lessequal" unicode="&#x2264;" horiz-adv-x="1187" 
d="M217 -68v115h715v-115h-715zM213 573v64l674 387l59 -102l-547 -316l547 -315l-59 -105z" />
    <glyph glyph-name="greaterequal" unicode="&#x2265;" horiz-adv-x="1187" 
d="M240 -68v115h714v-115h-714zM250 289l547 315l-547 316l59 104l674 -387v-64l-674 -387z" />
    <glyph glyph-name="lozenge" unicode="&#x25ca;" horiz-adv-x="1187" 
d="M565 -37l-506 506l506 502h58l503 -502l-503 -506h-58zM231 469l371 -365l354 365l-368 362z" />
    <glyph glyph-name="uni2713" unicode="&#x2713;" horiz-adv-x="1552" 
d="M543 193l-502 497l96 96l414 -409l891 891l69 -107z" />
    <glyph glyph-name="I.ss01" horiz-adv-x="768" 
d="M88 0v121h227v1151h-227v121h590v-121h-225v-1151h225v-121h-590z" />
    <glyph glyph-name="Iacute.ss01" horiz-adv-x="768" 
d="M88 0v121h227v1151h-227v121h590v-121h-225v-1151h225v-121h-590zM307 1505l164 332h164l-227 -332h-101z" />
    <glyph glyph-name="Icircumflex.ss01" horiz-adv-x="768" 
d="M88 0v121h227v1151h-227v121h590v-121h-225v-1151h225v-121h-590zM109 1505l213 332h120l213 -332h-94l-178 232l-180 -232h-94z" />
    <glyph glyph-name="Idieresis.ss01" horiz-adv-x="768" 
d="M88 0v121h227v1151h-227v121h590v-121h-225v-1151h225v-121h-590zM119 1675q0 35 24.5 59.5t59.5 24.5q37 0 61.5 -24.5t24.5 -59.5q0 -37 -24.5 -61.5t-61.5 -24.5q-35 0 -59.5 24.5t-24.5 61.5zM481 1675q0 35 24.5 59.5t59.5 24.5q37 0 61.5 -24.5t24.5 -59.5
q0 -37 -24.5 -61.5t-61.5 -24.5q-35 0 -59.5 24.5t-24.5 61.5z" />
    <glyph glyph-name="Idotaccent.ss01" horiz-adv-x="768" 
d="M88 0v121h227v1151h-227v121h590v-121h-225v-1151h225v-121h-590zM299 1665q0 35 24.5 59.5t59.5 24.5q37 0 61.5 -24.5t24.5 -59.5q0 -37 -24.5 -61.5t-61.5 -24.5q-35 0 -59.5 24.5t-24.5 61.5z" />
    <glyph glyph-name="Igrave.ss01" horiz-adv-x="768" 
d="M88 0v121h227v1151h-227v121h590v-121h-225v-1151h225v-121h-590zM131 1837h164l164 -332h-101z" />
    <glyph glyph-name="Imacron.ss01" horiz-adv-x="768" 
d="M88 0v121h227v1151h-227v121h590v-121h-225v-1151h225v-121h-590zM123 1591v107h520v-107h-520z" />
    <glyph glyph-name="Iogonek.ss01" horiz-adv-x="768" 
d="M330 -451q-73 0 -122.5 51.5t-49.5 135.5q0 75 39 144.5t108 119.5h-217v121h227v1151h-227v121h590v-121h-225v-1151h225v-121h-240v-2q-88 -50 -130 -116.5t-42 -125.5q0 -46 26 -72t64 -26q67 0 127 63l-10 -108q-49 -64 -143 -64z" />
    <glyph glyph-name="i.loclTRK" horiz-adv-x="456" 
d="M166 0v907h125v-907h-125zM147 1221q0 35 24.5 59.5t59.5 24.5q37 0 61.5 -24.5t24.5 -59.5q0 -37 -24.5 -61.5t-61.5 -24.5q-35 0 -59.5 24.5t-24.5 61.5z" />
    <glyph glyph-name="l.ss01" horiz-adv-x="565" 
d="M428 0q-62 0 -110.5 17t-78 43t-49 61t-27 68t-7.5 67v1194h125v-1161q0 -168 155 -168h109l-45 -121h-72z" />
    <glyph glyph-name="lacute.ss01" horiz-adv-x="565" 
d="M428 0q-62 0 -110.5 17t-78 43t-49 61t-27 68t-7.5 67v1194h125v-1161q0 -168 155 -168h109l-45 -121h-72zM143 1563l164 331h164l-227 -331h-101z" />
    <glyph glyph-name="lcaron.ss01" horiz-adv-x="565" 
d="M383 1118l80 332h139l-143 -332h-76zM156 256v1194h125v-1161q0 -168 155 -168h109l-45 -121h-72q-62 0 -110.5 17t-78 43t-49 61t-27 68t-7.5 67z" />
    <glyph glyph-name="uni013C.ss01" horiz-adv-x="565" 
d="M428 0q-62 0 -110.5 17t-78 43t-49 61t-27 68t-7.5 67v1194h125v-1161q0 -168 155 -168h109l-45 -121h-72zM199 -524q108 119 123 229q-32 5 -54 27t-22 55q0 38 26 63t60 25q45 0 70.5 -32.5t25.5 -90.5q0 -71 -44 -158t-105 -151z" />
    <glyph glyph-name="ldot.ss01" horiz-adv-x="587" 
d="M465 639q-46 0 -80.5 34.5t-34.5 78.5q0 43 34.5 76.5t80.5 33.5q44 0 78.5 -33.5t34.5 -76.5q0 -44 -34.5 -78.5t-78.5 -34.5zM156 256v1194h125v-1161q0 -168 155 -168h109l-45 -121h-72q-62 0 -110.5 17t-78 43t-49 61t-27 68t-7.5 67z" />
    <glyph glyph-name="lslash.ss01" horiz-adv-x="686" 
d="M68 637l176 117v696h125v-614l221 147v-127l-221 -147v-420q0 -168 155 -168h109l-45 -121h-72q-62 0 -110.5 17t-78 43t-49 61t-27 68t-7.5 67v371l-176 -117v127z" />
    <glyph glyph-name="a.ss02" horiz-adv-x="1122" 
d="M827 0v96q-60 -57 -135 -86.5t-143 -29.5q-192 0 -320.5 136t-128.5 337t128.5 338t318.5 137q90 0 161.5 -30t118.5 -75v84h129v-907h-129zM231 453q0 -158 98.5 -255.5t227.5 -97.5q161 0 270 129v455q-45 55 -114 89t-156 34q-129 0 -227.5 -97.5t-98.5 -256.5z" />
    <glyph glyph-name="aacute.ss02" horiz-adv-x="1118" 
d="M827 0v96q-60 -57 -135 -86.5t-143 -29.5q-192 0 -320.5 136t-128.5 337t128.5 338t318.5 137q90 0 161.5 -30t118.5 -75v84h129v-907h-129zM231 453q0 -158 98.5 -255.5t227.5 -97.5q161 0 270 129v455q-45 55 -114 89t-156 34q-129 0 -227.5 -97.5t-98.5 -256.5z
M485 1061l164 332h164l-227 -332h-101z" />
    <glyph glyph-name="abreve.ss02" horiz-adv-x="1118" 
d="M827 0v96q-60 -57 -135 -86.5t-143 -29.5q-192 0 -320.5 136t-128.5 337t128.5 338t318.5 137q90 0 161.5 -30t118.5 -75v84h129v-907h-129zM231 453q0 -158 98.5 -255.5t227.5 -97.5q161 0 270 129v455q-45 55 -114 89t-156 34q-129 0 -227.5 -97.5t-98.5 -256.5z
M289 1368l98 33q13 -99 56.5 -164.5t117.5 -65.5t117.5 65.5t56.5 164.5l99 -33q-1 -77 -33.5 -146.5t-96.5 -116t-143 -46.5t-142.5 46.5t-96 116t-33.5 146.5z" />
    <glyph glyph-name="acircumflex.ss02" horiz-adv-x="1118" 
d="M827 0v96q-60 -57 -135 -86.5t-143 -29.5q-192 0 -320.5 136t-128.5 337t128.5 338t318.5 137q90 0 161.5 -30t118.5 -75v84h129v-907h-129zM231 453q0 -158 98.5 -255.5t227.5 -97.5q161 0 270 129v455q-45 55 -114 89t-156 34q-129 0 -227.5 -97.5t-98.5 -256.5z
M287 1061l213 332h121l213 -332h-95l-178 231l-180 -231h-94z" />
    <glyph glyph-name="adieresis.ss02" horiz-adv-x="1118" 
d="M827 0v96q-60 -57 -135 -86.5t-143 -29.5q-192 0 -320.5 136t-128.5 337t128.5 338t318.5 137q90 0 161.5 -30t118.5 -75v84h129v-907h-129zM231 453q0 -158 98.5 -255.5t227.5 -97.5q161 0 270 129v455q-45 55 -114 89t-156 34q-129 0 -227.5 -97.5t-98.5 -256.5z
M297 1231q0 35 24.5 59.5t59.5 24.5q37 0 61.5 -24.5t24.5 -59.5q0 -37 -24.5 -61.5t-61.5 -24.5q-35 0 -59.5 24.5t-24.5 61.5zM659 1231q0 35 24.5 59.5t59.5 24.5q37 0 61.5 -24.5t24.5 -59.5q0 -37 -24.5 -61.5t-61.5 -24.5q-35 0 -59.5 24.5t-24.5 61.5z" />
    <glyph glyph-name="agrave.ss02" horiz-adv-x="1118" 
d="M827 0v96q-60 -57 -135 -86.5t-143 -29.5q-192 0 -320.5 136t-128.5 337t128.5 338t318.5 137q90 0 161.5 -30t118.5 -75v84h129v-907h-129zM231 453q0 -158 98.5 -255.5t227.5 -97.5q161 0 270 129v455q-45 55 -114 89t-156 34q-129 0 -227.5 -97.5t-98.5 -256.5z
M311 1393h164l164 -332h-100z" />
    <glyph glyph-name="amacron.ss02" horiz-adv-x="1118" 
d="M827 0v96q-60 -57 -135 -86.5t-143 -29.5q-192 0 -320.5 136t-128.5 337t128.5 338t318.5 137q90 0 161.5 -30t118.5 -75v84h129v-907h-129zM231 453q0 -158 98.5 -255.5t227.5 -97.5q161 0 270 129v455q-45 55 -114 89t-156 34q-129 0 -227.5 -97.5t-98.5 -256.5z
M317 1147v106h521v-106h-521z" />
    <glyph glyph-name="aogonek.ss02" horiz-adv-x="1118" 
d="M547 -20q-192 0 -320.5 136t-128.5 337t128.5 338t318.5 137q171 0 284 -109v88h125v-907h-36v-2q-88 -50 -130.5 -117t-42.5 -125q0 -46 26.5 -72t64.5 -26q67 0 127 63l-11 -108q-49 -64 -143 -64q-73 0 -122.5 51.5t-49.5 135.5q0 88 52.5 166.5t139.5 126.5v71
q-61 -60 -137 -90t-145 -30zM229 453q0 -158 98.5 -255.5t227.5 -97.5q85 0 155.5 37.5t118.5 98.5v442q-42 57 -113.5 93t-160.5 36q-129 0 -227.5 -97.5t-98.5 -256.5z" />
    <glyph glyph-name="aring.ss02" horiz-adv-x="1118" 
d="M827 0v96q-60 -57 -135 -86.5t-143 -29.5q-192 0 -320.5 136t-128.5 337t128.5 338t318.5 137q90 0 161.5 -30t118.5 -75v84h129v-907h-129zM231 453q0 -158 98.5 -255.5t227.5 -97.5q161 0 270 129v455q-45 55 -114 89t-156 34q-129 0 -227.5 -97.5t-98.5 -256.5z
M369 1239q0 78 55.5 133t136.5 55t137 -55t56 -133q0 -80 -55.5 -135t-137.5 -55q-81 0 -136.5 55t-55.5 135zM451 1239q0 -47 32 -79t78 -32t78.5 32t32.5 79q0 46 -32.5 77.5t-78.5 31.5t-78 -31.5t-32 -77.5z" />
    <glyph glyph-name="atilde.ss02" horiz-adv-x="1118" 
d="M827 0v96q-60 -57 -135 -86.5t-143 -29.5q-192 0 -320.5 136t-128.5 337t128.5 338t318.5 137q90 0 161.5 -30t118.5 -75v84h129v-907h-129zM231 453q0 -158 98.5 -255.5t227.5 -97.5q161 0 270 129v455q-45 55 -114 89t-156 34q-129 0 -227.5 -97.5t-98.5 -256.5z
M252 1114q0 81 50.5 143t133.5 62q37 0 69.5 -13.5t56 -32.5t44 -37.5t42 -32t42.5 -13.5q74 0 94 127l88 -23q0 -80 -50.5 -142t-133.5 -62q-37 0 -70 13.5t-56.5 32t-44 37.5t-42 32.5t-41.5 13.5q-74 0 -94 -127z" />
    <glyph glyph-name="g.ss02" horiz-adv-x="1120" 
d="M827 907h129v-1054q0 -183 -107.5 -279t-297.5 -96q-177 0 -318 92l-28 156q175 -127 336 -127q139 0 212.5 63t73.5 203v231q-60 -57 -135 -86.5t-143 -29.5q-192 0 -320.5 136t-128.5 337t128.5 338t318.5 137q90 0 161.5 -30t118.5 -75v84zM231 453
q0 -158 98.5 -255.5t227.5 -97.5q161 0 270 129v455q-45 55 -114 89t-156 34q-129 0 -227.5 -97.5t-98.5 -256.5z" />
    <glyph glyph-name="gbreve.ss02" horiz-adv-x="1118" 
d="M827 907h129v-1054q0 -183 -107.5 -279t-297.5 -96q-177 0 -318 92l-28 156q175 -127 336 -127q139 0 212.5 63t73.5 203v231q-60 -57 -135 -86.5t-143 -29.5q-192 0 -320.5 136t-128.5 337t128.5 338t318.5 137q90 0 161.5 -30t118.5 -75v84zM231 453
q0 -158 98.5 -255.5t227.5 -97.5q161 0 270 129v455q-45 55 -114 89t-156 34q-129 0 -227.5 -97.5t-98.5 -256.5zM274 1368l99 33q13 -99 56.5 -164.5t117.5 -65.5t117.5 65.5t56.5 164.5l98 -33q-1 -77 -33.5 -146.5t-96 -116t-142.5 -46.5t-143 46.5t-96.5 116
t-33.5 146.5z" />
    <glyph glyph-name="uni0123.ss02" horiz-adv-x="1118" 
d="M827 907h129v-1054q0 -183 -107.5 -279t-297.5 -96q-177 0 -318 92l-28 156q175 -127 336 -127q139 0 212.5 63t73.5 203v231q-60 -57 -135 -86.5t-143 -29.5q-192 0 -320.5 136t-128.5 337t128.5 338t318.5 137q90 0 161.5 -30t118.5 -75v84zM231 453
q0 -158 98.5 -255.5t227.5 -97.5q161 0 270 129v455q-45 55 -114 89t-156 34q-129 0 -227.5 -97.5t-98.5 -256.5zM444 1153q0 71 44.5 157.5t105.5 151.5l80 -32q-108 -119 -123 -230q32 -5 54 -27t22 -55q0 -38 -26 -63t-60 -25q-45 0 -71 32.5t-26 90.5z" />
    <glyph glyph-name="gdotaccent.ss02" horiz-adv-x="1118" 
d="M827 907h129v-1054q0 -183 -107.5 -279t-297.5 -96q-177 0 -318 92l-28 156q175 -127 336 -127q139 0 212.5 63t73.5 203v231q-60 -57 -135 -86.5t-143 -29.5q-192 0 -320.5 136t-128.5 337t128.5 338t318.5 137q90 0 161.5 -30t118.5 -75v84zM231 453
q0 -158 98.5 -255.5t227.5 -97.5q161 0 270 129v455q-45 55 -114 89t-156 34q-129 0 -227.5 -97.5t-98.5 -256.5zM463 1221q0 35 24.5 59.5t59.5 24.5q37 0 61.5 -24.5t24.5 -59.5q0 -37 -24.5 -61.5t-61.5 -24.5q-35 0 -59.5 24.5t-24.5 61.5z" />
    <glyph glyph-name="f_f_j" horiz-adv-x="1665" 
d="M1145 1468q154 0 254 -92.5t100 -251.5h-125q0 105 -62 166.5t-167 61.5q-104 0 -167 -64t-63 -170v-211h265l-31 -114h-234v-793h-124v1120q0 158 100.5 253t253.5 95zM66 793l30 114h111v260q0 133 77.5 217t207.5 84q94 0 153 -32l14 -142q-83 58 -167 58
q-79 0 -119.5 -52t-40.5 -135v-258h264l-31 -114h-233v-793h-125v793h-141zM1221 -524q76 149 114.5 293t38.5 333v805h125v-805q0 -330 -129 -591z" />
    <glyph glyph-name="f_j" horiz-adv-x="1081" 
d="M561 1468q154 0 254 -92.5t100 -251.5h-124q0 105 -62.5 166.5t-167.5 61.5q-104 0 -166.5 -64t-62.5 -170v-211h264l-31 -114h-233v-793h-125v793h-141l30 114h111v213q0 158 100.5 253t253.5 95zM637 -524q77 150 115.5 293.5t38.5 332.5v805h124v-805
q0 -330 -129 -591z" />
    <glyph glyph-name="f_f_l.ss01" horiz-adv-x="1765" 
d="M793 1167q0 133 77 217t207 84q95 0 154 -32l14 -142q-83 58 -168 58q-79 0 -119 -52t-40 -135v-258h264l-31 -114h-233v-793h-125v1167zM66 793l30 114h111v260q0 133 77.5 217t207.5 84q94 0 153 -32l14 -142q-83 58 -167 58q-79 0 -119.5 -52t-40.5 -135v-258h264
l-31 -114h-233v-793h-125v793h-141zM1356 256v1194h125v-1161q0 -168 155 -168h109l-45 -121h-72q-62 0 -110.5 17t-78 43t-49 61t-27 68t-7.5 67z" />
    <glyph glyph-name="fl.ss01" horiz-adv-x="1181" 
d="M207 1167q0 133 77.5 217t207.5 84q94 0 153 -32l14 -142q-83 58 -167 58q-79 0 -119.5 -52t-40.5 -135v-258h264l-31 -114h-233v-793h-125v793h-141l30 114h111v260zM772 256v1194h125v-1161q0 -168 156 -168h108l-45 -121h-72q-62 0 -110.5 17t-78 43t-49 61t-27 68
t-7.5 67z" />
    <glyph glyph-name="zero.osf" horiz-adv-x="1167" 
d="M584 -18q-206 0 -342 144t-136 357q0 214 136.5 360t341.5 146t341 -146t136 -360q0 -213 -135.5 -357t-341.5 -144zM240 483q0 -170 99.5 -275.5t244.5 -105.5t244.5 105.5t99.5 275.5q0 171 -99.5 278t-244.5 107t-244.5 -107t-99.5 -278z" />
    <glyph glyph-name="one.osf" horiz-adv-x="686" 
d="M59 713l13 139l334 125h100v-977h-127v831z" />
    <glyph glyph-name="two.osf" horiz-adv-x="931" 
d="M86 0v53l406 371q65 59 94.5 89.5t50 71t20.5 85.5q0 89 -62 143.5t-155 54.5q-90 0 -165 -43.5t-156 -124.5l16 177q142 112 305 112q150 0 248 -89t98 -218q0 -92 -43 -161.5t-149 -164.5l-262 -233h524l-31 -123h-739z" />
    <glyph glyph-name="three.osf" horiz-adv-x="946" 
d="M432 -436q-185 0 -328 114l-14 164q154 -157 338 -157q129 0 207 73.5t78 192.5q0 125 -85.5 203.5t-236.5 78.5h-123v115h142q116 0 195 75.5t79 190.5q0 110 -70.5 183t-189.5 73q-103 0 -182 -44.5t-150 -118.5l19 157q140 127 321 127q164 0 272.5 -103t108.5 -257
q0 -114 -60 -203.5t-153 -132.5q112 -40 178 -127.5t66 -216.5q0 -165 -120.5 -276t-291.5 -111z" />
    <glyph glyph-name="four.osf" horiz-adv-x="1058" 
d="M657 -428v428h-614v53l653 924h86v-862h228l-25 -115h-203v-428h-125zM223 115h434v608z" />
    <glyph glyph-name="five.osf" horiz-adv-x="985" 
d="M479 -440q-212 0 -375 139l-12 184q57 -83 158 -142.5t213 -59.5q146 0 230.5 87t84.5 224q0 136 -83 219.5t-226 83.5q-114 0 -246 -72l-90 45l55 707h664l-31 -123h-520l-39 -487q105 47 221 47q186 0 305 -117t119 -301q0 -190 -123 -312t-305 -122z" />
    <glyph glyph-name="six.osf" horiz-adv-x="1058" 
d="M872 1319q-240 -87 -399 -244t-211 -362q57 55 136.5 85.5t166.5 30.5q173 0 293.5 -119t120.5 -302q0 -189 -123 -308.5t-305 -119.5q-86 0 -164 34t-140 98.5t-99 169t-37 234.5q0 163 53 310.5t143.5 258t202 192t238.5 130.5zM240 530q0 -201 88 -316.5t231 -115.5
q121 0 206 86t85 217q0 134 -85 220t-220 86q-91 0 -170.5 -42t-134.5 -116v-19z" />
    <glyph glyph-name="seven.osf" horiz-adv-x="919" 
d="M137 -418l592 1270h-696l33 125h825v-53l-621 -1342h-133z" />
    <glyph glyph-name="eight.osf" horiz-adv-x="1114" 
d="M559 -18q-195 0 -320.5 106.5t-125.5 267.5q0 118 75 209.5t209 141.5q-247 107 -247 329q0 162 115.5 265.5t289.5 103.5q175 0 292.5 -102.5t117.5 -262.5q0 -112 -67 -196t-187 -135q141 -60 215.5 -145t74.5 -206q0 -163 -124 -269.5t-318 -106.5zM246 358
q0 -110 87 -183t224 -73t224 73t87 183q0 51 -22 95t-52.5 73t-77 54.5t-80.5 39t-77 27.5q-147 -34 -230 -109.5t-83 -179.5zM274 1034q0 -46 16.5 -85t41 -65.5t65 -50.5t75.5 -39t85 -32q135 33 209 102.5t74 171.5q0 108 -78.5 178t-204.5 70t-204.5 -70t-78.5 -180z
" />
    <glyph glyph-name="nine.osf" horiz-adv-x="1038" 
d="M166 -348q246 86 406.5 243t213.5 363q-57 -55 -137 -86t-166 -31q-173 0 -293 119.5t-120 302.5q0 189 123 308.5t305 119.5q86 0 164 -34t140 -98.5t99 -169t37 -234.5q0 -163 -53 -310t-144.5 -258t-205.5 -192.5t-244 -130.5zM199 569q0 -134 85 -219.5t220 -85.5
q91 0 170.5 42t134.5 116v18q0 200 -88.5 316t-231.5 116q-120 0 -205 -86.5t-85 -216.5z" />
    <glyph glyph-name="one.ss03" horiz-adv-x="557" 
d="M346 1397v-1397h-137v1323l125 74h12z" />
    <glyph glyph-name="zero.tf" 
d="M573 -20q-98 0 -182.5 46.5t-148 134.5t-100 225.5t-36.5 309.5q0 173 36 311t100 225.5t148.5 134t182.5 46.5q99 0 183.5 -46.5t148.5 -134t100.5 -225.5t36.5 -311q0 -340 -132.5 -528t-336.5 -188zM246 696q0 -278 89.5 -432.5t237.5 -154.5q145 0 236.5 155
t91.5 432q0 281 -89.5 434.5t-238.5 153.5q-148 0 -237.5 -153.5t-89.5 -434.5z" />
    <glyph glyph-name="one.tf" 
d="M197 0v127h364v1110l-387 -139l12 145l426 152h86v-1268h340v-127h-841z" />
    <glyph glyph-name="two.tf" 
d="M125 55q3 3 113 124t161.5 179.5t135 156.5t131.5 161q147 197 147 344q0 115 -73.5 185.5t-196.5 70.5q-110 0 -205 -56.5t-168 -144.5l25 205q157 133 354 133q189 0 298 -108.5t109 -276.5q0 -75 -26 -152.5t-69.5 -151t-117.5 -166t-152.5 -180t-192.5 -210.5
q-22 -23 -33 -35h641l-29 -133h-852v55z" />
    <glyph glyph-name="three.tf" 
d="M524 -20q-193 0 -352 116l-18 176q174 -163 370 -163q139 0 223 74.5t84 197.5q0 119 -88.5 198.5t-248.5 79.5h-140v125h125q139 0 230.5 73.5t91.5 189.5q0 109 -68.5 173t-191.5 64q-102 0 -194.5 -42.5t-164.5 -111.5l19 170q154 113 350 113q173 0 282 -100
t109 -258q0 -106 -65.5 -194.5t-165.5 -133.5q117 -39 189.5 -132.5t72.5 -213.5q0 -175 -128.5 -288t-320.5 -113z" />
    <glyph glyph-name="four.tf" 
d="M702 0v408h-657v53l709 934h86v-860h247l-26 -127h-221v-408h-138zM252 535h450v587z" />
    <glyph glyph-name="five.tf" 
d="M541 -20q-187 0 -357 137l-20 196q67 -87 166.5 -145.5t214.5 -58.5q136 0 223.5 88.5t87.5 222.5q0 132 -89 217.5t-226 85.5q-131 0 -234 -76l-94 53l55 693h666l-27 -125h-520l-39 -469q101 49 211 49q118 0 217.5 -53t160 -151.5t60.5 -223.5q0 -191 -131.5 -315.5
t-324.5 -124.5z" />
    <glyph glyph-name="six.tf" 
d="M907 1327q-236 -84 -389.5 -240t-206.5 -372q57 54 136 84t165 30q174 0 295 -118.5t121 -302.5q0 -186 -125 -307t-301 -121q-90 0 -170 33t-143 96t-100 163.5t-37 225.5q0 168 52.5 319.5t142.5 265.5t203 197.5t241 132.5zM287 498q0 -175 88.5 -282t226.5 -107
q122 0 204.5 83t82.5 214q0 130 -83 212t-216 82q-91 0 -168.5 -40t-132.5 -113q-2 -16 -2 -49z" />
    <glyph glyph-name="seven.tf" 
d="M244 0l592 1264h-682l22 131h836v-56l-623 -1339h-145z" />
    <glyph glyph-name="eight.tf" 
d="M573 -18q-195 0 -321.5 108t-126.5 270q0 118 72.5 208.5t205.5 140.5q-243 115 -243 335q0 164 116.5 266.5t292.5 102.5q177 0 295.5 -101.5t118.5 -262.5q0 -112 -66 -196.5t-184 -135.5q289 -130 289 -355q0 -165 -126.5 -272.5t-322.5 -107.5zM266 365
q0 -110 85 -183t220 -73t220.5 71.5t85.5 181.5q0 51 -23 95.5t-54 72.5t-79 53.5t-81 37.5t-77 26q-139 -36 -218 -109.5t-79 -172.5zM295 1042q0 -47 17 -85.5t41 -64t67 -49t77 -37t89 -32.5q126 35 194 103t68 167q0 106 -76.5 173t-200.5 67q-125 0 -200.5 -67
t-75.5 -175z" />
    <glyph glyph-name="nine.tf" 
d="M238 63q238 85 393.5 243t206.5 370q-123 -113 -299 -113q-113 0 -209 52t-153.5 149t-57.5 219q0 186 125 307t301 121q90 0 170 -33t143 -96t100 -163.5t37 -225.5q0 -134 -34.5 -259t-94 -225.5t-141 -186t-174.5 -146t-195 -99.5zM258 985q0 -129 81 -212t206 -83
q92 0 175 41t140 115v28q0 187 -88 297.5t-227 110.5q-122 0 -204.5 -83t-82.5 -214z" />
    <glyph glyph-name="one.osf.ss03" horiz-adv-x="485" 
d="M305 977v-977h-127v909l115 68h12z" />
    <glyph glyph-name="one.tf.ss03" 
d="M641 1397v-1397h-137v1323l125 74h12z" />
    <glyph glyph-name="zero.dnom" horiz-adv-x="784" 
d="M391 2q-130 0 -215.5 111.5t-85.5 312.5t85 311.5t216 110.5q132 0 217.5 -110.5t85.5 -311.5q0 -202 -85.5 -313t-217.5 -111zM207 426q0 -149 50 -230t134 -81q85 0 136 81t51 230t-51 229t-136 80q-84 0 -134 -80t-50 -229z" />
    <glyph glyph-name="one.dnom" horiz-adv-x="493" 
d="M233 12v697l-182 -70l10 123l207 78h80v-828h-115z" />
    <glyph glyph-name="two.dnom" horiz-adv-x="675" 
d="M86 12v72l225 244q73 78 110.5 139t37.5 119q0 70 -39.5 109.5t-106.5 39.5q-130 0 -231 -125l24 164q104 74 216 74q114 0 182.5 -70t68.5 -178q0 -85 -44 -166.5t-146 -183.5l-123 -125h338l-16 -113h-496z" />
    <glyph glyph-name="three.dnom" horiz-adv-x="667" 
d="M295 2q-99 0 -191 61l-18 140q40 -40 100 -65t109 -25q75 0 121.5 39t46.5 102q0 67 -43.5 108t-132.5 41h-101v105h90q77 0 116.5 32t39.5 85q0 52 -38 83t-101 31q-114 0 -207 -86l29 142q90 55 186 55q111 0 179.5 -58.5t68.5 -154.5q0 -63 -35 -108.5t-92 -65.5
q68 -12 113 -67.5t45 -137.5q0 -116 -78 -186t-207 -70z" />
    <glyph glyph-name="four.dnom" horiz-adv-x="716" 
d="M412 12v199h-365v57l412 572h67v-523h144l-29 -106h-115v-199h-114zM205 317h207v285z" />
    <glyph glyph-name="five.dnom" horiz-adv-x="659" 
d="M297 2q-102 0 -188 57l-21 152q35 -49 93 -73.5t110 -24.5q83 0 127.5 41.5t44.5 113.5q0 67 -42 107.5t-116 40.5q-67 0 -131 -31l-68 33l29 422h426l-29 -109h-305l-16 -233h2q52 18 111 18q114 0 185 -67.5t71 -176.5q0 -125 -77 -197.5t-206 -72.5z" />
    <glyph glyph-name="six.dnom" horiz-adv-x="698" 
d="M369 2q-121 0 -202 86t-81 244q0 167 91 308.5t251 209.5l72 -86q-229 -96 -283 -309q70 51 162 51q115 0 185.5 -68t70.5 -178q0 -118 -72.5 -188t-193.5 -70zM201 311q0 -86 48 -142t122 -56q67 0 108 40.5t41 108.5q0 62 -42 100.5t-109 38.5q-101 0 -168 -73v-17z
" />
    <glyph glyph-name="seven.dnom" horiz-adv-x="600" 
d="M82 12l336 715h-357l29 113h463v-74l-350 -754h-121z" />
    <glyph glyph-name="eight.dnom" horiz-adv-x="704" 
d="M352 2q-119 0 -192.5 68.5t-73.5 171.5q0 127 145 196q-114 73 -114 193q0 91 68.5 154t166.5 63t167 -62t69 -155q0 -113 -117 -178q69 -33 107 -87.5t38 -125.5q0 -102 -73 -170t-191 -68zM201 240q0 -54 41.5 -89.5t109.5 -35.5q67 0 109.5 36t42.5 89q0 59 -47.5 99
t-130.5 58q-125 -50 -125 -157zM233 625q0 -108 138 -138q100 44 100 138q0 46 -33.5 79t-85.5 33q-53 0 -86 -32.5t-33 -79.5z" />
    <glyph glyph-name="nine.dnom" horiz-adv-x="702" 
d="M135 80q282 103 352 307q-67 -45 -155 -45q-110 0 -186 70.5t-76 179.5q0 113 73.5 184.5t188.5 71.5q121 0 203.5 -86.5t82.5 -243.5q0 -90 -33.5 -175t-90.5 -151.5t-128 -117t-149 -80.5zM184 594q0 -63 45.5 -104t118.5 -41q93 0 160 67q0 100 -48.5 160.5
t-127.5 60.5q-65 0 -106.5 -39.5t-41.5 -103.5z" />
    <glyph glyph-name="zero.numr" horiz-adv-x="784" 
d="M391 555q-130 0 -215.5 111.5t-85.5 312.5t85 311.5t216 110.5q132 0 217.5 -110.5t85.5 -311.5q0 -202 -85.5 -313t-217.5 -111zM207 979q0 -149 50 -230t134 -81q85 0 136 81t51 230t-51 229t-136 80q-84 0 -134 -80t-50 -229z" />
    <glyph glyph-name="one.numr" horiz-adv-x="493" 
d="M231 565v697l-182 -70l10 123l207 78h80v-828h-115z" />
    <glyph glyph-name="two.numr" horiz-adv-x="675" 
d="M86 565v72l225 244q73 78 110.5 139t37.5 119q0 70 -39.5 109.5t-106.5 39.5q-130 0 -231 -125l24 164q104 74 216 74q114 0 182.5 -70t68.5 -178q0 -85 -44 -166.5t-146 -183.5l-123 -125h338l-16 -113h-496z" />
    <glyph glyph-name="three.numr" horiz-adv-x="667" 
d="M295 555q-99 0 -191 61l-18 140q40 -40 100 -65t109 -25q75 0 121.5 39t46.5 102q0 67 -43.5 108t-132.5 41h-101v105h90q77 0 116.5 32t39.5 85q0 52 -38 83t-101 31q-114 0 -207 -86l29 142q90 55 186 55q111 0 179.5 -58.5t68.5 -154.5q0 -63 -35 -108.5t-92 -65.5
q68 -12 113 -67.5t45 -137.5q0 -116 -78 -186t-207 -70z" />
    <glyph glyph-name="four.numr" horiz-adv-x="716" 
d="M410 565v199h-365v57l412 572h67v-523h144l-29 -106h-115v-199h-114zM203 870h207v285z" />
    <glyph glyph-name="five.numr" horiz-adv-x="659" 
d="M297 555q-102 0 -188 57l-21 152q35 -49 93 -73.5t110 -24.5q83 0 127.5 41.5t44.5 113.5q0 67 -42 107.5t-116 40.5q-67 0 -131 -31l-68 33l29 422h426l-29 -109h-305l-16 -233h2q52 18 111 18q114 0 185 -67.5t71 -176.5q0 -125 -77 -197.5t-206 -72.5z" />
    <glyph glyph-name="six.numr" horiz-adv-x="698" 
d="M369 555q-121 0 -202 86t-81 244q0 167 91 308.5t251 209.5l72 -86q-229 -96 -283 -309q70 51 162 51q115 0 185.5 -68t70.5 -178q0 -118 -72.5 -188t-193.5 -70zM201 864q0 -86 48 -142t122 -56q67 0 108 41t41 108q0 62 -42 100.5t-109 38.5q-101 0 -168 -73v-17z" />
    <glyph glyph-name="seven.numr" horiz-adv-x="600" 
d="M82 565l336 715h-357l29 113h463v-74l-350 -754h-121z" />
    <glyph glyph-name="eight.numr" horiz-adv-x="704" 
d="M352 555q-119 0 -192.5 68.5t-73.5 171.5q0 127 145 196q-114 73 -114 193q0 91 68.5 154t166.5 63t167 -62t69 -155q0 -113 -117 -178q69 -33 107 -87.5t38 -125.5q0 -102 -73 -170t-191 -68zM201 793q0 -54 41.5 -89.5t109.5 -35.5q67 0 109.5 36t42.5 89
q0 59 -47.5 99t-130.5 58q-125 -50 -125 -157zM233 1178q0 -108 138 -138q100 44 100 138q0 46 -33.5 79t-85.5 33q-53 0 -86 -32.5t-33 -79.5z" />
    <glyph glyph-name="nine.numr" horiz-adv-x="702" 
d="M135 633q282 103 352 307q-67 -45 -155 -45q-110 0 -186 70.5t-76 179.5q0 113 73.5 184.5t188.5 71.5q121 0 203.5 -86.5t82.5 -243.5q0 -90 -33.5 -175t-90.5 -151.5t-128 -117t-149 -80.5zM184 1147q0 -64 45.5 -105t118.5 -41q92 0 160 68q0 100 -48.5 160.5
t-127.5 60.5q-65 0 -106.5 -39.5t-41.5 -103.5z" />
    <glyph glyph-name="period.alt" horiz-adv-x="473" 
d="M225 -8q-41 0 -70 30.5t-26 71.5q5 40 40 70.5t77 30.5q43 0 71.5 -30.5t22.5 -70.5q-3 -41 -37.5 -71.5t-77.5 -30.5z" />
    <glyph glyph-name="colon.case" horiz-adv-x="561" 
d="M281 262q-46 0 -80.5 34.5t-34.5 78.5q0 43 34.5 76.5t80.5 33.5q44 0 78 -33.5t34 -76.5q0 -44 -34 -78.5t-78 -34.5zM166 1008q0 43 34.5 76.5t80.5 33.5q44 0 78 -33.5t34 -76.5q0 -44 -34 -78.5t-78 -34.5q-46 0 -80.5 34.5t-34.5 78.5z" />
    <glyph glyph-name="periodcentered.case" horiz-adv-x="530" 
d="M266 586q-46 0 -80 34t-34 78q0 43 34.5 77t79.5 34q44 0 78.5 -34t34.5 -77q0 -44 -34.5 -78t-78.5 -34z" />
    <glyph glyph-name="bullet.case" horiz-adv-x="798" 
d="M401 444q-99 0 -164 65t-65 163q0 97 65 161t164 64q97 0 161.5 -64t64.5 -161q0 -98 -64.5 -163t-161.5 -65z" />
    <glyph glyph-name="slash.case" horiz-adv-x="823" 
d="M74 -348l555 1950h123l-557 -1950h-121z" />
    <glyph glyph-name="backslash.case" horiz-adv-x="825" 
d="M752 -334h-121l-557 1950h123z" />
    <glyph glyph-name="hyphen.case" horiz-adv-x="833" 
d="M152 625v114h530v-114h-530z" />
    <glyph glyph-name="uni00AD.case" horiz-adv-x="833" 
d="M152 625v114h530v-114h-530z" />
    <glyph glyph-name="endash.case" horiz-adv-x="1191" 
d="M152 625v114h888v-114h-888z" />
    <glyph glyph-name="emdash.case" horiz-adv-x="2207" 
d="M152 625v114h1904v-114h-1904z" />
    <glyph glyph-name="parenleft.case" horiz-adv-x="622" 
d="M115 618q0 275 92 495t280 425l80 -63q-168 -196 -243.5 -406t-75.5 -451t75.5 -450.5t243.5 -405.5l-80 -63q-188 205 -280 424.5t-92 494.5z" />
    <glyph glyph-name="parenright.case" horiz-adv-x="622" 
d="M508 618q0 -274 -92.5 -494t-280.5 -425l-80 63q168 196 244 405.5t76 450.5t-76 451t-244 406l80 63q188 -205 280.5 -425t92.5 -495z" />
    <glyph glyph-name="braceleft.case" horiz-adv-x="557" 
d="M377 -262q-99 7 -158 57t-59 154q0 78 49 235q39 132 39 201q0 83 -37 144.5t-94 91.5v49q57 30 94 90.5t37 144.5q0 67 -39 199q-49 157 -49 233q0 104 59.5 156.5t157.5 58.5l57 -112q-53 0 -90 -13q-59 -20 -59 -81q0 -47 34 -162q2 -8 12 -39t14 -43t11 -41t10 -49
t6 -49t3 -58q0 -82 -32 -152t-81 -110q49 -40 81 -109.5t32 -148.5q0 -26 -1.5 -50t-5.5 -47.5t-7 -40t-9.5 -40t-10 -34.5t-12 -36.5t-10.5 -32.5q-34 -107 -34 -161q0 -56 59 -80q44 -18 90 -13z" />
    <glyph glyph-name="braceright.case" horiz-adv-x="557" 
d="M180 1548q99 -7 158 -57t59 -154q0 -78 -49 -235q-39 -132 -39 -201q0 -83 37 -144t94 -91v-50q-57 -30 -94 -90.5t-37 -144.5q0 -67 39 -199q49 -157 49 -233q0 -104 -59.5 -156.5t-157.5 -58.5l-57 112q53 0 90 13q59 20 59 82q0 46 -34 161q-2 8 -12 39t-14 43t-11 41
t-10 49t-6 49t-3 58q0 82 32 152t81 110q-49 40 -81 109.5t-32 148.5q0 26 1.5 50t5.5 47.5t7 40t9.5 40t10 34.5t12 36.5t10.5 32.5q34 107 34 161q0 56 -59 80q-44 18 -90 13z" />
    <glyph glyph-name="bracketleft.case" horiz-adv-x="688" 
d="M211 -250v1770h405v-115h-280v-1540h280v-115h-405z" />
    <glyph glyph-name="bracketright.case" horiz-adv-x="688" 
d="M477 -250h-405v115h280v1540h-280v115h405v-1770z" />
    <glyph glyph-name="guillemotleft.case" horiz-adv-x="1040" 
d="M102 657l283 359h145l-282 -359l282 -360h-145zM489 657l283 359h146l-283 -359l283 -360h-146z" />
    <glyph glyph-name="guillemotright.case" horiz-adv-x="1040" 
d="M938 657l-283 -360h-145l283 360l-283 359h145zM123 297l283 360l-283 359h145l283 -359l-283 -360h-145z" />
    <glyph glyph-name="guilsinglleft.case" horiz-adv-x="653" 
d="M102 657l283 359h145l-282 -359l282 -360h-145z" />
    <glyph glyph-name="guilsinglright.case" horiz-adv-x="653" 
d="M551 657l-283 -360h-145l283 360l-283 359h145z" />
    <glyph glyph-name="florin.tf" 
d="M197 -459q-86 0 -146 29l-20 143q67 -45 159 -45q210 0 248 275l113 845h-129l29 119h114l13 88q27 203 124.5 306.5t253.5 103.5q87 0 148 -35v-137q-66 51 -160 51q-99 0 -159.5 -72.5t-77.5 -207.5l-13 -97h215l-26 -119h-205l-111 -839q-28 -210 -124.5 -309
t-245.5 -99z" />
    <glyph glyph-name="at.case" horiz-adv-x="1396" 
d="M731 66q-178 0 -318 81.5t-217 225.5t-77 323q0 129 47.5 244t130 197t197.5 130t245 48q106 0 198.5 -30.5t158.5 -83t113.5 -121.5t70.5 -147t23 -159q0 -164 -80 -265t-191 -101q-60 0 -99 28.5t-50 73.5q-34 -51 -79 -80t-124 -29q-105 0 -179.5 76.5t-74.5 206.5
q0 121 76 200t180 79q121 0 182 -97v82h117v-344q0 -92 55 -92q63 0 109.5 68.5t46.5 193.5q0 87 -32.5 165.5t-90 137t-144 93t-188.5 34.5q-96 0 -185 -35.5t-158.5 -99t-111.5 -161t-42 -212.5q0 -119 39 -218t105.5 -163.5t152.5 -99.5t182 -35q101 0 182 17.5t176 70.5
l-26 -141q-128 -61 -320 -61zM551 682q0 -74 39.5 -122t111.5 -48q49 0 92.5 23t69.5 59v174q-19 35 -63 60.5t-99 25.5q-71 0 -111 -50t-40 -122z" />
    <glyph glyph-name="bar.case" horiz-adv-x="542" 
d="M213 -309v1966h117v-1966h-117z" />
    <glyph glyph-name="brokenbar.case" horiz-adv-x="542" 
d="M213 762v895h117v-895h-117zM213 -309v897h117v-897h-117z" />
    <glyph glyph-name="dagger.case" horiz-adv-x="954" 
d="M477 -80q-36 0 -53.5 52t-17.5 173q0 83 14.5 367.5t19.5 443.5q-41 -4 -94 -11t-85.5 -10t-67.5 -3q-58 0 -96 18t-38 49t38.5 50.5t95.5 19.5q35 0 67.5 -4t83.5 -12t94 -13q-6 91 -14.5 171.5t-13 128t-4.5 98.5q0 164 71 164q70 0 70 -164q0 -52 -4 -99t-12.5 -129
t-14.5 -174q46 5 97 13.5t85.5 13t69.5 4.5q54 0 90.5 -18.5t36.5 -49.5t-36 -48t-91 -17q-37 0 -70 3.5t-87 11t-97 12.5q5 -129 13.5 -311t14 -308.5t5.5 -196.5q0 -122 -17 -173.5t-53 -51.5z" />
    <glyph glyph-name="daggerdbl.case" horiz-adv-x="991" 
d="M496 -80q-72 0 -72 164q0 63 13 179t20 218q-41 -5 -93.5 -13t-85 -11.5t-67.5 -3.5q-57 0 -95 19t-38 50t38 49.5t95 18.5q28 0 56.5 -2t50 -5t64.5 -8.5t75 -9.5q-7 99 -19 195q13 111 19 196q-29 -4 -74.5 -9.5t-65.5 -8t-49 -4.5t-57 -2q-58 0 -95.5 18t-37.5 49
q0 32 38 51t95 19q35 0 68 -4t84.5 -12t93.5 -13q-7 102 -20 218.5t-13 179.5q0 164 72 164q69 0 69 -164q0 -52 -3.5 -99t-12 -129.5t-14.5 -173.5q46 5 96.5 13.5t85 13t69.5 4.5q54 0 90.5 -18.5t36.5 -49.5t-36 -48t-91 -17q-36 0 -68.5 3.5t-86.5 11t-96 12.5
q5 -74 20 -201q-15 -121 -20 -199q42 5 96 12.5t86.5 11t68.5 3.5q55 0 91 -17.5t36 -48.5t-36 -49t-91 -18q-35 0 -69 4t-85.5 12.5t-96.5 13.5q6 -91 14.5 -173.5t12 -129t3.5 -98.5q0 -164 -69 -164z" />
    <glyph glyph-name="uni20BF.tf" 
d="M229 84v1225h164v225h113v-225h104h8v225h113v-240q117 -28 184.5 -108.5t67.5 -198.5q0 -92 -44.5 -162t-113.5 -108q91 -36 149 -112.5t58 -180.5q0 -131 -82 -221t-219 -113v-229h-113v223h-112v-223h-113v223h-164zM367 207h270q122 0 188 59t66 160
q0 102 -65.5 161.5t-188.5 59.5h-270v-440zM367 768h251q105 0 167.5 57t62.5 160q0 93 -65 147t-179 54h-237v-418z" />
    <glyph glyph-name="cent.tf" 
d="M565 0v236q-166 30 -266 160.5t-100 303.5q0 178 101.5 306t264.5 161v226h111v-217q124 -3 229 -72l23 -148q-110 92 -252 99v-707q79 5 152 38t124 91l-26 -160q-112 -85 -250 -90v-227h-111zM328 696q0 -129 65 -219.5t172 -118.5v684q-107 -31 -172 -123.5
t-65 -222.5z" />
    <glyph glyph-name="currency.tf" 
d="M571 332q-108 0 -196 59l-144 -141l-81 82l143 141q-60 89 -60 199q0 109 60 198l-143 144l81 80l144 -142q89 60 196 60q114 0 201 -62l143 144l82 -80l-145 -146q59 -83 59 -196q0 -109 -59 -197l145 -143l-82 -82l-145 143q-86 -61 -199 -61zM348 672q0 -101 61 -162
t162 -61q103 0 165.5 61t62.5 162t-62.5 162t-165.5 61q-101 0 -162 -61t-61 -162z" />
    <glyph glyph-name="dollar.tf" 
d="M526 -160v248q-192 9 -352 127l-27 168q76 -67 180.5 -113.5t198.5 -52.5v473q-62 25 -103 44t-91.5 50.5t-79.5 63t-49.5 76.5t-20.5 98q0 133 91.5 218.5t252.5 100.5v218h113v-213q156 -8 283 -86l14 -164q-136 101 -297 112v-428q66 -28 106.5 -47t94.5 -52
t84.5 -65.5t52.5 -80t22 -101.5q0 -145 -99 -235.5t-261 -108.5v-250h-113zM315 1022q0 -63 54 -107.5t157 -89.5v381q-101 -12 -156 -60t-55 -124zM639 221q225 27 225 207q0 72 -58 120.5t-167 94.5v-422z" />
    <glyph glyph-name="Euro.tf" 
d="M752 -20q-201 0 -346.5 136t-190.5 376h-158l29 118h115q-4 58 -4 88q0 51 2 76h-142l29 119h127q45 241 191.5 380.5t347.5 139.5q162 0 280 -70l31 -165q-74 58 -146 82t-163 24q-149 0 -255.5 -103t-144.5 -288h496l-29 -119h-483q-2 -25 -2 -76q0 -30 4 -88h442
l-28 -118h-400q37 -188 143 -285.5t259 -97.5q189 0 307 124l-29 -170q-39 -32 -116.5 -57.5t-165.5 -25.5z" />
    <glyph glyph-name="uni20BA.tf" 
d="M281 0v440l-185 -94v117l185 96v238l-185 -95v117l185 96v478h137v-406l264 137v-120l-264 -136v-237l264 137v-121l-264 -135v-387h231q157 0 246.5 90t89.5 283l125 -58q0 -203 -127.5 -321.5t-333.5 -118.5h-368z" />
    <glyph glyph-name="uni20BD.tf" 
d="M70 584l32 129h193v680h373q188 0 310 -115t122 -289q0 -178 -121.5 -291.5t-310.5 -113.5h-236v-201h383l-31 -129h-352v-254h-137v254h-223l30 129h193v201h-225zM432 713h234q132 0 212 75t80 201q0 124 -79.5 199.5t-210.5 75.5h-236v-551z" />
    <glyph glyph-name="uni20B9.tf" 
d="M735 0l-555 612v78h88q136 0 221.5 58.5t104.5 166.5h-418l31 119h387q-20 111 -103.5 169.5t-211.5 58.5h-109l35 131h827l-35 -131h-397q110 -85 129 -228h295l-31 -119h-264q-20 -135 -112.5 -219.5t-227.5 -103.5l526 -592h-180z" />
    <glyph glyph-name="sterling.tf" 
d="M184 555l31 119h121l20 139q31 213 60 306q74 236 249 282q45 12 97 12q98 0 168 -33l24 -147q-82 51 -178 51q-40 0 -73.5 -9t-59.5 -30t-45.5 -44t-35.5 -62t-26.5 -72t-20.5 -86.5t-16 -92t-14 -102.5l-14 -112h342l-31 -119h-327q-21 -140 -52.5 -245t-85.5 -185h691
l-29 -125h-836v55q72 92 107.5 194.5t68.5 305.5h-135z" />
    <glyph glyph-name="yen.tf" 
d="M199 582l28 118h246l-426 693h162l369 -615l370 615h154l-426 -693h274l-28 -118h-279v-150h305l-28 -119h-277v-313h-137v313h-307l26 119h281v150h-307z" />
    <glyph glyph-name="percent.osf" horiz-adv-x="1470" 
d="M264 0l823 1120h134l-824 -1120h-133zM78 850q0 89 42.5 156t103.5 98t126 31q47 0 95 -18.5t88.5 -53t66 -90.5t25.5 -123t-25.5 -121.5t-66 -88t-88 -51.5t-95.5 -18q-104 0 -188 74.5t-84 204.5zM186 850q0 -82 51 -126t113 -44q65 0 117.5 44t52.5 126
q0 84 -52.5 128t-117.5 44q-62 0 -113 -44.5t-51 -127.5zM846 266q0 130 84 206.5t188 76.5q47 0 95 -18.5t88.5 -52.5t66 -89.5t25.5 -122.5q0 -88 -44 -153.5t-105 -95t-126 -29.5q-48 0 -95.5 18t-87.5 51t-64.5 87.5t-24.5 121.5zM954 266q0 -82 51 -127t113 -45
q65 0 117.5 45t52.5 127t-52.5 127t-117.5 45q-62 0 -113 -45t-51 -127z" />
    <glyph glyph-name="perthousand.osf" horiz-adv-x="2099" 
d="M254 0l833 1120h134l-824 -1120h-143zM78 850q0 89 42.5 156t103.5 98t126 31q47 0 95 -18.5t88.5 -53t66 -90.5t25.5 -123t-25.5 -121.5t-66 -88t-88 -51.5t-95.5 -18q-104 0 -188 74.5t-84 204.5zM186 850q0 -82 51 -126t113 -44q65 0 117.5 44t52.5 126
q0 84 -52.5 128t-117.5 44q-62 0 -113 -44.5t-51 -127.5zM846 266q0 130 84 206.5t188 76.5q47 0 95 -18.5t88.5 -52.5t66 -89.5t25.5 -122.5q0 -88 -44 -153.5t-105 -95t-126 -29.5q-48 0 -95.5 18t-87.5 51t-64.5 87.5t-24.5 121.5zM954 266q0 -82 51 -127t113 -45
q65 0 117.5 45t52.5 127t-52.5 127t-117.5 45q-62 0 -113 -45t-51 -127zM1487 266q0 130 84 206.5t188 76.5q47 0 95 -18.5t88.5 -52.5t66 -89.5t25.5 -122.5q0 -88 -44 -153.5t-105 -95t-126 -29.5q-48 0 -95.5 18t-87.5 51t-64.5 87.5t-24.5 121.5zM1595 266
q0 -82 51 -127t113 -45q65 0 117.5 45t52.5 127t-52.5 127t-117.5 45q-62 0 -113 -45t-51 -127z" />
    <glyph glyph-name="caron.alt" horiz-adv-x="1128" 
d="M500 1022l-213 332h94l180 -232l178 232h95l-213 -332h-121z" />
    <glyph glyph-name="caron.slovak" horiz-adv-x="0" 
d="M-80 1118l80 332h139l-143 -332h-76z" />
    </font>
</defs>
</svg>
