<svg xmlns="http://www.w3.org/2000/svg" width="24" height="11" viewBox="0 0 24 11" fill="none"><path d="M0.576351 4.94214H22.0426L18.4091 1.45263C18.1833 1.23566 18.182 0.883114 18.406 0.664597C18.5185 0.554664 18.6668 0.5 18.8147 0.5C18.9615 0.5 19.1081 0.5543 19.2207 0.661937L23.8298 5.08831C24.0556 5.30527 24.0568 5.65782 23.8329 5.87634L19.2574 10.3352C19.0335 10.554 18.6686 10.5548 18.4427 10.3382C18.2169 10.1216 18.2153 9.76873 18.4396 9.55021L22.0238 6.05729H0.576137C0.257687 6.05729 0 5.80767 0 5.50001C0.000125022 5.19234 0.257812 4.94235 0.576266 4.94235L0.576351 4.94214Z" fill="#251E86"></path></svg>