<svg width="44" height="43" viewBox="0 0 44 43" fill="none" xmlns="http://www.w3.org/2000/svg">
<path d="M22.4374 0.0001075C16.7353 0.0001075 11.2668 2.26531 7.23448 6.29708C3.20252 10.329 0.9375 15.7979 0.9375 21.5001C0.9375 27.2022 3.2027 32.6707 7.23448 36.703C11.2664 40.735 16.7353 43 22.4374 43C26.2114 43 29.9191 42.0066 33.1874 40.1196C36.4558 38.2325 39.1698 35.5183 41.0571 32.2499C42.9441 28.9815 43.9375 25.2739 43.9375 21.4999C43.9375 15.7978 41.6723 10.3293 37.6405 6.29698C33.6086 2.26502 28.1397 0 22.4376 0L22.4374 0.0001075ZM33.1874 21.5431C33.1947 22.0104 33.0116 22.4606 32.68 22.7901L25.6022 29.8464C25.1651 30.2841 24.5277 30.4555 23.93 30.296C23.3323 30.1364 22.8652 29.67 22.7045 29.0726C22.544 28.4752 22.7142 27.8374 23.1513 27.3996L27.2965 23.2501H13.4075C12.7931 23.2501 12.2252 22.9223 11.918 22.3901C11.6107 21.8579 11.6107 21.2023 11.918 20.6701C12.2252 20.1379 12.7931 19.8101 13.4075 19.8101H27.3352L23.1513 15.6262H23.1515C22.7136 15.1885 22.5426 14.5503 22.7028 13.9523C22.8631 13.3542 23.3302 12.887 23.9283 12.7267C24.5264 12.5665 25.1645 12.7375 25.6024 13.1753L32.6802 20.2316C33.0063 20.5558 33.1891 20.9971 33.1876 21.4571L33.1874 21.5431Z" fill="#F1EFEF"/>
</svg>
